<svg width="378" height="20" viewBox="0 0 378 20" fill="none" xmlns="http://www.w3.org/2000/svg">
<mask id="path-1-outside-1_176_40" maskUnits="userSpaceOnUse" x="-0.129395" y="-0.863998" width="378" height="21" fill="black">
<rect fill="white" x="-0.129395" y="-0.863998" width="378" height="21"/>
<path d="M1.53461 18.136L8.95061 1.336H13.6306L21.0706 18.136H16.1266L10.3186 3.664H12.1906L6.38261 18.136H1.53461ZM5.59061 14.872L6.81461 11.368H15.0226L16.2466 14.872H5.59061ZM25.15 18.136V5.104H19.99V1.336H35.038V5.104H29.902V18.136H25.15ZM36.8084 18.136V1.336H41.5604V18.136H36.8084ZM44.9412 18.136V1.336H48.8532L58.1172 12.52H56.2692V1.336H60.9252V18.136H57.0132L47.7492 6.952H49.5972V18.136H44.9412ZM68.6452 7.84H76.4452V11.392H68.6452V7.84ZM68.9812 14.464H77.7652V18.136H64.2772V1.336H77.4532V5.008H68.9812V14.464ZM86.3062 18.472C84.9302 18.472 83.6022 18.304 82.3222 17.968C81.0582 17.616 80.0262 17.168 79.2262 16.624L80.7862 13.12C81.5382 13.6 82.4022 14 83.3782 14.32C84.3702 14.624 85.3542 14.776 86.3302 14.776C86.9862 14.776 87.5142 14.72 87.9142 14.608C88.3142 14.48 88.6022 14.32 88.7782 14.128C88.9702 13.92 89.0662 13.68 89.0662 13.408C89.0662 13.024 88.8902 12.72 88.5382 12.496C88.1862 12.272 87.7302 12.088 87.1702 11.944C86.6102 11.8 85.9862 11.656 85.2982 11.512C84.6262 11.368 83.9462 11.184 83.2582 10.96C82.5862 10.736 81.9702 10.448 81.4102 10.096C80.8502 9.728 80.3942 9.256 80.0422 8.68C79.6902 8.088 79.5142 7.344 79.5142 6.448C79.5142 5.44 79.7862 4.528 80.3302 3.712C80.8902 2.896 81.7222 2.24 82.8262 1.744C83.9302 1.248 85.3062 1 86.9542 1C88.0582 1 89.1382 1.128 90.1942 1.384C91.2662 1.624 92.2182 1.984 93.0502 2.464L91.5862 5.992C90.7862 5.56 89.9942 5.24 89.2102 5.032C88.4262 4.808 87.6662 4.696 86.9302 4.696C86.2742 4.696 85.7462 4.768 85.3462 4.912C84.9462 5.04 84.6582 5.216 84.4822 5.44C84.3062 5.664 84.2182 5.92 84.2182 6.208C84.2182 6.576 84.3862 6.872 84.7222 7.096C85.0742 7.304 85.5302 7.48 86.0902 7.624C86.6662 7.752 87.2902 7.888 87.9622 8.032C88.6502 8.176 89.3302 8.36 90.0022 8.584C90.6902 8.792 91.3142 9.08 91.8742 9.448C92.4342 9.8 92.8822 10.272 93.2182 10.864C93.5702 11.44 93.7462 12.168 93.7462 13.048C93.7462 14.024 93.4662 14.928 92.9062 15.76C92.3622 16.576 91.5382 17.232 90.4342 17.728C89.3462 18.224 87.9702 18.472 86.3062 18.472ZM100.093 18.136L94.6452 1.336H99.5412L104.125 15.88H101.653L106.477 1.336H110.845L115.405 15.88H113.029L117.757 1.336H122.293L116.845 18.136H111.757L107.869 5.776H109.237L105.181 18.136H100.093ZM132.257 18.472C130.913 18.472 129.673 18.256 128.537 17.824C127.401 17.392 126.409 16.784 125.561 16C124.729 15.2 124.081 14.272 123.617 13.216C123.153 12.16 122.921 11 122.921 9.736C122.921 8.472 123.153 7.312 123.617 6.256C124.081 5.2 124.729 4.28 125.561 3.496C126.409 2.696 127.401 2.08 128.537 1.648C129.673 1.216 130.913 1 132.257 1C133.617 1 134.857 1.216 135.977 1.648C137.113 2.08 138.097 2.696 138.929 3.496C139.761 4.28 140.409 5.2 140.873 6.256C141.353 7.312 141.593 8.472 141.593 9.736C141.593 11 141.353 12.168 140.873 13.24C140.409 14.296 139.761 15.216 138.929 16C138.097 16.784 137.113 17.392 135.977 17.824C134.857 18.256 133.617 18.472 132.257 18.472ZM132.257 14.536C132.897 14.536 133.489 14.424 134.033 14.2C134.593 13.976 135.073 13.656 135.473 13.24C135.889 12.808 136.209 12.296 136.433 11.704C136.673 11.112 136.793 10.456 136.793 9.736C136.793 9 136.673 8.344 136.433 7.768C136.209 7.176 135.889 6.672 135.473 6.256C135.073 5.824 134.593 5.496 134.033 5.272C133.489 5.048 132.897 4.936 132.257 4.936C131.617 4.936 131.017 5.048 130.457 5.272C129.913 5.496 129.433 5.824 129.017 6.256C128.617 6.672 128.297 7.176 128.057 7.768C127.833 8.344 127.721 9 127.721 9.736C127.721 10.456 127.833 11.112 128.057 11.704C128.297 12.296 128.617 12.808 129.017 13.24C129.433 13.656 129.913 13.976 130.457 14.2C131.017 14.424 131.617 14.536 132.257 14.536ZM144.082 18.136V1.336H151.762C153.298 1.336 154.618 1.584 155.722 2.08C156.842 2.576 157.706 3.296 158.314 4.24C158.922 5.168 159.226 6.272 159.226 7.552C159.226 8.816 158.922 9.912 158.314 10.84C157.706 11.752 156.842 12.456 155.722 12.952C154.618 13.432 153.298 13.672 151.762 13.672H146.722L148.834 11.68V18.136H144.082ZM154.474 18.136L150.298 12.016H155.362L159.562 18.136H154.474ZM148.834 12.184L146.722 10H151.474C152.466 10 153.202 9.784 153.682 9.352C154.178 8.92 154.426 8.32 154.426 7.552C154.426 6.768 154.178 6.16 153.682 5.728C153.202 5.296 152.466 5.08 151.474 5.08H146.722L148.834 2.896V12.184ZM161.847 18.136V1.336H166.599V14.368H174.615V18.136H161.847ZM176.496 18.136V1.336H184.44C186.296 1.336 187.928 1.68 189.336 2.368C190.744 3.056 191.84 4.024 192.624 5.272C193.424 6.52 193.824 8.008 193.824 9.736C193.824 11.448 193.424 12.936 192.624 14.2C191.84 15.448 190.744 16.416 189.336 17.104C187.928 17.792 186.296 18.136 184.44 18.136H176.496ZM181.248 14.344H184.248C185.208 14.344 186.04 14.168 186.744 13.816C187.464 13.448 188.024 12.92 188.424 12.232C188.824 11.528 189.024 10.696 189.024 9.736C189.024 8.76 188.824 7.928 188.424 7.24C188.024 6.552 187.464 6.032 186.744 5.68C186.04 5.312 185.208 5.128 184.248 5.128H181.248V14.344Z"/>
<path d="M207.676 7.84H215.476V11.392H207.676V7.84ZM208.012 14.464H216.796V18.136H203.308V1.336H216.484V5.008H208.012V14.464ZM219.433 18.136V1.336H223.345L232.609 12.52H230.761V1.336H235.417V18.136H231.505L222.241 6.952H224.089V18.136H219.433ZM242.345 18.136V5.104H237.185V1.336H252.233V5.104H247.097V18.136H242.345ZM258.372 7.84H266.172V11.392H258.372V7.84ZM258.708 14.464H267.492V18.136H254.004V1.336H267.18V5.008H258.708V14.464ZM270.129 18.136V1.336H277.809C279.345 1.336 280.665 1.584 281.769 2.08C282.889 2.576 283.753 3.296 284.361 4.24C284.969 5.168 285.273 6.272 285.273 7.552C285.273 8.816 284.969 9.912 284.361 10.84C283.753 11.752 282.889 12.456 281.769 12.952C280.665 13.432 279.345 13.672 277.809 13.672H272.769L274.881 11.68V18.136H270.129ZM280.521 18.136L276.345 12.016H281.409L285.609 18.136H280.521ZM274.881 12.184L272.769 10H277.521C278.513 10 279.249 9.784 279.729 9.352C280.225 8.92 280.473 8.32 280.473 7.552C280.473 6.768 280.225 6.16 279.729 5.728C279.249 5.296 278.513 5.08 277.521 5.08H272.769L274.881 2.896V12.184ZM287.894 18.136V1.336H295.574C297.11 1.336 298.43 1.584 299.534 2.08C300.654 2.576 301.518 3.296 302.126 4.24C302.734 5.168 303.038 6.272 303.038 7.552C303.038 8.816 302.734 9.912 302.126 10.84C301.518 11.768 300.654 12.488 299.534 13C298.43 13.496 297.11 13.744 295.574 13.744H290.534L292.646 11.68V18.136H287.894ZM292.646 12.184L290.534 10H295.286C296.278 10 297.014 9.784 297.494 9.352C297.99 8.92 298.238 8.32 298.238 7.552C298.238 6.768 297.99 6.16 297.494 5.728C297.014 5.296 296.278 5.08 295.286 5.08H290.534L292.646 2.896V12.184ZM305.355 18.136V1.336H313.035C314.571 1.336 315.891 1.584 316.995 2.08C318.115 2.576 318.979 3.296 319.587 4.24C320.195 5.168 320.499 6.272 320.499 7.552C320.499 8.816 320.195 9.912 319.587 10.84C318.979 11.752 318.115 12.456 316.995 12.952C315.891 13.432 314.571 13.672 313.035 13.672H307.995L310.107 11.68V18.136H305.355ZM315.747 18.136L311.571 12.016H316.635L320.835 18.136H315.747ZM310.107 12.184L307.995 10H312.747C313.739 10 314.475 9.784 314.955 9.352C315.451 8.92 315.699 8.32 315.699 7.552C315.699 6.768 315.451 6.16 314.955 5.728C314.475 5.296 313.739 5.08 312.747 5.08H307.995L310.107 2.896V12.184ZM323.121 18.136V1.336H327.873V18.136H323.121ZM337.158 18.472C335.782 18.472 334.454 18.304 333.174 17.968C331.91 17.616 330.878 17.168 330.078 16.624L331.638 13.12C332.39 13.6 333.254 14 334.23 14.32C335.222 14.624 336.206 14.776 337.182 14.776C337.838 14.776 338.366 14.72 338.766 14.608C339.166 14.48 339.454 14.32 339.63 14.128C339.822 13.92 339.918 13.68 339.918 13.408C339.918 13.024 339.742 12.72 339.39 12.496C339.038 12.272 338.582 12.088 338.022 11.944C337.462 11.8 336.838 11.656 336.15 11.512C335.478 11.368 334.798 11.184 334.11 10.96C333.438 10.736 332.822 10.448 332.262 10.096C331.702 9.728 331.246 9.256 330.894 8.68C330.542 8.088 330.366 7.344 330.366 6.448C330.366 5.44 330.638 4.528 331.182 3.712C331.742 2.896 332.574 2.24 333.678 1.744C334.782 1.248 336.158 1 337.806 1C338.91 1 339.99 1.128 341.046 1.384C342.118 1.624 343.07 1.984 343.902 2.464L342.438 5.992C341.638 5.56 340.846 5.24 340.062 5.032C339.278 4.808 338.518 4.696 337.782 4.696C337.126 4.696 336.598 4.768 336.198 4.912C335.798 5.04 335.51 5.216 335.334 5.44C335.158 5.664 335.07 5.92 335.07 6.208C335.07 6.576 335.238 6.872 335.574 7.096C335.926 7.304 336.382 7.48 336.942 7.624C337.518 7.752 338.142 7.888 338.814 8.032C339.502 8.176 340.182 8.36 340.854 8.584C341.542 8.792 342.166 9.08 342.726 9.448C343.286 9.8 343.734 10.272 344.07 10.864C344.422 11.44 344.598 12.168 344.598 13.048C344.598 14.024 344.318 14.928 343.758 15.76C343.214 16.576 342.39 17.232 341.286 17.728C340.198 18.224 338.822 18.472 337.158 18.472ZM351.161 7.84H358.961V11.392H351.161V7.84ZM351.497 14.464H360.281V18.136H346.793V1.336H359.969V5.008H351.497V14.464ZM368.822 18.472C367.446 18.472 366.118 18.304 364.838 17.968C363.574 17.616 362.542 17.168 361.742 16.624L363.302 13.12C364.054 13.6 364.918 14 365.894 14.32C366.886 14.624 367.87 14.776 368.846 14.776C369.502 14.776 370.03 14.72 370.43 14.608C370.83 14.48 371.118 14.32 371.294 14.128C371.486 13.92 371.582 13.68 371.582 13.408C371.582 13.024 371.406 12.72 371.054 12.496C370.702 12.272 370.246 12.088 369.686 11.944C369.126 11.8 368.502 11.656 367.814 11.512C367.142 11.368 366.462 11.184 365.774 10.96C365.102 10.736 364.486 10.448 363.926 10.096C363.366 9.728 362.91 9.256 362.558 8.68C362.206 8.088 362.03 7.344 362.03 6.448C362.03 5.44 362.302 4.528 362.846 3.712C363.406 2.896 364.238 2.24 365.342 1.744C366.446 1.248 367.822 1 369.47 1C370.574 1 371.654 1.128 372.71 1.384C373.782 1.624 374.734 1.984 375.566 2.464L374.102 5.992C373.302 5.56 372.51 5.24 371.726 5.032C370.942 4.808 370.182 4.696 369.446 4.696C368.79 4.696 368.262 4.768 367.862 4.912C367.462 5.04 367.174 5.216 366.998 5.44C366.822 5.664 366.734 5.92 366.734 6.208C366.734 6.576 366.902 6.872 367.238 7.096C367.59 7.304 368.046 7.48 368.606 7.624C369.182 7.752 369.806 7.888 370.478 8.032C371.166 8.176 371.846 8.36 372.518 8.584C373.206 8.792 373.83 9.08 374.39 9.448C374.95 9.8 375.398 10.272 375.734 10.864C376.086 11.44 376.262 12.168 376.262 13.048C376.262 14.024 375.982 14.928 375.422 15.76C374.878 16.576 374.054 17.232 372.95 17.728C371.862 18.224 370.486 18.472 368.822 18.472Z"/>
</mask>
<path d="M1.53461 18.136L8.95061 1.336H13.6306L21.0706 18.136H16.1266L10.3186 3.664H12.1906L6.38261 18.136H1.53461ZM5.59061 14.872L6.81461 11.368H15.0226L16.2466 14.872H5.59061ZM25.15 18.136V5.104H19.99V1.336H35.038V5.104H29.902V18.136H25.15ZM36.8084 18.136V1.336H41.5604V18.136H36.8084ZM44.9412 18.136V1.336H48.8532L58.1172 12.52H56.2692V1.336H60.9252V18.136H57.0132L47.7492 6.952H49.5972V18.136H44.9412ZM68.6452 7.84H76.4452V11.392H68.6452V7.84ZM68.9812 14.464H77.7652V18.136H64.2772V1.336H77.4532V5.008H68.9812V14.464ZM86.3062 18.472C84.9302 18.472 83.6022 18.304 82.3222 17.968C81.0582 17.616 80.0262 17.168 79.2262 16.624L80.7862 13.12C81.5382 13.6 82.4022 14 83.3782 14.32C84.3702 14.624 85.3542 14.776 86.3302 14.776C86.9862 14.776 87.5142 14.72 87.9142 14.608C88.3142 14.48 88.6022 14.32 88.7782 14.128C88.9702 13.92 89.0662 13.68 89.0662 13.408C89.0662 13.024 88.8902 12.72 88.5382 12.496C88.1862 12.272 87.7302 12.088 87.1702 11.944C86.6102 11.8 85.9862 11.656 85.2982 11.512C84.6262 11.368 83.9462 11.184 83.2582 10.96C82.5862 10.736 81.9702 10.448 81.4102 10.096C80.8502 9.728 80.3942 9.256 80.0422 8.68C79.6902 8.088 79.5142 7.344 79.5142 6.448C79.5142 5.44 79.7862 4.528 80.3302 3.712C80.8902 2.896 81.7222 2.24 82.8262 1.744C83.9302 1.248 85.3062 1 86.9542 1C88.0582 1 89.1382 1.128 90.1942 1.384C91.2662 1.624 92.2182 1.984 93.0502 2.464L91.5862 5.992C90.7862 5.56 89.9942 5.24 89.2102 5.032C88.4262 4.808 87.6662 4.696 86.9302 4.696C86.2742 4.696 85.7462 4.768 85.3462 4.912C84.9462 5.04 84.6582 5.216 84.4822 5.44C84.3062 5.664 84.2182 5.92 84.2182 6.208C84.2182 6.576 84.3862 6.872 84.7222 7.096C85.0742 7.304 85.5302 7.48 86.0902 7.624C86.6662 7.752 87.2902 7.888 87.9622 8.032C88.6502 8.176 89.3302 8.36 90.0022 8.584C90.6902 8.792 91.3142 9.08 91.8742 9.448C92.4342 9.8 92.8822 10.272 93.2182 10.864C93.5702 11.44 93.7462 12.168 93.7462 13.048C93.7462 14.024 93.4662 14.928 92.9062 15.76C92.3622 16.576 91.5382 17.232 90.4342 17.728C89.3462 18.224 87.9702 18.472 86.3062 18.472ZM100.093 18.136L94.6452 1.336H99.5412L104.125 15.88H101.653L106.477 1.336H110.845L115.405 15.88H113.029L117.757 1.336H122.293L116.845 18.136H111.757L107.869 5.776H109.237L105.181 18.136H100.093ZM132.257 18.472C130.913 18.472 129.673 18.256 128.537 17.824C127.401 17.392 126.409 16.784 125.561 16C124.729 15.2 124.081 14.272 123.617 13.216C123.153 12.16 122.921 11 122.921 9.736C122.921 8.472 123.153 7.312 123.617 6.256C124.081 5.2 124.729 4.28 125.561 3.496C126.409 2.696 127.401 2.08 128.537 1.648C129.673 1.216 130.913 1 132.257 1C133.617 1 134.857 1.216 135.977 1.648C137.113 2.08 138.097 2.696 138.929 3.496C139.761 4.28 140.409 5.2 140.873 6.256C141.353 7.312 141.593 8.472 141.593 9.736C141.593 11 141.353 12.168 140.873 13.24C140.409 14.296 139.761 15.216 138.929 16C138.097 16.784 137.113 17.392 135.977 17.824C134.857 18.256 133.617 18.472 132.257 18.472ZM132.257 14.536C132.897 14.536 133.489 14.424 134.033 14.2C134.593 13.976 135.073 13.656 135.473 13.24C135.889 12.808 136.209 12.296 136.433 11.704C136.673 11.112 136.793 10.456 136.793 9.736C136.793 9 136.673 8.344 136.433 7.768C136.209 7.176 135.889 6.672 135.473 6.256C135.073 5.824 134.593 5.496 134.033 5.272C133.489 5.048 132.897 4.936 132.257 4.936C131.617 4.936 131.017 5.048 130.457 5.272C129.913 5.496 129.433 5.824 129.017 6.256C128.617 6.672 128.297 7.176 128.057 7.768C127.833 8.344 127.721 9 127.721 9.736C127.721 10.456 127.833 11.112 128.057 11.704C128.297 12.296 128.617 12.808 129.017 13.24C129.433 13.656 129.913 13.976 130.457 14.2C131.017 14.424 131.617 14.536 132.257 14.536ZM144.082 18.136V1.336H151.762C153.298 1.336 154.618 1.584 155.722 2.08C156.842 2.576 157.706 3.296 158.314 4.24C158.922 5.168 159.226 6.272 159.226 7.552C159.226 8.816 158.922 9.912 158.314 10.84C157.706 11.752 156.842 12.456 155.722 12.952C154.618 13.432 153.298 13.672 151.762 13.672H146.722L148.834 11.68V18.136H144.082ZM154.474 18.136L150.298 12.016H155.362L159.562 18.136H154.474ZM148.834 12.184L146.722 10H151.474C152.466 10 153.202 9.784 153.682 9.352C154.178 8.92 154.426 8.32 154.426 7.552C154.426 6.768 154.178 6.16 153.682 5.728C153.202 5.296 152.466 5.08 151.474 5.08H146.722L148.834 2.896V12.184ZM161.847 18.136V1.336H166.599V14.368H174.615V18.136H161.847ZM176.496 18.136V1.336H184.44C186.296 1.336 187.928 1.68 189.336 2.368C190.744 3.056 191.84 4.024 192.624 5.272C193.424 6.52 193.824 8.008 193.824 9.736C193.824 11.448 193.424 12.936 192.624 14.2C191.84 15.448 190.744 16.416 189.336 17.104C187.928 17.792 186.296 18.136 184.44 18.136H176.496ZM181.248 14.344H184.248C185.208 14.344 186.04 14.168 186.744 13.816C187.464 13.448 188.024 12.92 188.424 12.232C188.824 11.528 189.024 10.696 189.024 9.736C189.024 8.76 188.824 7.928 188.424 7.24C188.024 6.552 187.464 6.032 186.744 5.68C186.04 5.312 185.208 5.128 184.248 5.128H181.248V14.344Z" fill="url(#paint0_linear_176_40)"/>
<path d="M207.676 7.84H215.476V11.392H207.676V7.84ZM208.012 14.464H216.796V18.136H203.308V1.336H216.484V5.008H208.012V14.464ZM219.433 18.136V1.336H223.345L232.609 12.52H230.761V1.336H235.417V18.136H231.505L222.241 6.952H224.089V18.136H219.433ZM242.345 18.136V5.104H237.185V1.336H252.233V5.104H247.097V18.136H242.345ZM258.372 7.84H266.172V11.392H258.372V7.84ZM258.708 14.464H267.492V18.136H254.004V1.336H267.18V5.008H258.708V14.464ZM270.129 18.136V1.336H277.809C279.345 1.336 280.665 1.584 281.769 2.08C282.889 2.576 283.753 3.296 284.361 4.24C284.969 5.168 285.273 6.272 285.273 7.552C285.273 8.816 284.969 9.912 284.361 10.84C283.753 11.752 282.889 12.456 281.769 12.952C280.665 13.432 279.345 13.672 277.809 13.672H272.769L274.881 11.68V18.136H270.129ZM280.521 18.136L276.345 12.016H281.409L285.609 18.136H280.521ZM274.881 12.184L272.769 10H277.521C278.513 10 279.249 9.784 279.729 9.352C280.225 8.92 280.473 8.32 280.473 7.552C280.473 6.768 280.225 6.16 279.729 5.728C279.249 5.296 278.513 5.08 277.521 5.08H272.769L274.881 2.896V12.184ZM287.894 18.136V1.336H295.574C297.11 1.336 298.43 1.584 299.534 2.08C300.654 2.576 301.518 3.296 302.126 4.24C302.734 5.168 303.038 6.272 303.038 7.552C303.038 8.816 302.734 9.912 302.126 10.84C301.518 11.768 300.654 12.488 299.534 13C298.43 13.496 297.11 13.744 295.574 13.744H290.534L292.646 11.68V18.136H287.894ZM292.646 12.184L290.534 10H295.286C296.278 10 297.014 9.784 297.494 9.352C297.99 8.92 298.238 8.32 298.238 7.552C298.238 6.768 297.99 6.16 297.494 5.728C297.014 5.296 296.278 5.08 295.286 5.08H290.534L292.646 2.896V12.184ZM305.355 18.136V1.336H313.035C314.571 1.336 315.891 1.584 316.995 2.08C318.115 2.576 318.979 3.296 319.587 4.24C320.195 5.168 320.499 6.272 320.499 7.552C320.499 8.816 320.195 9.912 319.587 10.84C318.979 11.752 318.115 12.456 316.995 12.952C315.891 13.432 314.571 13.672 313.035 13.672H307.995L310.107 11.68V18.136H305.355ZM315.747 18.136L311.571 12.016H316.635L320.835 18.136H315.747ZM310.107 12.184L307.995 10H312.747C313.739 10 314.475 9.784 314.955 9.352C315.451 8.92 315.699 8.32 315.699 7.552C315.699 6.768 315.451 6.16 314.955 5.728C314.475 5.296 313.739 5.08 312.747 5.08H307.995L310.107 2.896V12.184ZM323.121 18.136V1.336H327.873V18.136H323.121ZM337.158 18.472C335.782 18.472 334.454 18.304 333.174 17.968C331.91 17.616 330.878 17.168 330.078 16.624L331.638 13.12C332.39 13.6 333.254 14 334.23 14.32C335.222 14.624 336.206 14.776 337.182 14.776C337.838 14.776 338.366 14.72 338.766 14.608C339.166 14.48 339.454 14.32 339.63 14.128C339.822 13.92 339.918 13.68 339.918 13.408C339.918 13.024 339.742 12.72 339.39 12.496C339.038 12.272 338.582 12.088 338.022 11.944C337.462 11.8 336.838 11.656 336.15 11.512C335.478 11.368 334.798 11.184 334.11 10.96C333.438 10.736 332.822 10.448 332.262 10.096C331.702 9.728 331.246 9.256 330.894 8.68C330.542 8.088 330.366 7.344 330.366 6.448C330.366 5.44 330.638 4.528 331.182 3.712C331.742 2.896 332.574 2.24 333.678 1.744C334.782 1.248 336.158 1 337.806 1C338.91 1 339.99 1.128 341.046 1.384C342.118 1.624 343.07 1.984 343.902 2.464L342.438 5.992C341.638 5.56 340.846 5.24 340.062 5.032C339.278 4.808 338.518 4.696 337.782 4.696C337.126 4.696 336.598 4.768 336.198 4.912C335.798 5.04 335.51 5.216 335.334 5.44C335.158 5.664 335.07 5.92 335.07 6.208C335.07 6.576 335.238 6.872 335.574 7.096C335.926 7.304 336.382 7.48 336.942 7.624C337.518 7.752 338.142 7.888 338.814 8.032C339.502 8.176 340.182 8.36 340.854 8.584C341.542 8.792 342.166 9.08 342.726 9.448C343.286 9.8 343.734 10.272 344.07 10.864C344.422 11.44 344.598 12.168 344.598 13.048C344.598 14.024 344.318 14.928 343.758 15.76C343.214 16.576 342.39 17.232 341.286 17.728C340.198 18.224 338.822 18.472 337.158 18.472ZM351.161 7.84H358.961V11.392H351.161V7.84ZM351.497 14.464H360.281V18.136H346.793V1.336H359.969V5.008H351.497V14.464ZM368.822 18.472C367.446 18.472 366.118 18.304 364.838 17.968C363.574 17.616 362.542 17.168 361.742 16.624L363.302 13.12C364.054 13.6 364.918 14 365.894 14.32C366.886 14.624 367.87 14.776 368.846 14.776C369.502 14.776 370.03 14.72 370.43 14.608C370.83 14.48 371.118 14.32 371.294 14.128C371.486 13.92 371.582 13.68 371.582 13.408C371.582 13.024 371.406 12.72 371.054 12.496C370.702 12.272 370.246 12.088 369.686 11.944C369.126 11.8 368.502 11.656 367.814 11.512C367.142 11.368 366.462 11.184 365.774 10.96C365.102 10.736 364.486 10.448 363.926 10.096C363.366 9.728 362.91 9.256 362.558 8.68C362.206 8.088 362.03 7.344 362.03 6.448C362.03 5.44 362.302 4.528 362.846 3.712C363.406 2.896 364.238 2.24 365.342 1.744C366.446 1.248 367.822 1 369.47 1C370.574 1 371.654 1.128 372.71 1.384C373.782 1.624 374.734 1.984 375.566 2.464L374.102 5.992C373.302 5.56 372.51 5.24 371.726 5.032C370.942 4.808 370.182 4.696 369.446 4.696C368.79 4.696 368.262 4.768 367.862 4.912C367.462 5.04 367.174 5.216 366.998 5.44C366.822 5.664 366.734 5.92 366.734 6.208C366.734 6.576 366.902 6.872 367.238 7.096C367.59 7.304 368.046 7.48 368.606 7.624C369.182 7.752 369.806 7.888 370.478 8.032C371.166 8.176 371.846 8.36 372.518 8.584C373.206 8.792 373.83 9.08 374.39 9.448C374.95 9.8 375.398 10.272 375.734 10.864C376.086 11.44 376.262 12.168 376.262 13.048C376.262 14.024 375.982 14.928 375.422 15.76C374.878 16.576 374.054 17.232 372.95 17.728C371.862 18.224 370.486 18.472 368.822 18.472Z" fill="url(#paint1_linear_176_40)"/>
<path d="M1.53461 18.136L0.619773 17.7322L8.07047e-05 19.136H1.53461V18.136ZM8.95061 1.336V0.336H8.29894L8.03577 0.932167L8.95061 1.336ZM13.6306 1.336L14.545 0.931074L14.2814 0.336H13.6306V1.336ZM21.0706 18.136V19.136H22.6071L21.985 17.7311L21.0706 18.136ZM16.1266 18.136L15.1986 18.5085L15.4504 19.136H16.1266V18.136ZM10.3186 3.664V2.664H8.83975L9.39055 4.03645L10.3186 3.664ZM12.1906 3.664L13.1187 4.03645L13.6695 2.664H12.1906V3.664ZM6.38261 18.136V19.136H7.05881L7.31066 18.5085L6.38261 18.136ZM5.59061 14.872L4.64655 14.5422L4.18204 15.872H5.59061V14.872ZM6.81461 11.368V10.368H6.10467L5.87055 11.0382L6.81461 11.368ZM15.0226 11.368L15.9667 11.0382L15.7325 10.368H15.0226V11.368ZM16.2466 14.872V15.872H17.6552L17.1907 14.5422L16.2466 14.872ZM1.53461 18.136L2.44944 18.5398L9.86544 1.73983L8.95061 1.336L8.03577 0.932167L0.619773 17.7322L1.53461 18.136ZM8.95061 1.336V2.336H13.6306V1.336V0.336H8.95061V1.336ZM13.6306 1.336L12.7163 1.74093L20.1563 18.5409L21.0706 18.136L21.985 17.7311L14.545 0.931074L13.6306 1.336ZM21.0706 18.136V17.136H16.1266V18.136V19.136H21.0706V18.136ZM16.1266 18.136L17.0547 17.7635L11.2467 3.29155L10.3186 3.664L9.39055 4.03645L15.1986 18.5085L16.1266 18.136ZM10.3186 3.664V4.664H12.1906V3.664V2.664H10.3186V3.664ZM12.1906 3.664L11.2626 3.29155L5.45455 17.7635L6.38261 18.136L7.31066 18.5085L13.1187 4.03645L12.1906 3.664ZM6.38261 18.136V17.136H1.53461V18.136V19.136H6.38261V18.136ZM5.59061 14.872L6.53467 15.2018L7.75867 11.6978L6.81461 11.368L5.87055 11.0382L4.64655 14.5422L5.59061 14.872ZM6.81461 11.368V12.368H15.0226V11.368V10.368H6.81461V11.368ZM15.0226 11.368L14.0785 11.6978L15.3025 15.2018L16.2466 14.872L17.1907 14.5422L15.9667 11.0382L15.0226 11.368ZM16.2466 14.872V13.872H5.59061V14.872V15.872H16.2466V14.872ZM25.15 18.136H24.15V19.136H25.15V18.136ZM25.15 5.104H26.15V4.104H25.15V5.104ZM19.99 5.104H18.99V6.104H19.99V5.104ZM19.99 1.336V0.336H18.99V1.336H19.99ZM35.038 1.336H36.038V0.336H35.038V1.336ZM35.038 5.104V6.104H36.038V5.104H35.038ZM29.902 5.104V4.104H28.902V5.104H29.902ZM29.902 18.136V19.136H30.902V18.136H29.902ZM25.15 18.136H26.15V5.104H25.15H24.15V18.136H25.15ZM25.15 5.104V4.104H19.99V5.104V6.104H25.15V5.104ZM19.99 5.104H20.99V1.336H19.99H18.99V5.104H19.99ZM19.99 1.336V2.336H35.038V1.336V0.336H19.99V1.336ZM35.038 1.336H34.038V5.104H35.038H36.038V1.336H35.038ZM35.038 5.104V4.104H29.902V5.104V6.104H35.038V5.104ZM29.902 5.104H28.902V18.136H29.902H30.902V5.104H29.902ZM29.902 18.136V17.136H25.15V18.136V19.136H29.902V18.136ZM36.8084 18.136H35.8084V19.136H36.8084V18.136ZM36.8084 1.336V0.336H35.8084V1.336H36.8084ZM41.5604 1.336H42.5604V0.336H41.5604V1.336ZM41.5604 18.136V19.136H42.5604V18.136H41.5604ZM36.8084 18.136H37.8084V1.336H36.8084H35.8084V18.136H36.8084ZM36.8084 1.336V2.336H41.5604V1.336V0.336H36.8084V1.336ZM41.5604 1.336H40.5604V18.136H41.5604H42.5604V1.336H41.5604ZM41.5604 18.136V17.136H36.8084V18.136V19.136H41.5604V18.136ZM44.9412 18.136H43.9412V19.136H44.9412V18.136ZM44.9412 1.336V0.336H43.9412V1.336H44.9412ZM48.8532 1.336L49.6233 0.698094L49.3234 0.336H48.8532V1.336ZM58.1172 12.52V13.52H60.2441L58.8873 11.8821L58.1172 12.52ZM56.2692 12.52H55.2692V13.52H56.2692V12.52ZM56.2692 1.336V0.336H55.2692V1.336H56.2692ZM60.9252 1.336H61.9252V0.336H60.9252V1.336ZM60.9252 18.136V19.136H61.9252V18.136H60.9252ZM57.0132 18.136L56.2431 18.7739L56.543 19.136H57.0132V18.136ZM47.7492 6.952V5.952H45.6224L46.9791 7.58991L47.7492 6.952ZM49.5972 6.952H50.5972V5.952H49.5972V6.952ZM49.5972 18.136V19.136H50.5972V18.136H49.5972ZM44.9412 18.136H45.9412V1.336H44.9412H43.9412V18.136H44.9412ZM44.9412 1.336V2.336H48.8532V1.336V0.336H44.9412V1.336ZM48.8532 1.336L48.0831 1.97391L57.3471 13.1579L58.1172 12.52L58.8873 11.8821L49.6233 0.698094L48.8532 1.336ZM58.1172 12.52V11.52H56.2692V12.52V13.52H58.1172V12.52ZM56.2692 12.52H57.2692V1.336H56.2692H55.2692V12.52H56.2692ZM56.2692 1.336V2.336H60.9252V1.336V0.336H56.2692V1.336ZM60.9252 1.336H59.9252V18.136H60.9252H61.9252V1.336H60.9252ZM60.9252 18.136V17.136H57.0132V18.136V19.136H60.9252V18.136ZM57.0132 18.136L57.7833 17.4981L48.5193 6.3141L47.7492 6.952L46.9791 7.58991L56.2431 18.7739L57.0132 18.136ZM47.7492 6.952V7.952H49.5972V6.952V5.952H47.7492V6.952ZM49.5972 6.952H48.5972V18.136H49.5972H50.5972V6.952H49.5972ZM49.5972 18.136V17.136H44.9412V18.136V19.136H49.5972V18.136ZM68.6452 7.84V6.84H67.6452V7.84H68.6452ZM76.4452 7.84H77.4452V6.84H76.4452V7.84ZM76.4452 11.392V12.392H77.4452V11.392H76.4452ZM68.6452 11.392H67.6452V12.392H68.6452V11.392ZM68.9812 14.464H67.9812V15.464H68.9812V14.464ZM77.7652 14.464H78.7652V13.464H77.7652V14.464ZM77.7652 18.136V19.136H78.7652V18.136H77.7652ZM64.2772 18.136H63.2772V19.136H64.2772V18.136ZM64.2772 1.336V0.336H63.2772V1.336H64.2772ZM77.4532 1.336H78.4532V0.336H77.4532V1.336ZM77.4532 5.008V6.008H78.4532V5.008H77.4532ZM68.9812 5.008V4.008H67.9812V5.008H68.9812ZM68.6452 7.84V8.84H76.4452V7.84V6.84H68.6452V7.84ZM76.4452 7.84H75.4452V11.392H76.4452H77.4452V7.84H76.4452ZM76.4452 11.392V10.392H68.6452V11.392V12.392H76.4452V11.392ZM68.6452 11.392H69.6452V7.84H68.6452H67.6452V11.392H68.6452ZM68.9812 14.464V15.464H77.7652V14.464V13.464H68.9812V14.464ZM77.7652 14.464H76.7652V18.136H77.7652H78.7652V14.464H77.7652ZM77.7652 18.136V17.136H64.2772V18.136V19.136H77.7652V18.136ZM64.2772 18.136H65.2772V1.336H64.2772H63.2772V18.136H64.2772ZM64.2772 1.336V2.336H77.4532V1.336V0.336H64.2772V1.336ZM77.4532 1.336H76.4532V5.008H77.4532H78.4532V1.336H77.4532ZM77.4532 5.008V4.008H68.9812V5.008V6.008H77.4532V5.008ZM68.9812 5.008H67.9812V14.464H68.9812H69.9812V5.008H68.9812ZM82.3222 17.968L82.0539 18.9313L82.0611 18.9333L82.0683 18.9352L82.3222 17.968ZM79.2262 16.624L78.3126 16.2173L77.9726 16.9809L78.6639 17.4509L79.2262 16.624ZM80.7862 13.12L81.3242 12.2771L80.3451 11.6521L79.8726 12.7133L80.7862 13.12ZM83.3782 14.32L83.0666 15.2702L83.0759 15.2733L83.0852 15.2761L83.3782 14.32ZM87.9142 14.608L88.1838 15.571L88.2015 15.566L88.2189 15.5604L87.9142 14.608ZM88.7782 14.128L88.0434 13.4497L88.041 13.4523L88.7782 14.128ZM88.5382 12.496L88.0013 13.3397L88.5382 12.496ZM87.1702 11.944L87.4192 10.9755L87.1702 11.944ZM85.2982 11.512L85.0886 12.4898L85.0933 12.4908L85.2982 11.512ZM83.2582 10.96L82.9419 11.9087L82.9486 11.9109L83.2582 10.96ZM81.4102 10.096L80.861 10.9317L80.8694 10.9373L80.878 10.9426L81.4102 10.096ZM80.0422 8.68L79.1826 9.19111L79.1889 9.20145L80.0422 8.68ZM80.3302 3.712L79.5056 3.14611L79.4981 3.1573L80.3302 3.712ZM82.8262 1.744L82.4164 0.831832L82.8262 1.744ZM90.1942 1.384L89.9586 2.35585L89.9671 2.35792L89.9757 2.35984L90.1942 1.384ZM93.0502 2.464L93.9738 2.84728L94.3102 2.03648L93.5499 1.59781L93.0502 2.464ZM91.5862 5.992L91.111 6.87191L92.0854 7.39806L92.5098 6.37528L91.5862 5.992ZM89.2102 5.032L88.9354 5.99353L88.9446 5.99613L88.9537 5.99856L89.2102 5.032ZM85.3462 4.912L85.6509 5.86443L85.668 5.85896L85.6849 5.85289L85.3462 4.912ZM84.4822 5.44L83.6958 4.82218L84.4822 5.44ZM84.7222 7.096L84.1675 7.92805L84.1901 7.94311L84.2134 7.95693L84.7222 7.096ZM86.0902 7.624L85.8411 8.59249L85.8571 8.59661L85.8732 8.60019L86.0902 7.624ZM87.9622 8.032L87.7526 9.00981L87.7573 9.01079L87.9622 8.032ZM90.0022 8.584L89.6859 9.53268L89.6993 9.53714L89.7128 9.54121L90.0022 8.584ZM91.8742 9.448L91.325 10.2837L91.3334 10.2893L91.342 10.2946L91.8742 9.448ZM93.2182 10.864L92.3485 11.3576L92.3565 11.3717L92.3649 11.3855L93.2182 10.864ZM92.9062 15.76L92.0766 15.2016L92.0741 15.2053L92.9062 15.76ZM90.4342 17.728L90.0243 16.8158L90.0194 16.8181L90.4342 17.728ZM86.3062 18.472V17.472C85.0124 17.472 83.7699 17.3142 82.5761 17.0008L82.3222 17.968L82.0683 18.9352C83.4344 19.2938 84.8479 19.472 86.3062 19.472V18.472ZM82.3222 17.968L82.5904 17.0047C81.3965 16.6722 80.4729 16.2625 79.7885 15.7971L79.2262 16.624L78.6639 17.4509C79.5794 18.0735 80.7199 18.5598 82.0539 18.9313L82.3222 17.968ZM79.2262 16.624L80.1397 17.0307L81.6997 13.5267L80.7862 13.12L79.8726 12.7133L78.3126 16.2173L79.2262 16.624ZM80.7862 13.12L80.2481 13.9629C81.0805 14.4942 82.0227 14.928 83.0666 15.2702L83.3782 14.32L83.6897 13.3698C82.7817 13.0721 81.9958 12.7058 81.3242 12.2771L80.7862 13.12ZM83.3782 14.32L83.0852 15.2761C84.1661 15.6074 85.2488 15.776 86.3302 15.776V14.776V13.776C85.4595 13.776 84.5742 13.6406 83.6712 13.3639L83.3782 14.32ZM86.3302 14.776V15.776C87.0312 15.776 87.6606 15.7175 88.1838 15.571L87.9142 14.608L87.6445 13.645C87.3678 13.7225 86.9412 13.776 86.3302 13.776V14.776ZM87.9142 14.608L88.2189 15.5604C88.6935 15.4086 89.1706 15.1798 89.5153 14.8037L88.7782 14.128L88.041 13.4523C88.042 13.4513 88.0183 13.4769 87.9445 13.5178C87.8713 13.5586 87.7629 13.6065 87.6094 13.6556L87.9142 14.608ZM88.7782 14.128L89.513 14.8063C89.8678 14.4218 90.0662 13.9424 90.0662 13.408H89.0662H88.0662C88.0662 13.4169 88.0654 13.4211 88.0653 13.4217C88.0652 13.4222 88.0653 13.4215 88.0657 13.4206C88.066 13.4197 88.0656 13.4212 88.063 13.4252C88.0603 13.4294 88.0544 13.4377 88.0434 13.4497L88.7782 14.128ZM89.0662 13.408H90.0662C90.0662 12.6482 89.6857 12.0409 89.075 11.6523L88.5382 12.496L88.0013 13.3397C88.0672 13.3816 88.075 13.4038 88.0687 13.393C88.0664 13.3889 88.0648 13.3846 88.0644 13.3828C88.064 13.3816 88.0662 13.3888 88.0662 13.408H89.0662ZM88.5382 12.496L89.075 11.6523C88.6074 11.3547 88.0448 11.1364 87.4192 10.9755L87.1702 11.944L86.9211 12.9125C87.4155 13.0396 87.765 13.1893 88.0013 13.3397L88.5382 12.496ZM87.1702 11.944L87.4192 10.9755C86.8419 10.827 86.2028 10.6797 85.503 10.5332L85.2982 11.512L85.0933 12.4908C85.7695 12.6323 86.3785 12.773 86.9211 12.9125L87.1702 11.944ZM85.2982 11.512L85.5077 10.5342C84.8712 10.3978 84.2246 10.223 83.5678 10.0091L83.2582 10.96L82.9486 11.9109C83.6677 12.145 84.3811 12.3382 85.0886 12.4898L85.2982 11.512ZM83.2582 10.96L83.5744 10.0113C82.9729 9.81081 82.4301 9.55595 81.9423 9.24936L81.4102 10.096L80.878 10.9426C81.5102 11.3401 82.1995 11.6612 82.9419 11.9087L83.2582 10.96ZM81.4102 10.096L81.9593 9.2603C81.5236 8.97395 81.1711 8.60961 80.8954 8.15855L80.0422 8.68L79.1889 9.20145C79.6172 9.90239 80.1767 10.4821 80.861 10.9317L81.4102 10.096ZM80.0422 8.68L80.9017 8.16893C80.6654 7.77145 80.5142 7.21703 80.5142 6.448H79.5142H78.5142C78.5142 7.47097 78.715 8.40455 79.1826 9.19108L80.0422 8.68ZM79.5142 6.448H80.5142C80.5142 5.6316 80.7309 4.91365 81.1622 4.2667L80.3302 3.712L79.4981 3.1573C78.8414 4.14235 78.5142 5.2484 78.5142 6.448H79.5142ZM80.3302 3.712L81.1547 4.27784C81.5899 3.64365 82.2621 3.09373 83.236 2.65617L82.8262 1.744L82.4164 0.831832C81.1823 1.38627 80.1904 2.14835 79.5057 3.14616L80.3302 3.712ZM82.8262 1.744L83.236 2.65617C84.1734 2.23499 85.3993 2 86.9542 2V1V4.76837e-07C85.213 4.76837e-07 83.6869 0.261008 82.4164 0.831832L82.8262 1.744ZM86.9542 1V2C87.9801 2 88.9809 2.11885 89.9586 2.35585L90.1942 1.384L90.4298 0.412151C89.2954 0.137151 88.1363 4.76837e-07 86.9542 4.76837e-07V1ZM90.1942 1.384L89.9757 2.35984C90.9629 2.58085 91.8177 2.90743 92.5504 3.33019L93.0502 2.464L93.5499 1.59781C92.6187 1.06058 91.5695 0.667151 90.4126 0.408158L90.1942 1.384ZM93.0502 2.464L92.1265 2.08072L90.6625 5.60872L91.5862 5.992L92.5098 6.37528L93.9738 2.84728L93.0502 2.464ZM91.5862 5.992L92.0613 5.11209C91.2003 4.64713 90.3352 4.29588 89.4666 4.06544L89.2102 5.032L88.9537 5.99856C89.6532 6.18412 90.3721 6.47287 91.111 6.87191L91.5862 5.992ZM89.2102 5.032L89.4849 4.07048C88.6211 3.82367 87.7685 3.696 86.9302 3.696V4.696V5.696C87.5639 5.696 88.2313 5.79233 88.9354 5.99353L89.2102 5.032ZM86.9302 4.696V3.696C86.2145 3.696 85.5585 3.77275 85.0074 3.97111L85.3462 4.912L85.6849 5.85289C85.9339 5.76325 86.3339 5.696 86.9302 5.696V4.696ZM85.3462 4.912L85.0414 3.95958C84.5365 4.12115 84.041 4.38284 83.6958 4.82218L84.4822 5.44L85.2685 6.05782C85.2753 6.04916 85.3559 5.95885 85.6509 5.86443L85.3462 4.912ZM84.4822 5.44L83.6958 4.82218C83.3798 5.22445 83.2182 5.69861 83.2182 6.208H84.2182H85.2182C85.2182 6.14139 85.2326 6.10355 85.2685 6.05782L84.4822 5.44ZM84.2182 6.208H83.2182C83.2182 6.94703 83.5852 7.5399 84.1675 7.92805L84.7222 7.096L85.2769 6.26395C85.2148 6.22255 85.2076 6.20141 85.2139 6.2124C85.2164 6.21681 85.2183 6.22189 85.2191 6.22522C85.2199 6.22813 85.2182 6.22341 85.2182 6.208H84.2182ZM84.7222 7.096L84.2134 7.95693C84.6723 8.22808 85.2244 8.43391 85.8411 8.59249L86.0902 7.624L86.3392 6.65551C85.8359 6.52609 85.476 6.37992 85.2309 6.23507L84.7222 7.096ZM86.0902 7.624L85.8732 8.60019C86.4521 8.72882 87.0786 8.86536 87.7526 9.0098L87.9622 8.032L88.1717 7.0542C87.5018 6.91064 86.8803 6.77519 86.3071 6.64781L86.0902 7.624ZM87.9622 8.032L87.7573 9.01079C88.4073 9.14685 89.0502 9.32076 89.6859 9.53268L90.0022 8.584L90.3184 7.63532C89.6102 7.39924 88.893 7.20516 88.167 7.05321L87.9622 8.032ZM90.0022 8.584L89.7128 9.54121C90.3155 9.72342 90.8509 9.97217 91.325 10.2837L91.8742 9.448L92.4233 8.6123C91.7774 8.18783 91.0649 7.86059 90.2916 7.62679L90.0022 8.584ZM91.8742 9.448L91.342 10.2946C91.7579 10.556 92.0916 10.905 92.3485 11.3576L93.2182 10.864L94.0879 10.3704C93.6727 9.63898 93.1105 9.04396 92.4063 8.60137L91.8742 9.448ZM93.2182 10.864L92.3649 11.3855C92.5959 11.7635 92.7462 12.2973 92.7462 13.048H93.7462H94.7462C94.7462 12.0387 94.5444 11.1165 94.0714 10.3426L93.2182 10.864ZM93.7462 13.048H92.7462C92.7462 13.8193 92.5288 14.5298 92.0766 15.2016L92.9062 15.76L93.7358 16.3184C94.4036 15.3262 94.7462 14.2287 94.7462 13.048H93.7462ZM92.9062 15.76L92.0741 15.2053C91.6564 15.8318 90.9969 16.3789 90.0244 16.8158L90.4342 17.728L90.844 18.6402C92.0794 18.0851 93.0679 17.3202 93.7382 16.3147L92.9062 15.76ZM90.4342 17.728L90.0194 16.8181C89.1021 17.2363 87.8795 17.472 86.3062 17.472V18.472V19.472C88.0608 19.472 89.5902 19.2117 90.849 18.6379L90.4342 17.728ZM100.093 18.136L99.142 18.4445L99.3662 19.136H100.093V18.136ZM94.6452 1.336V0.336H93.2697L93.694 1.64447L94.6452 1.336ZM99.5412 1.336L100.495 1.0354L100.275 0.336H99.5412V1.336ZM104.125 15.88V16.88H105.489L105.079 15.5794L104.125 15.88ZM101.653 15.88L100.704 15.5652L100.268 16.88H101.653V15.88ZM106.477 1.336V0.336H105.755L105.528 1.02118L106.477 1.336ZM110.845 1.336L111.799 1.03683L111.58 0.336H110.845V1.336ZM115.405 15.88V16.88H116.767L116.359 15.5808L115.405 15.88ZM113.029 15.88L112.078 15.5708L111.653 16.88H113.029V15.88ZM117.757 1.336V0.336H117.031L116.806 1.02684L117.757 1.336ZM122.293 1.336L123.244 1.64447L123.669 0.336H122.293V1.336ZM116.845 18.136V19.136H117.572L117.796 18.4445L116.845 18.136ZM111.757 18.136L110.803 18.4361L111.023 19.136H111.757V18.136ZM107.869 5.776V4.776H106.506L106.915 6.07607L107.869 5.776ZM109.237 5.776L110.187 6.0878L110.618 4.776H109.237V5.776ZM105.181 18.136V19.136H105.906L106.131 18.4478L105.181 18.136ZM100.093 18.136L101.044 17.8275L95.5965 1.02753L94.6452 1.336L93.694 1.64447L99.142 18.4445L100.093 18.136ZM94.6452 1.336V2.336H99.5412V1.336V0.336H94.6452V1.336ZM99.5412 1.336L98.5875 1.6366L103.171 16.1806L104.125 15.88L105.079 15.5794L100.495 1.0354L99.5412 1.336ZM104.125 15.88V14.88H101.653V15.88V16.88H104.125V15.88ZM101.653 15.88L102.602 16.1948L107.426 1.65082L106.477 1.336L105.528 1.02118L100.704 15.5652L101.653 15.88ZM106.477 1.336V2.336H110.845V1.336V0.336H106.477V1.336ZM110.845 1.336L109.891 1.63517L114.451 16.1792L115.405 15.88L116.359 15.5808L111.799 1.03683L110.845 1.336ZM115.405 15.88V14.88H113.029V15.88V16.88H115.405V15.88ZM113.029 15.88L113.98 16.1892L118.708 1.64516L117.757 1.336L116.806 1.02684L112.078 15.5708L113.029 15.88ZM117.757 1.336V2.336H122.293V1.336V0.336H117.757V1.336ZM122.293 1.336L121.342 1.02753L115.894 17.8275L116.845 18.136L117.796 18.4445L123.244 1.64447L122.293 1.336ZM116.845 18.136V17.136H111.757V18.136V19.136H116.845V18.136ZM111.757 18.136L112.711 17.8359L108.823 5.47593L107.869 5.776L106.915 6.07607L110.803 18.4361L111.757 18.136ZM107.869 5.776V6.776H109.237V5.776V4.776H107.869V5.776ZM109.237 5.776L108.287 5.4642L104.231 17.8242L105.181 18.136L106.131 18.4478L110.187 6.0878L109.237 5.776ZM105.181 18.136V17.136H100.093V18.136V19.136H105.181V18.136ZM128.537 17.824L128.182 18.7587L128.537 17.824ZM125.561 16L124.868 16.7208L124.875 16.7276L124.882 16.7343L125.561 16ZM123.617 13.216L122.701 13.6183L123.617 13.216ZM123.617 6.256L122.701 5.85373L123.617 6.256ZM125.561 3.496L126.247 4.22379L126.247 4.22339L125.561 3.496ZM128.537 1.648L128.182 0.713305L128.537 1.648ZM135.977 1.648L135.617 2.58101L135.622 2.5827L135.977 1.648ZM138.929 3.496L138.236 4.21687L138.243 4.22379L138.929 3.496ZM140.873 6.256L139.957 6.65831L139.963 6.6698L140.873 6.256ZM140.873 13.24L139.96 12.8313L139.957 12.8377L140.873 13.24ZM138.929 16L139.615 16.7278L138.929 16ZM135.977 17.824L135.622 16.8893L135.617 16.891L135.977 17.824ZM134.033 14.2L133.662 13.2715L133.652 13.2753L134.033 14.2ZM135.473 13.24L134.753 12.5464L134.752 12.5469L135.473 13.24ZM136.433 11.704L135.506 11.3283L135.502 11.3392L135.498 11.3501L136.433 11.704ZM136.433 7.768L135.498 8.12189L135.504 8.13736L135.51 8.15262L136.433 7.768ZM135.473 6.256L134.739 6.93541L134.752 6.94951L134.766 6.96311L135.473 6.256ZM134.033 5.272L133.652 6.19673L133.662 6.20048L134.033 5.272ZM130.457 5.272L130.086 4.34348L130.076 4.34732L130.457 5.272ZM129.017 6.256L128.297 5.56236L128.296 5.56289L129.017 6.256ZM128.057 7.768L127.13 7.3923L127.128 7.39891L127.125 7.40555L128.057 7.768ZM128.057 11.704L127.122 12.0579L127.126 12.0688L127.13 12.0797L128.057 11.704ZM129.017 13.24L128.283 13.9194L128.296 13.9335L128.31 13.9471L129.017 13.24ZM130.457 14.2L130.076 15.1247L130.086 15.1285L130.457 14.2ZM132.257 18.472V17.472C131.022 17.472 129.903 17.2738 128.892 16.8893L128.537 17.824L128.182 18.7587C129.442 19.2382 130.804 19.472 132.257 19.472V18.472ZM128.537 17.824L128.892 16.8893C127.87 16.5004 126.989 15.9583 126.24 15.2657L125.561 16L124.882 16.7343C125.829 17.6097 126.932 18.2836 128.182 18.7587L128.537 17.824ZM125.561 16L126.254 15.2792C125.516 14.5697 124.944 13.7499 124.533 12.8137L123.617 13.216L122.701 13.6183C123.218 14.7941 123.942 15.8303 124.868 16.7208L125.561 16ZM123.617 13.216L124.533 12.8137C124.129 11.8962 123.921 10.8749 123.921 9.736H122.921H121.921C121.921 11.1251 122.177 12.4238 122.701 13.6183L123.617 13.216ZM122.921 9.736H123.921C123.921 8.59711 124.129 7.57578 124.533 6.65827L123.617 6.256L122.701 5.85373C122.177 7.04823 121.921 8.34689 121.921 9.736H122.921ZM123.617 6.256L124.533 6.65827C124.943 5.72396 125.513 4.91495 126.247 4.22379L125.561 3.496L124.875 2.76821C123.945 3.64506 123.219 4.67605 122.701 5.85373L123.617 6.256ZM125.561 3.496L126.247 4.22339C126.996 3.51738 127.874 2.97002 128.892 2.5827L128.537 1.648L128.182 0.713305C126.928 1.18998 125.822 1.87462 124.875 2.76861L125.561 3.496ZM128.537 1.648L128.892 2.5827C129.903 2.19821 131.022 2 132.257 2V1V4.76837e-07C130.804 4.76837e-07 129.442 0.233792 128.182 0.713305L128.537 1.648ZM132.257 1V2C133.51 2 134.626 2.19877 135.617 2.581L135.977 1.648L136.337 0.714999C135.088 0.233228 133.724 4.76837e-07 132.257 4.76837e-07V1ZM135.977 1.648L135.622 2.5827C136.639 2.96944 137.506 3.51502 138.236 4.21683L138.929 3.496L139.622 2.77517C138.688 1.87698 137.587 1.19057 136.332 0.713305L135.977 1.648ZM138.929 3.496L138.243 4.22379C138.977 4.91495 139.547 5.72396 139.957 6.65827L140.873 6.256L141.788 5.85373C141.271 4.67605 140.545 3.64506 139.615 2.76821L138.929 3.496ZM140.873 6.256L139.963 6.6698C140.378 7.58455 140.593 8.6018 140.593 9.736H141.593H142.593C142.593 8.3422 142.328 7.03945 141.783 5.8422L140.873 6.256ZM141.593 9.736H140.593C140.593 10.87 140.378 11.8975 139.96 12.8313L140.873 13.24L141.786 13.6487C142.328 12.4385 142.593 11.13 142.593 9.736H141.593ZM140.873 13.24L139.957 12.8377C139.547 13.772 138.977 14.5811 138.243 15.2722L138.929 16L139.615 16.7278C140.545 15.8509 141.271 14.82 141.788 13.6423L140.873 13.24ZM138.929 16L138.243 15.2722C137.513 15.9607 136.643 16.501 135.622 16.8893L135.977 17.824L136.332 18.7587C137.583 18.283 138.681 17.6073 139.615 16.7278L138.929 16ZM135.977 17.824L135.617 16.891C134.626 17.2732 133.51 17.472 132.257 17.472V18.472V19.472C133.724 19.472 135.088 19.2388 136.337 18.757L135.977 17.824ZM132.257 14.536V15.536C133.016 15.536 133.739 15.4026 134.414 15.1247L134.033 14.2L133.652 13.2753C133.239 13.4454 132.778 13.536 132.257 13.536V14.536ZM134.033 14.2L134.404 15.1285C135.09 14.8542 135.691 14.4561 136.194 13.9331L135.473 13.24L134.752 12.5469C134.455 12.8559 134.096 13.0978 133.662 13.2715L134.033 14.2ZM135.473 13.24L136.193 13.9336C136.708 13.3988 137.099 12.7694 137.368 12.0579L136.433 11.704L135.498 11.3501C135.319 11.8226 135.07 12.2172 134.753 12.5464L135.473 13.24ZM136.433 11.704L137.36 12.0797C137.654 11.3541 137.793 10.5685 137.793 9.736H136.793H135.793C135.793 10.3435 135.692 10.8699 135.506 11.3283L136.433 11.704ZM136.793 9.736H137.793C137.793 8.89129 137.655 8.10107 137.356 7.38338L136.433 7.768L135.51 8.15262C135.691 8.58693 135.793 9.10871 135.793 9.736H136.793ZM136.433 7.768L137.368 7.41411C137.098 6.69974 136.704 6.07257 136.18 5.54889L135.473 6.256L134.766 6.96311C135.074 7.27143 135.32 7.65226 135.498 8.12189L136.433 7.768ZM135.473 6.256L136.207 5.57659C135.703 5.033 135.099 4.62124 134.404 4.34352L134.033 5.272L133.662 6.20048C134.087 6.37076 134.443 6.615 134.739 6.93541L135.473 6.256ZM134.033 5.272L134.414 4.34732C133.739 4.06937 133.016 3.936 132.257 3.936V4.936V5.936C132.778 5.936 133.239 6.02663 133.652 6.19668L134.033 5.272ZM132.257 4.936V3.936C131.498 3.936 130.771 4.06944 130.086 4.34352L130.457 5.272L130.828 6.20048C131.263 6.02656 131.736 5.936 132.257 5.936V4.936ZM130.457 5.272L130.076 4.34732C129.402 4.62505 128.807 5.03267 128.297 5.56236L129.017 6.256L129.737 6.94964C130.059 6.61533 130.424 6.36695 130.838 6.19668L130.457 5.272ZM129.017 6.256L128.296 5.56289C127.799 6.07995 127.413 6.69497 127.13 7.3923L128.057 7.768L128.984 8.14371C129.181 7.65703 129.435 7.26405 129.738 6.94911L129.017 6.256ZM128.057 7.768L127.125 7.40555C126.848 8.11687 126.721 8.89915 126.721 9.736H127.721H128.721C128.721 9.10085 128.818 8.57113 128.989 8.13045L128.057 7.768ZM127.721 9.736H126.721C126.721 10.5605 126.849 11.3384 127.122 12.0579L128.057 11.704L128.992 11.3501C128.817 10.8856 128.721 10.3516 128.721 9.736H127.721ZM128.057 11.704L127.13 12.0797C127.412 12.7742 127.794 13.3914 128.283 13.9194L129.017 13.24L129.751 12.5606C129.44 12.2246 129.182 11.8178 128.984 11.3283L128.057 11.704ZM129.017 13.24L128.31 13.9471C128.819 14.4565 129.41 14.8504 130.076 15.1247L130.457 14.2L130.838 13.2753C130.416 13.1016 130.047 12.8555 129.724 12.5329L129.017 13.24ZM130.457 14.2L130.086 15.1285C130.771 15.4026 131.498 15.536 132.257 15.536V14.536V13.536C131.736 13.536 131.263 13.4454 130.828 13.2715L130.457 14.2ZM144.082 18.136H143.082V19.136H144.082V18.136ZM144.082 1.336V0.336H143.082V1.336H144.082ZM155.722 2.08L155.312 2.99218L155.317 2.99435L155.722 2.08ZM158.314 4.24L157.473 4.7815L157.477 4.78803L158.314 4.24ZM158.314 10.84L159.146 11.3947L159.15 11.388L158.314 10.84ZM155.722 12.952L156.121 13.8691L156.127 13.8664L155.722 12.952ZM146.722 13.672L146.036 12.9445L144.204 14.672H146.722V13.672ZM148.834 11.68H149.834V9.36219L148.148 10.9525L148.834 11.68ZM148.834 18.136V19.136H149.834V18.136H148.834ZM154.474 18.136L153.648 18.6996L153.946 19.136H154.474V18.136ZM150.298 12.016V11.016H148.405L149.472 12.5796L150.298 12.016ZM155.362 12.016L156.186 11.4502L155.888 11.016H155.362V12.016ZM159.562 18.136V19.136H161.461L160.386 17.5702L159.562 18.136ZM148.834 12.184L148.115 12.8792L149.834 14.6566V12.184H148.834ZM146.722 10V9H144.364L146.003 10.6952L146.722 10ZM153.682 9.352L153.025 8.59792L153.019 8.60326L153.013 8.60871L153.682 9.352ZM153.682 5.728L153.013 6.4713L153.019 6.47674L153.025 6.48208L153.682 5.728ZM146.722 5.08L146.003 4.38484L144.364 6.08H146.722V5.08ZM148.834 2.896H149.834V0.423388L148.115 2.20084L148.834 2.896ZM144.082 18.136H145.082V1.336H144.082H143.082V18.136H144.082ZM144.082 1.336V2.336H151.762V1.336V0.336H144.082V1.336ZM151.762 1.336V2.336C153.193 2.336 154.367 2.56742 155.312 2.99217L155.722 2.08L156.132 1.16783C154.869 0.600578 153.402 0.336 151.762 0.336V1.336ZM155.722 2.08L155.317 2.99435C156.275 3.41877 156.98 4.01655 157.473 4.78148L158.314 4.24L159.155 3.69852C158.431 2.57545 157.408 1.73323 156.127 1.16565L155.722 2.08ZM158.314 4.24L157.477 4.78803C157.963 5.52926 158.226 6.43601 158.226 7.552H159.226H160.226C160.226 6.10799 159.881 4.80674 159.15 3.69197L158.314 4.24ZM159.226 7.552H158.226C158.226 8.64922 157.964 9.54871 157.477 10.292L158.314 10.84L159.15 11.388C159.879 10.2753 160.226 8.98279 160.226 7.552H159.226ZM158.314 10.84L157.482 10.2853C156.991 11.0212 156.284 11.6092 155.317 12.0377L155.722 12.952L156.127 13.8664C157.399 13.3028 158.42 12.4828 159.146 11.3947L158.314 10.84ZM155.722 12.952L155.323 12.0349C154.375 12.4474 153.197 12.672 151.762 12.672V13.672V14.672C153.399 14.672 154.861 14.4166 156.121 13.8691L155.722 12.952ZM151.762 13.672V12.672H146.722V13.672V14.672H151.762V13.672ZM146.722 13.672L147.408 14.3995L149.52 12.4075L148.834 11.68L148.148 10.9525L146.036 12.9445L146.722 13.672ZM148.834 11.68H147.834V18.136H148.834H149.834V11.68H148.834ZM148.834 18.136V17.136H144.082V18.136V19.136H148.834V18.136ZM154.474 18.136L155.3 17.5724L151.124 11.4524L150.298 12.016L149.472 12.5796L153.648 18.6996L154.474 18.136ZM150.298 12.016V13.016H155.362V12.016V11.016H150.298V12.016ZM155.362 12.016L154.537 12.5818L158.737 18.7018L159.562 18.136L160.386 17.5702L156.186 11.4502L155.362 12.016ZM159.562 18.136V17.136H154.474V18.136V19.136H159.562V18.136ZM148.834 12.184L149.553 11.4888L147.441 9.30484L146.722 10L146.003 10.6952L148.115 12.8792L148.834 12.184ZM146.722 10V11H151.474V10V9H146.722V10ZM151.474 10V11C152.585 11 153.61 10.7617 154.351 10.0953L153.682 9.352L153.013 8.60871C152.793 8.80635 152.346 9 151.474 9V10ZM153.682 9.352L154.339 10.1061C155.09 9.45163 155.426 8.55564 155.426 7.552H154.426H153.426C153.426 8.08436 153.266 8.38837 153.025 8.59792L153.682 9.352ZM154.426 7.552H155.426C155.426 6.53973 155.095 5.63247 154.339 4.97392L153.682 5.728L153.025 6.48208C153.261 6.68753 153.426 6.99627 153.426 7.552H154.426ZM153.682 5.728L154.351 4.98471C153.61 4.31835 152.585 4.08 151.474 4.08V5.08V6.08C152.346 6.08 152.793 6.27365 153.013 6.4713L153.682 5.728ZM151.474 5.08V4.08H146.722V5.08V6.08H151.474V5.08ZM146.722 5.08L147.441 5.77516L149.553 3.59116L148.834 2.896L148.115 2.20084L146.003 4.38484L146.722 5.08ZM148.834 2.896H147.834V12.184H148.834H149.834V2.896H148.834ZM161.847 18.136H160.847V19.136H161.847V18.136ZM161.847 1.336V0.336H160.847V1.336H161.847ZM166.599 1.336H167.599V0.336H166.599V1.336ZM166.599 14.368H165.599V15.368H166.599V14.368ZM174.615 14.368H175.615V13.368H174.615V14.368ZM174.615 18.136V19.136H175.615V18.136H174.615ZM161.847 18.136H162.847V1.336H161.847H160.847V18.136H161.847ZM161.847 1.336V2.336H166.599V1.336V0.336H161.847V1.336ZM166.599 1.336H165.599V14.368H166.599H167.599V1.336H166.599ZM166.599 14.368V15.368H174.615V14.368V13.368H166.599V14.368ZM174.615 14.368H173.615V18.136H174.615H175.615V14.368H174.615ZM174.615 18.136V17.136H161.847V18.136V19.136H174.615V18.136ZM176.496 18.136H175.496V19.136H176.496V18.136ZM176.496 1.336V0.336H175.496V1.336H176.496ZM189.336 2.368L188.897 3.26647V3.26648L189.336 2.368ZM192.624 5.272L191.777 5.80397L191.782 5.81167L192.624 5.272ZM192.624 14.2L191.779 13.6652L191.777 13.6681L192.624 14.2ZM181.248 14.344H180.248V15.344H181.248V14.344ZM186.744 13.816L187.191 14.7105L187.199 14.7064L186.744 13.816ZM188.424 12.232L189.288 12.7346L189.293 12.726L188.424 12.232ZM188.424 7.24L189.288 6.73738L188.424 7.24ZM186.744 5.68L186.281 6.56623L186.293 6.57247L186.305 6.57838L186.744 5.68ZM181.248 5.128V4.128H180.248V5.128H181.248ZM176.496 18.136H177.496V1.336H176.496H175.496V18.136H176.496ZM176.496 1.336V2.336H184.44V1.336V0.336H176.496V1.336ZM184.44 1.336V2.336C186.172 2.336 187.649 2.65651 188.897 3.26647L189.336 2.368L189.775 1.46953C188.207 0.703495 186.42 0.336 184.44 0.336V1.336ZM189.336 2.368L188.897 3.26648C190.149 3.87808 191.099 4.72383 191.777 5.80395L192.624 5.272L193.471 4.74005C192.581 3.32417 191.339 2.23393 189.775 1.46953L189.336 2.368ZM192.624 5.272L191.782 5.81167C192.463 6.8734 192.824 8.16699 192.824 9.736H193.824H194.824C194.824 7.84902 194.385 6.1666 193.466 4.73234L192.624 5.272ZM193.824 9.736H192.824C192.824 11.2867 192.464 12.5833 191.779 13.6652L192.624 14.2L193.469 14.7348C194.384 13.2887 194.824 11.6093 194.824 9.736H193.824ZM192.624 14.2L191.777 13.6681C191.099 14.7482 190.149 15.5939 188.897 16.2055L189.336 17.104L189.775 18.0025C191.339 17.2381 192.581 16.1478 193.471 14.732L192.624 14.2ZM189.336 17.104L188.897 16.2055C187.649 16.8155 186.172 17.136 184.44 17.136V18.136V19.136C186.42 19.136 188.207 18.7685 189.775 18.0025L189.336 17.104ZM184.44 18.136V17.136H176.496V18.136V19.136H184.44V18.136ZM181.248 14.344V15.344H184.248V14.344V13.344H181.248V14.344ZM184.248 14.344V15.344C185.33 15.344 186.321 15.1455 187.191 14.7104L186.744 13.816L186.297 12.9216C185.759 13.1905 185.086 13.344 184.248 13.344V14.344ZM186.744 13.816L187.199 14.7064C188.087 14.2526 188.79 13.5913 189.288 12.7346L188.424 12.232L187.559 11.7294C187.257 12.2487 186.841 12.6434 186.289 12.9256L186.744 13.816ZM188.424 12.232L189.293 12.726C189.794 11.8457 190.024 10.8369 190.024 9.736H189.024H188.024C188.024 10.5551 187.854 11.2103 187.554 11.738L188.424 12.232ZM189.024 9.736H190.024C190.024 8.6232 189.795 7.60907 189.288 6.73738L188.424 7.24L187.559 7.74262C187.853 8.24693 188.024 8.8968 188.024 9.736H189.024ZM188.424 7.24L189.288 6.73738C188.788 5.877 188.08 5.21989 187.183 4.78162L186.744 5.68L186.305 6.57838C186.848 6.84411 187.26 7.22701 187.559 7.74262L188.424 7.24ZM186.744 5.68L187.207 4.79377C186.333 4.33699 185.336 4.128 184.248 4.128V5.128V6.128C185.08 6.128 185.747 6.28701 186.281 6.56623L186.744 5.68ZM184.248 5.128V4.128H181.248V5.128V6.128H184.248V5.128ZM181.248 5.128H180.248V14.344H181.248H182.248V5.128H181.248ZM207.676 7.84V6.84H206.676V7.84H207.676ZM215.476 7.84H216.476V6.84H215.476V7.84ZM215.476 11.392V12.392H216.476V11.392H215.476ZM207.676 11.392H206.676V12.392H207.676V11.392ZM208.012 14.464H207.012V15.464H208.012V14.464ZM216.796 14.464H217.796V13.464H216.796V14.464ZM216.796 18.136V19.136H217.796V18.136H216.796ZM203.308 18.136H202.308V19.136H203.308V18.136ZM203.308 1.336V0.336H202.308V1.336H203.308ZM216.484 1.336H217.484V0.336H216.484V1.336ZM216.484 5.008V6.008H217.484V5.008H216.484ZM208.012 5.008V4.008H207.012V5.008H208.012ZM207.676 7.84V8.84H215.476V7.84V6.84H207.676V7.84ZM215.476 7.84H214.476V11.392H215.476H216.476V7.84H215.476ZM215.476 11.392V10.392H207.676V11.392V12.392H215.476V11.392ZM207.676 11.392H208.676V7.84H207.676H206.676V11.392H207.676ZM208.012 14.464V15.464H216.796V14.464V13.464H208.012V14.464ZM216.796 14.464H215.796V18.136H216.796H217.796V14.464H216.796ZM216.796 18.136V17.136H203.308V18.136V19.136H216.796V18.136ZM203.308 18.136H204.308V1.336H203.308H202.308V18.136H203.308ZM203.308 1.336V2.336H216.484V1.336V0.336H203.308V1.336ZM216.484 1.336H215.484V5.008H216.484H217.484V1.336H216.484ZM216.484 5.008V4.008H208.012V5.008V6.008H216.484V5.008ZM208.012 5.008H207.012V14.464H208.012H209.012V5.008H208.012ZM219.433 18.136H218.433V19.136H219.433V18.136ZM219.433 1.336V0.336H218.433V1.336H219.433ZM223.345 1.336L224.116 0.698094L223.816 0.336H223.345V1.336ZM232.609 12.52V13.52H234.736L233.38 11.8821L232.609 12.52ZM230.761 12.52H229.761V13.52H230.761V12.52ZM230.761 1.336V0.336H229.761V1.336H230.761ZM235.417 1.336H236.417V0.336H235.417V1.336ZM235.417 18.136V19.136H236.417V18.136H235.417ZM231.505 18.136L230.735 18.7739L231.035 19.136H231.505V18.136ZM222.241 6.952V5.952H220.115L221.471 7.58991L222.241 6.952ZM224.089 6.952H225.089V5.952H224.089V6.952ZM224.089 18.136V19.136H225.089V18.136H224.089ZM219.433 18.136H220.433V1.336H219.433H218.433V18.136H219.433ZM219.433 1.336V2.336H223.345V1.336V0.336H219.433V1.336ZM223.345 1.336L222.575 1.97391L231.839 13.1579L232.609 12.52L233.38 11.8821L224.116 0.698094L223.345 1.336ZM232.609 12.52V11.52H230.761V12.52V13.52H232.609V12.52ZM230.761 12.52H231.761V1.336H230.761H229.761V12.52H230.761ZM230.761 1.336V2.336H235.417V1.336V0.336H230.761V1.336ZM235.417 1.336H234.417V18.136H235.417H236.417V1.336H235.417ZM235.417 18.136V17.136H231.505V18.136V19.136H235.417V18.136ZM231.505 18.136L232.276 17.4981L223.012 6.3141L222.241 6.952L221.471 7.58991L230.735 18.7739L231.505 18.136ZM222.241 6.952V7.952H224.089V6.952V5.952H222.241V6.952ZM224.089 6.952H223.089V18.136H224.089H225.089V6.952H224.089ZM224.089 18.136V17.136H219.433V18.136V19.136H224.089V18.136ZM242.345 18.136H241.345V19.136H242.345V18.136ZM242.345 5.104H243.345V4.104H242.345V5.104ZM237.185 5.104H236.185V6.104H237.185V5.104ZM237.185 1.336V0.336H236.185V1.336H237.185ZM252.233 1.336H253.233V0.336H252.233V1.336ZM252.233 5.104V6.104H253.233V5.104H252.233ZM247.097 5.104V4.104H246.097V5.104H247.097ZM247.097 18.136V19.136H248.097V18.136H247.097ZM242.345 18.136H243.345V5.104H242.345H241.345V18.136H242.345ZM242.345 5.104V4.104H237.185V5.104V6.104H242.345V5.104ZM237.185 5.104H238.185V1.336H237.185H236.185V5.104H237.185ZM237.185 1.336V2.336H252.233V1.336V0.336H237.185V1.336ZM252.233 1.336H251.233V5.104H252.233H253.233V1.336H252.233ZM252.233 5.104V4.104H247.097V5.104V6.104H252.233V5.104ZM247.097 5.104H246.097V18.136H247.097H248.097V5.104H247.097ZM247.097 18.136V17.136H242.345V18.136V19.136H247.097V18.136ZM258.372 7.84V6.84H257.372V7.84H258.372ZM266.172 7.84H267.172V6.84H266.172V7.84ZM266.172 11.392V12.392H267.172V11.392H266.172ZM258.372 11.392H257.372V12.392H258.372V11.392ZM258.708 14.464H257.708V15.464H258.708V14.464ZM267.492 14.464H268.492V13.464H267.492V14.464ZM267.492 18.136V19.136H268.492V18.136H267.492ZM254.004 18.136H253.004V19.136H254.004V18.136ZM254.004 1.336V0.336H253.004V1.336H254.004ZM267.18 1.336H268.18V0.336H267.18V1.336ZM267.18 5.008V6.008H268.18V5.008H267.18ZM258.708 5.008V4.008H257.708V5.008H258.708ZM258.372 7.84V8.84H266.172V7.84V6.84H258.372V7.84ZM266.172 7.84H265.172V11.392H266.172H267.172V7.84H266.172ZM266.172 11.392V10.392H258.372V11.392V12.392H266.172V11.392ZM258.372 11.392H259.372V7.84H258.372H257.372V11.392H258.372ZM258.708 14.464V15.464H267.492V14.464V13.464H258.708V14.464ZM267.492 14.464H266.492V18.136H267.492H268.492V14.464H267.492ZM267.492 18.136V17.136H254.004V18.136V19.136H267.492V18.136ZM254.004 18.136H255.004V1.336H254.004H253.004V18.136H254.004ZM254.004 1.336V2.336H267.18V1.336V0.336H254.004V1.336ZM267.18 1.336H266.18V5.008H267.18H268.18V1.336H267.18ZM267.18 5.008V4.008H258.708V5.008V6.008H267.18V5.008ZM258.708 5.008H257.708V14.464H258.708H259.708V5.008H258.708ZM270.129 18.136H269.129V19.136H270.129V18.136ZM270.129 1.336V0.336H269.129V1.336H270.129ZM281.769 2.08L281.359 2.99218L281.364 2.99435L281.769 2.08ZM284.361 4.24L283.52 4.7815L283.524 4.78803L284.361 4.24ZM284.361 10.84L285.193 11.3947L285.197 11.388L284.361 10.84ZM281.769 12.952L282.167 13.8691L282.174 13.8664L281.769 12.952ZM272.769 13.672L272.083 12.9445L270.251 14.672H272.769V13.672ZM274.881 11.68H275.881V9.36219L274.195 10.9525L274.881 11.68ZM274.881 18.136V19.136H275.881V18.136H274.881ZM280.521 18.136L279.695 18.6996L279.992 19.136H280.521V18.136ZM276.345 12.016V11.016H274.452L275.519 12.5796L276.345 12.016ZM281.409 12.016L282.233 11.4502L281.935 11.016H281.409V12.016ZM285.609 18.136V19.136H287.508L286.433 17.5702L285.609 18.136ZM274.881 12.184L274.162 12.8792L275.881 14.6566V12.184H274.881ZM272.769 10V9H270.411L272.05 10.6952L272.769 10ZM279.729 9.352L279.072 8.59792L279.066 8.60326L279.06 8.60871L279.729 9.352ZM279.729 5.728L279.06 6.4713L279.066 6.47674L279.072 6.48208L279.729 5.728ZM272.769 5.08L272.05 4.38484L270.411 6.08H272.769V5.08ZM274.881 2.896H275.881V0.423388L274.162 2.20084L274.881 2.896ZM270.129 18.136H271.129V1.336H270.129H269.129V18.136H270.129ZM270.129 1.336V2.336H277.809V1.336V0.336H270.129V1.336ZM277.809 1.336V2.336C279.24 2.336 280.414 2.56742 281.359 2.99217L281.769 2.08L282.179 1.16783C280.916 0.600578 279.449 0.336 277.809 0.336V1.336ZM281.769 2.08L281.364 2.99435C282.322 3.41877 283.027 4.01655 283.52 4.78148L284.361 4.24L285.201 3.69852C284.478 2.57545 283.455 1.73323 282.174 1.16565L281.769 2.08ZM284.361 4.24L283.524 4.78803C284.01 5.52926 284.273 6.43601 284.273 7.552H285.273H286.273C286.273 6.10799 285.928 4.80674 285.197 3.69197L284.361 4.24ZM285.273 7.552H284.273C284.273 8.64922 284.011 9.54871 283.524 10.292L284.361 10.84L285.197 11.388C285.926 10.2753 286.273 8.98279 286.273 7.552H285.273ZM284.361 10.84L283.529 10.2853C283.038 11.0212 282.331 11.6092 281.364 12.0377L281.769 12.952L282.174 13.8664C283.446 13.3028 284.467 12.4828 285.193 11.3947L284.361 10.84ZM281.769 12.952L281.37 12.0349C280.421 12.4474 279.244 12.672 277.809 12.672V13.672V14.672C279.446 14.672 280.908 14.4166 282.167 13.8691L281.769 12.952ZM277.809 13.672V12.672H272.769V13.672V14.672H277.809V13.672ZM272.769 13.672L273.455 14.3995L275.567 12.4075L274.881 11.68L274.195 10.9525L272.083 12.9445L272.769 13.672ZM274.881 11.68H273.881V18.136H274.881H275.881V11.68H274.881ZM274.881 18.136V17.136H270.129V18.136V19.136H274.881V18.136ZM280.521 18.136L281.347 17.5724L277.171 11.4524L276.345 12.016L275.519 12.5796L279.695 18.6996L280.521 18.136ZM276.345 12.016V13.016H281.409V12.016V11.016H276.345V12.016ZM281.409 12.016L280.584 12.5818L284.784 18.7018L285.609 18.136L286.433 17.5702L282.233 11.4502L281.409 12.016ZM285.609 18.136V17.136H280.521V18.136V19.136H285.609V18.136ZM274.881 12.184L275.6 11.4888L273.488 9.30484L272.769 10L272.05 10.6952L274.162 12.8792L274.881 12.184ZM272.769 10V11H277.521V10V9H272.769V10ZM277.521 10V11C278.632 11 279.657 10.7617 280.398 10.0953L279.729 9.352L279.06 8.60871C278.84 8.80635 278.393 9 277.521 9V10ZM279.729 9.352L280.385 10.1061C281.137 9.45163 281.473 8.55564 281.473 7.552H280.473H279.473C279.473 8.08436 279.313 8.38837 279.072 8.59792L279.729 9.352ZM280.473 7.552H281.473C281.473 6.53973 281.142 5.63247 280.385 4.97392L279.729 5.728L279.072 6.48208C279.308 6.68753 279.473 6.99627 279.473 7.552H280.473ZM279.729 5.728L280.398 4.98471C279.657 4.31835 278.632 4.08 277.521 4.08V5.08V6.08C278.393 6.08 278.84 6.27365 279.06 6.4713L279.729 5.728ZM277.521 5.08V4.08H272.769V5.08V6.08H277.521V5.08ZM272.769 5.08L273.488 5.77516L275.6 3.59116L274.881 2.896L274.162 2.20084L272.05 4.38484L272.769 5.08ZM274.881 2.896H273.881V12.184H274.881H275.881V2.896H274.881ZM287.894 18.136H286.894V19.136H287.894V18.136ZM287.894 1.336V0.336H286.894V1.336H287.894ZM299.534 2.08L299.125 2.99218L299.129 2.99435L299.534 2.08ZM302.126 4.24L301.286 4.7815L301.29 4.78803L302.126 4.24ZM302.126 10.84L302.963 11.388L302.126 10.84ZM299.534 13L299.944 13.9122L299.95 13.9095L299.534 13ZM290.534 13.744L289.835 13.0288L288.08 14.744H290.534V13.744ZM292.646 11.68H293.646V9.30449L291.947 10.9648L292.646 11.68ZM292.646 18.136V19.136H293.646V18.136H292.646ZM292.646 12.184L291.927 12.8792L293.646 14.6566V12.184H292.646ZM290.534 10V9H288.176L289.815 10.6952L290.534 10ZM297.494 9.352L296.838 8.59792L296.831 8.60326L296.825 8.60871L297.494 9.352ZM297.494 5.728L296.825 6.4713L296.831 6.47674L296.838 6.48208L297.494 5.728ZM290.534 5.08L289.815 4.38484L288.176 6.08H290.534V5.08ZM292.646 2.896H293.646V0.423388L291.927 2.20084L292.646 2.896ZM287.894 18.136H288.894V1.336H287.894H286.894V18.136H287.894ZM287.894 1.336V2.336H295.574V1.336V0.336H287.894V1.336ZM295.574 1.336V2.336C297.006 2.336 298.179 2.56742 299.125 2.99217L299.534 2.08L299.944 1.16783C298.682 0.600578 297.215 0.336 295.574 0.336V1.336ZM299.534 2.08L299.129 2.99435C300.088 3.41877 300.793 4.01655 301.286 4.78148L302.126 4.24L302.967 3.69852C302.244 2.57545 301.221 1.73323 299.939 1.16565L299.534 2.08ZM302.126 4.24L301.29 4.78803C301.776 5.52926 302.038 6.43601 302.038 7.552H303.038H304.038C304.038 6.10799 303.693 4.80674 302.963 3.69197L302.126 4.24ZM303.038 7.552H302.038C302.038 8.64922 301.777 9.54871 301.29 10.292L302.126 10.84L302.963 11.388C303.692 10.2753 304.038 8.98279 304.038 7.552H303.038ZM302.126 10.84L301.29 10.292C300.796 11.0452 300.087 11.648 299.119 12.0905L299.534 13L299.95 13.9095C301.222 13.328 302.24 12.4908 302.963 11.388L302.126 10.84ZM299.534 13L299.125 12.0878C298.179 12.5126 297.006 12.744 295.574 12.744V13.744V14.744C297.215 14.744 298.682 14.4794 299.944 13.9122L299.534 13ZM295.574 13.744V12.744H290.534V13.744V14.744H295.574V13.744ZM290.534 13.744L291.233 14.4592L293.345 12.3952L292.646 11.68L291.947 10.9648L289.835 13.0288L290.534 13.744ZM292.646 11.68H291.646V18.136H292.646H293.646V11.68H292.646ZM292.646 18.136V17.136H287.894V18.136V19.136H292.646V18.136ZM292.646 12.184L293.365 11.4888L291.253 9.30484L290.534 10L289.815 10.6952L291.927 12.8792L292.646 12.184ZM290.534 10V11H295.286V10V9H290.534V10ZM295.286 10V11C296.398 11 297.423 10.7617 298.163 10.0953L297.494 9.352L296.825 8.60871C296.606 8.80635 296.159 9 295.286 9V10ZM297.494 9.352L298.151 10.1061C298.903 9.45163 299.238 8.55564 299.238 7.552H298.238H297.238C297.238 8.08436 297.078 8.38837 296.838 8.59792L297.494 9.352ZM298.238 7.552H299.238C299.238 6.53973 298.907 5.63247 298.151 4.97392L297.494 5.728L296.838 6.48208C297.073 6.68753 297.238 6.99627 297.238 7.552H298.238ZM297.494 5.728L298.163 4.98471C297.423 4.31835 296.398 4.08 295.286 4.08V5.08V6.08C296.159 6.08 296.606 6.27365 296.825 6.4713L297.494 5.728ZM295.286 5.08V4.08H290.534V5.08V6.08H295.286V5.08ZM290.534 5.08L291.253 5.77516L293.365 3.59116L292.646 2.896L291.927 2.20084L289.815 4.38484L290.534 5.08ZM292.646 2.896H291.646V12.184H292.646H293.646V2.896H292.646ZM305.355 18.136H304.355V19.136H305.355V18.136ZM305.355 1.336V0.336H304.355V1.336H305.355ZM316.995 2.08L316.585 2.99218L316.59 2.99435L316.995 2.08ZM319.587 4.24L318.747 4.7815L318.751 4.78803L319.587 4.24ZM319.587 10.84L320.419 11.3947L320.424 11.388L319.587 10.84ZM316.995 12.952L317.394 13.8691L317.4 13.8664L316.995 12.952ZM307.995 13.672L307.309 12.9445L305.478 14.672H307.995V13.672ZM310.107 11.68H311.107V9.36219L309.421 10.9525L310.107 11.68ZM310.107 18.136V19.136H311.107V18.136H310.107ZM315.747 18.136L314.921 18.6996L315.219 19.136H315.747V18.136ZM311.571 12.016V11.016H309.678L310.745 12.5796L311.571 12.016ZM316.635 12.016L317.46 11.4502L317.162 11.016H316.635V12.016ZM320.835 18.136V19.136H322.734L321.66 17.5702L320.835 18.136ZM310.107 12.184L309.388 12.8792L311.107 14.6566V12.184H310.107ZM307.995 10V9H305.637L307.276 10.6952L307.995 10ZM314.955 9.352L314.299 8.59792L314.292 8.60326L314.286 8.60871L314.955 9.352ZM314.955 5.728L314.286 6.4713L314.292 6.47674L314.299 6.48208L314.955 5.728ZM307.995 5.08L307.276 4.38484L305.637 6.08H307.995V5.08ZM310.107 2.896H311.107V0.423388L309.388 2.20084L310.107 2.896ZM305.355 18.136H306.355V1.336H305.355H304.355V18.136H305.355ZM305.355 1.336V2.336H313.035V1.336V0.336H305.355V1.336ZM313.035 1.336V2.336C314.467 2.336 315.64 2.56742 316.585 2.99217L316.995 2.08L317.405 1.16783C316.143 0.600578 314.676 0.336 313.035 0.336V1.336ZM316.995 2.08L316.59 2.99435C317.549 3.41877 318.254 4.01655 318.747 4.78148L319.587 4.24L320.428 3.69852C319.705 2.57545 318.682 1.73323 317.4 1.16565L316.995 2.08ZM319.587 4.24L318.751 4.78803C319.236 5.52926 319.499 6.43601 319.499 7.552H320.499H321.499C321.499 6.10799 321.154 4.80674 320.424 3.69197L319.587 4.24ZM320.499 7.552H319.499C319.499 8.64922 319.238 9.54871 318.751 10.292L319.587 10.84L320.424 11.388C321.153 10.2753 321.499 8.98279 321.499 7.552H320.499ZM319.587 10.84L318.755 10.2853C318.265 11.0212 317.558 11.6092 316.59 12.0377L316.995 12.952L317.4 13.8664C318.673 13.3028 319.694 12.4828 320.419 11.3947L319.587 10.84ZM316.995 12.952L316.597 12.0349C315.648 12.4474 314.471 12.672 313.035 12.672V13.672V14.672C314.672 14.672 316.135 14.4166 317.394 13.8691L316.995 12.952ZM313.035 13.672V12.672H307.995V13.672V14.672H313.035V13.672ZM307.995 13.672L308.681 14.3995L310.793 12.4075L310.107 11.68L309.421 10.9525L307.309 12.9445L307.995 13.672ZM310.107 11.68H309.107V18.136H310.107H311.107V11.68H310.107ZM310.107 18.136V17.136H305.355V18.136V19.136H310.107V18.136ZM315.747 18.136L316.573 17.5724L312.397 11.4524L311.571 12.016L310.745 12.5796L314.921 18.6996L315.747 18.136ZM311.571 12.016V13.016H316.635V12.016V11.016H311.571V12.016ZM316.635 12.016L315.811 12.5818L320.011 18.7018L320.835 18.136L321.66 17.5702L317.46 11.4502L316.635 12.016ZM320.835 18.136V17.136H315.747V18.136V19.136H320.835V18.136ZM310.107 12.184L310.826 11.4888L308.714 9.30484L307.995 10L307.276 10.6952L309.388 12.8792L310.107 12.184ZM307.995 10V11H312.747V10V9H307.995V10ZM312.747 10V11C313.859 11 314.884 10.7617 315.624 10.0953L314.955 9.352L314.286 8.60871C314.067 8.80635 313.62 9 312.747 9V10ZM314.955 9.352L315.612 10.1061C316.363 9.45163 316.699 8.55564 316.699 7.552H315.699H314.699C314.699 8.08436 314.539 8.38837 314.299 8.59792L314.955 9.352ZM315.699 7.552H316.699C316.699 6.53973 316.368 5.63247 315.612 4.97392L314.955 5.728L314.299 6.48208C314.534 6.68753 314.699 6.99627 314.699 7.552H315.699ZM314.955 5.728L315.624 4.98471C314.884 4.31835 313.859 4.08 312.747 4.08V5.08V6.08C313.62 6.08 314.067 6.27365 314.286 6.4713L314.955 5.728ZM312.747 5.08V4.08H307.995V5.08V6.08H312.747V5.08ZM307.995 5.08L308.714 5.77516L310.826 3.59116L310.107 2.896L309.388 2.20084L307.276 4.38484L307.995 5.08ZM310.107 2.896H309.107V12.184H310.107H311.107V2.896H310.107ZM323.121 18.136H322.121V19.136H323.121V18.136ZM323.121 1.336V0.336H322.121V1.336H323.121ZM327.873 1.336H328.873V0.336H327.873V1.336ZM327.873 18.136V19.136H328.873V18.136H327.873ZM323.121 18.136H324.121V1.336H323.121H322.121V18.136H323.121ZM323.121 1.336V2.336H327.873V1.336V0.336H323.121V1.336ZM327.873 1.336H326.873V18.136H327.873H328.873V1.336H327.873ZM327.873 18.136V17.136H323.121V18.136V19.136H327.873V18.136ZM333.174 17.968L332.905 18.9313L332.913 18.9333L332.92 18.9352L333.174 17.968ZM330.078 16.624L329.164 16.2173L328.824 16.9809L329.515 17.4509L330.078 16.624ZM331.638 13.12L332.176 12.2771L331.197 11.6521L330.724 12.7133L331.638 13.12ZM334.23 14.32L333.918 15.2702L333.927 15.2733L333.937 15.2761L334.23 14.32ZM338.766 14.608L339.035 15.571L339.053 15.566L339.07 15.5604L338.766 14.608ZM339.63 14.128L338.895 13.4497L338.893 13.4523L339.63 14.128ZM339.39 12.496L338.853 13.3397L339.39 12.496ZM338.022 11.944L338.271 10.9755L338.022 11.944ZM336.15 11.512L335.94 12.4898L335.945 12.4908L336.15 11.512ZM334.11 10.96L333.793 11.9087L333.8 11.9109L334.11 10.96ZM332.262 10.096L331.713 10.9317L331.721 10.9373L331.73 10.9426L332.262 10.096ZM330.894 8.68L330.034 9.19111L330.04 9.20145L330.894 8.68ZM331.182 3.712L330.357 3.14611L330.35 3.1573L331.182 3.712ZM333.678 1.744L333.268 0.831832L333.678 1.744ZM341.046 1.384L340.81 2.35585L340.819 2.35792L340.827 2.35984L341.046 1.384ZM343.902 2.464L344.825 2.84728L345.162 2.03648L344.401 1.59781L343.902 2.464ZM342.438 5.992L341.963 6.87191L342.937 7.39806L343.361 6.37528L342.438 5.992ZM340.062 5.032L339.787 5.99353L339.796 5.99613L339.805 5.99856L340.062 5.032ZM336.198 4.912L336.503 5.86443L336.52 5.85896L336.536 5.85289L336.198 4.912ZM335.334 5.44L334.547 4.82218L335.334 5.44ZM335.574 7.096L335.019 7.92805L335.042 7.94311L335.065 7.95693L335.574 7.096ZM336.942 7.624L336.693 8.59249L336.709 8.59661L336.725 8.60019L336.942 7.624ZM338.814 8.032L338.604 9.00981L338.609 9.01079L338.814 8.032ZM340.854 8.584L340.538 9.53268L340.551 9.53714L340.564 9.54121L340.854 8.584ZM342.726 9.448L342.177 10.2837L342.185 10.2893L342.194 10.2946L342.726 9.448ZM344.07 10.864L343.2 11.3576L343.208 11.3717L343.216 11.3855L344.07 10.864ZM343.758 15.76L342.928 15.2016L342.926 15.2053L343.758 15.76ZM341.286 17.728L340.876 16.8158L340.871 16.8181L341.286 17.728ZM337.158 18.472V17.472C335.864 17.472 334.622 17.3142 333.428 17.0008L333.174 17.968L332.92 18.9352C334.286 19.2938 335.699 19.472 337.158 19.472V18.472ZM333.174 17.968L333.442 17.0047C332.248 16.6722 331.324 16.2625 330.64 15.7971L330.078 16.624L329.515 17.4509C330.431 18.0735 331.571 18.5598 332.905 18.9313L333.174 17.968ZM330.078 16.624L330.991 17.0307L332.551 13.5267L331.638 13.12L330.724 12.7133L329.164 16.2173L330.078 16.624ZM331.638 13.12L331.1 13.9629C331.932 14.4942 332.874 14.928 333.918 15.2702L334.23 14.32L334.541 13.3698C333.633 13.0721 332.847 12.7058 332.176 12.2771L331.638 13.12ZM334.23 14.32L333.937 15.2761C335.018 15.6074 336.1 15.776 337.182 15.776V14.776V13.776C336.311 13.776 335.426 13.6406 334.523 13.3639L334.23 14.32ZM337.182 14.776V15.776C337.883 15.776 338.512 15.7175 339.035 15.571L338.766 14.608L338.496 13.645C338.219 13.7225 337.793 13.776 337.182 13.776V14.776ZM338.766 14.608L339.07 15.5604C339.545 15.4086 340.022 15.1798 340.367 14.8037L339.63 14.128L338.893 13.4523C338.894 13.4513 338.87 13.4769 338.796 13.5178C338.723 13.5586 338.614 13.6065 338.461 13.6556L338.766 14.608ZM339.63 14.128L340.365 14.8063C340.719 14.4218 340.918 13.9424 340.918 13.408H339.918H338.918C338.918 13.4169 338.917 13.4211 338.917 13.4217C338.917 13.4222 338.917 13.4215 338.917 13.4206C338.918 13.4197 338.917 13.4212 338.915 13.4252C338.912 13.4294 338.906 13.4377 338.895 13.4497L339.63 14.128ZM339.918 13.408H340.918C340.918 12.6482 340.537 12.0409 339.927 11.6523L339.39 12.496L338.853 13.3397C338.919 13.3816 338.927 13.4038 338.92 13.393C338.918 13.3889 338.916 13.3846 338.916 13.3828C338.916 13.3816 338.918 13.3888 338.918 13.408H339.918ZM339.39 12.496L339.927 11.6523C339.459 11.3547 338.896 11.1364 338.271 10.9755L338.022 11.944L337.773 12.9125C338.267 13.0396 338.617 13.1893 338.853 13.3397L339.39 12.496ZM338.022 11.944L338.271 10.9755C337.693 10.827 337.054 10.6797 336.355 10.5332L336.15 11.512L335.945 12.4908C336.621 12.6323 337.23 12.773 337.773 12.9125L338.022 11.944ZM336.15 11.512L336.359 10.5342C335.723 10.3978 335.076 10.223 334.419 10.0091L334.11 10.96L333.8 11.9109C334.519 12.145 335.233 12.3382 335.94 12.4898L336.15 11.512ZM334.11 10.96L334.426 10.0113C333.824 9.81081 333.282 9.55595 332.794 9.24936L332.262 10.096L331.73 10.9426C332.362 11.3401 333.051 11.6612 333.794 11.9087L334.11 10.96ZM332.262 10.096L332.811 9.2603C332.375 8.97395 332.023 8.60961 331.747 8.15855L330.894 8.68L330.04 9.20145C330.469 9.90239 331.028 10.4821 331.713 10.9317L332.262 10.096ZM330.894 8.68L331.753 8.16893C331.517 7.77145 331.366 7.21703 331.366 6.448H330.366H329.366C329.366 7.47097 329.567 8.40455 330.034 9.19108L330.894 8.68ZM330.366 6.448H331.366C331.366 5.6316 331.582 4.91365 332.014 4.2667L331.182 3.712L330.35 3.1573C329.693 4.14235 329.366 5.2484 329.366 6.448H330.366ZM331.182 3.712L332.006 4.27784C332.441 3.64365 333.114 3.09373 334.088 2.65617L333.678 1.744L333.268 0.831832C332.034 1.38627 331.042 2.14835 330.357 3.14616L331.182 3.712ZM333.678 1.744L334.088 2.65617C335.025 2.23499 336.251 2 337.806 2V1V4.76837e-07C336.065 4.76837e-07 334.538 0.261008 333.268 0.831832L333.678 1.744ZM337.806 1V2C338.832 2 339.832 2.11885 340.81 2.35585L341.046 1.384L341.281 0.412151C340.147 0.137151 338.988 4.76837e-07 337.806 4.76837e-07V1ZM341.046 1.384L340.827 2.35984C341.814 2.58085 342.669 2.90743 343.402 3.33019L343.902 2.464L344.401 1.59781C343.47 1.06058 342.421 0.667151 341.264 0.408158L341.046 1.384ZM343.902 2.464L342.978 2.08072L341.514 5.60872L342.438 5.992L343.361 6.37528L344.825 2.84728L343.902 2.464ZM342.438 5.992L342.913 5.11209C342.052 4.64713 341.187 4.29588 340.318 4.06544L340.062 5.032L339.805 5.99856C340.505 6.18412 341.224 6.47287 341.963 6.87191L342.438 5.992ZM340.062 5.032L340.336 4.07048C339.473 3.82367 338.62 3.696 337.782 3.696V4.696V5.696C338.415 5.696 339.083 5.79233 339.787 5.99353L340.062 5.032ZM337.782 4.696V3.696C337.066 3.696 336.41 3.77275 335.859 3.97111L336.198 4.912L336.536 5.85289C336.785 5.76325 337.185 5.696 337.782 5.696V4.696ZM336.198 4.912L335.893 3.95958C335.388 4.12115 334.893 4.38284 334.547 4.82218L335.334 5.44L336.12 6.05782C336.127 6.04916 336.207 5.95885 336.503 5.86443L336.198 4.912ZM335.334 5.44L334.547 4.82218C334.231 5.22445 334.07 5.69861 334.07 6.208H335.07H336.07C336.07 6.14139 336.084 6.10355 336.12 6.05782L335.334 5.44ZM335.07 6.208H334.07C334.07 6.94703 334.437 7.5399 335.019 7.92805L335.574 7.096L336.128 6.26395C336.066 6.22255 336.059 6.20141 336.065 6.2124C336.068 6.21681 336.07 6.22189 336.071 6.22522C336.071 6.22813 336.07 6.22341 336.07 6.208H335.07ZM335.574 7.096L335.065 7.95693C335.524 8.22808 336.076 8.43391 336.693 8.59249L336.942 7.624L337.191 6.65551C336.688 6.52609 336.328 6.37992 336.082 6.23507L335.574 7.096ZM336.942 7.624L336.725 8.60019C337.304 8.72882 337.93 8.86536 338.604 9.0098L338.814 8.032L339.023 7.0542C338.353 6.91064 337.732 6.77519 337.159 6.64781L336.942 7.624ZM338.814 8.032L338.609 9.01079C339.259 9.14685 339.902 9.32076 340.538 9.53268L340.854 8.584L341.17 7.63532C340.462 7.39924 339.745 7.20516 339.019 7.05321L338.814 8.032ZM340.854 8.584L340.564 9.54121C341.167 9.72342 341.702 9.97217 342.177 10.2837L342.726 9.448L343.275 8.6123C342.629 8.18783 341.916 7.86059 341.143 7.62679L340.854 8.584ZM342.726 9.448L342.194 10.2946C342.609 10.556 342.943 10.905 343.2 11.3576L344.07 10.864L344.939 10.3704C344.524 9.63898 343.962 9.04396 343.258 8.60137L342.726 9.448ZM344.07 10.864L343.216 11.3855C343.448 11.7635 343.598 12.2973 343.598 13.048H344.598H345.598C345.598 12.0387 345.396 11.1165 344.923 10.3426L344.07 10.864ZM344.598 13.048H343.598C343.598 13.8193 343.38 14.5298 342.928 15.2016L343.758 15.76L344.587 16.3184C345.255 15.3262 345.598 14.2287 345.598 13.048H344.598ZM343.758 15.76L342.926 15.2053C342.508 15.8318 341.849 16.3789 340.876 16.8158L341.286 17.728L341.696 18.6402C342.931 18.0851 343.919 17.3202 344.59 16.3147L343.758 15.76ZM341.286 17.728L340.871 16.8181C339.954 17.2363 338.731 17.472 337.158 17.472V18.472V19.472C338.912 19.472 340.442 19.2117 341.701 18.6379L341.286 17.728ZM351.161 7.84V6.84H350.161V7.84H351.161ZM358.961 7.84H359.961V6.84H358.961V7.84ZM358.961 11.392V12.392H359.961V11.392H358.961ZM351.161 11.392H350.161V12.392H351.161V11.392ZM351.497 14.464H350.497V15.464H351.497V14.464ZM360.281 14.464H361.281V13.464H360.281V14.464ZM360.281 18.136V19.136H361.281V18.136H360.281ZM346.793 18.136H345.793V19.136H346.793V18.136ZM346.793 1.336V0.336H345.793V1.336H346.793ZM359.969 1.336H360.969V0.336H359.969V1.336ZM359.969 5.008V6.008H360.969V5.008H359.969ZM351.497 5.008V4.008H350.497V5.008H351.497ZM351.161 7.84V8.84H358.961V7.84V6.84H351.161V7.84ZM358.961 7.84H357.961V11.392H358.961H359.961V7.84H358.961ZM358.961 11.392V10.392H351.161V11.392V12.392H358.961V11.392ZM351.161 11.392H352.161V7.84H351.161H350.161V11.392H351.161ZM351.497 14.464V15.464H360.281V14.464V13.464H351.497V14.464ZM360.281 14.464H359.281V18.136H360.281H361.281V14.464H360.281ZM360.281 18.136V17.136H346.793V18.136V19.136H360.281V18.136ZM346.793 18.136H347.793V1.336H346.793H345.793V18.136H346.793ZM346.793 1.336V2.336H359.969V1.336V0.336H346.793V1.336ZM359.969 1.336H358.969V5.008H359.969H360.969V1.336H359.969ZM359.969 5.008V4.008H351.497V5.008V6.008H359.969V5.008ZM351.497 5.008H350.497V14.464H351.497H352.497V5.008H351.497ZM364.838 17.968L364.57 18.9313L364.577 18.9333L364.584 18.9352L364.838 17.968ZM361.742 16.624L360.828 16.2173L360.488 16.9809L361.179 17.4509L361.742 16.624ZM363.302 13.12L363.84 12.2771L362.861 11.6521L362.388 12.7133L363.302 13.12ZM365.894 14.32L365.582 15.2702L365.591 15.2733L365.601 15.2761L365.894 14.32ZM370.43 14.608L370.699 15.571L370.717 15.566L370.735 15.5604L370.43 14.608ZM371.294 14.128L370.559 13.4497L370.557 13.4523L371.294 14.128ZM371.054 12.496L370.517 13.3397L371.054 12.496ZM369.686 11.944L369.935 10.9755L369.686 11.944ZM367.814 11.512L367.604 12.4898L367.609 12.4908L367.814 11.512ZM365.774 10.96L365.458 11.9087L365.464 11.9109L365.774 10.96ZM363.926 10.096L363.377 10.9317L363.385 10.9373L363.394 10.9426L363.926 10.096ZM362.558 8.68L361.698 9.19111L361.704 9.20145L362.558 8.68ZM362.846 3.712L362.021 3.14611L362.014 3.1573L362.846 3.712ZM365.342 1.744L364.932 0.831832L365.342 1.744ZM372.71 1.384L372.474 2.35585L372.483 2.35792L372.491 2.35984L372.71 1.384ZM375.566 2.464L376.489 2.84728L376.826 2.03648L376.066 1.59781L375.566 2.464ZM374.102 5.992L373.627 6.87191L374.601 7.39806L375.025 6.37528L374.102 5.992ZM371.726 5.032L371.451 5.99353L371.46 5.99613L371.469 5.99856L371.726 5.032ZM367.862 4.912L368.167 5.86443L368.184 5.85896L368.201 5.85289L367.862 4.912ZM366.998 5.44L366.211 4.82218L366.998 5.44ZM367.238 7.096L366.683 7.92805L366.706 7.94311L366.729 7.95693L367.238 7.096ZM368.606 7.624L368.357 8.59249L368.373 8.59661L368.389 8.60019L368.606 7.624ZM370.478 8.032L370.268 9.00981L370.273 9.01079L370.478 8.032ZM372.518 8.584L372.202 9.53268L372.215 9.53714L372.228 9.54121L372.518 8.584ZM374.39 9.448L373.841 10.2837L373.849 10.2893L373.858 10.2946L374.39 9.448ZM375.734 10.864L374.864 11.3576L374.872 11.3717L374.881 11.3855L375.734 10.864ZM375.422 15.76L374.592 15.2016L374.59 15.2053L375.422 15.76ZM372.95 17.728L372.54 16.8158L372.535 16.8181L372.95 17.728ZM368.822 18.472V17.472C367.528 17.472 366.286 17.3142 365.092 17.0008L364.838 17.968L364.584 18.9352C365.95 19.2938 367.364 19.472 368.822 19.472V18.472ZM364.838 17.968L365.106 17.0047C363.912 16.6722 362.989 16.2625 362.304 15.7971L361.742 16.624L361.179 17.4509C362.095 18.0735 363.236 18.5598 364.57 18.9313L364.838 17.968ZM361.742 16.624L362.655 17.0307L364.215 13.5267L363.302 13.12L362.388 12.7133L360.828 16.2173L361.742 16.624ZM363.302 13.12L362.764 13.9629C363.596 14.4942 364.538 14.928 365.582 15.2702L365.894 14.32L366.205 13.3698C365.297 13.0721 364.511 12.7058 363.84 12.2771L363.302 13.12ZM365.894 14.32L365.601 15.2761C366.682 15.6074 367.764 15.776 368.846 15.776V14.776V13.776C367.975 13.776 367.09 13.6406 366.187 13.3639L365.894 14.32ZM368.846 14.776V15.776C369.547 15.776 370.176 15.7175 370.699 15.571L370.43 14.608L370.16 13.645C369.883 13.7225 369.457 13.776 368.846 13.776V14.776ZM370.43 14.608L370.735 15.5604C371.209 15.4086 371.686 15.1798 372.031 14.8037L371.294 14.128L370.557 13.4523C370.558 13.4513 370.534 13.4769 370.46 13.5178C370.387 13.5586 370.278 13.6065 370.125 13.6556L370.43 14.608ZM371.294 14.128L372.029 14.8063C372.383 14.4218 372.582 13.9424 372.582 13.408H371.582H370.582C370.582 13.4169 370.581 13.4211 370.581 13.4217C370.581 13.4222 370.581 13.4215 370.581 13.4206C370.582 13.4197 370.581 13.4212 370.579 13.4252C370.576 13.4294 370.57 13.4377 370.559 13.4497L371.294 14.128ZM371.582 13.408H372.582C372.582 12.6482 372.201 12.0409 371.591 11.6523L371.054 12.496L370.517 13.3397C370.583 13.3816 370.591 13.4038 370.584 13.393C370.582 13.3889 370.58 13.3846 370.58 13.3828C370.58 13.3816 370.582 13.3888 370.582 13.408H371.582ZM371.054 12.496L371.591 11.6523C371.123 11.3547 370.56 11.1364 369.935 10.9755L369.686 11.944L369.437 12.9125C369.931 13.0396 370.281 13.1893 370.517 13.3397L371.054 12.496ZM369.686 11.944L369.935 10.9755C369.357 10.827 368.718 10.6797 368.019 10.5332L367.814 11.512L367.609 12.4908C368.285 12.6323 368.894 12.773 369.437 12.9125L369.686 11.944ZM367.814 11.512L368.023 10.5342C367.387 10.3978 366.74 10.223 366.083 10.0091L365.774 10.96L365.464 11.9109C366.183 12.145 366.897 12.3382 367.604 12.4898L367.814 11.512ZM365.774 10.96L366.09 10.0113C365.488 9.81081 364.946 9.55595 364.458 9.24936L363.926 10.096L363.394 10.9426C364.026 11.3401 364.715 11.6612 365.458 11.9087L365.774 10.96ZM363.926 10.096L364.475 9.2603C364.039 8.97395 363.687 8.60961 363.411 8.15855L362.558 8.68L361.704 9.20145C362.133 9.90239 362.692 10.4821 363.377 10.9317L363.926 10.096ZM362.558 8.68L363.417 8.16893C363.181 7.77145 363.03 7.21703 363.03 6.448H362.03H361.03C361.03 7.47097 361.231 8.40455 361.698 9.19108L362.558 8.68ZM362.03 6.448H363.03C363.03 5.6316 363.247 4.91365 363.678 4.2667L362.846 3.712L362.014 3.1573C361.357 4.14235 361.03 5.2484 361.03 6.448H362.03ZM362.846 3.712L363.67 4.27784C364.106 3.64365 364.778 3.09373 365.752 2.65617L365.342 1.744L364.932 0.831832C363.698 1.38627 362.706 2.14835 362.021 3.14616L362.846 3.712ZM365.342 1.744L365.752 2.65617C366.689 2.23499 367.915 2 369.47 2V1V4.76837e-07C367.729 4.76837e-07 366.203 0.261008 364.932 0.831832L365.342 1.744ZM369.47 1V2C370.496 2 371.497 2.11885 372.474 2.35585L372.71 1.384L372.945 0.412151C371.811 0.137151 370.652 4.76837e-07 369.47 4.76837e-07V1ZM372.71 1.384L372.491 2.35984C373.478 2.58085 374.333 2.90743 375.066 3.33019L375.566 2.464L376.066 1.59781C375.134 1.06058 374.085 0.667151 372.928 0.408158L372.71 1.384ZM375.566 2.464L374.642 2.08072L373.178 5.60872L374.102 5.992L375.025 6.37528L376.489 2.84728L375.566 2.464ZM374.102 5.992L374.577 5.11209C373.716 4.64713 372.851 4.29588 371.982 4.06544L371.726 5.032L371.469 5.99856C372.169 6.18412 372.888 6.47287 373.627 6.87191L374.102 5.992ZM371.726 5.032L372.001 4.07048C371.137 3.82367 370.284 3.696 369.446 3.696V4.696V5.696C370.079 5.696 370.747 5.79233 371.451 5.99353L371.726 5.032ZM369.446 4.696V3.696C368.73 3.696 368.074 3.77275 367.523 3.97111L367.862 4.912L368.201 5.85289C368.449 5.76325 368.849 5.696 369.446 5.696V4.696ZM367.862 4.912L367.557 3.95958C367.052 4.12115 366.557 4.38284 366.211 4.82218L366.998 5.44L367.784 6.05782C367.791 6.04916 367.871 5.95885 368.167 5.86443L367.862 4.912ZM366.998 5.44L366.211 4.82218C365.895 5.22445 365.734 5.69861 365.734 6.208H366.734H367.734C367.734 6.14139 367.748 6.10355 367.784 6.05782L366.998 5.44ZM366.734 6.208H365.734C365.734 6.94703 366.101 7.5399 366.683 7.92805L367.238 7.096L367.792 6.26395C367.73 6.22255 367.723 6.20141 367.729 6.2124C367.732 6.21681 367.734 6.22189 367.735 6.22522C367.735 6.22813 367.734 6.22341 367.734 6.208H366.734ZM367.238 7.096L366.729 7.95693C367.188 8.22808 367.74 8.43391 368.357 8.59249L368.606 7.624L368.855 6.65551C368.352 6.52609 367.992 6.37992 367.747 6.23507L367.238 7.096ZM368.606 7.624L368.389 8.60019C368.968 8.72882 369.594 8.86536 370.268 9.0098L370.478 8.032L370.687 7.0542C370.017 6.91064 369.396 6.77519 368.823 6.64781L368.606 7.624ZM370.478 8.032L370.273 9.01079C370.923 9.14685 371.566 9.32076 372.202 9.53268L372.518 8.584L372.834 7.63532C372.126 7.39924 371.409 7.20516 370.683 7.05321L370.478 8.032ZM372.518 8.584L372.228 9.54121C372.831 9.72342 373.367 9.97217 373.841 10.2837L374.39 9.448L374.939 8.6123C374.293 8.18783 373.581 7.86059 372.807 7.62679L372.518 8.584ZM374.39 9.448L373.858 10.2946C374.273 10.556 374.607 10.905 374.864 11.3576L375.734 10.864L376.603 10.3704C376.188 9.63898 375.626 9.04396 374.922 8.60137L374.39 9.448ZM375.734 10.864L374.881 11.3855C375.112 11.7635 375.262 12.2973 375.262 13.048H376.262H377.262C377.262 12.0387 377.06 11.1165 376.587 10.3426L375.734 10.864ZM376.262 13.048H375.262C375.262 13.8193 375.044 14.5298 374.592 15.2016L375.422 15.76L376.251 16.3184C376.919 15.3262 377.262 14.2287 377.262 13.048H376.262ZM375.422 15.76L374.59 15.2053C374.172 15.8318 373.513 16.3789 372.54 16.8158L372.95 17.728L373.36 18.6402C374.595 18.0851 375.584 17.3202 376.254 16.3147L375.422 15.76ZM372.95 17.728L372.535 16.8181C371.618 17.2363 370.395 17.472 368.822 17.472V18.472V19.472C370.576 19.472 372.106 19.2117 373.365 18.6379L372.95 17.728Z" fill="url(#paint2_linear_176_40)" mask="url(#path-1-outside-1_176_40)"/>
<defs>
<linearGradient id="paint0_linear_176_40" x1="189.371" y1="-4.864" x2="189.371" y2="24.136" gradientUnits="userSpaceOnUse">
<stop stop-color="#FFD54F"/>
<stop offset="0.55" stop-color="#E3A008"/>
<stop offset="1" stop-color="#A0522D"/>
</linearGradient>
<linearGradient id="paint1_linear_176_40" x1="189.371" y1="-4.864" x2="189.371" y2="24.136" gradientUnits="userSpaceOnUse">
<stop stop-color="#E67E22"/>
<stop offset="0.6" stop-color="#A0522D"/>
</linearGradient>
<linearGradient id="paint2_linear_176_40" x1="189.371" y1="-4.864" x2="189.371" y2="24.136" gradientUnits="userSpaceOnUse">
<stop stop-color="#E67E22"/>
<stop offset="0.6" stop-color="#A0522D"/>
</linearGradient>
</defs>
</svg>
