<svg width="24" height="24" viewBox="0 0 24 24" fill="none" xmlns="http://www.w3.org/2000/svg">
<path d="M3.66893 21.3952C3.14394 21.2721 2.72442 20.855 2.6037 20.33C2.55917 20.1355 2.38807 19.9996 2.18652 19.9996C1.98496 19.9996 1.81503 20.1343 1.76934 20.33C1.64629 20.855 1.2291 21.2745 0.704106 21.3952C0.509575 21.4397 0.373628 21.6108 0.373628 21.8123C0.373628 22.0138 0.508393 22.1837 0.704106 22.2294C1.2291 22.3525 1.64862 22.7696 1.76934 23.2946C1.81387 23.4891 1.98497 23.625 2.18652 23.625C2.38808 23.625 2.55801 23.4903 2.6037 23.2946C2.72675 22.7696 3.14394 22.3501 3.66893 22.2294C3.86347 22.1849 3.99941 22.0138 3.99941 21.8123C3.99824 21.6108 3.86348 21.4397 3.66893 21.3952ZM2.18652 22.3911C2.03066 22.1627 1.83495 21.9681 1.60761 21.8123C1.83613 21.6565 2.03067 21.4608 2.18652 21.2334C2.34238 21.4619 2.53809 21.6565 2.76543 21.8123C2.53809 21.9681 2.34237 22.1627 2.18652 22.3911ZM15.9982 2.22986C16.5232 2.35289 16.9427 2.77004 17.0634 3.29499C17.1079 3.4895 17.279 3.62544 17.4806 3.62544C17.6821 3.62544 17.8521 3.49069 17.8978 3.29499C18.0208 2.77004 18.438 2.35057 18.963 2.22986C19.1575 2.18533 19.2935 2.01425 19.2935 1.81272C19.2935 1.61118 19.1587 1.44127 18.963 1.39558C18.438 1.27255 18.0185 0.855395 17.8978 0.330447C17.8532 0.135934 17.6821 0 17.4806 0C17.279 0 17.1091 0.134752 17.0634 0.330447C16.9404 0.855395 16.5232 1.27487 15.9982 1.39558C15.8036 1.44011 15.6677 1.61118 15.6677 1.81272C15.6689 2.01426 15.8036 2.18534 15.9982 2.22986ZM17.4806 1.23738C17.6364 1.46587 17.8321 1.66039 18.0595 1.81623C17.831 1.97207 17.6364 2.16776 17.4806 2.39508C17.3247 2.16659 17.129 1.97206 16.9017 1.81623C17.1302 1.66039 17.3282 1.46235 17.4806 1.23738ZM12.7322 18.8207C12.6267 18.6403 12.3959 18.5782 12.213 18.6825L9.21891 20.4108V11.5173L16.9229 7.07172V10.1347C16.9229 10.3445 17.094 10.5132 17.3014 10.5132C17.5088 10.5132 17.6799 10.3421 17.6799 10.1347V6.41569C17.6799 6.28094 17.6084 6.15439 17.4912 6.08524L9.03036 1.20143C8.91317 1.13229 8.76903 1.13229 8.65185 1.20143L0.192185 6.08524C0.0714838 6.15086 0 6.27741 0 6.41215V16.1822C0 16.3169 0.0714837 16.4435 0.188672 16.5126L8.64834 21.3964C8.7081 21.4292 8.77139 21.448 8.83701 21.448C8.90264 21.448 8.96943 21.4304 9.02568 21.3964L12.5894 19.3388C12.7769 19.2322 12.8365 19.0012 12.7322 18.8207ZM3.75323 8.79872L5.46887 9.78886V12.8039L3.75323 11.8137V8.79872ZM4.13057 8.14254L11.8345 3.69698L13.5502 4.68712L5.84621 9.13268L4.13057 8.14254ZM14.3095 5.12184L16.5443 6.41195L8.84031 10.8599L6.60556 9.5698L14.3095 5.12184ZM8.84055 1.96615L11.0753 3.25627L3.37134 7.70422L1.13658 6.41411L8.84055 1.96615ZM0.759186 7.07165L2.99394 8.36176V12.0328C2.99394 12.1675 3.06542 12.2941 3.18261 12.3632L5.6576 13.7916C5.71737 13.8244 5.78065 13.8432 5.84627 13.8432C5.9119 13.8432 5.97869 13.8256 6.03494 13.7916C6.15213 13.7225 6.22362 13.5994 6.22362 13.4612L6.22479 10.2272L8.45954 11.5173V20.4108L0.75917 15.9628L0.759186 7.07165ZM21.8248 17.444C22.3229 17.0901 22.5654 16.6402 22.5654 16.0731C22.5654 15.5059 22.3229 15.056 21.8248 14.7021C21.54 14.5006 21.4111 14.1865 21.4674 13.8444C21.5693 13.2409 21.4252 12.7523 21.0232 12.3504C20.6213 11.9485 20.1326 11.8043 19.5291 11.9063C19.1846 11.9637 18.8717 11.8348 18.6713 11.5489C18.3174 11.0509 17.8674 10.8083 17.3002 10.8083C16.733 10.8083 16.283 11.0509 15.9291 11.5489C15.7275 11.8336 15.4135 11.9625 15.0713 11.9063C14.4678 11.8043 13.9791 11.9484 13.5771 12.3504C13.1752 12.7523 13.0311 13.2409 13.133 13.8444C13.1904 14.1889 13.0615 14.5017 12.7756 14.7021C12.2775 15.056 12.0349 15.5059 12.0349 16.0731C12.0349 16.6402 12.2775 17.0866 12.7756 17.444C13.0603 17.6456 13.1892 17.9596 13.133 18.3017C13.031 18.9052 13.1752 19.3938 13.5771 19.7957C13.5947 19.8133 13.6135 19.8321 13.6311 19.8473L12.4311 22.3912C12.3736 22.5142 12.3865 22.6584 12.4639 22.772C12.5424 22.8833 12.6736 22.9454 12.8084 22.9314L14.1795 22.8025L15.0584 23.8617C15.1299 23.9484 15.2388 24 15.349 24C15.3701 24 15.3935 23.9965 15.4146 23.9941C15.5494 23.9707 15.6607 23.877 15.7053 23.7481L16.617 21.1983C16.8209 21.2909 17.0459 21.3389 17.2955 21.3389C17.5439 21.3389 17.7689 21.2944 17.974 21.1983L18.8857 23.7481C18.9303 23.877 19.0416 23.9695 19.1763 23.9941C19.1974 23.9977 19.2209 24 19.242 24C19.3533 24 19.4611 23.952 19.5326 23.8617L20.4115 22.8025L21.7826 22.9314C21.9174 22.9431 22.0498 22.8833 22.1271 22.772C22.2056 22.6607 22.2173 22.5142 22.1599 22.3912L20.9599 19.8473C20.9775 19.8297 20.9962 19.8145 21.0138 19.7957C21.4158 19.3938 21.5599 18.9052 21.458 18.3017C21.4111 17.9608 21.54 17.6456 21.8248 17.444ZM15.2248 22.8645L14.6424 22.1626C14.5616 22.0665 14.4385 22.0161 14.3155 22.0278L13.4061 22.1122L14.3003 20.2198C14.5346 20.2831 14.7924 20.289 15.0737 20.2409C15.4182 20.1835 15.7311 20.3124 15.9315 20.5983C15.9549 20.6311 15.976 20.6616 16.0006 20.6909L15.2248 22.8645ZM21.2014 22.1122L20.2921 22.0278C20.1655 22.0161 20.046 22.0665 19.9651 22.1626L19.3827 22.8645L18.6058 20.6897C18.6292 20.6592 18.6538 20.6299 18.6749 20.5971C18.8765 20.3124 19.1905 20.1835 19.5327 20.2397C19.8151 20.2878 20.073 20.2819 20.3061 20.2186L21.2014 22.1122ZM21.3842 16.8264C20.8627 17.1979 20.6131 17.7978 20.721 18.4318C20.7842 18.795 20.7151 19.0352 20.4866 19.2625C20.2581 19.491 20.019 19.5566 19.6557 19.4969C19.0229 19.3891 18.4229 19.6375 18.0503 20.1601C17.837 20.46 17.6178 20.5831 17.3003 20.5831C16.9827 20.5831 16.7635 20.4601 16.5503 20.1601C16.235 19.716 15.7581 19.4699 15.2331 19.4699C15.137 19.4699 15.0409 19.4793 14.9448 19.4933C14.5815 19.5531 14.3413 19.4875 14.114 19.259C13.8854 19.0305 13.8198 18.7915 13.8796 18.4282C13.9874 17.7955 13.739 17.1955 13.2163 16.8229C12.9163 16.6096 12.7933 16.3905 12.7933 16.073C12.7933 15.7554 12.9163 15.5363 13.2163 15.323C13.7378 14.9516 13.9874 14.3517 13.8796 13.7177C13.8163 13.3545 13.8854 13.1143 14.114 12.887C14.3425 12.6585 14.5815 12.5929 14.9448 12.6526C15.5776 12.7604 16.1776 12.512 16.5503 11.9894C16.7636 11.6894 16.9827 11.5664 17.3003 11.5664C17.6214 11.5664 17.837 11.6894 18.0503 11.9894C18.4218 12.5108 19.0218 12.7604 19.6558 12.6526C20.019 12.5893 20.2593 12.6585 20.4866 12.887C20.7151 13.1155 20.7807 13.3545 20.721 13.7177C20.6132 14.3505 20.8616 14.9504 21.3842 15.323C21.6842 15.5363 21.8073 15.7554 21.8073 16.073C21.8073 16.394 21.6842 16.6132 21.3842 16.8264ZM17.3015 12.8458C15.5191 12.8458 14.0705 14.2941 14.0705 16.0765C14.0705 17.8589 15.519 19.3072 17.3015 19.3072C19.0841 19.3072 20.5325 17.8589 20.5325 16.0765C20.5325 14.2941 19.0829 12.8458 17.3015 12.8458ZM17.3015 18.5453C15.9398 18.5453 14.8301 17.4356 14.8301 16.074C14.8301 14.7124 15.9398 13.6028 17.3015 13.6028C18.6633 13.6028 19.773 14.7124 19.773 16.074C19.773 17.4356 18.6656 18.5453 17.3015 18.5453ZM18.6058 15.1049C18.7523 15.2514 18.7523 15.4916 18.6058 15.6416L17.2043 17.043C17.1293 17.118 17.0332 17.1543 16.9371 17.1543C16.841 17.1543 16.7426 17.118 16.6699 17.043L16.0043 16.3774C15.8578 16.231 15.8578 15.9907 16.0043 15.8408C16.1508 15.6943 16.3945 15.6943 16.541 15.8408L16.9394 16.2368L18.0738 15.1026C18.2156 14.9573 18.4558 14.9573 18.6058 15.1049ZM23.6695 7.1638C23.1445 7.04076 22.725 6.62361 22.6043 6.09866C22.5598 5.90415 22.3887 5.76822 22.1871 5.76822C21.9856 5.76822 21.8156 5.90297 21.7699 6.09866C21.6469 6.62361 21.2297 7.04309 20.7047 7.1638C20.5102 7.20832 20.3742 7.3794 20.3742 7.58093C20.3742 7.78247 20.509 7.95239 20.7047 7.99807C21.2297 8.12111 21.6492 8.53826 21.7699 9.06321C21.8145 9.25772 21.9856 9.39365 22.1871 9.39365C22.3887 9.39365 22.5586 9.2589 22.6043 9.06321C22.7273 8.53826 23.1445 8.11878 23.6695 7.99807C23.8641 7.95354 24 7.78247 24 7.58093C24 7.38056 23.8652 7.20948 23.6695 7.1638ZM22.1883 8.15745C22.0324 7.92895 21.8367 7.73443 21.6094 7.57859C21.8379 7.42275 22.0324 7.22706 22.1883 6.99974C22.3441 7.22824 22.5398 7.42276 22.7672 7.57859C22.5387 7.73444 22.3406 7.93247 22.1883 8.15745Z" fill="#FFF9F3"/>
</svg>
