<svg width="24" height="24" viewBox="0 0 24 24" fill="none" xmlns="http://www.w3.org/2000/svg">
<path d="M8.1484 19.2173H4.87023C3.79903 19.2173 2.92098 18.3709 2.92098 17.3257C2.92098 16.2805 3.79318 15.4341 4.87023 15.4341H8.1484C9.21961 15.4341 10.0977 16.2805 10.0977 17.3257C10.0977 18.3709 9.22545 19.2173 8.1484 19.2173ZM4.87623 16.0079C4.12697 16.0079 3.51233 16.5986 3.51233 17.3314C3.51233 18.0642 4.12109 18.655 4.87623 18.655H8.1544C8.90366 18.655 9.51829 18.0642 9.51829 17.3314C9.51829 16.5987 8.90953 16.0079 8.1544 16.0079H4.87623ZM11.7191 8.72552C10.9289 7.72575 9.84009 7.15201 8.63423 7.10658V2.64741C9.06154 2.51108 9.36592 2.1248 9.36592 1.66469V1.03984C9.36592 0.471802 8.88592 0.00599141 8.30056 0.00599141H4.72389C4.13853 0.00599141 3.65853 0.471802 3.65853 1.03984V1.66469C3.65853 2.11912 3.96291 2.51109 4.39023 2.64741V7.10658C3.18439 7.15202 2.09563 7.72008 1.30536 8.72552C0.450726 9.8105 0 11.3101 0 13.071V22.3927C0 23.2675 0.731699 23.9776 1.63315 23.9776H11.3969C12.2984 23.9776 13.0301 23.2675 13.0301 22.3927V13.071C13.0242 11.31 12.5737 9.81035 11.7191 8.72552ZM4.24415 1.66477V1.03993C4.24415 0.784308 4.46073 0.57412 4.72416 0.57412H8.30083C8.56425 0.57412 8.78084 0.784299 8.78084 1.03993V1.66477C8.78084 1.9204 8.56426 2.13058 8.30083 2.13058H4.72416C4.46074 2.13058 4.24415 1.92608 4.24415 1.66477ZM8.0489 2.69862V7.10108H4.97573V2.69862H8.0489ZM4.54835 7.67462H8.47598C10.7355 7.67462 12.3395 9.76504 12.433 12.787H0.591048C0.684706 9.75937 2.28303 7.67462 4.54835 7.67462ZM12.439 13.355V21.3078H0.585353V13.355H12.439ZM11.3912 23.4094H1.63309C1.05358 23.4094 0.585293 22.955 0.585293 22.3926V21.8757H12.4389V22.3926C12.4389 22.955 11.9707 23.4094 11.3912 23.4094ZM22.5366 12.8152V9.53746C23.4029 9.12278 24 8.25366 24 7.25389C24 5.50998 22.7473 4.04446 21.0732 3.65823V2.69822H21.0849C21.4829 2.69822 21.8049 2.3858 21.8049 1.99953V0.698687C21.8049 0.312421 21.4829 0 21.0849 0H17.5493C17.1513 0 16.8293 0.312421 16.8293 0.698687V2.0052C16.8293 2.39147 17.1513 2.70389 17.5493 2.70389H17.561V3.65252C15.8869 4.03879 14.6342 5.50437 14.6342 7.24819C14.6342 8.24796 15.2313 9.11707 16.0976 9.53176V12.8095C15.2664 12.9686 14.6342 13.6787 14.6342 14.5364V21.5858C14.6342 21.5972 14.6342 21.6028 14.6401 21.6142C14.7044 22.9378 15.8342 24 17.2098 24H21.4242C22.8467 24 23.9998 22.8809 23.9998 21.5006V14.5477C23.9998 13.6957 23.3678 12.9743 22.5366 12.8152ZM17.4146 2.00526V0.698745C17.4146 0.624898 17.4732 0.568094 17.5493 0.568094H21.0849C21.161 0.568094 21.2195 0.624898 21.2195 0.698745V2.00526C21.2195 2.07911 21.161 2.13591 21.0849 2.13591H17.5493C17.4732 2.13023 17.4146 2.07343 17.4146 2.00526ZM18.1463 3.55035V2.69828H20.4878V3.55035H18.1463ZM15.2195 7.25392C15.2195 5.52705 16.6654 4.12389 18.445 4.12389H20.1835C21.963 4.12389 23.4089 5.52696 23.4089 7.25392C23.4089 8.34457 22.4958 9.23641 21.366 9.23641H17.2511C16.133 9.23073 15.2199 8.34457 15.2199 7.25392H15.2195ZM21.3716 9.79878H21.9511V12.7811H16.6829V9.79878H21.3716ZM15.2195 16.8994H20.4878V19.8816H15.2195V16.8994ZM15.2195 20.4555H20.7806C20.9445 20.4555 21.0733 20.3305 21.0733 20.1715V16.6212C21.0733 16.4621 20.9445 16.3371 20.7806 16.3371H15.2195V15.4851H21.9512V21.3077H15.2195V20.4555ZM23.4147 21.5007C23.4147 22.5629 22.5191 23.4321 21.4245 23.4321H17.21C16.2442 23.4321 15.4364 22.7561 15.2549 21.8699H22.244C22.4079 21.8699 22.5367 21.7449 22.5367 21.5859V15.1953C22.5367 15.0362 22.4079 14.9112 22.244 14.9112H15.2195V14.5363C15.2195 13.883 15.7698 13.3491 16.4429 13.3491H22.1853C22.8585 13.3491 23.4087 13.883 23.4087 14.5363V21.5005L23.4147 21.5007Z" fill="white"/>
</svg>
