<svg width="24" height="24" viewBox="0 0 24 24" fill="none" xmlns="http://www.w3.org/2000/svg">
<path d="M23.6656 0.00989972H21.3847C21.2909 0.00989972 21.2019 0.0515104 21.1381 0.124828L20.6441 0.698465L20.1454 0.123838C20.0825 0.051513 19.9935 0.00990226 19.8997 0.00990226H18.0342C17.9451 0.00990226 17.8608 0.0465596 17.7979 0.11294L17.3048 0.634076L16.7976 0.109972C16.7358 0.0465646 16.6533 0.00990734 16.5661 0.00990734L14.499 0H14.4971H14.498C14.4052 0 14.3162 0.0406216 14.2533 0.112944L13.8146 0.612293L13.3234 0.101074C13.2606 0.036675 13.1771 1.77783e-05 13.089 1.77783e-05H11.3462C11.2562 1.77783e-05 11.17 0.0386559 11.1063 0.106028L10.585 0.675709L9.91941 0.0832519C9.85942 0.0287618 9.78254 3.04771e-05 9.70473 3.04771e-05H7.91227C7.82415 3.04771e-05 7.73884 0.0366878 7.67603 0.103068C7.61415 0.169448 7.57853 0.258615 7.57853 0.351746V3.60051V3.62032V3.62131V3.63419C7.57853 3.65202 7.5804 3.66986 7.58322 3.68769C7.70696 6.00702 7.78383 8.09453 7.81758 10.0513L4.40704 10.2871V10.2881C4.15956 10.3039 3.93924 10.4585 3.82957 10.6933C3.71988 10.9281 3.73676 11.2065 3.87456 11.4245L4.30675 12.1091L3.73115 12.5282L3.11335 11.4601C2.99054 11.2471 2.77024 11.1203 2.53492 11.1272C2.29962 11.1332 2.08587 11.2719 1.97432 11.4909L0.0862466 15.1576C0.0281227 15.2686 -2.16001e-06 15.3934 0.00468731 15.5202C0.00187483 15.539 0 15.5579 0 15.5777V16.2722C0 18.5856 1.10435 20.7435 2.93704 22.0106V23.6483C2.93704 23.8425 3.0861 24 3.26984 24H9.71126C9.79938 24 9.88375 23.9633 9.94656 23.897C10.0094 23.8306 10.045 23.7414 10.045 23.6483V23.4323C10.1172 23.4135 10.1819 23.3689 10.2269 23.3055L10.5943 22.7982L10.9197 23.2936C10.9815 23.3887 11.0847 23.4452 11.1934 23.4452H13.2268C13.3308 23.4452 13.4293 23.3937 13.4921 23.3065L13.8483 22.8131L14.2983 23.3303C14.3621 23.4036 14.4511 23.4452 14.5449 23.4452L16.5567 23.4422H16.5558C16.6467 23.4422 16.732 23.4036 16.7948 23.3352L17.3113 22.7725L17.8476 23.3392C17.9095 23.4056 17.9948 23.4422 18.0829 23.4422H19.8547C19.9428 23.4422 20.0282 23.4056 20.09 23.3392L20.66 22.7368L21.3312 23.358H21.3322C21.3931 23.4145 21.4709 23.4452 21.5516 23.4452H23.6665C23.7546 23.4452 23.8399 23.4085 23.9018 23.3421C23.9646 23.2758 23.9993 23.1856 23.9993 23.0925V20.1242V20.1014V20.0846C24.0002 20.0727 24.0002 20.0608 23.9993 20.0489C23.9993 20.0222 23.9965 19.9954 23.9909 19.9687C23.7134 15.4261 23.5034 9.94924 23.9984 3.68278V3.65305V0.362697C23.9984 0.16851 23.8493 0.0108889 23.6656 0.00989972ZM9.58179 0.704418L10.3918 1.42569L10.3927 1.4247C10.5268 1.54458 10.7255 1.53369 10.8474 1.40093L11.4877 0.70344H12.953L13.5914 1.36922C13.6551 1.43659 13.7423 1.47325 13.8323 1.47127C13.9223 1.46829 14.0086 1.42767 14.0695 1.35832L14.6423 0.706415L16.4282 0.715331L17.0741 1.38309C17.2044 1.51783 17.4144 1.51684 17.5428 1.38012L18.1719 0.714337H19.7534L20.3993 1.45938C20.4621 1.53269 20.5521 1.57331 20.6449 1.5743C20.7386 1.57331 20.8277 1.5317 20.8914 1.45839L21.5327 0.714335H23.3317V3.28133H8.24596V0.704443L9.58179 0.704418ZM8.2665 3.98666H23.3054C22.9464 9.21678 22.9464 14.4667 23.3054 19.6961H12.1138H12.1148C12.6838 18.6558 12.9838 17.4748 12.9819 16.2731V15.5775C12.9819 15.3824 12.8329 15.2248 12.6491 15.2248H11.3104L12.2535 14.4511H12.2526C12.4363 14.3015 12.5301 14.0597 12.4982 13.817C12.4673 13.5743 12.3154 13.3682 12.1017 13.276L9.01824 11.9494L9.44477 11.0389C9.55352 10.8041 9.53665 10.5257 9.39884 10.3088C9.26103 10.0908 9.02479 9.96695 8.7773 9.9848L8.48386 10.0046C8.45105 8.144 8.379 6.16738 8.2665 3.98666ZM3.80407 13.3284C3.81438 13.3224 3.82469 13.3145 3.83407 13.3076L4.95152 12.4942H4.95246L4.95621 12.4912L5.70151 11.9483L5.94995 15.2257L4.315 15.2267L2.47099 14.3024L3.80407 13.3284ZM9.1804 15.2237L8.55042 14.1091L8.32917 12.412L8.42573 12.4536C8.43323 12.4575 8.44167 12.4605 8.45104 12.4645L11.8184 13.9139L10.2219 15.2247L9.1804 15.2237ZM8.40416 15.2237L6.61828 15.2247L6.51984 13.9229L7.07576 12.8707L8.40416 15.2237ZM12.3144 15.9281V16.2709C12.3144 16.3987 12.3106 16.5255 12.3031 16.6524L0.679289 16.6593C0.67179 16.5315 0.667102 16.4017 0.667102 16.2709V15.9301L12.3144 15.9281ZM0.759177 17.3657L12.2237 17.3588C12.1937 17.5361 12.1562 17.7115 12.1112 17.8839L0.870834 17.8898C0.826774 17.7174 0.789176 17.543 0.759177 17.3657ZM4.42939 11.0318C4.42283 11.0238 4.4219 11.012 4.42752 11.004C4.43314 10.9931 4.43596 10.9911 4.44908 10.9902L8.8196 10.688C8.8346 10.688 8.83835 10.69 8.84491 10.6999V10.6989C8.85147 10.7068 8.85147 10.7187 8.84585 10.7276L8.39118 11.7025C8.19056 11.6738 7.989 11.7461 7.84558 11.8987C7.70308 12.0503 7.63653 12.2643 7.66465 12.4763L7.6759 12.5595L7.63184 12.4812V12.4822C7.51278 12.2712 7.29717 12.1434 7.0656 12.1474C6.83404 12.1503 6.62216 12.2841 6.50874 12.4981L6.42343 12.6596L6.36437 11.8769C6.34656 11.6282 6.20406 11.4092 5.99125 11.3023C5.77845 11.1953 5.52814 11.2171 5.33408 11.3587L4.85409 11.7075L4.42939 11.0318ZM2.55258 11.8412L3.18069 12.927L2.0782 13.7296C1.88415 13.8712 1.77728 14.111 1.79602 14.3587C1.81477 14.6064 1.95727 14.8243 2.17007 14.9313L2.7588 15.2266H0.810728L2.55258 11.8412ZM1.09762 18.5941L11.8851 18.5892H11.8841C11.7191 19.0172 11.5082 19.4254 11.256 19.8038C11.2335 19.8286 11.2148 19.8563 11.1998 19.8871C10.7592 20.5251 10.2079 21.069 9.57514 21.4891C9.54702 21.502 9.51983 21.5198 9.49639 21.5406C8.58893 22.1202 7.54926 22.4263 6.49 22.4263C5.42971 22.4263 4.39099 22.1202 3.4836 21.5406C3.46016 21.5198 3.43298 21.502 3.40485 21.4891C2.36895 20.8025 1.56167 19.7899 1.09762 18.5941ZM9.37739 23.2952H3.60339V22.4134C5.42208 23.3695 7.55848 23.3695 9.37739 22.4134V23.2952ZM21.677 22.7404L20.8652 21.9884C20.733 21.8665 20.5343 21.8735 20.4105 22.0042L19.7168 22.7374H18.2206L17.5428 22.0211C17.48 21.9537 17.3947 21.9171 17.3047 21.9181C17.2156 21.919 17.1303 21.9567 17.0675 22.0251L16.4131 22.7374L14.6891 22.7394L14.0713 22.0251C14.0038 21.9478 13.9082 21.9062 13.8098 21.9111C13.7113 21.9161 13.6195 21.9666 13.5595 22.0498L13.0617 22.7404L11.3677 22.7394L10.8811 21.9993C10.8202 21.9072 10.7217 21.8507 10.6149 21.8477C10.5089 21.8457 10.4077 21.8963 10.343 21.9864L10.0449 22.3976V22.0102C10.6693 21.5753 11.2195 21.0313 11.6714 20.4012H23.3317V22.7404L21.677 22.7404ZM11.4754 11.0168L13.8322 12.2007L14.3394 16.0853V16.0863C14.3722 16.3538 14.5391 16.5807 14.7762 16.6798C14.8616 16.7174 14.9544 16.7372 15.0472 16.7372C15.2047 16.7362 15.3575 16.6808 15.4812 16.5767L19.1215 13.5867C19.2977 13.443 19.3999 13.2211 19.398 12.9853C19.3961 12.7505 19.2911 12.5295 19.1121 12.3889L20.4433 9.53652C20.553 9.30072 20.5352 9.02135 20.3973 8.80239C20.2586 8.58442 20.0205 8.46057 19.773 8.47744L16.5218 8.70432L16.4234 7.41039V7.4094C16.4018 7.13794 16.2452 6.89818 16.0118 6.78126C15.7784 6.66435 15.5037 6.68714 15.2918 6.84269L11.3771 9.69502C11.1633 9.85057 11.0443 10.1141 11.0649 10.3866C11.0855 10.659 11.242 10.8999 11.4754 11.0168ZM15.0715 16.0219C15.0593 16.0338 15.0396 16.0358 15.0246 16.0259C15.0124 16.0209 15.003 16.015 14.9993 15.9902L14.553 12.5632L15.7717 13.1755C15.8692 13.224 15.9752 13.2498 16.083 13.2498C16.2292 13.2498 16.3717 13.2022 16.4908 13.113C16.5733 13.0536 16.6436 12.9763 16.697 12.8872L17.282 13.8135H17.283C17.3383 13.9007 17.4114 13.975 17.4967 14.0295L15.0715 16.0219ZM19.8142 9.18277H19.8198C19.832 9.18277 19.8358 9.18673 19.8433 9.19763V9.19664C19.8498 9.20556 19.8508 9.21745 19.8452 9.22735L17.8896 13.4163C17.8793 13.4391 17.8502 13.4421 17.8371 13.4213L15.3827 9.53565C15.3752 9.52376 15.3752 9.5198 15.3827 9.50295C15.3874 9.49205 15.3892 9.49007 15.4052 9.48908L19.8142 9.18277ZM11.7538 10.2775L15.6695 7.42318C15.6855 7.4103 15.707 7.40832 15.7248 7.41823C15.7445 7.42615 15.7577 7.44597 15.7577 7.46776L15.8552 8.7488L15.363 8.78249V8.78348C15.1145 8.80032 14.8933 8.95587 14.7827 9.19167C14.672 9.42747 14.6889 9.70786 14.8277 9.9268L16.097 11.936L16.1373 12.4799C16.1383 12.5008 16.128 12.5206 16.112 12.5315C16.0951 12.5434 16.0745 12.5453 16.0567 12.5374L11.762 10.3806C11.7414 10.3726 11.7283 10.3518 11.7292 10.329C11.7255 10.3072 11.7358 10.2864 11.7536 10.2765L11.7538 10.2775ZM2.80373 9.49585L2.33123 8.99752L2.81777 8.48333L3.28931 8.98268L2.80373 9.49585ZM5.43717 8.14151L4.81751 7.87997L5.07344 7.20328L5.6931 7.46483L5.43717 8.14151ZM4.92344 9.74355L4.45191 9.24521L4.93751 8.73103L5.40905 9.22936L4.92344 9.74355ZM6.85558 8.32182L6.81152 7.6184L7.49776 7.56985L7.54182 8.27327L6.85558 8.32182ZM18.3865 6.4939H22.0145C22.1026 6.4939 22.188 6.45625 22.2498 6.39086C22.3126 6.32448 22.3473 6.23532 22.3473 6.14119V4.88592V4.88691C22.3473 4.69174 22.1983 4.53421 22.0145 4.53421H18.3865C18.2019 4.53421 18.0528 4.69174 18.0528 4.88691V6.14218V6.14119C18.0528 6.33637 18.2019 6.4939 18.3865 6.4939ZM18.7203 5.23863H21.6808V5.78949H18.7193L18.7203 5.23863ZM22.2247 18.3828C22.2247 18.578 22.0756 18.7355 21.8919 18.7355H19.9822C19.7985 18.7355 19.6494 18.578 19.6494 18.3828C19.6494 18.1886 19.7985 18.0301 19.9822 18.0301H21.8919C22.0756 18.0311 22.2247 18.1886 22.2247 18.3828ZM22.2247 17.0126C22.2247 17.2078 22.0756 17.3653 21.8919 17.3653H19.9822C19.7985 17.3653 19.6494 17.2078 19.6494 17.0126C19.6494 16.8184 19.7985 16.6609 19.9822 16.6609H21.8919C22.0756 16.6609 22.2247 16.8184 22.2247 17.0126Z" fill="white"/>
</svg>
