<svg width="24" height="24" viewBox="0 0 24 24" fill="none" xmlns="http://www.w3.org/2000/svg">
<path d="M9.99227 15.8314C10.256 15.8314 10.4698 15.5655 10.4698 15.2368C10.4698 14.9081 10.256 14.6421 9.99227 14.6421H2.98886C2.72516 14.6421 2.51135 14.9081 2.51135 15.2368C2.51135 15.5655 2.72516 15.8314 2.98886 15.8314H9.99227Z" fill="white"/>
<path d="M23.9338 8.05943C23.8478 7.87824 23.6915 7.76732 23.5225 7.76732H19.7021L19.8663 7.4334C20.1261 6.90319 20.1356 6.26438 19.892 5.72372C19.7053 5.30922 19.4002 5.02767 19.0441 4.91813C19.4437 4.15768 19.7738 3.68008 19.7738 2.71726C19.7738 1.21896 18.7971 0 17.5965 0H11.1357C10.5551 0 10.0079 0.283398 9.59473 0.798509C9.59339 0.800188 9.51023 0.909683 9.5094 0.911753C9.47204 0.962064 0.552633 12.975 0.515282 13.0253C0.50068 13.045 0.495172 13.0698 0.483106 13.0911C0.186469 13.5552 0.00163211 14.1348 0.00163211 14.7727V15.7007C0.00163211 16.6601 0.405318 17.5004 1.00978 17.984C0.394564 18.6052 0 19.5527 0 20.6137C0 22.4808 1.21966 24 2.71864 24H16.8555C16.964 24 17.0703 23.953 17.1549 23.8688C17.2039 23.82 17.2445 23.7596 17.2748 23.6916L23.9406 8.64946C24.0222 8.46536 24.0196 8.24062 23.9338 8.05943ZM18.7138 6.05357C18.923 6.05357 19.0251 6.23012 19.0594 6.30619C19.0939 6.38285 19.1627 6.58669 19.0517 6.81317L13.523 18.0535C13.4732 17.9676 13.4207 17.8838 13.3593 17.8094C13.1438 17.5335 12.8709 17.3504 12.5711 17.2722C12.6372 17.1569 12.6921 17.0327 12.7433 16.905C12.7469 16.8987 12.7518 16.8943 12.7552 16.8877L18.4476 6.05357H18.7138ZM10.2702 1.63941C10.5029 1.34905 10.8104 1.18934 11.1357 1.18934H17.5965C18.2704 1.18934 18.8187 1.87461 18.8187 2.71726C18.8187 3.00356 18.7579 3.2765 18.6425 3.51054L12.9454 14.353C12.782 13.0547 11.8853 12.0555 10.7978 12.0555H2.53616C2.56354 12.0186 10.2702 1.63942 10.2702 1.63941ZM2.1833 17.2286C1.50691 17.2286 0.956652 16.5434 0.956652 15.7007V14.7727C0.956652 14.3751 1.08215 14.0157 1.28267 13.7436L1.3335 13.6751C1.55424 13.4099 1.85309 13.2448 2.1833 13.2448H10.7978C11.4742 13.2448 12.0245 13.9301 12.0245 14.7727V15.7007C12.0245 16.5414 11.4767 17.2249 10.8024 17.2281C2.69738 17.2281 2.29907 17.2286 2.1833 17.2286ZM16.5744 22.8107H2.71864C1.74613 22.8107 0.95502 21.8252 0.95502 20.6137C0.95502 19.4049 1.74368 18.4212 2.71403 18.418H10.7978C10.7994 18.418 10.8009 18.4174 10.8024 18.4174H12.2409C12.4092 18.4174 12.5633 18.4958 12.6839 18.6497C12.7983 18.7891 12.8615 18.9807 12.8615 19.1904C12.8615 19.301 12.8403 19.4123 12.8062 19.511L12.7261 19.6737C12.6083 19.8569 12.4329 19.9633 12.2409 19.9633H4.47922C4.21552 19.9633 4.00171 20.2293 4.00171 20.558C4.00171 20.8867 4.21552 21.1527 4.47922 21.1527H12.2409C12.8084 21.1527 13.3458 20.8051 13.6488 20.0745L19.1171 8.95666H22.7137L16.5744 22.8107Z" fill="white"/>
</svg>
