<svg width="24" height="24" viewBox="0 0 24 24" fill="none" xmlns="http://www.w3.org/2000/svg">
<path d="M11.9965 0C11.959 0 11.9215 0.00800314 11.8863 0.0217228L6.7407 2.08083L6.71375 2.07054L6.70203 2.09683L0.186327 4.70473C0.073827 4.75046 0 4.85679 0 4.97569V19.0246C0 19.1435 0.073827 19.251 0.186327 19.2956L11.8863 23.9786C11.959 24.0071 12.041 24.0071 12.1137 23.9786L23.8137 19.2956C23.9262 19.251 24 19.1435 24 19.0246V4.97569C24 4.85679 23.9262 4.75046 23.8137 4.70473L12.1137 0.0217482C12.0762 0.0068853 12.0375 0 11.9965 0ZM12 0.609372L22.9089 4.97683L18.4029 6.77984L18.4134 6.75354L7.53152 2.3975L12 0.609372ZM6.74067 2.7142L17.6508 7.08166L12 9.34198L1.09107 4.97569L6.74067 2.7142ZM0.599972 5.41241L11.7 9.85538V23.2709L0.599972 18.828V5.41241ZM23.4 5.41241V18.828L18.3 20.8688V16.9758C18.3011 16.8969 18.2695 16.8203 18.2121 16.7643C18.1547 16.7082 18.0762 16.6774 17.9953 16.6785C17.8301 16.6819 17.6976 16.8146 17.7 16.9758V21.0734C17.7 21.0848 17.7011 21.0974 17.7023 21.1088L12.2999 23.2708V9.85523L17.6999 7.69324V11.7074C17.6987 11.7852 17.7304 11.8618 17.7866 11.9167C17.8429 11.9727 17.9191 12.0047 17.9999 12.0047C18.0808 12.0047 18.1569 11.9727 18.2132 11.9167C18.2694 11.8618 18.3011 11.7852 18.2999 11.7074V7.60983C18.3011 7.56067 18.2882 7.5115 18.2648 7.46691L23.4 5.41241Z" fill="white"/>
</svg>
