<svg width="24" height="24" viewBox="0 0 24 24" fill="none" xmlns="http://www.w3.org/2000/svg">
<rect x="1" y="1" width="22" height="21.4981" rx="10.7491" stroke="#E3A008" stroke-width="2"/>
<path fill-rule="evenodd" clip-rule="evenodd" d="M16.2106 14.4376L14.0544 13.3613L12.6875 14.2773C12.5835 14.3458 12.4641 14.3873 12.34 14.3981C12.216 14.4089 12.0912 14.3886 11.9769 14.3391C10.7015 13.8025 9.68692 12.7879 9.15031 11.5126C9.10292 11.3986 9.08437 11.2748 9.09631 11.152C9.10825 11.0291 9.15031 10.9112 9.21875 10.8085L10.1347 9.44538L9.05844 7.28913C8.54835 7.39122 8.0894 7.6669 7.75968 8.06926C7.42997 8.47162 7.24985 8.9758 7.25 9.496C7.25198 11.2856 7.96378 13.0013 9.22922 14.2668C10.4947 15.5322 12.2104 16.244 14 16.246C14.5208 16.247 15.0259 16.0673 15.429 15.7375C15.8322 15.4077 16.1084 14.9483 16.2106 14.4376Z" fill="#E3A008"/>
</svg>
