<svg width="227" height="57" viewBox="0 0 227 57" fill="none" xmlns="http://www.w3.org/2000/svg">
<mask id="path-1-outside-1_268_16" maskUnits="userSpaceOnUse" x="-0.0734863" y="-0.0078125" width="227" height="57" fill="black">
<rect fill="white" x="-0.0734863" y="-0.0078125" width="227" height="57"/>
<path d="M1.53451 20.9922L10.1865 1.39219H15.6465L24.3265 20.9922H18.5585L11.7825 4.10819H13.9665L7.19051 20.9922H1.53451ZM6.26651 17.1842L7.69451 13.0962H17.2705L18.6985 17.1842H6.26651ZM29.0859 20.9922V5.78819H23.0659V1.39219H40.6219V5.78819H34.6299V20.9922H29.0859ZM42.6873 20.9922V1.39219H48.2313V20.9922H42.6873ZM52.1756 20.9922V1.39219H56.7396L67.5476 14.4402H65.3916V1.39219H70.8236V20.9922H66.2596L55.4516 7.94419H57.6076V20.9922H52.1756ZM79.8302 8.98019H88.9302V13.1242H79.8302V8.98019ZM80.2222 16.7082H90.4702V20.9922H74.7342V1.39219H90.1062V5.67619H80.2222V16.7082ZM100.435 21.3842C98.8293 21.3842 97.28 21.1882 95.7867 20.7962C94.312 20.3855 93.108 19.8629 92.1747 19.2282L93.9947 15.1402C94.872 15.7002 95.88 16.1669 97.0187 16.5402C98.176 16.8949 99.324 17.0722 100.463 17.0722C101.228 17.0722 101.844 17.0069 102.311 16.8762C102.777 16.7269 103.113 16.5402 103.319 16.3162C103.543 16.0735 103.655 15.7935 103.655 15.4762C103.655 15.0282 103.449 14.6735 103.039 14.4122C102.628 14.1509 102.096 13.9362 101.443 13.7682C100.789 13.6002 100.061 13.4322 99.2587 13.2642C98.4747 13.0962 97.6813 12.8815 96.8787 12.6202C96.0947 12.3589 95.376 12.0229 94.7227 11.6122C94.0693 11.1829 93.5373 10.6322 93.1267 9.96019C92.716 9.26952 92.5107 8.40152 92.5107 7.35619C92.5107 6.18019 92.828 5.11619 93.4627 4.16419C94.116 3.21219 95.0867 2.44685 96.3747 1.86819C97.6627 1.28952 99.268 1.00019 101.191 1.00019C102.479 1.00019 103.739 1.14952 104.971 1.44819C106.221 1.72819 107.332 2.14819 108.303 2.70819L106.595 6.82419C105.661 6.32019 104.737 5.94685 103.823 5.70419C102.908 5.44285 102.021 5.31219 101.163 5.31219C100.397 5.31219 99.7813 5.39619 99.3147 5.56419C98.848 5.71352 98.512 5.91885 98.3067 6.18019C98.1013 6.44152 97.9987 6.74019 97.9987 7.07619C97.9987 7.50552 98.1947 7.85085 98.5867 8.11219C98.9973 8.35485 99.5293 8.56019 100.183 8.72819C100.855 8.87752 101.583 9.03619 102.367 9.20419C103.169 9.37219 103.963 9.58685 104.747 9.84819C105.549 10.0909 106.277 10.4269 106.931 10.8562C107.584 11.2669 108.107 11.8175 108.499 12.5082C108.909 13.1802 109.115 14.0295 109.115 15.0562C109.115 16.1949 108.788 17.2495 108.135 18.2202C107.5 19.1722 106.539 19.9375 105.251 20.5162C103.981 21.0949 102.376 21.3842 100.435 21.3842ZM116.52 20.9922L110.164 1.39219H115.876L121.224 18.3602H118.34L123.968 1.39219H129.064L134.384 18.3602H131.612L137.128 1.39219H142.42L136.064 20.9922H130.128L125.592 6.57219H127.188L122.456 20.9922H116.52ZM154.044 21.3842C152.476 21.3842 151.029 21.1322 149.704 20.6282C148.379 20.1242 147.221 19.4149 146.232 18.5002C145.261 17.5669 144.505 16.4842 143.964 15.2522C143.423 14.0202 143.152 12.6669 143.152 11.1922C143.152 9.71752 143.423 8.36419 143.964 7.13219C144.505 5.90019 145.261 4.82685 146.232 3.91219C147.221 2.97885 148.379 2.26019 149.704 1.75619C151.029 1.25219 152.476 1.00019 154.044 1.00019C155.631 1.00019 157.077 1.25219 158.384 1.75619C159.709 2.26019 160.857 2.97885 161.828 3.91219C162.799 4.82685 163.555 5.90019 164.096 7.13219C164.656 8.36419 164.936 9.71752 164.936 11.1922C164.936 12.6669 164.656 14.0295 164.096 15.2802C163.555 16.5122 162.799 17.5855 161.828 18.5002C160.857 19.4149 159.709 20.1242 158.384 20.6282C157.077 21.1322 155.631 21.3842 154.044 21.3842ZM154.044 16.7922C154.791 16.7922 155.481 16.6615 156.116 16.4002C156.769 16.1389 157.329 15.7655 157.796 15.2802C158.281 14.7762 158.655 14.1789 158.916 13.4882C159.196 12.7975 159.336 12.0322 159.336 11.1922C159.336 10.3335 159.196 9.56819 158.916 8.89619C158.655 8.20552 158.281 7.61752 157.796 7.13219C157.329 6.62819 156.769 6.24552 156.116 5.98419C155.481 5.72285 154.791 5.59219 154.044 5.59219C153.297 5.59219 152.597 5.72285 151.944 5.98419C151.309 6.24552 150.749 6.62819 150.264 7.13219C149.797 7.61752 149.424 8.20552 149.144 8.89619C148.883 9.56819 148.752 10.3335 148.752 11.1922C148.752 12.0322 148.883 12.7975 149.144 13.4882C149.424 14.1789 149.797 14.7762 150.264 15.2802C150.749 15.7655 151.309 16.1389 151.944 16.4002C152.597 16.6615 153.297 16.7922 154.044 16.7922ZM167.84 20.9922V1.39219H176.8C178.592 1.39219 180.132 1.68152 181.42 2.26019C182.726 2.83885 183.734 3.67885 184.444 4.78019C185.153 5.86285 185.508 7.15085 185.508 8.64419C185.508 10.1189 185.153 11.3975 184.444 12.4802C183.734 13.5442 182.726 14.3655 181.42 14.9442C180.132 15.5042 178.592 15.7842 176.8 15.7842H170.92L173.384 13.4602V20.9922H167.84ZM179.964 20.9922L175.092 13.8522H181L185.9 20.9922H179.964ZM173.384 14.0482L170.92 11.5002H176.464C177.621 11.5002 178.48 11.2482 179.04 10.7442C179.618 10.2402 179.908 9.54019 179.908 8.64419C179.908 7.72952 179.618 7.02019 179.04 6.51619C178.48 6.01219 177.621 5.76019 176.464 5.76019H170.92L173.384 3.21219V14.0482ZM188.566 20.9922V1.39219H194.11V16.5962H203.462V20.9922H188.566ZM205.656 20.9922V1.39219H214.924C217.089 1.39219 218.993 1.79352 220.636 2.59619C222.279 3.39885 223.557 4.52819 224.472 5.98419C225.405 7.44019 225.872 9.17619 225.872 11.1922C225.872 13.1895 225.405 14.9255 224.472 16.4002C223.557 17.8562 222.279 18.9855 220.636 19.7882C218.993 20.5909 217.089 20.9922 214.924 20.9922H205.656ZM211.2 16.5682H214.7C215.82 16.5682 216.791 16.3629 217.612 15.9522C218.452 15.5229 219.105 14.9069 219.572 14.1042C220.039 13.2829 220.272 12.3122 220.272 11.1922C220.272 10.0535 220.039 9.08285 219.572 8.28019C219.105 7.47752 218.452 6.87085 217.612 6.46019C216.791 6.03085 215.82 5.81619 214.7 5.81619H211.2V16.5682ZM8.98251 42.9802H18.0825V47.1242H8.98251V42.9802ZM9.37451 50.7082H19.6225V54.9922H3.88651V35.3922H19.2585V39.6762H9.37451V50.7082ZM22.699 54.9922V35.3922H27.263L38.071 48.4402H35.915V35.3922H41.347V54.9922H36.783L25.975 41.9442H28.131V54.9922H22.699ZM49.4296 54.9922V39.7882H43.4096V35.3922H60.9656V39.7882H54.9736V54.9922H49.4296ZM68.127 42.9802H77.227V47.1242H68.127V42.9802ZM68.519 50.7082H78.767V54.9922H63.031V35.3922H78.403V39.6762H68.519V50.7082ZM81.8435 54.9922V35.3922H90.8035C92.5955 35.3922 94.1355 35.6815 95.4235 36.2602C96.7302 36.8389 97.7382 37.6789 98.4475 38.7802C99.1569 39.8629 99.5115 41.1509 99.5115 42.6442C99.5115 44.1189 99.1569 45.3975 98.4475 46.4802C97.7382 47.5442 96.7302 48.3655 95.4235 48.9442C94.1355 49.5042 92.5955 49.7842 90.8035 49.7842H84.9235L87.3875 47.4602V54.9922H81.8435ZM93.9675 54.9922L89.0955 47.8522H95.0035L99.9035 54.9922H93.9675ZM87.3875 48.0482L84.9235 45.5002H90.4675C91.6249 45.5002 92.4835 45.2482 93.0435 44.7442C93.6222 44.2402 93.9115 43.5402 93.9115 42.6442C93.9115 41.7295 93.6222 41.0202 93.0435 40.5162C92.4835 40.0122 91.6249 39.7602 90.4675 39.7602H84.9235L87.3875 37.2122V48.0482ZM102.57 54.9922V35.3922H111.53C113.322 35.3922 114.862 35.6815 116.15 36.2602C117.457 36.8389 118.465 37.6789 119.174 38.7802C119.883 39.8629 120.238 41.1509 120.238 42.6442C120.238 44.1189 119.883 45.3975 119.174 46.4802C118.465 47.5629 117.457 48.4029 116.15 49.0002C114.862 49.5789 113.322 49.8682 111.53 49.8682H105.65L108.114 47.4602V54.9922H102.57ZM108.114 48.0482L105.65 45.5002H111.194C112.351 45.5002 113.21 45.2482 113.77 44.7442C114.349 44.2402 114.638 43.5402 114.638 42.6442C114.638 41.7295 114.349 41.0202 113.77 40.5162C113.21 40.0122 112.351 39.7602 111.194 39.7602H105.65L108.114 37.2122V48.0482ZM122.941 54.9922V35.3922H131.901C133.693 35.3922 135.233 35.6815 136.521 36.2602C137.828 36.8389 138.836 37.6789 139.545 38.7802C140.255 39.8629 140.609 41.1509 140.609 42.6442C140.609 44.1189 140.255 45.3975 139.545 46.4802C138.836 47.5442 137.828 48.3655 136.521 48.9442C135.233 49.5042 133.693 49.7842 131.901 49.7842H126.021L128.485 47.4602V54.9922H122.941ZM135.065 54.9922L130.193 47.8522H136.101L141.001 54.9922H135.065ZM128.485 48.0482L126.021 45.5002H131.565C132.723 45.5002 133.581 45.2482 134.141 44.7442C134.72 44.2402 135.009 43.5402 135.009 42.6442C135.009 41.7295 134.72 41.0202 134.141 40.5162C133.581 40.0122 132.723 39.7602 131.565 39.7602H126.021L128.485 37.2122V48.0482ZM143.668 54.9922V35.3922H149.212V54.9922H143.668ZM160.044 55.3842C158.439 55.3842 156.889 55.1882 155.396 54.7962C153.921 54.3855 152.717 53.8629 151.784 53.2282L153.604 49.1402C154.481 49.7002 155.489 50.1669 156.628 50.5402C157.785 50.8949 158.933 51.0722 160.072 51.0722C160.837 51.0722 161.453 51.0069 161.92 50.8762C162.387 50.7269 162.723 50.5402 162.928 50.3162C163.152 50.0735 163.264 49.7935 163.264 49.4762C163.264 49.0282 163.059 48.6735 162.648 48.4122C162.237 48.1509 161.705 47.9362 161.052 47.7682C160.399 47.6002 159.671 47.4322 158.868 47.2642C158.084 47.0962 157.291 46.8815 156.488 46.6202C155.704 46.3589 154.985 46.0229 154.332 45.6122C153.679 45.1829 153.147 44.6322 152.736 43.9602C152.325 43.2695 152.12 42.4015 152.12 41.3562C152.12 40.1802 152.437 39.1162 153.072 38.1642C153.725 37.2122 154.696 36.4469 155.984 35.8682C157.272 35.2895 158.877 35.0002 160.8 35.0002C162.088 35.0002 163.348 35.1495 164.58 35.4482C165.831 35.7282 166.941 36.1482 167.912 36.7082L166.204 40.8242C165.271 40.3202 164.347 39.9469 163.432 39.7042C162.517 39.4429 161.631 39.3122 160.772 39.3122C160.007 39.3122 159.391 39.3962 158.924 39.5642C158.457 39.7135 158.121 39.9189 157.916 40.1802C157.711 40.4415 157.608 40.7402 157.608 41.0762C157.608 41.5055 157.804 41.8509 158.196 42.1122C158.607 42.3549 159.139 42.5602 159.792 42.7282C160.464 42.8775 161.192 43.0362 161.976 43.2042C162.779 43.3722 163.572 43.5869 164.356 43.8482C165.159 44.0909 165.887 44.4269 166.54 44.8562C167.193 45.2669 167.716 45.8175 168.108 46.5082C168.519 47.1802 168.724 48.0295 168.724 49.0562C168.724 50.1949 168.397 51.2495 167.744 52.2202C167.109 53.1722 166.148 53.9375 164.86 54.5162C163.591 55.0949 161.985 55.3842 160.044 55.3842ZM176.381 42.9802H185.481V47.1242H176.381V42.9802ZM176.773 50.7082H187.021V54.9922H171.285V35.3922H186.657V39.6762H176.773V50.7082ZM196.985 55.3842C195.38 55.3842 193.831 55.1882 192.337 54.7962C190.863 54.3855 189.659 53.8629 188.725 53.2282L190.545 49.1402C191.423 49.7002 192.431 50.1669 193.569 50.5402C194.727 50.8949 195.875 51.0722 197.013 51.0722C197.779 51.0722 198.395 51.0069 198.861 50.8762C199.328 50.7269 199.664 50.5402 199.869 50.3162C200.093 50.0735 200.205 49.7935 200.205 49.4762C200.205 49.0282 200 48.6735 199.589 48.4122C199.179 48.1509 198.647 47.9362 197.993 47.7682C197.34 47.6002 196.612 47.4322 195.809 47.2642C195.025 47.0962 194.232 46.8815 193.429 46.6202C192.645 46.3589 191.927 46.0229 191.273 45.6122C190.62 45.1829 190.088 44.6322 189.677 43.9602C189.267 43.2695 189.061 42.4015 189.061 41.3562C189.061 40.1802 189.379 39.1162 190.013 38.1642C190.667 37.2122 191.637 36.4469 192.925 35.8682C194.213 35.2895 195.819 35.0002 197.741 35.0002C199.029 35.0002 200.289 35.1495 201.521 35.4482C202.772 35.7282 203.883 36.1482 204.853 36.7082L203.145 40.8242C202.212 40.3202 201.288 39.9469 200.373 39.7042C199.459 39.4429 198.572 39.3122 197.713 39.3122C196.948 39.3122 196.332 39.3962 195.865 39.5642C195.399 39.7135 195.063 39.9189 194.857 40.1802C194.652 40.4415 194.549 40.7402 194.549 41.0762C194.549 41.5055 194.745 41.8509 195.137 42.1122C195.548 42.3549 196.08 42.5602 196.733 42.7282C197.405 42.8775 198.133 43.0362 198.917 43.2042C199.72 43.3722 200.513 43.5869 201.297 43.8482C202.1 44.0909 202.828 44.4269 203.481 44.8562C204.135 45.2669 204.657 45.8175 205.049 46.5082C205.46 47.1802 205.665 48.0295 205.665 49.0562C205.665 50.1949 205.339 51.2495 204.685 52.2202C204.051 53.1722 203.089 53.9375 201.801 54.5162C200.532 55.0949 198.927 55.3842 196.985 55.3842Z"/>
</mask>
<path d="M1.53451 20.9922L10.1865 1.39219H15.6465L24.3265 20.9922H18.5585L11.7825 4.10819H13.9665L7.19051 20.9922H1.53451ZM6.26651 17.1842L7.69451 13.0962H17.2705L18.6985 17.1842H6.26651ZM29.0859 20.9922V5.78819H23.0659V1.39219H40.6219V5.78819H34.6299V20.9922H29.0859ZM42.6873 20.9922V1.39219H48.2313V20.9922H42.6873ZM52.1756 20.9922V1.39219H56.7396L67.5476 14.4402H65.3916V1.39219H70.8236V20.9922H66.2596L55.4516 7.94419H57.6076V20.9922H52.1756ZM79.8302 8.98019H88.9302V13.1242H79.8302V8.98019ZM80.2222 16.7082H90.4702V20.9922H74.7342V1.39219H90.1062V5.67619H80.2222V16.7082ZM100.435 21.3842C98.8293 21.3842 97.28 21.1882 95.7867 20.7962C94.312 20.3855 93.108 19.8629 92.1747 19.2282L93.9947 15.1402C94.872 15.7002 95.88 16.1669 97.0187 16.5402C98.176 16.8949 99.324 17.0722 100.463 17.0722C101.228 17.0722 101.844 17.0069 102.311 16.8762C102.777 16.7269 103.113 16.5402 103.319 16.3162C103.543 16.0735 103.655 15.7935 103.655 15.4762C103.655 15.0282 103.449 14.6735 103.039 14.4122C102.628 14.1509 102.096 13.9362 101.443 13.7682C100.789 13.6002 100.061 13.4322 99.2587 13.2642C98.4747 13.0962 97.6813 12.8815 96.8787 12.6202C96.0947 12.3589 95.376 12.0229 94.7227 11.6122C94.0693 11.1829 93.5373 10.6322 93.1267 9.96019C92.716 9.26952 92.5107 8.40152 92.5107 7.35619C92.5107 6.18019 92.828 5.11619 93.4627 4.16419C94.116 3.21219 95.0867 2.44685 96.3747 1.86819C97.6627 1.28952 99.268 1.00019 101.191 1.00019C102.479 1.00019 103.739 1.14952 104.971 1.44819C106.221 1.72819 107.332 2.14819 108.303 2.70819L106.595 6.82419C105.661 6.32019 104.737 5.94685 103.823 5.70419C102.908 5.44285 102.021 5.31219 101.163 5.31219C100.397 5.31219 99.7813 5.39619 99.3147 5.56419C98.848 5.71352 98.512 5.91885 98.3067 6.18019C98.1013 6.44152 97.9987 6.74019 97.9987 7.07619C97.9987 7.50552 98.1947 7.85085 98.5867 8.11219C98.9973 8.35485 99.5293 8.56019 100.183 8.72819C100.855 8.87752 101.583 9.03619 102.367 9.20419C103.169 9.37219 103.963 9.58685 104.747 9.84819C105.549 10.0909 106.277 10.4269 106.931 10.8562C107.584 11.2669 108.107 11.8175 108.499 12.5082C108.909 13.1802 109.115 14.0295 109.115 15.0562C109.115 16.1949 108.788 17.2495 108.135 18.2202C107.5 19.1722 106.539 19.9375 105.251 20.5162C103.981 21.0949 102.376 21.3842 100.435 21.3842ZM116.52 20.9922L110.164 1.39219H115.876L121.224 18.3602H118.34L123.968 1.39219H129.064L134.384 18.3602H131.612L137.128 1.39219H142.42L136.064 20.9922H130.128L125.592 6.57219H127.188L122.456 20.9922H116.52ZM154.044 21.3842C152.476 21.3842 151.029 21.1322 149.704 20.6282C148.379 20.1242 147.221 19.4149 146.232 18.5002C145.261 17.5669 144.505 16.4842 143.964 15.2522C143.423 14.0202 143.152 12.6669 143.152 11.1922C143.152 9.71752 143.423 8.36419 143.964 7.13219C144.505 5.90019 145.261 4.82685 146.232 3.91219C147.221 2.97885 148.379 2.26019 149.704 1.75619C151.029 1.25219 152.476 1.00019 154.044 1.00019C155.631 1.00019 157.077 1.25219 158.384 1.75619C159.709 2.26019 160.857 2.97885 161.828 3.91219C162.799 4.82685 163.555 5.90019 164.096 7.13219C164.656 8.36419 164.936 9.71752 164.936 11.1922C164.936 12.6669 164.656 14.0295 164.096 15.2802C163.555 16.5122 162.799 17.5855 161.828 18.5002C160.857 19.4149 159.709 20.1242 158.384 20.6282C157.077 21.1322 155.631 21.3842 154.044 21.3842ZM154.044 16.7922C154.791 16.7922 155.481 16.6615 156.116 16.4002C156.769 16.1389 157.329 15.7655 157.796 15.2802C158.281 14.7762 158.655 14.1789 158.916 13.4882C159.196 12.7975 159.336 12.0322 159.336 11.1922C159.336 10.3335 159.196 9.56819 158.916 8.89619C158.655 8.20552 158.281 7.61752 157.796 7.13219C157.329 6.62819 156.769 6.24552 156.116 5.98419C155.481 5.72285 154.791 5.59219 154.044 5.59219C153.297 5.59219 152.597 5.72285 151.944 5.98419C151.309 6.24552 150.749 6.62819 150.264 7.13219C149.797 7.61752 149.424 8.20552 149.144 8.89619C148.883 9.56819 148.752 10.3335 148.752 11.1922C148.752 12.0322 148.883 12.7975 149.144 13.4882C149.424 14.1789 149.797 14.7762 150.264 15.2802C150.749 15.7655 151.309 16.1389 151.944 16.4002C152.597 16.6615 153.297 16.7922 154.044 16.7922ZM167.84 20.9922V1.39219H176.8C178.592 1.39219 180.132 1.68152 181.42 2.26019C182.726 2.83885 183.734 3.67885 184.444 4.78019C185.153 5.86285 185.508 7.15085 185.508 8.64419C185.508 10.1189 185.153 11.3975 184.444 12.4802C183.734 13.5442 182.726 14.3655 181.42 14.9442C180.132 15.5042 178.592 15.7842 176.8 15.7842H170.92L173.384 13.4602V20.9922H167.84ZM179.964 20.9922L175.092 13.8522H181L185.9 20.9922H179.964ZM173.384 14.0482L170.92 11.5002H176.464C177.621 11.5002 178.48 11.2482 179.04 10.7442C179.618 10.2402 179.908 9.54019 179.908 8.64419C179.908 7.72952 179.618 7.02019 179.04 6.51619C178.48 6.01219 177.621 5.76019 176.464 5.76019H170.92L173.384 3.21219V14.0482ZM188.566 20.9922V1.39219H194.11V16.5962H203.462V20.9922H188.566ZM205.656 20.9922V1.39219H214.924C217.089 1.39219 218.993 1.79352 220.636 2.59619C222.279 3.39885 223.557 4.52819 224.472 5.98419C225.405 7.44019 225.872 9.17619 225.872 11.1922C225.872 13.1895 225.405 14.9255 224.472 16.4002C223.557 17.8562 222.279 18.9855 220.636 19.7882C218.993 20.5909 217.089 20.9922 214.924 20.9922H205.656ZM211.2 16.5682H214.7C215.82 16.5682 216.791 16.3629 217.612 15.9522C218.452 15.5229 219.105 14.9069 219.572 14.1042C220.039 13.2829 220.272 12.3122 220.272 11.1922C220.272 10.0535 220.039 9.08285 219.572 8.28019C219.105 7.47752 218.452 6.87085 217.612 6.46019C216.791 6.03085 215.82 5.81619 214.7 5.81619H211.2V16.5682ZM8.98251 42.9802H18.0825V47.1242H8.98251V42.9802ZM9.37451 50.7082H19.6225V54.9922H3.88651V35.3922H19.2585V39.6762H9.37451V50.7082ZM22.699 54.9922V35.3922H27.263L38.071 48.4402H35.915V35.3922H41.347V54.9922H36.783L25.975 41.9442H28.131V54.9922H22.699ZM49.4296 54.9922V39.7882H43.4096V35.3922H60.9656V39.7882H54.9736V54.9922H49.4296ZM68.127 42.9802H77.227V47.1242H68.127V42.9802ZM68.519 50.7082H78.767V54.9922H63.031V35.3922H78.403V39.6762H68.519V50.7082ZM81.8435 54.9922V35.3922H90.8035C92.5955 35.3922 94.1355 35.6815 95.4235 36.2602C96.7302 36.8389 97.7382 37.6789 98.4475 38.7802C99.1569 39.8629 99.5115 41.1509 99.5115 42.6442C99.5115 44.1189 99.1569 45.3975 98.4475 46.4802C97.7382 47.5442 96.7302 48.3655 95.4235 48.9442C94.1355 49.5042 92.5955 49.7842 90.8035 49.7842H84.9235L87.3875 47.4602V54.9922H81.8435ZM93.9675 54.9922L89.0955 47.8522H95.0035L99.9035 54.9922H93.9675ZM87.3875 48.0482L84.9235 45.5002H90.4675C91.6249 45.5002 92.4835 45.2482 93.0435 44.7442C93.6222 44.2402 93.9115 43.5402 93.9115 42.6442C93.9115 41.7295 93.6222 41.0202 93.0435 40.5162C92.4835 40.0122 91.6249 39.7602 90.4675 39.7602H84.9235L87.3875 37.2122V48.0482ZM102.57 54.9922V35.3922H111.53C113.322 35.3922 114.862 35.6815 116.15 36.2602C117.457 36.8389 118.465 37.6789 119.174 38.7802C119.883 39.8629 120.238 41.1509 120.238 42.6442C120.238 44.1189 119.883 45.3975 119.174 46.4802C118.465 47.5629 117.457 48.4029 116.15 49.0002C114.862 49.5789 113.322 49.8682 111.53 49.8682H105.65L108.114 47.4602V54.9922H102.57ZM108.114 48.0482L105.65 45.5002H111.194C112.351 45.5002 113.21 45.2482 113.77 44.7442C114.349 44.2402 114.638 43.5402 114.638 42.6442C114.638 41.7295 114.349 41.0202 113.77 40.5162C113.21 40.0122 112.351 39.7602 111.194 39.7602H105.65L108.114 37.2122V48.0482ZM122.941 54.9922V35.3922H131.901C133.693 35.3922 135.233 35.6815 136.521 36.2602C137.828 36.8389 138.836 37.6789 139.545 38.7802C140.255 39.8629 140.609 41.1509 140.609 42.6442C140.609 44.1189 140.255 45.3975 139.545 46.4802C138.836 47.5442 137.828 48.3655 136.521 48.9442C135.233 49.5042 133.693 49.7842 131.901 49.7842H126.021L128.485 47.4602V54.9922H122.941ZM135.065 54.9922L130.193 47.8522H136.101L141.001 54.9922H135.065ZM128.485 48.0482L126.021 45.5002H131.565C132.723 45.5002 133.581 45.2482 134.141 44.7442C134.72 44.2402 135.009 43.5402 135.009 42.6442C135.009 41.7295 134.72 41.0202 134.141 40.5162C133.581 40.0122 132.723 39.7602 131.565 39.7602H126.021L128.485 37.2122V48.0482ZM143.668 54.9922V35.3922H149.212V54.9922H143.668ZM160.044 55.3842C158.439 55.3842 156.889 55.1882 155.396 54.7962C153.921 54.3855 152.717 53.8629 151.784 53.2282L153.604 49.1402C154.481 49.7002 155.489 50.1669 156.628 50.5402C157.785 50.8949 158.933 51.0722 160.072 51.0722C160.837 51.0722 161.453 51.0069 161.92 50.8762C162.387 50.7269 162.723 50.5402 162.928 50.3162C163.152 50.0735 163.264 49.7935 163.264 49.4762C163.264 49.0282 163.059 48.6735 162.648 48.4122C162.237 48.1509 161.705 47.9362 161.052 47.7682C160.399 47.6002 159.671 47.4322 158.868 47.2642C158.084 47.0962 157.291 46.8815 156.488 46.6202C155.704 46.3589 154.985 46.0229 154.332 45.6122C153.679 45.1829 153.147 44.6322 152.736 43.9602C152.325 43.2695 152.12 42.4015 152.12 41.3562C152.12 40.1802 152.437 39.1162 153.072 38.1642C153.725 37.2122 154.696 36.4469 155.984 35.8682C157.272 35.2895 158.877 35.0002 160.8 35.0002C162.088 35.0002 163.348 35.1495 164.58 35.4482C165.831 35.7282 166.941 36.1482 167.912 36.7082L166.204 40.8242C165.271 40.3202 164.347 39.9469 163.432 39.7042C162.517 39.4429 161.631 39.3122 160.772 39.3122C160.007 39.3122 159.391 39.3962 158.924 39.5642C158.457 39.7135 158.121 39.9189 157.916 40.1802C157.711 40.4415 157.608 40.7402 157.608 41.0762C157.608 41.5055 157.804 41.8509 158.196 42.1122C158.607 42.3549 159.139 42.5602 159.792 42.7282C160.464 42.8775 161.192 43.0362 161.976 43.2042C162.779 43.3722 163.572 43.5869 164.356 43.8482C165.159 44.0909 165.887 44.4269 166.54 44.8562C167.193 45.2669 167.716 45.8175 168.108 46.5082C168.519 47.1802 168.724 48.0295 168.724 49.0562C168.724 50.1949 168.397 51.2495 167.744 52.2202C167.109 53.1722 166.148 53.9375 164.86 54.5162C163.591 55.0949 161.985 55.3842 160.044 55.3842ZM176.381 42.9802H185.481V47.1242H176.381V42.9802ZM176.773 50.7082H187.021V54.9922H171.285V35.3922H186.657V39.6762H176.773V50.7082ZM196.985 55.3842C195.38 55.3842 193.831 55.1882 192.337 54.7962C190.863 54.3855 189.659 53.8629 188.725 53.2282L190.545 49.1402C191.423 49.7002 192.431 50.1669 193.569 50.5402C194.727 50.8949 195.875 51.0722 197.013 51.0722C197.779 51.0722 198.395 51.0069 198.861 50.8762C199.328 50.7269 199.664 50.5402 199.869 50.3162C200.093 50.0735 200.205 49.7935 200.205 49.4762C200.205 49.0282 200 48.6735 199.589 48.4122C199.179 48.1509 198.647 47.9362 197.993 47.7682C197.34 47.6002 196.612 47.4322 195.809 47.2642C195.025 47.0962 194.232 46.8815 193.429 46.6202C192.645 46.3589 191.927 46.0229 191.273 45.6122C190.62 45.1829 190.088 44.6322 189.677 43.9602C189.267 43.2695 189.061 42.4015 189.061 41.3562C189.061 40.1802 189.379 39.1162 190.013 38.1642C190.667 37.2122 191.637 36.4469 192.925 35.8682C194.213 35.2895 195.819 35.0002 197.741 35.0002C199.029 35.0002 200.289 35.1495 201.521 35.4482C202.772 35.7282 203.883 36.1482 204.853 36.7082L203.145 40.8242C202.212 40.3202 201.288 39.9469 200.373 39.7042C199.459 39.4429 198.572 39.3122 197.713 39.3122C196.948 39.3122 196.332 39.3962 195.865 39.5642C195.399 39.7135 195.063 39.9189 194.857 40.1802C194.652 40.4415 194.549 40.7402 194.549 41.0762C194.549 41.5055 194.745 41.8509 195.137 42.1122C195.548 42.3549 196.08 42.5602 196.733 42.7282C197.405 42.8775 198.133 43.0362 198.917 43.2042C199.72 43.3722 200.513 43.5869 201.297 43.8482C202.1 44.0909 202.828 44.4269 203.481 44.8562C204.135 45.2669 204.657 45.8175 205.049 46.5082C205.46 47.1802 205.665 48.0295 205.665 49.0562C205.665 50.1949 205.339 51.2495 204.685 52.2202C204.051 53.1722 203.089 53.9375 201.801 54.5162C200.532 55.0949 198.927 55.3842 196.985 55.3842Z" fill="url(#paint0_linear_268_16)"/>
<path d="M1.53451 20.9922L0.619681 20.5884L-1.10865e-05 21.9922H1.53451V20.9922ZM10.1865 1.39219V0.392186H9.53485L9.27168 0.988353L10.1865 1.39219ZM15.6465 1.39219L16.5609 0.98726L16.2973 0.392186H15.6465V1.39219ZM24.3265 20.9922V21.9922H25.863L25.2409 20.5873L24.3265 20.9922ZM18.5585 20.9922L17.6305 21.3646L17.8823 21.9922H18.5585V20.9922ZM11.7825 4.10819V3.10819H10.3037L10.8545 4.48064L11.7825 4.10819ZM13.9665 4.10819L14.8946 4.48064L15.4454 3.10819H13.9665V4.10819ZM7.19051 20.9922V21.9922H7.86671L8.11857 21.3646L7.19051 20.9922ZM6.26651 17.1842L5.32245 16.8544L4.85794 18.1842H6.26651V17.1842ZM7.69451 13.0962V12.0962H6.98457L6.75045 12.7664L7.69451 13.0962ZM17.2705 13.0962L18.2146 12.7664L17.9805 12.0962H17.2705V13.0962ZM18.6985 17.1842V18.1842H20.1071L19.6426 16.8544L18.6985 17.1842ZM1.53451 20.9922L2.44935 21.396L11.1013 1.79602L10.1865 1.39219L9.27168 0.988353L0.619681 20.5884L1.53451 20.9922ZM10.1865 1.39219V2.39219H15.6465V1.39219V0.392186H10.1865V1.39219ZM15.6465 1.39219L14.7322 1.79711L23.4122 21.3971L24.3265 20.9922L25.2409 20.5873L16.5609 0.98726L15.6465 1.39219ZM24.3265 20.9922V19.9922H18.5585V20.9922V21.9922H24.3265V20.9922ZM18.5585 20.9922L19.4866 20.6197L12.7106 3.73573L11.7825 4.10819L10.8545 4.48064L17.6305 21.3646L18.5585 20.9922ZM11.7825 4.10819V5.10819H13.9665V4.10819V3.10819H11.7825V4.10819ZM13.9665 4.10819L13.0385 3.73573L6.26246 20.6197L7.19051 20.9922L8.11857 21.3646L14.8946 4.48064L13.9665 4.10819ZM7.19051 20.9922V19.9922H1.53451V20.9922V21.9922H7.19051V20.9922ZM6.26651 17.1842L7.21057 17.514L8.63857 13.426L7.69451 13.0962L6.75045 12.7664L5.32245 16.8544L6.26651 17.1842ZM7.69451 13.0962V14.0962H17.2705V13.0962V12.0962H7.69451V13.0962ZM17.2705 13.0962L16.3265 13.426L17.7545 17.514L18.6985 17.1842L19.6426 16.8544L18.2146 12.7664L17.2705 13.0962ZM18.6985 17.1842V16.1842H6.26651V17.1842V18.1842H18.6985V17.1842ZM29.0859 20.9922H28.0859V21.9922H29.0859V20.9922ZM29.0859 5.78819H30.0859V4.78819H29.0859V5.78819ZM23.0659 5.78819H22.0659V6.78819H23.0659V5.78819ZM23.0659 1.39219V0.392186H22.0659V1.39219H23.0659ZM40.6219 1.39219H41.6219V0.392186H40.6219V1.39219ZM40.6219 5.78819V6.78819H41.6219V5.78819H40.6219ZM34.6299 5.78819V4.78819H33.6299V5.78819H34.6299ZM34.6299 20.9922V21.9922H35.6299V20.9922H34.6299ZM29.0859 20.9922H30.0859V5.78819H29.0859H28.0859V20.9922H29.0859ZM29.0859 5.78819V4.78819H23.0659V5.78819V6.78819H29.0859V5.78819ZM23.0659 5.78819H24.0659V1.39219H23.0659H22.0659V5.78819H23.0659ZM23.0659 1.39219V2.39219H40.6219V1.39219V0.392186H23.0659V1.39219ZM40.6219 1.39219H39.6219V5.78819H40.6219H41.6219V1.39219H40.6219ZM40.6219 5.78819V4.78819H34.6299V5.78819V6.78819H40.6219V5.78819ZM34.6299 5.78819H33.6299V20.9922H34.6299H35.6299V5.78819H34.6299ZM34.6299 20.9922V19.9922H29.0859V20.9922V21.9922H34.6299V20.9922ZM42.6873 20.9922H41.6873V21.9922H42.6873V20.9922ZM42.6873 1.39219V0.392186H41.6873V1.39219H42.6873ZM48.2313 1.39219H49.2313V0.392186H48.2313V1.39219ZM48.2313 20.9922V21.9922H49.2313V20.9922H48.2313ZM42.6873 20.9922H43.6873V1.39219H42.6873H41.6873V20.9922H42.6873ZM42.6873 1.39219V2.39219H48.2313V1.39219V0.392186H42.6873V1.39219ZM48.2313 1.39219H47.2313V20.9922H48.2313H49.2313V1.39219H48.2313ZM48.2313 20.9922V19.9922H42.6873V20.9922V21.9922H48.2313V20.9922ZM52.1756 20.9922H51.1756V21.9922H52.1756V20.9922ZM52.1756 1.39219V0.392186H51.1756V1.39219H52.1756ZM56.7396 1.39219L57.5097 0.75428L57.2098 0.392186H56.7396V1.39219ZM67.5476 14.4402V15.4402H69.6744L68.3177 13.8023L67.5476 14.4402ZM65.3916 14.4402H64.3916V15.4402H65.3916V14.4402ZM65.3916 1.39219V0.392186H64.3916V1.39219H65.3916ZM70.8236 1.39219H71.8236V0.392186H70.8236V1.39219ZM70.8236 20.9922V21.9922H71.8236V20.9922H70.8236ZM66.2596 20.9922L65.4895 21.6301L65.7894 21.9922H66.2596V20.9922ZM55.4516 7.94419V6.94419H53.3247L54.6815 8.58209L55.4516 7.94419ZM57.6076 7.94419H58.6076V6.94419H57.6076V7.94419ZM57.6076 20.9922V21.9922H58.6076V20.9922H57.6076ZM52.1756 20.9922H53.1756V1.39219H52.1756H51.1756V20.9922H52.1756ZM52.1756 1.39219V2.39219H56.7396V1.39219V0.392186H52.1756V1.39219ZM56.7396 1.39219L55.9695 2.03009L66.7775 15.0781L67.5476 14.4402L68.3177 13.8023L57.5097 0.75428L56.7396 1.39219ZM67.5476 14.4402V13.4402H65.3916V14.4402V15.4402H67.5476V14.4402ZM65.3916 14.4402H66.3916V1.39219H65.3916H64.3916V14.4402H65.3916ZM65.3916 1.39219V2.39219H70.8236V1.39219V0.392186H65.3916V1.39219ZM70.8236 1.39219H69.8236V20.9922H70.8236H71.8236V1.39219H70.8236ZM70.8236 20.9922V19.9922H66.2596V20.9922V21.9922H70.8236V20.9922ZM66.2596 20.9922L67.0297 20.3543L56.2217 7.30628L55.4516 7.94419L54.6815 8.58209L65.4895 21.6301L66.2596 20.9922ZM55.4516 7.94419V8.94419H57.6076V7.94419V6.94419H55.4516V7.94419ZM57.6076 7.94419H56.6076V20.9922H57.6076H58.6076V7.94419H57.6076ZM57.6076 20.9922V19.9922H52.1756V20.9922V21.9922H57.6076V20.9922ZM79.8302 8.98019V7.98019H78.8302V8.98019H79.8302ZM88.9302 8.98019H89.9302V7.98019H88.9302V8.98019ZM88.9302 13.1242V14.1242H89.9302V13.1242H88.9302ZM79.8302 13.1242H78.8302V14.1242H79.8302V13.1242ZM80.2222 16.7082H79.2222V17.7082H80.2222V16.7082ZM90.4702 16.7082H91.4702V15.7082H90.4702V16.7082ZM90.4702 20.9922V21.9922H91.4702V20.9922H90.4702ZM74.7342 20.9922H73.7342V21.9922H74.7342V20.9922ZM74.7342 1.39219V0.392186H73.7342V1.39219H74.7342ZM90.1062 1.39219H91.1062V0.392186H90.1062V1.39219ZM90.1062 5.67619V6.67619H91.1062V5.67619H90.1062ZM80.2222 5.67619V4.67619H79.2222V5.67619H80.2222ZM79.8302 8.98019V9.98019H88.9302V8.98019V7.98019H79.8302V8.98019ZM88.9302 8.98019H87.9302V13.1242H88.9302H89.9302V8.98019H88.9302ZM88.9302 13.1242V12.1242H79.8302V13.1242V14.1242H88.9302V13.1242ZM79.8302 13.1242H80.8302V8.98019H79.8302H78.8302V13.1242H79.8302ZM80.2222 16.7082V17.7082H90.4702V16.7082V15.7082H80.2222V16.7082ZM90.4702 16.7082H89.4702V20.9922H90.4702H91.4702V16.7082H90.4702ZM90.4702 20.9922V19.9922H74.7342V20.9922V21.9922H90.4702V20.9922ZM74.7342 20.9922H75.7342V1.39219H74.7342H73.7342V20.9922H74.7342ZM74.7342 1.39219V2.39219H90.1062V1.39219V0.392186H74.7342V1.39219ZM90.1062 1.39219H89.1062V5.67619H90.1062H91.1062V1.39219H90.1062ZM90.1062 5.67619V4.67619H80.2222V5.67619V6.67619H90.1062V5.67619ZM80.2222 5.67619H79.2222V16.7082H80.2222H81.2222V5.67619H80.2222ZM95.7867 20.7962L95.5184 21.7595L95.5256 21.7615L95.5328 21.7634L95.7867 20.7962ZM92.1747 19.2282L91.2611 18.8215L90.9212 19.5851L91.6124 20.0551L92.1747 19.2282ZM93.9947 15.1402L94.5327 14.2973L93.5536 13.6723L93.0811 14.7335L93.9947 15.1402ZM97.0187 16.5402L96.7071 17.4904L96.7164 17.4934L96.7257 17.4963L97.0187 16.5402ZM102.311 16.8762L102.58 17.8392L102.598 17.8342L102.615 17.8286L102.311 16.8762ZM103.319 16.3162L102.584 15.6379L102.582 15.6405L103.319 16.3162ZM103.039 14.4122L102.502 15.2558L103.039 14.4122ZM101.443 13.7682L101.692 12.7997L101.443 13.7682ZM99.2587 13.2642L99.0491 14.242L99.0538 14.243L99.2587 13.2642ZM96.8787 12.6202L96.5624 13.5689L96.5691 13.5711L96.8787 12.6202ZM94.7227 11.6122L94.1735 12.4479L94.1819 12.4534L94.1905 12.4588L94.7227 11.6122ZM93.1267 9.96019L92.2671 10.4713L92.2734 10.4816L93.1267 9.96019ZM93.4627 4.16419L92.6381 3.59829L92.6306 3.60949L93.4627 4.16419ZM96.3747 1.86819L95.9649 0.956018L96.3747 1.86819ZM104.971 1.44819L104.735 2.42004L104.744 2.42211L104.752 2.42403L104.971 1.44819ZM108.303 2.70819L109.226 3.09146L109.563 2.28067L108.802 1.842L108.303 2.70819ZM106.595 6.82419L106.12 7.70409L107.094 8.23025L107.518 7.20746L106.595 6.82419ZM103.823 5.70419L103.548 6.66571L103.557 6.66832L103.566 6.67075L103.823 5.70419ZM99.3147 5.56419L99.6194 6.51661L99.6365 6.51115L99.6534 6.50507L99.3147 5.56419ZM98.3067 6.18019L97.5204 5.56236L98.3067 6.18019ZM98.5867 8.11219L98.032 8.94424L98.0546 8.9593L98.0779 8.97311L98.5867 8.11219ZM100.183 8.72819L99.9336 9.69668L99.9496 9.70079L99.9657 9.70437L100.183 8.72819ZM102.367 9.20419L102.157 10.182L102.162 10.183L102.367 9.20419ZM104.747 9.84819L104.43 10.7969L104.444 10.8013L104.457 10.8054L104.747 9.84819ZM106.931 10.8562L106.381 11.6919L106.39 11.6974L106.398 11.7028L106.931 10.8562ZM108.499 12.5082L107.629 13.0018L107.637 13.0158L107.645 13.0296L108.499 12.5082ZM108.135 18.2202L107.305 17.6618L107.303 17.6655L108.135 18.2202ZM105.251 20.5162L104.841 19.604L104.836 19.6063L105.251 20.5162ZM100.435 21.3842V20.3842C98.9116 20.3842 97.4478 20.1984 96.0406 19.829L95.7867 20.7962L95.5328 21.7634C97.1122 22.178 98.7471 22.3842 100.435 22.3842V21.3842ZM95.7867 20.7962L96.0549 19.8328C94.6503 19.4417 93.5547 18.9573 92.737 18.4013L92.1747 19.2282L91.6124 20.0551C92.6613 20.7684 93.9737 21.3294 95.5184 21.7595L95.7867 20.7962ZM92.1747 19.2282L93.0882 19.6349L94.9082 15.5469L93.9947 15.1402L93.0811 14.7335L91.2611 18.8215L92.1747 19.2282ZM93.9947 15.1402L93.4566 15.9831C94.4144 16.5944 95.5005 17.0948 96.7071 17.4904L97.0187 16.5402L97.3302 15.59C96.2595 15.2389 95.3296 14.8059 94.5327 14.2973L93.9947 15.1402ZM97.0187 16.5402L96.7257 17.4963C97.972 17.8782 99.2186 18.0722 100.463 18.0722V17.0722V16.0722C99.4294 16.0722 98.3801 15.9115 97.3117 15.5841L97.0187 16.5402ZM100.463 17.0722V18.0722C101.273 18.0722 101.99 18.0043 102.58 17.8392L102.311 16.8762L102.041 15.9132C101.698 16.0094 101.183 16.0722 100.463 16.0722V17.0722ZM102.311 16.8762L102.615 17.8286C103.157 17.6554 103.682 17.4 104.056 16.9919L103.319 16.3162L102.582 15.6405C102.545 15.6804 102.398 15.7983 102.006 15.9238L102.311 16.8762ZM103.319 16.3162L104.053 16.9945C104.44 16.5754 104.655 16.056 104.655 15.4762H103.655H102.655C102.655 15.5311 102.645 15.5717 102.584 15.6379L103.319 16.3162ZM103.655 15.4762H104.655C104.655 14.6524 104.245 13.9944 103.576 13.5685L103.039 14.4122L102.502 15.2558C102.597 15.3164 102.627 15.3606 102.635 15.3752C102.642 15.3863 102.655 15.4113 102.655 15.4762H103.655ZM103.039 14.4122L103.576 13.5685C103.049 13.2336 102.411 12.9846 101.692 12.7997L101.443 13.7682L101.194 14.7367C101.781 14.8878 102.207 15.0681 102.502 15.2558L103.039 14.4122ZM101.443 13.7682L101.692 12.7997C101.021 12.6272 100.278 12.4559 99.4635 12.2854L99.2587 13.2642L99.0538 14.243C99.8447 14.4085 100.558 14.5731 101.194 14.7367L101.443 13.7682ZM99.2587 13.2642L99.4682 12.2864C98.7197 12.126 97.9598 11.9205 97.1883 11.6693L96.8787 12.6202L96.5691 13.5711C97.4029 13.8425 98.2296 14.0664 99.0491 14.242L99.2587 13.2642ZM96.8787 12.6202L97.1949 11.6715C96.4814 11.4337 95.8359 11.1308 95.2548 10.7656L94.7227 11.6122L94.1905 12.4588C94.9161 12.9149 95.708 13.284 96.5624 13.5689L96.8787 12.6202ZM94.7227 11.6122L95.2719 10.7765C94.7428 10.4288 94.3143 9.9858 93.9799 9.43874L93.1267 9.96019L92.2734 10.4816C92.7604 11.2786 93.3959 11.9369 94.1735 12.4479L94.7227 11.6122ZM93.1267 9.96019L93.9862 9.44911C93.6912 8.95297 93.5107 8.27455 93.5107 7.35619H92.5107H91.5107C91.5107 8.52849 91.7408 9.58607 92.2671 10.4713L93.1267 9.96019ZM92.5107 7.35619H93.5107C93.5107 6.37178 93.7728 5.50184 94.2947 4.71889L93.4627 4.16419L92.6306 3.60949C91.8833 4.73054 91.5107 5.98859 91.5107 7.35619H92.5107ZM93.4627 4.16419L94.2872 4.73003C94.8157 3.95984 95.6266 3.30058 96.7845 2.78036L96.3747 1.86819L95.9649 0.956018C94.5468 1.59313 93.4163 2.46453 92.6382 3.59834L93.4627 4.16419ZM96.3747 1.86819L96.7845 2.78036C97.9059 2.27651 99.3611 2.00019 101.191 2.00019V1.00019V0.000185966C99.1749 0.000185966 97.4194 0.302527 95.9649 0.956018L96.3747 1.86819ZM101.191 1.00019V2.00019C102.401 2.00019 103.581 2.14037 104.735 2.42004L104.971 1.44819L105.206 0.476337C103.896 0.15867 102.557 0.000185966 101.191 0.000185966V1.00019ZM104.971 1.44819L104.752 2.42403C105.918 2.68504 106.931 3.07161 107.803 3.57437L108.303 2.70819L108.802 1.842C107.733 1.22476 106.525 0.771338 105.189 0.472344L104.971 1.44819ZM108.303 2.70819L107.379 2.32491L105.671 6.44091L106.595 6.82419L107.518 7.20746L109.226 3.09146L108.303 2.70819ZM106.595 6.82419L107.07 5.94428C106.075 5.40732 105.078 5.00273 104.079 4.73763L103.823 5.70419L103.566 6.67075C104.396 6.89098 105.247 7.23305 106.12 7.70409L106.595 6.82419ZM103.823 5.70419L104.097 4.74266C103.103 4.45852 102.124 4.31219 101.163 4.31219V5.31219V6.31219C101.919 6.31219 102.713 6.42719 103.548 6.66571L103.823 5.70419ZM101.163 5.31219V4.31219C100.338 4.31219 99.5936 4.40094 98.976 4.6233L99.3147 5.56419L99.6534 6.50507C99.969 6.39144 100.457 6.31219 101.163 6.31219V5.31219ZM99.3147 5.56419L99.0099 4.61176C98.4383 4.79467 97.8949 5.08569 97.5204 5.56236L98.3067 6.18019L99.093 6.79801C99.1291 6.75201 99.2577 6.63237 99.6194 6.51661L99.3147 5.56419ZM98.3067 6.18019L97.5204 5.56236C97.1749 6.00197 96.9987 6.5188 96.9987 7.07619H97.9987H98.9987C98.9987 6.96158 99.0277 6.88107 99.093 6.79801L98.3067 6.18019ZM97.9987 7.07619H96.9987C96.9987 7.87655 97.3937 8.51875 98.032 8.94424L98.5867 8.11219L99.1414 7.28014C99.0513 7.22007 99.0231 7.17726 99.0154 7.16358C99.0096 7.15352 98.9987 7.1323 98.9987 7.07619H97.9987ZM98.5867 8.11219L98.0779 8.97311C98.5955 9.27893 99.2236 9.5141 99.9336 9.69668L100.183 8.72819L100.432 7.75969C99.8351 7.60628 99.3992 7.43077 99.0954 7.25126L98.5867 8.11219ZM100.183 8.72819L99.9657 9.70437C100.641 9.85434 101.371 10.0135 102.157 10.182L102.367 9.20419L102.576 8.22638C101.794 8.05883 101.069 7.90071 100.4 7.752L100.183 8.72819ZM102.367 9.20419L102.162 10.183C102.927 10.343 103.683 10.5476 104.43 10.7969L104.747 9.84819L105.063 8.8995C104.243 8.62609 103.412 8.40134 102.572 8.2254L102.367 9.20419ZM104.747 9.84819L104.457 10.8054C105.175 11.0223 105.814 11.319 106.381 11.6919L106.931 10.8562L107.48 10.0205C106.741 9.53468 105.924 9.15944 105.036 8.89097L104.747 9.84819ZM106.931 10.8562L106.398 11.7028C106.908 12.0229 107.316 12.4505 107.629 13.0018L108.499 12.5082L109.368 12.0146C108.897 11.1845 108.26 10.5108 107.463 10.0096L106.931 10.8562ZM108.499 12.5082L107.645 13.0296C107.935 13.5037 108.115 14.1588 108.115 15.0562H109.115H110.115C110.115 13.9002 109.884 12.8567 109.352 11.9867L108.499 12.5082ZM109.115 15.0562H108.115C108.115 15.9902 107.851 16.8513 107.305 17.6618L108.135 18.2202L108.964 18.7786C109.725 17.6477 110.115 16.3995 110.115 15.0562H109.115ZM108.135 18.2202L107.303 17.6655C106.794 18.428 105.997 19.0844 104.841 19.604L105.251 20.5162L105.66 21.4284C107.08 20.7907 108.206 19.9164 108.967 18.7749L108.135 18.2202ZM105.251 20.5162L104.836 19.6063C103.737 20.1071 102.285 20.3842 100.435 20.3842V21.3842V22.3842C102.467 22.3842 104.225 22.0826 105.665 21.4261L105.251 20.5162ZM116.52 20.9922L115.568 21.3007L115.793 21.9922H116.52V20.9922ZM110.164 1.39219V0.392186H108.788L109.212 1.70066L110.164 1.39219ZM115.876 1.39219L116.829 1.09158L116.609 0.392186H115.876V1.39219ZM121.224 18.3602V19.3602H122.587L122.177 18.0596L121.224 18.3602ZM118.34 18.3602L117.39 18.0454L116.954 19.3602H118.34V18.3602ZM123.968 1.39219V0.392186H123.246L123.018 1.07737L123.968 1.39219ZM129.064 1.39219L130.018 1.09301L129.798 0.392186H129.064V1.39219ZM134.384 18.3602V19.3602H135.745L135.338 18.061L134.384 18.3602ZM131.612 18.3602L130.661 18.051L130.235 19.3602H131.612V18.3602ZM137.128 1.39219V0.392186H136.401L136.177 1.08303L137.128 1.39219ZM142.42 1.39219L143.371 1.70066L143.795 0.392186H142.42V1.39219ZM136.064 20.9922V21.9922H136.791L137.015 21.3007L136.064 20.9922ZM130.128 20.9922L129.174 21.2923L129.394 21.9922H130.128V20.9922ZM125.592 6.57219V5.57219H124.229L124.638 6.87225L125.592 6.57219ZM127.188 6.57219L128.138 6.88398L128.568 5.57219H127.188V6.57219ZM122.456 20.9922V21.9922H123.18L123.406 21.304L122.456 20.9922ZM116.52 20.9922L117.471 20.6837L111.115 1.08371L110.164 1.39219L109.212 1.70066L115.568 21.3007L116.52 20.9922ZM110.164 1.39219V2.39219H115.876V1.39219V0.392186H110.164V1.39219ZM115.876 1.39219L114.922 1.69279L120.27 18.6608L121.224 18.3602L122.177 18.0596L116.829 1.09158L115.876 1.39219ZM121.224 18.3602V17.3602H118.34V18.3602V19.3602H121.224V18.3602ZM118.34 18.3602L119.289 18.675L124.917 1.707L123.968 1.39219L123.018 1.07737L117.39 18.0454L118.34 18.3602ZM123.968 1.39219V2.39219H129.064V1.39219V0.392186H123.968V1.39219ZM129.064 1.39219L128.109 1.69136L133.429 18.6594L134.384 18.3602L135.338 18.061L130.018 1.09301L129.064 1.39219ZM134.384 18.3602V17.3602H131.612V18.3602V19.3602H134.384V18.3602ZM131.612 18.3602L132.563 18.6693L138.079 1.70134L137.128 1.39219L136.177 1.08303L130.661 18.051L131.612 18.3602ZM137.128 1.39219V2.39219H142.42V1.39219V0.392186H137.128V1.39219ZM142.42 1.39219L141.468 1.08371L135.112 20.6837L136.064 20.9922L137.015 21.3007L143.371 1.70066L142.42 1.39219ZM136.064 20.9922V19.9922H130.128V20.9922V21.9922H136.064V20.9922ZM130.128 20.9922L131.081 20.6921L126.545 6.27212L125.592 6.57219L124.638 6.87225L129.174 21.2923L130.128 20.9922ZM125.592 6.57219V7.57219H127.188V6.57219V5.57219H125.592V6.57219ZM127.188 6.57219L126.237 6.26039L121.505 20.6804L122.456 20.9922L123.406 21.304L128.138 6.88398L127.188 6.57219ZM122.456 20.9922V19.9922H116.52V20.9922V21.9922H122.456V20.9922ZM149.704 20.6282L149.349 21.5629L149.704 20.6282ZM146.232 18.5002L145.539 19.221L145.546 19.2278L145.553 19.2345L146.232 18.5002ZM143.964 15.2522L143.048 15.6545L143.964 15.2522ZM143.964 7.13219L143.048 6.72991L143.964 7.13219ZM146.232 3.91219L146.918 4.63998L146.918 4.63958L146.232 3.91219ZM149.704 1.75619L149.349 0.82149L149.704 1.75619ZM158.384 1.75619L158.024 2.6892L158.029 2.69088L158.384 1.75619ZM161.828 3.91219L161.135 4.63306L161.142 4.63998L161.828 3.91219ZM164.096 7.13219L163.18 7.53449L163.186 7.54599L164.096 7.13219ZM164.096 15.2802L163.183 14.8715L163.18 14.8779L164.096 15.2802ZM161.828 18.5002L162.514 19.228L161.828 18.5002ZM158.384 20.6282L158.029 19.6935L158.024 19.6952L158.384 20.6282ZM156.116 16.4002L155.745 15.4717L155.735 15.4755L156.116 16.4002ZM157.796 15.2802L157.076 14.5865L157.075 14.5871L157.796 15.2802ZM158.916 13.4882L157.989 13.1125L157.985 13.1233L157.981 13.1343L158.916 13.4882ZM158.916 8.89619L157.981 9.25008L157.987 9.26554L157.993 9.2808L158.916 8.89619ZM157.796 7.13219L157.062 7.81159L157.075 7.8257L157.089 7.83929L157.796 7.13219ZM156.116 5.98419L155.735 6.90891L155.745 6.91266L156.116 5.98419ZM151.944 5.98419L151.573 5.05566L151.563 5.05951L151.944 5.98419ZM150.264 7.13219L149.544 6.43854L149.543 6.43908L150.264 7.13219ZM149.144 8.89619L148.217 8.52048L148.215 8.52709L148.212 8.53374L149.144 8.89619ZM149.144 13.4882L148.209 13.8421L148.213 13.853L148.217 13.8639L149.144 13.4882ZM150.264 15.2802L149.53 15.9596L149.543 15.9737L149.557 15.9873L150.264 15.2802ZM151.944 16.4002L151.563 17.3249L151.573 17.3287L151.944 16.4002ZM154.044 21.3842V20.3842C152.585 20.3842 151.26 20.15 150.059 19.6935L149.704 20.6282L149.349 21.5629C150.799 22.1144 152.367 22.3842 154.044 22.3842V21.3842ZM149.704 20.6282L150.059 19.6935C148.847 19.2326 147.801 18.5892 146.911 17.7659L146.232 18.5002L145.553 19.2345C146.641 20.2405 147.91 21.0158 149.349 21.5629L149.704 20.6282ZM146.232 18.5002L146.925 17.7794C146.049 16.9366 145.368 15.9621 144.879 14.8499L143.964 15.2522L143.048 15.6545C143.642 17.0062 144.474 18.1971 145.539 19.221L146.232 18.5002ZM143.964 15.2522L144.879 14.8499C144.399 13.7564 144.152 12.5417 144.152 11.1922H143.152H142.152C142.152 12.792 142.446 14.284 143.048 15.6545L143.964 15.2522ZM143.152 11.1922H144.152C144.152 9.84263 144.399 8.62796 144.879 7.53446L143.964 7.13219L143.048 6.72991C142.446 8.10041 142.152 9.59241 142.152 11.1922H143.152ZM143.964 7.13219L144.879 7.53446C145.367 6.42414 146.046 5.4618 146.918 4.63998L146.232 3.91219L145.546 3.1844C144.477 4.19191 143.643 5.37623 143.048 6.72991L143.964 7.13219ZM146.232 3.91219L146.918 4.63958C147.808 3.80023 148.852 3.1502 150.059 2.69088L149.704 1.75619L149.349 0.82149C147.906 1.37017 146.635 2.15748 145.546 3.18479L146.232 3.91219ZM149.704 1.75619L150.059 2.69088C151.26 2.23439 152.585 2.00019 154.044 2.00019V1.00019V0.000185966C152.367 0.000185966 150.799 0.269978 149.349 0.82149L149.704 1.75619ZM154.044 1.00019V2.00019C155.524 2.00019 156.846 2.23496 158.024 2.68919L158.384 1.75619L158.744 0.823185C157.308 0.269413 155.737 0.000185966 154.044 0.000185966V1.00019ZM158.384 1.75619L158.029 2.69088C159.235 3.14962 160.266 3.79787 161.135 4.63302L161.828 3.91219L162.521 3.19135C161.448 2.15984 160.184 1.37075 158.739 0.82149L158.384 1.75619ZM161.828 3.91219L161.142 4.63998C162.014 5.4618 162.693 6.42414 163.18 7.53446L164.096 7.13219L165.011 6.72991C164.417 5.37623 163.583 4.19191 162.514 3.1844L161.828 3.91219ZM164.096 7.13219L163.186 7.54599C163.681 8.63674 163.936 9.84732 163.936 11.1922H164.936H165.936C165.936 9.58772 165.631 8.09164 165.006 6.71838L164.096 7.13219ZM164.936 11.1922H163.936C163.936 12.5369 163.681 13.759 163.183 14.8715L164.096 15.2802L165.009 15.6889C165.63 14.3001 165.936 12.7968 165.936 11.1922H164.936ZM164.096 15.2802L163.18 14.8779C162.693 15.9882 162.014 16.9506 161.142 17.7724L161.828 18.5002L162.514 19.228C163.583 18.2205 164.417 17.0361 165.011 15.6825L164.096 15.2802ZM161.828 18.5002L161.142 17.7724C160.273 18.5915 159.239 19.2331 158.029 19.6935L158.384 20.6282L158.739 21.5629C160.18 21.0152 161.442 20.2382 162.514 19.228L161.828 18.5002ZM158.384 20.6282L158.024 19.6952C156.846 20.1494 155.524 20.3842 154.044 20.3842V21.3842V22.3842C155.737 22.3842 157.308 22.115 158.744 21.5612L158.384 20.6282ZM154.044 16.7922V17.7922C154.91 17.7922 155.731 17.6401 156.497 17.3249L156.116 16.4002L155.735 15.4755C155.232 15.6829 154.672 15.7922 154.044 15.7922V16.7922ZM156.116 16.4002L156.487 17.3287C157.266 17.017 157.947 16.5656 158.517 15.9733L157.796 15.2802L157.075 14.5871C156.711 14.9654 156.272 15.2607 155.745 15.4717L156.116 16.4002ZM157.796 15.2802L158.516 15.9738C159.101 15.3669 159.545 14.6522 159.851 13.8421L158.916 13.4882L157.981 13.1343C157.765 13.7055 157.462 14.1854 157.076 14.5865L157.796 15.2802ZM158.916 13.4882L159.843 13.8639C160.177 13.0396 160.336 12.1447 160.336 11.1922H159.336H158.336C158.336 11.9197 158.215 12.5554 157.989 13.1125L158.916 13.4882ZM159.336 11.1922H160.336C160.336 10.2248 160.178 9.32526 159.839 8.51157L158.916 8.89619L157.993 9.2808C158.214 9.81111 158.336 10.4422 158.336 11.1922H159.336ZM158.916 8.89619L159.851 8.5423C159.544 7.72926 159.096 7.01809 158.503 6.42508L157.796 7.13219L157.089 7.83929C157.467 8.21695 157.766 8.68178 157.981 9.25008L158.916 8.89619ZM157.796 7.13219L158.53 6.45278C157.96 5.83719 157.275 5.37076 156.487 5.05571L156.116 5.98419L155.745 6.91266C156.264 7.12028 156.699 7.41919 157.062 7.81159L157.796 7.13219ZM156.116 5.98419L156.497 5.05951C155.731 4.74423 154.91 4.59219 154.044 4.59219V5.59219V6.59219C154.672 6.59219 155.232 6.70148 155.735 6.90886L156.116 5.98419ZM154.044 5.59219V4.59219C153.178 4.59219 152.351 4.74429 151.573 5.05571L151.944 5.98419L152.315 6.91266C152.843 6.70142 153.417 6.59219 154.044 6.59219V5.59219ZM151.944 5.98419L151.563 5.05951C150.798 5.37457 150.123 5.83686 149.544 6.43854L150.264 7.13219L150.984 7.82583C151.376 7.41952 151.821 7.11647 152.325 6.90886L151.944 5.98419ZM150.264 7.13219L149.543 6.43908C148.979 7.02547 148.54 7.72449 148.217 8.52048L149.144 8.89619L150.071 9.27189C150.308 8.68655 150.615 8.20957 150.985 7.8253L150.264 7.13219ZM149.144 8.89619L148.212 8.53374C147.898 9.34106 147.752 10.2327 147.752 11.1922H148.752H149.752C149.752 10.4344 149.867 9.79531 150.076 9.25863L149.144 8.89619ZM148.752 11.1922H147.752C147.752 12.1366 147.899 13.0239 148.209 13.8421L149.144 13.4882L150.079 13.1343C149.866 12.5711 149.752 11.9277 149.752 11.1922H148.752ZM149.144 13.4882L148.217 13.8639C148.539 14.6571 148.975 15.3596 149.53 15.9596L150.264 15.2802L150.998 14.6008C150.62 14.1928 150.309 13.7006 150.071 13.1125L149.144 13.4882ZM150.264 15.2802L149.557 15.9873C150.136 16.566 150.806 17.0133 151.563 17.3249L151.944 16.4002L152.325 15.4755C151.812 15.2644 151.363 14.9651 150.971 14.5731L150.264 15.2802ZM151.944 16.4002L151.573 17.3287C152.351 17.6401 153.178 17.7922 154.044 17.7922V16.7922V15.7922C153.417 15.7922 152.843 15.683 152.315 15.4717L151.944 16.4002ZM167.84 20.9922H166.84V21.9922H167.84V20.9922ZM167.84 1.39219V0.392186H166.84V1.39219H167.84ZM181.42 2.26019L181.01 3.17237L181.015 3.17454L181.42 2.26019ZM184.444 4.78019L183.603 5.32168L183.607 5.32821L184.444 4.78019ZM184.444 12.4802L185.276 13.0349L185.28 13.0282L184.444 12.4802ZM181.42 14.9442L181.818 15.8613L181.825 15.8585L181.42 14.9442ZM170.92 15.7842L170.234 15.0567L168.402 16.7842H170.92V15.7842ZM173.384 13.4602H174.384V11.1424L172.697 12.7327L173.384 13.4602ZM173.384 20.9922V21.9922H174.384V20.9922H173.384ZM179.964 20.9922L179.138 21.5558L179.435 21.9922H179.964V20.9922ZM175.092 13.8522V12.8522H173.199L174.266 14.4158L175.092 13.8522ZM181 13.8522L181.824 13.2863L181.526 12.8522H181V13.8522ZM185.9 20.9922V21.9922H187.799L186.724 20.4263L185.9 20.9922ZM173.384 14.0482L172.665 14.7433L174.384 16.5208V14.0482H173.384ZM170.92 11.5002V10.5002H168.562L170.201 12.1953L170.92 11.5002ZM179.04 10.7442L178.383 9.9901L178.377 9.99545L178.371 10.0009L179.04 10.7442ZM179.04 6.51619L178.371 7.25948L178.377 7.26492L178.383 7.27027L179.04 6.51619ZM170.92 5.76019L170.201 5.06503L168.562 6.76019H170.92V5.76019ZM173.384 3.21219H174.384V0.739573L172.665 2.51703L173.384 3.21219ZM167.84 20.9922H168.84V1.39219H167.84H166.84V20.9922H167.84ZM167.84 1.39219V2.39219H176.8V1.39219V0.392186H167.84V1.39219ZM176.8 1.39219V2.39219C178.487 2.39219 179.88 2.66494 181.01 3.17236L181.42 2.26019L181.829 1.34802C180.383 0.698097 178.696 0.392186 176.8 0.392186V1.39219ZM181.42 2.26019L181.015 3.17454C182.16 3.68162 183.009 4.3994 183.603 5.32166L184.444 4.78019L185.284 4.23871C184.46 2.95831 183.293 1.99609 181.825 1.34584L181.42 2.26019ZM184.444 4.78019L183.607 5.32821C184.194 6.22412 184.508 7.31486 184.508 8.64419H185.508H186.508C186.508 6.98684 186.112 5.50159 185.28 4.23216L184.444 4.78019ZM185.508 8.64419H184.508C184.508 9.95207 184.195 11.0342 183.607 11.9322L184.444 12.4802L185.28 13.0282C186.11 11.7608 186.508 10.2856 186.508 8.64419H185.508ZM184.444 12.4802L183.612 11.9255C183.02 12.8134 182.169 13.5187 181.015 14.0298L181.42 14.9442L181.825 15.8585C183.284 15.2123 184.449 14.275 185.276 13.0349L184.444 12.4802ZM181.42 14.9442L181.021 14.0271C179.888 14.5196 178.491 14.7842 176.8 14.7842V15.7842V16.7842C178.692 16.7842 180.375 16.4888 181.818 15.8613L181.42 14.9442ZM176.8 15.7842V14.7842H170.92V15.7842V16.7842H176.8V15.7842ZM170.92 15.7842L171.606 16.5117L174.07 14.1877L173.384 13.4602L172.697 12.7327L170.234 15.0567L170.92 15.7842ZM173.384 13.4602H172.384V20.9922H173.384H174.384V13.4602H173.384ZM173.384 20.9922V19.9922H167.84V20.9922V21.9922H173.384V20.9922ZM179.964 20.9922L180.79 20.4285L175.918 13.2885L175.092 13.8522L174.266 14.4158L179.138 21.5558L179.964 20.9922ZM175.092 13.8522V14.8522H181V13.8522V12.8522H175.092V13.8522ZM181 13.8522L180.175 14.418L185.075 21.558L185.9 20.9922L186.724 20.4263L181.824 13.2863L181 13.8522ZM185.9 20.9922V19.9922H179.964V20.9922V21.9922H185.9V20.9922ZM173.384 14.0482L174.102 13.353L171.638 10.805L170.92 11.5002L170.201 12.1953L172.665 14.7433L173.384 14.0482ZM170.92 11.5002V12.5002H176.464V11.5002V10.5002H170.92V11.5002ZM176.464 11.5002V12.5002C177.74 12.5002 178.888 12.2258 179.709 11.4875L179.04 10.7442L178.371 10.0009C178.071 10.2705 177.502 10.5002 176.464 10.5002V11.5002ZM179.04 10.7442L179.696 11.4983C180.53 10.7718 180.908 9.77583 180.908 8.64419H179.908H178.908C178.908 9.30454 178.706 9.70855 178.383 9.9901L179.04 10.7442ZM179.908 8.64419H180.908C180.908 7.50125 180.535 6.49266 179.696 5.7621L179.04 6.51619L178.383 7.27027C178.701 7.54771 178.908 7.95779 178.908 8.64419H179.908ZM179.04 6.51619L179.709 5.77289C178.888 5.03453 177.74 4.76019 176.464 4.76019V5.76019V6.76019C177.502 6.76019 178.071 6.98984 178.371 7.25948L179.04 6.51619ZM176.464 5.76019V4.76019H170.92V5.76019V6.76019H176.464V5.76019ZM170.92 5.76019L171.638 6.45535L174.102 3.90734L173.384 3.21219L172.665 2.51703L170.201 5.06503L170.92 5.76019ZM173.384 3.21219H172.384V14.0482H173.384H174.384V3.21219H173.384ZM188.566 20.9922H187.566V21.9922H188.566V20.9922ZM188.566 1.39219V0.392186H187.566V1.39219H188.566ZM194.11 1.39219H195.11V0.392186H194.11V1.39219ZM194.11 16.5962H193.11V17.5962H194.11V16.5962ZM203.462 16.5962H204.462V15.5962H203.462V16.5962ZM203.462 20.9922V21.9922H204.462V20.9922H203.462ZM188.566 20.9922H189.566V1.39219H188.566H187.566V20.9922H188.566ZM188.566 1.39219V2.39219H194.11V1.39219V0.392186H188.566V1.39219ZM194.11 1.39219H193.11V16.5962H194.11H195.11V1.39219H194.11ZM194.11 16.5962V17.5962H203.462V16.5962V15.5962H194.11V16.5962ZM203.462 16.5962H202.462V20.9922H203.462H204.462V16.5962H203.462ZM203.462 20.9922V19.9922H188.566V20.9922V21.9922H203.462V20.9922ZM205.656 20.9922H204.656V21.9922H205.656V20.9922ZM205.656 1.39219V0.392186H204.656V1.39219H205.656ZM220.636 2.59619L220.197 3.49466L220.636 2.59619ZM224.472 5.98419L223.625 6.51616L223.63 6.52385L224.472 5.98419ZM224.472 16.4002L223.627 15.8654L223.625 15.8682L224.472 16.4002ZM220.636 19.7882L220.197 18.8897L220.636 19.7882ZM211.2 16.5682H210.2V17.5682H211.2V16.5682ZM217.612 15.9522L218.059 16.8466L218.067 16.8426L217.612 15.9522ZM219.572 14.1042L220.437 14.6068L220.441 14.5982L219.572 14.1042ZM219.572 8.28019L220.437 7.77757L219.572 8.28019ZM217.612 6.46019L217.149 7.34641L217.161 7.35265L217.173 7.35857L217.612 6.46019ZM211.2 5.81619V4.81619H210.2V5.81619H211.2ZM205.656 20.9922H206.656V1.39219H205.656H204.656V20.9922H205.656ZM205.656 1.39219V2.39219H214.924V1.39219V0.392186H205.656V1.39219ZM214.924 1.39219V2.39219C216.965 2.39219 218.714 2.77003 220.197 3.49466L220.636 2.59619L221.075 1.69771C219.273 0.817014 217.214 0.392186 214.924 0.392186V1.39219ZM220.636 2.59619L220.197 3.49466C221.683 4.22093 222.816 5.22802 223.625 6.51614L224.472 5.98419L225.319 5.45224C224.299 3.82835 222.874 2.57678 221.075 1.69771L220.636 2.59619ZM224.472 5.98419L223.63 6.52385C224.444 7.79358 224.872 9.33517 224.872 11.1922H225.872H226.872C226.872 9.0172 226.367 7.08679 225.314 5.44452L224.472 5.98419ZM225.872 11.1922H224.872C224.872 13.0282 224.445 14.5728 223.627 15.8654L224.472 16.4002L225.317 16.935C226.366 15.2782 226.872 13.3509 226.872 11.1922H225.872ZM224.472 16.4002L223.625 15.8682C222.816 17.1564 221.683 18.1634 220.197 18.8897L220.636 19.7882L221.075 20.6867C222.874 19.8076 224.299 18.556 225.319 16.9321L224.472 16.4002ZM220.636 19.7882L220.197 18.8897C218.714 19.6143 216.965 19.9922 214.924 19.9922V20.9922V21.9922C217.214 21.9922 219.273 21.5674 221.075 20.6867L220.636 19.7882ZM214.924 20.9922V19.9922H205.656V20.9922V21.9922H214.924V20.9922ZM211.2 16.5682V17.5682H214.7V16.5682V15.5682H211.2V16.5682ZM214.7 16.5682V17.5682C215.942 17.5682 217.072 17.3403 218.059 16.8466L217.612 15.9522L217.165 15.0578C216.51 15.3854 215.698 15.5682 214.7 15.5682V16.5682ZM217.612 15.9522L218.067 16.8426C219.075 16.3275 219.872 15.5781 220.437 14.6068L219.572 14.1042L218.708 13.6016C218.339 14.2356 217.829 14.7183 217.157 15.0618L217.612 15.9522ZM219.572 14.1042L220.441 14.5982C221.008 13.6005 221.272 12.4531 221.272 11.1922H220.272H219.272C219.272 12.1712 219.069 12.9652 218.703 13.6102L219.572 14.1042ZM220.272 11.1922H221.272C221.272 9.91672 221.01 8.76392 220.437 7.77757L219.572 8.28019L218.708 8.78281C219.067 9.40178 219.272 10.1903 219.272 11.1922H220.272ZM219.572 8.28019L220.437 7.77757C219.87 6.80252 219.068 6.05874 218.051 5.5618L217.612 6.46019L217.173 7.35857C217.836 7.68296 218.341 8.15252 218.708 8.78281L219.572 8.28019ZM217.612 6.46019L218.075 5.57396C217.084 5.05584 215.948 4.81619 214.7 4.81619V5.81619V6.81619C215.692 6.81619 216.497 7.00586 217.149 7.34641L217.612 6.46019ZM214.7 5.81619V4.81619H211.2V5.81619V6.81619H214.7V5.81619ZM211.2 5.81619H210.2V16.5682H211.2H212.2V5.81619H211.2ZM8.98251 42.9802V41.9802H7.98251V42.9802H8.98251ZM18.0825 42.9802H19.0825V41.9802H18.0825V42.9802ZM18.0825 47.1242V48.1242H19.0825V47.1242H18.0825ZM8.98251 47.1242H7.98251V48.1242H8.98251V47.1242ZM9.37451 50.7082H8.37451V51.7082H9.37451V50.7082ZM19.6225 50.7082H20.6225V49.7082H19.6225V50.7082ZM19.6225 54.9922V55.9922H20.6225V54.9922H19.6225ZM3.88651 54.9922H2.88651V55.9922H3.88651V54.9922ZM3.88651 35.3922V34.3922H2.88651V35.3922H3.88651ZM19.2585 35.3922H20.2585V34.3922H19.2585V35.3922ZM19.2585 39.6762V40.6762H20.2585V39.6762H19.2585ZM9.37451 39.6762V38.6762H8.37451V39.6762H9.37451ZM8.98251 42.9802V43.9802H18.0825V42.9802V41.9802H8.98251V42.9802ZM18.0825 42.9802H17.0825V47.1242H18.0825H19.0825V42.9802H18.0825ZM18.0825 47.1242V46.1242H8.98251V47.1242V48.1242H18.0825V47.1242ZM8.98251 47.1242H9.98251V42.9802H8.98251H7.98251V47.1242H8.98251ZM9.37451 50.7082V51.7082H19.6225V50.7082V49.7082H9.37451V50.7082ZM19.6225 50.7082H18.6225V54.9922H19.6225H20.6225V50.7082H19.6225ZM19.6225 54.9922V53.9922H3.88651V54.9922V55.9922H19.6225V54.9922ZM3.88651 54.9922H4.88651V35.3922H3.88651H2.88651V54.9922H3.88651ZM3.88651 35.3922V36.3922H19.2585V35.3922V34.3922H3.88651V35.3922ZM19.2585 35.3922H18.2585V39.6762H19.2585H20.2585V35.3922H19.2585ZM19.2585 39.6762V38.6762H9.37451V39.6762V40.6762H19.2585V39.6762ZM9.37451 39.6762H8.37451V50.7082H9.37451H10.3745V39.6762H9.37451ZM22.699 54.9922H21.699V55.9922H22.699V54.9922ZM22.699 35.3922V34.3922H21.699V35.3922H22.699ZM27.263 35.3922L28.0331 34.7543L27.7332 34.3922H27.263V35.3922ZM38.071 48.4402V49.4402H40.1978L38.8411 47.8023L38.071 48.4402ZM35.915 48.4402H34.915V49.4402H35.915V48.4402ZM35.915 35.3922V34.3922H34.915V35.3922H35.915ZM41.347 35.3922H42.347V34.3922H41.347V35.3922ZM41.347 54.9922V55.9922H42.347V54.9922H41.347ZM36.783 54.9922L36.0129 55.6301L36.3128 55.9922H36.783V54.9922ZM25.975 41.9442V40.9442H23.8482L25.2049 42.5821L25.975 41.9442ZM28.131 41.9442H29.131V40.9442H28.131V41.9442ZM28.131 54.9922V55.9922H29.131V54.9922H28.131ZM22.699 54.9922H23.699V35.3922H22.699H21.699V54.9922H22.699ZM22.699 35.3922V36.3922H27.263V35.3922V34.3922H22.699V35.3922ZM27.263 35.3922L26.4929 36.0301L37.3009 49.0781L38.071 48.4402L38.8411 47.8023L28.0331 34.7543L27.263 35.3922ZM38.071 48.4402V47.4402H35.915V48.4402V49.4402H38.071V48.4402ZM35.915 48.4402H36.915V35.3922H35.915H34.915V48.4402H35.915ZM35.915 35.3922V36.3922H41.347V35.3922V34.3922H35.915V35.3922ZM41.347 35.3922H40.347V54.9922H41.347H42.347V35.3922H41.347ZM41.347 54.9922V53.9922H36.783V54.9922V55.9922H41.347V54.9922ZM36.783 54.9922L37.5531 54.3543L26.7451 41.3063L25.975 41.9442L25.2049 42.5821L36.0129 55.6301L36.783 54.9922ZM25.975 41.9442V42.9442H28.131V41.9442V40.9442H25.975V41.9442ZM28.131 41.9442H27.131V54.9922H28.131H29.131V41.9442H28.131ZM28.131 54.9922V53.9922H22.699V54.9922V55.9922H28.131V54.9922ZM49.4296 54.9922H48.4296V55.9922H49.4296V54.9922ZM49.4296 39.7882H50.4296V38.7882H49.4296V39.7882ZM43.4096 39.7882H42.4096V40.7882H43.4096V39.7882ZM43.4096 35.3922V34.3922H42.4096V35.3922H43.4096ZM60.9656 35.3922H61.9656V34.3922H60.9656V35.3922ZM60.9656 39.7882V40.7882H61.9656V39.7882H60.9656ZM54.9736 39.7882V38.7882H53.9736V39.7882H54.9736ZM54.9736 54.9922V55.9922H55.9736V54.9922H54.9736ZM49.4296 54.9922H50.4296V39.7882H49.4296H48.4296V54.9922H49.4296ZM49.4296 39.7882V38.7882H43.4096V39.7882V40.7882H49.4296V39.7882ZM43.4096 39.7882H44.4096V35.3922H43.4096H42.4096V39.7882H43.4096ZM43.4096 35.3922V36.3922H60.9656V35.3922V34.3922H43.4096V35.3922ZM60.9656 35.3922H59.9656V39.7882H60.9656H61.9656V35.3922H60.9656ZM60.9656 39.7882V38.7882H54.9736V39.7882V40.7882H60.9656V39.7882ZM54.9736 39.7882H53.9736V54.9922H54.9736H55.9736V39.7882H54.9736ZM54.9736 54.9922V53.9922H49.4296V54.9922V55.9922H54.9736V54.9922ZM68.127 42.9802V41.9802H67.127V42.9802H68.127ZM77.227 42.9802H78.227V41.9802H77.227V42.9802ZM77.227 47.1242V48.1242H78.227V47.1242H77.227ZM68.127 47.1242H67.127V48.1242H68.127V47.1242ZM68.519 50.7082H67.519V51.7082H68.519V50.7082ZM78.767 50.7082H79.767V49.7082H78.767V50.7082ZM78.767 54.9922V55.9922H79.767V54.9922H78.767ZM63.031 54.9922H62.031V55.9922H63.031V54.9922ZM63.031 35.3922V34.3922H62.031V35.3922H63.031ZM78.403 35.3922H79.403V34.3922H78.403V35.3922ZM78.403 39.6762V40.6762H79.403V39.6762H78.403ZM68.519 39.6762V38.6762H67.519V39.6762H68.519ZM68.127 42.9802V43.9802H77.227V42.9802V41.9802H68.127V42.9802ZM77.227 42.9802H76.227V47.1242H77.227H78.227V42.9802H77.227ZM77.227 47.1242V46.1242H68.127V47.1242V48.1242H77.227V47.1242ZM68.127 47.1242H69.127V42.9802H68.127H67.127V47.1242H68.127ZM68.519 50.7082V51.7082H78.767V50.7082V49.7082H68.519V50.7082ZM78.767 50.7082H77.767V54.9922H78.767H79.767V50.7082H78.767ZM78.767 54.9922V53.9922H63.031V54.9922V55.9922H78.767V54.9922ZM63.031 54.9922H64.031V35.3922H63.031H62.031V54.9922H63.031ZM63.031 35.3922V36.3922H78.403V35.3922V34.3922H63.031V35.3922ZM78.403 35.3922H77.403V39.6762H78.403H79.403V35.3922H78.403ZM78.403 39.6762V38.6762H68.519V39.6762V40.6762H78.403V39.6762ZM68.519 39.6762H67.519V50.7082H68.519H69.519V39.6762H68.519ZM81.8435 54.9922H80.8435V55.9922H81.8435V54.9922ZM81.8435 35.3922V34.3922H80.8435V35.3922H81.8435ZM95.4235 36.2602L95.0137 37.1724L95.0186 37.1745L95.4235 36.2602ZM98.4475 38.7802L97.6068 39.3217L97.6111 39.3282L98.4475 38.7802ZM98.4475 46.4802L99.2796 47.0349L99.284 47.0282L98.4475 46.4802ZM95.4235 48.9442L95.8223 49.8613L95.8285 49.8585L95.4235 48.9442ZM84.9235 49.7842L84.2374 49.0567L82.4059 50.7842H84.9235V49.7842ZM87.3875 47.4602H88.3875V45.1424L86.7014 46.7327L87.3875 47.4602ZM87.3875 54.9922V55.9922H88.3875V54.9922H87.3875ZM93.9675 54.9922L93.1415 55.5558L93.4393 55.9922H93.9675V54.9922ZM89.0955 47.8522V46.8522H87.2026L88.2695 48.4158L89.0955 47.8522ZM95.0035 47.8522L95.8281 47.2863L95.5301 46.8522H95.0035V47.8522ZM99.9035 54.9922V55.9922H101.803L100.728 54.4263L99.9035 54.9922ZM87.3875 48.0482L86.6687 48.7433L88.3875 50.5208V48.0482H87.3875ZM84.9235 45.5002V44.5002H82.5654L84.2047 46.1953L84.9235 45.5002ZM93.0435 44.7442L92.3868 43.9901L92.3806 43.9954L92.3746 44.0009L93.0435 44.7442ZM93.0435 40.5162L92.3746 41.2595L92.3806 41.2649L92.3868 41.2703L93.0435 40.5162ZM84.9235 39.7602L84.2047 39.065L82.5654 40.7602H84.9235V39.7602ZM87.3875 37.2122H88.3875V34.7396L86.6687 36.517L87.3875 37.2122ZM81.8435 54.9922H82.8435V35.3922H81.8435H80.8435V54.9922H81.8435ZM81.8435 35.3922V36.3922H90.8035V35.3922V34.3922H81.8435V35.3922ZM90.8035 35.3922V36.3922C92.491 36.3922 93.8843 36.6649 95.0137 37.1724L95.4235 36.2602L95.8334 35.348C94.3868 34.6981 92.7001 34.3922 90.8035 34.3922V35.3922ZM95.4235 36.2602L95.0186 37.1745C96.1637 37.6816 97.0128 38.3994 97.6068 39.3217L98.4475 38.7802L99.2883 38.2387C98.4636 36.9583 97.2968 35.9961 95.8285 35.3458L95.4235 36.2602ZM98.4475 38.7802L97.6111 39.3282C98.1981 40.2241 98.5115 41.3149 98.5115 42.6442H99.5115H100.512C100.512 40.9868 100.116 39.5016 99.284 38.2322L98.4475 38.7802ZM99.5115 42.6442H98.5115C98.5115 43.9521 98.1994 45.0342 97.6111 45.9322L98.4475 46.4802L99.284 47.0282C100.114 45.7608 100.512 44.2856 100.512 42.6442H99.5115ZM98.4475 46.4802L97.6155 45.9255C97.0236 46.8134 96.1727 47.5187 95.0186 48.0298L95.4235 48.9442L95.8285 49.8585C97.2877 49.2123 98.4528 48.275 99.2796 47.0349L98.4475 46.4802ZM95.4235 48.9442L95.0248 48.0271C93.8922 48.5196 92.4948 48.7842 90.8035 48.7842V49.7842V50.7842C92.6963 50.7842 94.3789 50.4888 95.8223 49.8613L95.4235 48.9442ZM90.8035 49.7842V48.7842H84.9235V49.7842V50.7842H90.8035V49.7842ZM84.9235 49.7842L85.6097 50.5117L88.0737 48.1877L87.3875 47.4602L86.7014 46.7327L84.2374 49.0567L84.9235 49.7842ZM87.3875 47.4602H86.3875V54.9922H87.3875H88.3875V47.4602H87.3875ZM87.3875 54.9922V53.9922H81.8435V54.9922V55.9922H87.3875V54.9922ZM93.9675 54.9922L94.7936 54.4286L89.9216 47.2885L89.0955 47.8522L88.2695 48.4158L93.1415 55.5558L93.9675 54.9922ZM89.0955 47.8522V48.8522H95.0035V47.8522V46.8522H89.0955V47.8522ZM95.0035 47.8522L94.179 48.418L99.079 55.558L99.9035 54.9922L100.728 54.4263L95.8281 47.2863L95.0035 47.8522ZM99.9035 54.9922V53.9922H93.9675V54.9922V55.9922H99.9035V54.9922ZM87.3875 48.0482L88.1064 47.353L85.6424 44.805L84.9235 45.5002L84.2047 46.1953L86.6687 48.7433L87.3875 48.0482ZM84.9235 45.5002V46.5002H90.4675V45.5002V44.5002H84.9235V45.5002ZM90.4675 45.5002V46.5002C91.7443 46.5002 92.8921 46.2258 93.7125 45.4875L93.0435 44.7442L92.3746 44.0009C92.075 44.2705 91.5055 44.5002 90.4675 44.5002V45.5002ZM93.0435 44.7442L93.7003 45.4983C94.5344 44.7718 94.9115 43.7758 94.9115 42.6442H93.9115H92.9115C92.9115 43.3045 92.71 43.7086 92.3868 43.9901L93.0435 44.7442ZM93.9115 42.6442H94.9115C94.9115 41.5013 94.5391 40.4927 93.7003 39.7621L93.0435 40.5162L92.3868 41.2703C92.7053 41.5477 92.9115 41.9578 92.9115 42.6442H93.9115ZM93.0435 40.5162L93.7125 39.7729C92.8921 39.0345 91.7443 38.7602 90.4675 38.7602V39.7602V40.7602C91.5055 40.7602 92.075 40.9898 92.3746 41.2595L93.0435 40.5162ZM90.4675 39.7602V38.7602H84.9235V39.7602V40.7602H90.4675V39.7602ZM84.9235 39.7602L85.6424 40.4553L88.1064 37.9073L87.3875 37.2122L86.6687 36.517L84.2047 39.065L84.9235 39.7602ZM87.3875 37.2122H86.3875V48.0482H87.3875H88.3875V37.2122H87.3875ZM102.57 54.9922H101.57V55.9922H102.57V54.9922ZM102.57 35.3922V34.3922H101.57V35.3922H102.57ZM116.15 36.2602L115.74 37.1724L115.745 37.1745L116.15 36.2602ZM119.174 38.7802L118.333 39.3217L118.338 39.3282L119.174 38.7802ZM119.174 46.4802L120.011 47.0282L119.174 46.4802ZM116.15 49.0002L116.56 49.9124L116.566 49.9097L116.15 49.0002ZM105.65 49.8682L104.951 49.153L103.196 50.8682H105.65V49.8682ZM108.114 47.4602H109.114V45.0847L107.415 46.745L108.114 47.4602ZM108.114 54.9922V55.9922H109.114V54.9922H108.114ZM108.114 48.0482L107.395 48.7433L109.114 50.5208V48.0482H108.114ZM105.65 45.5002V44.5002H103.292L104.931 46.1953L105.65 45.5002ZM113.77 44.7442L113.113 43.9901L113.107 43.9954L113.101 44.0009L113.77 44.7442ZM113.77 40.5162L113.101 41.2595L113.107 41.2649L113.113 41.2703L113.77 40.5162ZM105.65 39.7602L104.931 39.065L103.292 40.7602H105.65V39.7602ZM108.114 37.2122H109.114V34.7396L107.395 36.517L108.114 37.2122ZM102.57 54.9922H103.57V35.3922H102.57H101.57V54.9922H102.57ZM102.57 35.3922V36.3922H111.53V35.3922V34.3922H102.57V35.3922ZM111.53 35.3922V36.3922C113.218 36.3922 114.611 36.6649 115.74 37.1724L116.15 36.2602L116.56 35.348C115.113 34.6981 113.427 34.3922 111.53 34.3922V35.3922ZM116.15 36.2602L115.745 37.1745C116.89 37.6816 117.739 38.3994 118.333 39.3217L119.174 38.7802L120.015 38.2387C119.19 36.9583 118.023 35.9961 116.555 35.3458L116.15 36.2602ZM119.174 38.7802L118.338 39.3282C118.925 40.2241 119.238 41.3149 119.238 42.6442H120.238H121.238C121.238 40.9868 120.842 39.5016 120.011 38.2322L119.174 38.7802ZM120.238 42.6442H119.238C119.238 43.9521 118.926 45.0342 118.338 45.9322L119.174 46.4802L120.011 47.0282C120.841 45.7608 121.238 44.2856 121.238 42.6442H120.238ZM119.174 46.4802L118.338 45.9322C117.743 46.8401 116.889 47.5629 115.734 48.0907L116.15 49.0002L116.566 49.9097C118.025 49.2428 119.187 48.2856 120.011 47.0282L119.174 46.4802ZM116.15 49.0002L115.74 48.088C114.611 48.5954 113.218 48.8682 111.53 48.8682V49.8682V50.8682C113.427 50.8682 115.113 50.5623 116.56 49.9124L116.15 49.0002ZM111.53 49.8682V48.8682H105.65V49.8682V50.8682H111.53V49.8682ZM105.65 49.8682L106.349 50.5834L108.813 48.1754L108.114 47.4602L107.415 46.745L104.951 49.153L105.65 49.8682ZM108.114 47.4602H107.114V54.9922H108.114H109.114V47.4602H108.114ZM108.114 54.9922V53.9922H102.57V54.9922V55.9922H108.114V54.9922ZM108.114 48.0482L108.833 47.353L106.369 44.805L105.65 45.5002L104.931 46.1953L107.395 48.7433L108.114 48.0482ZM105.65 45.5002V46.5002H111.194V45.5002V44.5002H105.65V45.5002ZM111.194 45.5002V46.5002C112.471 46.5002 113.619 46.2258 114.439 45.4875L113.77 44.7442L113.101 44.0009C112.802 44.2705 112.232 44.5002 111.194 44.5002V45.5002ZM113.77 44.7442L114.427 45.4983C115.261 44.7718 115.638 43.7758 115.638 42.6442H114.638H113.638C113.638 43.3045 113.437 43.7086 113.113 43.9901L113.77 44.7442ZM114.638 42.6442H115.638C115.638 41.5013 115.266 40.4927 114.427 39.7621L113.77 40.5162L113.113 41.2703C113.432 41.5477 113.638 41.9578 113.638 42.6442H114.638ZM113.77 40.5162L114.439 39.7729C113.619 39.0345 112.471 38.7602 111.194 38.7602V39.7602V40.7602C112.232 40.7602 112.802 40.9898 113.101 41.2595L113.77 40.5162ZM111.194 39.7602V38.7602H105.65V39.7602V40.7602H111.194V39.7602ZM105.65 39.7602L106.369 40.4553L108.833 37.9073L108.114 37.2122L107.395 36.517L104.931 39.065L105.65 39.7602ZM108.114 37.2122H107.114V48.0482H108.114H109.114V37.2122H108.114ZM122.941 54.9922H121.941V55.9922H122.941V54.9922ZM122.941 35.3922V34.3922H121.941V35.3922H122.941ZM136.521 36.2602L136.111 37.1724L136.116 37.1745L136.521 36.2602ZM139.545 38.7802L138.704 39.3217L138.709 39.3282L139.545 38.7802ZM139.545 46.4802L140.377 47.0349L140.382 47.0282L139.545 46.4802ZM136.521 48.9442L136.92 49.8613L136.926 49.8585L136.521 48.9442ZM126.021 49.7842L125.335 49.0567L123.504 50.7842H126.021V49.7842ZM128.485 47.4602H129.485V45.1424L127.799 46.7327L128.485 47.4602ZM128.485 54.9922V55.9922H129.485V54.9922H128.485ZM135.065 54.9922L134.239 55.5558L134.537 55.9922H135.065V54.9922ZM130.193 47.8522V46.8522H128.3L129.367 48.4158L130.193 47.8522ZM136.101 47.8522L136.926 47.2863L136.628 46.8522H136.101V47.8522ZM141.001 54.9922V55.9922H142.9L141.826 54.4263L141.001 54.9922ZM128.485 48.0482L127.766 48.7433L129.485 50.5208V48.0482H128.485ZM126.021 45.5002V44.5002H123.663L125.302 46.1953L126.021 45.5002ZM134.141 44.7442L133.484 43.9901L133.478 43.9954L133.472 44.0009L134.141 44.7442ZM134.141 40.5162L133.472 41.2595L133.478 41.2649L133.484 41.2703L134.141 40.5162ZM126.021 39.7602L125.302 39.065L123.663 40.7602H126.021V39.7602ZM128.485 37.2122H129.485V34.7396L127.766 36.517L128.485 37.2122ZM122.941 54.9922H123.941V35.3922H122.941H121.941V54.9922H122.941ZM122.941 35.3922V36.3922H131.901V35.3922V34.3922H122.941V35.3922ZM131.901 35.3922V36.3922C133.589 36.3922 134.982 36.6649 136.111 37.1724L136.521 36.2602L136.931 35.348C135.484 34.6981 133.798 34.3922 131.901 34.3922V35.3922ZM136.521 36.2602L136.116 37.1745C137.261 37.6816 138.11 38.3994 138.704 39.3217L139.545 38.7802L140.386 38.2387C139.561 36.9583 138.394 35.9961 136.926 35.3458L136.521 36.2602ZM139.545 38.7802L138.709 39.3282C139.296 40.2241 139.609 41.3149 139.609 42.6442H140.609H141.609C141.609 40.9868 141.213 39.5016 140.382 38.2322L139.545 38.7802ZM140.609 42.6442H139.609C139.609 43.9521 139.297 45.0342 138.709 45.9322L139.545 46.4802L140.382 47.0282C141.212 45.7608 141.609 44.2856 141.609 42.6442H140.609ZM139.545 46.4802L138.713 45.9255C138.121 46.8134 137.27 47.5187 136.116 48.0298L136.521 48.9442L136.926 49.8585C138.385 49.2123 139.55 48.275 140.377 47.0349L139.545 46.4802ZM136.521 48.9442L136.122 48.0271C134.99 48.5196 133.592 48.7842 131.901 48.7842V49.7842V50.7842C133.794 50.7842 135.477 50.4888 136.92 49.8613L136.521 48.9442ZM131.901 49.7842V48.7842H126.021V49.7842V50.7842H131.901V49.7842ZM126.021 49.7842L126.707 50.5117L129.171 48.1877L128.485 47.4602L127.799 46.7327L125.335 49.0567L126.021 49.7842ZM128.485 47.4602H127.485V54.9922H128.485H129.485V47.4602H128.485ZM128.485 54.9922V53.9922H122.941V54.9922V55.9922H128.485V54.9922ZM135.065 54.9922L135.891 54.4286L131.019 47.2885L130.193 47.8522L129.367 48.4158L134.239 55.5558L135.065 54.9922ZM130.193 47.8522V48.8522H136.101V47.8522V46.8522H130.193V47.8522ZM136.101 47.8522L135.277 48.418L140.177 55.558L141.001 54.9922L141.826 54.4263L136.926 47.2863L136.101 47.8522ZM141.001 54.9922V53.9922H135.065V54.9922V55.9922H141.001V54.9922ZM128.485 48.0482L129.204 47.353L126.74 44.805L126.021 45.5002L125.302 46.1953L127.766 48.7433L128.485 48.0482ZM126.021 45.5002V46.5002H131.565V45.5002V44.5002H126.021V45.5002ZM131.565 45.5002V46.5002C132.842 46.5002 133.99 46.2258 134.81 45.4875L134.141 44.7442L133.472 44.0009C133.173 44.2705 132.603 44.5002 131.565 44.5002V45.5002ZM134.141 44.7442L134.798 45.4983C135.632 44.7718 136.009 43.7758 136.009 42.6442H135.009H134.009C134.009 43.3045 133.808 43.7086 133.484 43.9901L134.141 44.7442ZM135.009 42.6442H136.009C136.009 41.5013 135.637 40.4927 134.798 39.7621L134.141 40.5162L133.484 41.2703C133.803 41.5477 134.009 41.9578 134.009 42.6442H135.009ZM134.141 40.5162L134.81 39.7729C133.99 39.0345 132.842 38.7602 131.565 38.7602V39.7602V40.7602C132.603 40.7602 133.173 40.9898 133.472 41.2595L134.141 40.5162ZM131.565 39.7602V38.7602H126.021V39.7602V40.7602H131.565V39.7602ZM126.021 39.7602L126.74 40.4553L129.204 37.9073L128.485 37.2122L127.766 36.517L125.302 39.065L126.021 39.7602ZM128.485 37.2122H127.485V48.0482H128.485H129.485V37.2122H128.485ZM143.668 54.9922H142.668V55.9922H143.668V54.9922ZM143.668 35.3922V34.3922H142.668V35.3922H143.668ZM149.212 35.3922H150.212V34.3922H149.212V35.3922ZM149.212 54.9922V55.9922H150.212V54.9922H149.212ZM143.668 54.9922H144.668V35.3922H143.668H142.668V54.9922H143.668ZM143.668 35.3922V36.3922H149.212V35.3922V34.3922H143.668V35.3922ZM149.212 35.3922H148.212V54.9922H149.212H150.212V35.3922H149.212ZM149.212 54.9922V53.9922H143.668V54.9922V55.9922H149.212V54.9922ZM155.396 54.7962L155.128 55.7595L155.135 55.7615L155.142 55.7634L155.396 54.7962ZM151.784 53.2282L150.87 52.8215L150.531 53.5851L151.222 54.0551L151.784 53.2282ZM153.604 49.1402L154.142 48.2973L153.163 47.6723L152.69 48.7335L153.604 49.1402ZM156.628 50.5402L156.316 51.4904L156.326 51.4934L156.335 51.4963L156.628 50.5402ZM161.92 50.8762L162.19 51.8392L162.207 51.8342L162.225 51.8286L161.92 50.8762ZM162.928 50.3162L162.193 49.6379L162.191 49.6405L162.928 50.3162ZM162.648 48.4122L162.111 49.2558L162.648 48.4122ZM161.052 47.7682L161.301 46.7997L161.052 47.7682ZM158.868 47.2642L158.659 48.242L158.663 48.243L158.868 47.2642ZM156.488 46.6202L156.172 47.5689L156.178 47.5711L156.488 46.6202ZM154.332 45.6122L153.783 46.4479L153.791 46.4534L153.8 46.4588L154.332 45.6122ZM152.736 43.9602L151.876 44.4713L151.883 44.4816L152.736 43.9602ZM153.072 38.1642L152.247 37.5983L152.24 37.6095L153.072 38.1642ZM155.984 35.8682L155.574 34.956L155.984 35.8682ZM164.58 35.4482L164.344 36.42L164.353 36.4221L164.362 36.424L164.58 35.4482ZM167.912 36.7082L168.836 37.0915L169.172 36.2807L168.412 35.842L167.912 36.7082ZM166.204 40.8242L165.729 41.7041L166.703 42.2302L167.128 41.2075L166.204 40.8242ZM163.432 39.7042L163.157 40.6657L163.166 40.6683L163.176 40.6707L163.432 39.7042ZM158.924 39.5642L159.229 40.5166L159.246 40.5111L159.263 40.5051L158.924 39.5642ZM157.916 40.1802L157.13 39.5624V39.5624L157.916 40.1802ZM158.196 42.1122L157.641 42.9442L157.664 42.9593L157.687 42.9731L158.196 42.1122ZM159.792 42.7282L159.543 43.6967L159.559 43.7008L159.575 43.7044L159.792 42.7282ZM161.976 43.2042L161.767 44.182L161.771 44.183L161.976 43.2042ZM164.356 43.8482L164.04 44.7969L164.053 44.8013L164.067 44.8054L164.356 43.8482ZM166.54 44.8562L165.991 45.6919L165.999 45.6974L166.008 45.7028L166.54 44.8562ZM168.108 46.5082L167.238 47.0018L167.246 47.0159L167.255 47.0296L168.108 46.5082ZM167.744 52.2202L166.914 51.6618L166.912 51.6655L167.744 52.2202ZM164.86 54.5162L164.45 53.604L164.445 53.6063L164.86 54.5162ZM160.044 55.3842V54.3842C158.521 54.3842 157.057 54.1983 155.65 53.829L155.396 54.7962L155.142 55.7634C156.722 56.178 158.356 56.3842 160.044 56.3842V55.3842ZM155.396 54.7962L155.664 53.8328C154.26 53.4417 153.164 52.9573 152.346 52.4013L151.784 53.2282L151.222 54.0551C152.271 54.7684 153.583 55.3294 155.128 55.7595L155.396 54.7962ZM151.784 53.2282L152.698 53.6349L154.518 49.5469L153.604 49.1402L152.69 48.7335L150.87 52.8215L151.784 53.2282ZM153.604 49.1402L153.066 49.9831C154.024 50.5944 155.11 51.0948 156.316 51.4904L156.628 50.5402L156.94 49.59C155.869 49.2389 154.939 48.8059 154.142 48.2973L153.604 49.1402ZM156.628 50.5402L156.335 51.4963C157.581 51.8782 158.828 52.0722 160.072 52.0722V51.0722V50.0722C159.039 50.0722 157.989 49.9115 156.921 49.5841L156.628 50.5402ZM160.072 51.0722V52.0722C160.882 52.0722 161.6 52.0043 162.19 51.8392L161.92 50.8762L161.65 49.9132C161.307 50.0094 160.792 50.0722 160.072 50.0722V51.0722ZM161.92 50.8762L162.225 51.8286C162.766 51.6554 163.291 51.4 163.665 50.9919L162.928 50.3162L162.191 49.6405C162.154 49.6804 162.007 49.7983 161.615 49.9238L161.92 50.8762ZM162.928 50.3162L163.663 50.9945C164.05 50.5754 164.264 50.056 164.264 49.4762H163.264H162.264C162.264 49.5311 162.254 49.5717 162.193 49.6379L162.928 50.3162ZM163.264 49.4762H164.264C164.264 48.6524 163.854 47.9944 163.185 47.5685L162.648 48.4122L162.111 49.2558C162.206 49.3164 162.236 49.3606 162.245 49.3752C162.251 49.3863 162.264 49.4113 162.264 49.4762H163.264ZM162.648 48.4122L163.185 47.5685C162.659 47.2336 162.02 46.9846 161.301 46.7997L161.052 47.7682L160.803 48.7367C161.391 48.8878 161.816 49.0681 162.111 49.2558L162.648 48.4122ZM161.052 47.7682L161.301 46.7997C160.63 46.6272 159.887 46.4559 159.073 46.2854L158.868 47.2642L158.663 48.243C159.454 48.4085 160.167 48.5731 160.803 48.7367L161.052 47.7682ZM158.868 47.2642L159.078 46.2864C158.329 46.126 157.569 45.9205 156.798 45.6693L156.488 46.6202L156.178 47.5711C157.012 47.8425 157.839 48.0664 158.659 48.242L158.868 47.2642ZM156.488 46.6202L156.804 45.6715C156.091 45.4337 155.445 45.1308 154.864 44.7655L154.332 45.6122L153.8 46.4588C154.525 46.9149 155.317 47.284 156.172 47.5689L156.488 46.6202ZM154.332 45.6122L154.881 44.7765C154.352 44.4288 153.924 43.9858 153.589 43.4387L152.736 43.9602L151.883 44.4816C152.37 45.2786 153.005 45.9369 153.783 46.4479L154.332 45.6122ZM152.736 43.9602L153.596 43.4491C153.301 42.953 153.12 42.2745 153.12 41.3562H152.12H151.12C151.12 42.5285 151.35 43.5861 151.877 44.4713L152.736 43.9602ZM152.12 41.3562H153.12C153.12 40.3718 153.382 39.5018 153.904 38.7189L153.072 38.1642L152.24 37.6095C151.493 38.7305 151.12 39.9886 151.12 41.3562H152.12ZM153.072 38.1642L153.897 38.73C154.425 37.9598 155.236 37.3006 156.394 36.7804L155.984 35.8682L155.574 34.956C154.156 35.5931 153.026 36.4645 152.248 37.5983L153.072 38.1642ZM155.984 35.8682L156.394 36.7804C157.515 36.2765 158.971 36.0002 160.8 36.0002V35.0002V34.0002C158.784 34.0002 157.029 34.3025 155.574 34.956L155.984 35.8682ZM160.8 35.0002V36.0002C162.01 36.0002 163.191 36.1404 164.344 36.42L164.58 35.4482L164.816 34.4763C163.505 34.1587 162.166 34.0002 160.8 34.0002V35.0002ZM164.58 35.4482L164.362 36.424C165.527 36.685 166.541 37.0716 167.412 37.5744L167.912 36.7082L168.412 35.842C167.342 35.2248 166.134 34.7713 164.799 34.4723L164.58 35.4482ZM167.912 36.7082L166.988 36.3249L165.28 40.4409L166.204 40.8242L167.128 41.2075L168.836 37.0915L167.912 36.7082ZM166.204 40.8242L166.679 39.9443C165.685 39.4073 164.688 39.0027 163.688 38.7376L163.432 39.7042L163.176 40.6707C164.006 40.891 164.857 41.2331 165.729 41.7041L166.204 40.8242ZM163.432 39.7042L163.707 38.7427C162.712 38.4585 161.733 38.3122 160.772 38.3122V39.3122V40.3122C161.528 40.3122 162.322 40.4272 163.157 40.6657L163.432 39.7042ZM160.772 39.3122V38.3122C159.947 38.3122 159.203 38.4009 158.585 38.6233L158.924 39.5642L159.263 40.5051C159.578 40.3914 160.066 40.3122 160.772 40.3122V39.3122ZM158.924 39.5642L158.619 38.6118C158.048 38.7947 157.504 39.0857 157.13 39.5624L157.916 40.1802L158.702 40.798C158.739 40.752 158.867 40.6324 159.229 40.5166L158.924 39.5642ZM157.916 40.1802L157.13 39.5624C156.784 40.002 156.608 40.5188 156.608 41.0762H157.608H158.608C158.608 40.9616 158.637 40.8811 158.702 40.798L157.916 40.1802ZM157.608 41.0762H156.608C156.608 41.8766 157.003 42.5187 157.641 42.9442L158.196 42.1122L158.751 41.2801C158.661 41.2201 158.632 41.1773 158.625 41.1636C158.619 41.1535 158.608 41.1323 158.608 41.0762H157.608ZM158.196 42.1122L157.687 42.9731C158.205 43.2789 158.833 43.5141 159.543 43.6967L159.792 42.7282L160.041 41.7597C159.444 41.6063 159.009 41.4308 158.705 41.2513L158.196 42.1122ZM159.792 42.7282L159.575 43.7044C160.25 43.8543 160.98 44.0135 161.767 44.182L161.976 43.2042L162.186 42.2264C161.404 42.0588 160.678 41.9007 160.009 41.752L159.792 42.7282ZM161.976 43.2042L161.771 44.183C162.536 44.343 163.292 44.5476 164.04 44.7969L164.356 43.8482L164.672 42.8995C163.852 42.6261 163.022 42.4013 162.181 42.2254L161.976 43.2042ZM164.356 43.8482L164.067 44.8054C164.784 45.0223 165.423 45.319 165.991 45.6919L166.54 44.8562L167.089 44.0205C166.35 43.5347 165.533 43.1594 164.645 42.891L164.356 43.8482ZM166.54 44.8562L166.008 45.7028C166.517 46.0229 166.925 46.4505 167.238 47.0018L168.108 46.5082L168.978 46.0146C168.507 45.1845 167.87 44.5108 167.072 44.0096L166.54 44.8562ZM168.108 46.5082L167.255 47.0296C167.544 47.5037 167.724 48.1588 167.724 49.0562H168.724H169.724C169.724 47.9002 169.493 46.8567 168.961 45.9867L168.108 46.5082ZM168.724 49.0562H167.724C167.724 49.9902 167.46 50.8513 166.914 51.6618L167.744 52.2202L168.574 52.7786C169.335 51.6477 169.724 50.3995 169.724 49.0562H168.724ZM167.744 52.2202L166.912 51.6655C166.404 52.428 165.607 53.0844 164.45 53.604L164.86 54.5162L165.27 55.4284C166.689 54.7907 167.815 53.9164 168.576 52.7749L167.744 52.2202ZM164.86 54.5162L164.445 53.6063C163.347 54.1071 161.895 54.3842 160.044 54.3842V55.3842V56.3842C162.076 56.3842 163.835 56.0826 165.275 55.4261L164.86 54.5162ZM176.381 42.9802V41.9802H175.381V42.9802H176.381ZM185.481 42.9802H186.481V41.9802H185.481V42.9802ZM185.481 47.1242V48.1242H186.481V47.1242H185.481ZM176.381 47.1242H175.381V48.1242H176.381V47.1242ZM176.773 50.7082H175.773V51.7082H176.773V50.7082ZM187.021 50.7082H188.021V49.7082H187.021V50.7082ZM187.021 54.9922V55.9922H188.021V54.9922H187.021ZM171.285 54.9922H170.285V55.9922H171.285V54.9922ZM171.285 35.3922V34.3922H170.285V35.3922H171.285ZM186.657 35.3922H187.657V34.3922H186.657V35.3922ZM186.657 39.6762V40.6762H187.657V39.6762H186.657ZM176.773 39.6762V38.6762H175.773V39.6762H176.773ZM176.381 42.9802V43.9802H185.481V42.9802V41.9802H176.381V42.9802ZM185.481 42.9802H184.481V47.1242H185.481H186.481V42.9802H185.481ZM185.481 47.1242V46.1242H176.381V47.1242V48.1242H185.481V47.1242ZM176.381 47.1242H177.381V42.9802H176.381H175.381V47.1242H176.381ZM176.773 50.7082V51.7082H187.021V50.7082V49.7082H176.773V50.7082ZM187.021 50.7082H186.021V54.9922H187.021H188.021V50.7082H187.021ZM187.021 54.9922V53.9922H171.285V54.9922V55.9922H187.021V54.9922ZM171.285 54.9922H172.285V35.3922H171.285H170.285V54.9922H171.285ZM171.285 35.3922V36.3922H186.657V35.3922V34.3922H171.285V35.3922ZM186.657 35.3922H185.657V39.6762H186.657H187.657V35.3922H186.657ZM186.657 39.6762V38.6762H176.773V39.6762V40.6762H186.657V39.6762ZM176.773 39.6762H175.773V50.7082H176.773H177.773V39.6762H176.773ZM192.337 54.7962L192.069 55.7595L192.076 55.7615L192.084 55.7634L192.337 54.7962ZM188.725 53.2282L187.812 52.8215L187.472 53.5851L188.163 54.0551L188.725 53.2282ZM190.545 49.1402L191.083 48.2973L190.104 47.6723L189.632 48.7335L190.545 49.1402ZM193.569 50.5402L193.258 51.4904L193.267 51.4934L193.276 51.4963L193.569 50.5402ZM198.861 50.8762L199.131 51.8392L199.149 51.8342L199.166 51.8286L198.861 50.8762ZM199.869 50.3162L199.135 49.6379L199.132 49.6405L199.869 50.3162ZM199.589 48.4122L199.053 49.2558L199.589 48.4122ZM197.993 47.7682L198.242 46.7997L197.993 47.7682ZM195.809 47.2642L195.6 48.242L195.605 48.243L195.809 47.2642ZM193.429 46.6202L193.113 47.5689L193.12 47.5711L193.429 46.6202ZM191.273 45.6122L190.724 46.4479L190.733 46.4534L190.741 46.4588L191.273 45.6122ZM189.677 43.9602L188.818 44.4713L188.824 44.4816L189.677 43.9602ZM190.013 38.1642L189.189 37.5983L189.181 37.6095L190.013 38.1642ZM192.925 35.8682L192.516 34.956L192.925 35.8682ZM201.521 35.4482L201.286 36.42L201.294 36.4221L201.303 36.424L201.521 35.4482ZM204.853 36.7082L205.777 37.0915L206.114 36.2807L205.353 35.842L204.853 36.7082ZM203.145 40.8242L202.67 41.7041L203.645 42.2302L204.069 41.2075L203.145 40.8242ZM200.373 39.7042L200.099 40.6657L200.108 40.6683L200.117 40.6707L200.373 39.7042ZM195.865 39.5642L196.17 40.5166L196.187 40.5111L196.204 40.5051L195.865 39.5642ZM194.857 40.1802L194.071 39.5624V39.5624L194.857 40.1802ZM195.137 42.1122L194.583 42.9442L194.605 42.9593L194.629 42.9731L195.137 42.1122ZM196.733 42.7282L196.484 43.6967L196.5 43.7008L196.517 43.7044L196.733 42.7282ZM198.917 43.2042L198.708 44.182L198.713 44.183L198.917 43.2042ZM201.297 43.8482L200.981 44.7969L200.995 44.8013L201.008 44.8054L201.297 43.8482ZM203.481 44.8562L202.932 45.6919L202.941 45.6974L202.949 45.7028L203.481 44.8562ZM205.049 46.5082L204.18 47.0018L204.188 47.0159L204.196 47.0296L205.049 46.5082ZM204.685 52.2202L203.856 51.6618L203.853 51.6655L204.685 52.2202ZM201.801 54.5162L201.392 53.604L201.387 53.6063L201.801 54.5162ZM196.985 55.3842V54.3842C195.462 54.3842 193.999 54.1983 192.591 53.829L192.337 54.7962L192.084 55.7634C193.663 56.178 195.298 56.3842 196.985 56.3842V55.3842ZM192.337 54.7962L192.606 53.8328C191.201 53.4417 190.106 52.9573 189.288 52.4013L188.725 53.2282L188.163 54.0551C189.212 54.7684 190.524 55.3294 192.069 55.7595L192.337 54.7962ZM188.725 53.2282L189.639 53.6349L191.459 49.5469L190.545 49.1402L189.632 48.7335L187.812 52.8215L188.725 53.2282ZM190.545 49.1402L190.007 49.9831C190.965 50.5944 192.051 51.0948 193.258 51.4904L193.569 50.5402L193.881 49.59C192.81 49.2389 191.88 48.8059 191.083 48.2973L190.545 49.1402ZM193.569 50.5402L193.276 51.4963C194.523 51.8782 195.769 52.0722 197.013 52.0722V51.0722V50.0722C195.98 50.0722 194.931 49.9115 193.862 49.5841L193.569 50.5402ZM197.013 51.0722V52.0722C197.824 52.0722 198.541 52.0043 199.131 51.8392L198.861 50.8762L198.592 49.9132C198.248 50.0094 197.734 50.0722 197.013 50.0722V51.0722ZM198.861 50.8762L199.166 51.8286C199.707 51.6554 200.233 51.4 200.607 50.9919L199.869 50.3162L199.132 49.6405C199.096 49.6804 198.949 49.7983 198.557 49.9238L198.861 50.8762ZM199.869 50.3162L200.604 50.9945C200.991 50.5754 201.205 50.056 201.205 49.4762H200.205H199.205C199.205 49.5311 199.196 49.5717 199.135 49.6379L199.869 50.3162ZM200.205 49.4762H201.205C201.205 48.6524 200.796 47.9944 200.126 47.5685L199.589 48.4122L199.053 49.2558C199.148 49.3164 199.178 49.3606 199.186 49.3752C199.192 49.3863 199.205 49.4113 199.205 49.4762H200.205ZM199.589 48.4122L200.126 47.5685C199.6 47.2336 198.961 46.9846 198.242 46.7997L197.993 47.7682L197.744 48.7367C198.332 48.8878 198.758 49.0681 199.053 49.2558L199.589 48.4122ZM197.993 47.7682L198.242 46.7997C197.572 46.6272 196.829 46.4559 196.014 46.2854L195.809 47.2642L195.605 48.243C196.395 48.4085 197.108 48.5731 197.744 48.7367L197.993 47.7682ZM195.809 47.2642L196.019 46.2864C195.27 46.126 194.511 45.9205 193.739 45.6693L193.429 46.6202L193.12 47.5711C193.954 47.8425 194.78 48.0664 195.6 48.242L195.809 47.2642ZM193.429 46.6202L193.746 45.6715C193.032 45.4337 192.387 45.1308 191.806 44.7655L191.273 45.6122L190.741 46.4588C191.467 46.9149 192.259 47.284 193.113 47.5689L193.429 46.6202ZM191.273 45.6122L191.823 44.7765C191.294 44.4288 190.865 43.9858 190.531 43.4387L189.677 43.9602L188.824 44.4816C189.311 45.2786 189.947 45.9369 190.724 46.4479L191.273 45.6122ZM189.677 43.9602L190.537 43.4491C190.242 42.953 190.061 42.2745 190.061 41.3562H189.061H188.061C188.061 42.5285 188.292 43.5861 188.818 44.4713L189.677 43.9602ZM189.061 41.3562H190.061C190.061 40.3718 190.324 39.5018 190.846 38.7189L190.013 38.1642L189.181 37.6095C188.434 38.7305 188.061 39.9886 188.061 41.3562H189.061ZM190.013 38.1642L190.838 38.73C191.367 37.9598 192.177 37.3006 193.335 36.7804L192.925 35.8682L192.516 34.956C191.098 35.5931 189.967 36.4645 189.189 37.5983L190.013 38.1642ZM192.925 35.8682L193.335 36.7804C194.457 36.2765 195.912 36.0002 197.741 36.0002V35.0002V34.0002C195.726 34.0002 193.97 34.3025 192.516 34.956L192.925 35.8682ZM197.741 35.0002V36.0002C198.951 36.0002 200.132 36.1404 201.286 36.42L201.521 35.4482L201.757 34.4763C200.447 34.1587 199.108 34.0002 197.741 34.0002V35.0002ZM201.521 35.4482L201.303 36.424C202.469 36.685 203.482 37.0716 204.354 37.5744L204.853 36.7082L205.353 35.842C204.283 35.2248 203.075 34.7713 201.74 34.4723L201.521 35.4482ZM204.853 36.7082L203.93 36.3249L202.222 40.4409L203.145 40.8242L204.069 41.2075L205.777 37.0915L204.853 36.7082ZM203.145 40.8242L203.621 39.9443C202.626 39.4073 201.629 39.0027 200.63 38.7376L200.373 39.7042L200.117 40.6707C200.947 40.891 201.798 41.2331 202.67 41.7041L203.145 40.8242ZM200.373 39.7042L200.648 38.7427C199.654 38.4585 198.674 38.3122 197.713 38.3122V39.3122V40.3122C198.47 40.3122 199.264 40.4272 200.099 40.6657L200.373 39.7042ZM197.713 39.3122V38.3122C196.888 38.3122 196.144 38.4009 195.527 38.6233L195.865 39.5642L196.204 40.5051C196.52 40.3914 197.008 40.3122 197.713 40.3122V39.3122ZM195.865 39.5642L195.561 38.6118C194.989 38.7947 194.446 39.0857 194.071 39.5624L194.857 40.1802L195.644 40.798C195.68 40.752 195.808 40.6324 196.17 40.5166L195.865 39.5642ZM194.857 40.1802L194.071 39.5624C193.726 40.002 193.549 40.5188 193.549 41.0762H194.549H195.549C195.549 40.9616 195.579 40.8811 195.644 40.798L194.857 40.1802ZM194.549 41.0762H193.549C193.549 41.8766 193.945 42.5187 194.583 42.9442L195.137 42.1122L195.692 41.2801C195.602 41.2201 195.574 41.1773 195.566 41.1636C195.56 41.1535 195.549 41.1323 195.549 41.0762H194.549ZM195.137 42.1122L194.629 42.9731C195.146 43.2789 195.774 43.5141 196.484 43.6967L196.733 42.7282L196.982 41.7597C196.386 41.6063 195.95 41.4308 195.646 41.2513L195.137 42.1122ZM196.733 42.7282L196.517 43.7044C197.191 43.8543 197.922 44.0135 198.708 44.182L198.917 43.2042L199.127 42.2264C198.345 42.0588 197.62 41.9007 196.95 41.752L196.733 42.7282ZM198.917 43.2042L198.713 44.183C199.477 44.343 200.233 44.5476 200.981 44.7969L201.297 43.8482L201.614 42.8995C200.793 42.6261 199.963 42.4013 199.122 42.2254L198.917 43.2042ZM201.297 43.8482L201.008 44.8054C201.725 45.0223 202.365 45.319 202.932 45.6919L203.481 44.8562L204.031 44.0205C203.291 43.5347 202.475 43.1594 201.587 42.891L201.297 43.8482ZM203.481 44.8562L202.949 45.7028C203.458 46.0229 203.867 46.4505 204.18 47.0018L205.049 46.5082L205.919 46.0146C205.448 45.1845 204.811 44.5108 204.014 44.0096L203.481 44.8562ZM205.049 46.5082L204.196 47.0296C204.486 47.5037 204.665 48.1588 204.665 49.0562H205.665H206.665C206.665 47.9002 206.434 46.8567 205.903 45.9867L205.049 46.5082ZM205.665 49.0562H204.665C204.665 49.9902 204.401 50.8513 203.856 51.6618L204.685 52.2202L205.515 52.7786C206.276 51.6477 206.665 50.3995 206.665 49.0562H205.665ZM204.685 52.2202L203.853 51.6655C203.345 52.428 202.548 53.0844 201.392 53.604L201.801 54.5162L202.211 55.4284C203.631 54.7907 204.757 53.9164 205.518 52.7749L204.685 52.2202ZM201.801 54.5162L201.387 53.6063C200.288 54.1071 198.836 54.3842 196.985 54.3842V55.3842V56.3842C199.017 56.3842 200.776 56.0826 202.216 55.4261L201.801 54.5162Z" fill="#264E36" mask="url(#path-1-outside-1_268_16)"/>
<defs>
<linearGradient id="paint0_linear_268_16" x1="119.927" y1="-6.00781" x2="119.927" y2="61.9922" gradientUnits="userSpaceOnUse">
<stop stop-color="#FFD54F"/>
<stop offset="0.55" stop-color="#E3A008"/>
<stop offset="1" stop-color="#A0522D"/>
</linearGradient>
</defs>
</svg>
