<svg width="24" height="24" viewBox="0 0 24 24" fill="none" xmlns="http://www.w3.org/2000/svg">
<g clip-path="url(#clip0_276_78)">
<path d="M11.8711 6.81982H11.8506C11.3683 6.81378 10.8947 6.9501 10.4893 7.21143C10.1044 7.45952 9.79739 7.81035 9.60156 8.22314C9.42156 8.93606 9.3815 9.67734 9.48535 10.4058L9.49121 10.4438L9.49316 10.481C9.50205 10.6159 9.51013 10.7512 9.51758 10.8862L9.54688 11.4067L9.15137 11.7163C9.20647 11.7961 9.25807 11.8836 9.2998 11.9819L9.31543 12.019L9.32812 12.0562C9.40676 12.292 9.43244 12.5425 9.4043 12.7896C9.38029 13.0002 9.31525 13.2031 9.2168 13.3901L9.21191 13.397L9.21289 13.3979L9.20996 13.4058L9.20898 13.4048C8.99348 13.8707 8.71506 14.3044 8.38184 14.6948C8.17817 14.9482 7.94846 15.1759 7.69824 15.3765C7.99249 15.5736 8.11277 15.8683 8.14258 15.9429C8.1454 15.9499 8.14767 15.9572 8.15039 15.9644C8.29501 15.9492 8.44035 15.9405 8.58594 15.939H8.59863C8.83147 15.9396 9.06431 15.9591 9.29395 15.9976L9.33496 16.0044L9.375 16.0151C9.82764 16.13 10.2525 16.3326 10.626 16.6108L10.7832 16.7349L10.791 16.7417C11.1106 17.0146 11.5107 17.1738 11.9297 17.1987L11.9629 17.1968L12.0283 17.1997C12.0372 17.2001 12.0457 17.1995 12.0537 17.1997C12.4782 17.1773 12.8835 17.0168 13.207 16.7407L13.2148 16.7339C13.624 16.3917 14.1051 16.1461 14.6221 16.0151L14.6621 16.0054L14.7031 15.9985C14.9329 15.9601 15.1655 15.9405 15.3984 15.9399H15.4053C15.5527 15.9406 15.7002 15.9479 15.8467 15.9624C15.8494 15.9553 15.8517 15.948 15.8545 15.9409C15.8861 15.862 16.0135 15.5535 16.3262 15.3579C16.2703 15.3149 16.2143 15.2715 16.1602 15.2261C15.5699 14.731 15.1007 14.1081 14.7871 13.4048L14.7832 13.3979V13.397L14.7822 13.395C14.6825 13.2069 14.617 13.0026 14.5928 12.7905C14.5646 12.5436 14.5904 12.2929 14.6689 12.0571L14.6816 12.019L14.6973 11.9829C14.7389 11.8848 14.7898 11.7969 14.8447 11.7173L14.4521 11.4048L14.4795 10.8901C14.4857 10.772 14.4928 10.648 14.5 10.5308V10.5298L14.5029 10.4868L14.5059 10.4468L14.5117 10.4077C14.6157 9.67892 14.5743 8.93749 14.3945 8.22412C14.1981 7.81032 13.8917 7.45808 13.5059 7.20947C13.0995 6.94772 12.6249 6.81178 12.1416 6.81787H12.1387C12.0497 6.81878 11.9602 6.81907 11.8711 6.81982ZM22 16.4194L21.9932 16.8706C21.9734 17.3212 21.9164 17.7696 21.8232 18.2114L21.8213 18.2202L21.8193 18.228C21.5948 19.2082 21.065 20.0923 20.3057 20.7515L20.3047 20.7505C19.6627 21.3221 18.8755 21.7044 18.0293 21.856L18.0303 21.8569C18.0272 21.8575 18.0236 21.8573 18.0205 21.8579C18.0185 21.8583 18.0167 21.8595 18.0146 21.8599L18.0137 21.8589C17.6077 21.9359 17.1963 21.9808 16.7832 21.9897H16.7744C14.0287 22.0265 11.252 21.9949 8.5332 22.0063C8.15411 22.0079 7.73663 21.9988 7.38965 21.9966V21.9956C6.68836 21.9998 5.99044 21.8979 5.32031 21.6909L5.31055 21.688L5.30078 21.6841C4.79641 21.5167 4.32494 21.2621 3.90918 20.9312V20.9302C3.3445 20.4903 2.88314 19.9315 2.55859 19.2935L2.54883 19.2739C2.32045 18.7993 2.16638 18.2924 2.0918 17.771L2.08984 17.7612L2.08887 17.7505C2.03587 17.317 2.0062 16.8806 2 16.4438V16.4292L2.00586 7.59912L2.00391 7.3501C2.00914 6.76924 2.08158 6.1905 2.21875 5.62549L2.22266 5.60986L2.22656 5.59326C2.43056 4.86063 2.80494 4.18653 3.31836 3.62549C3.83168 3.06457 4.4701 2.63276 5.18164 2.36475L5.19336 2.35986L5.2041 2.35596C5.61929 2.21062 6.0499 2.11358 6.4873 2.06689L6.49609 2.06592C6.54371 2.06127 6.59198 2.06014 6.63965 2.05615L6.64258 2.0083H17.1084L17.1172 2.03467C17.4589 2.05867 17.799 2.10458 18.1348 2.17432L18.3799 2.22998L18.4033 2.23584C19.1823 2.44489 19.894 2.85081 20.4717 3.41357H20.4727C20.8046 3.73311 21.0897 4.09786 21.3193 4.49658L21.415 4.66943L21.4189 4.67725L21.4219 4.68408C21.6444 5.12703 21.7996 5.60134 21.8809 6.09033H21.8799C21.9463 6.45977 21.9817 6.83412 21.9834 7.20947L22 16.3159V16.4194Z" stroke="#E3A008" stroke-width="2"/>
</g>
<defs>
<clipPath id="clip0_276_78">
<rect width="24" height="24" fill="white"/>
</clipPath>
</defs>
</svg>
