<svg width="24" height="24" viewBox="0 0 24 24" fill="none" xmlns="http://www.w3.org/2000/svg">
<path d="M13.1192 15.0269H9.45793V13.8691C9.45793 13.7039 9.31564 13.5691 9.14118 13.5691H8.31095C8.18723 13.2961 7.90264 13.1039 7.56609 13.1039H5.86481C5.53197 13.1039 5.2437 13.2961 5.11994 13.5691H4.28971C4.11526 13.5691 3.97297 13.7039 3.97297 13.8691V15.0269H0.316748C0.142289 15.0269 0 15.1617 0 15.3269V18.9785C0 19.1192 0.103931 19.2422 0.253645 19.2727L0.336544 19.2879L0.335307 23.7C0.335307 23.8653 0.477597 24 0.652055 24H12.7863C12.9608 24 13.1031 23.8653 13.1031 23.7V19.2843L13.186 19.2691C13.332 19.2386 13.4396 19.1156 13.4396 18.9749V15.3269C13.4359 15.1594 13.2937 15.0269 13.1192 15.0269ZM5.86854 13.7039H7.56983C7.6651 13.7039 7.74429 13.7789 7.74429 13.8691C7.74429 13.9594 7.6651 14.0344 7.56983 14.0344H5.86854C5.77327 14.0344 5.69409 13.9629 5.69409 13.8691C5.69532 13.7765 5.7708 13.7039 5.86854 13.7039ZM4.61144 14.1691H5.12492C5.24864 14.4422 5.53323 14.6344 5.86604 14.6344H7.56733C7.90016 14.6344 8.18473 14.4422 8.30845 14.1691H8.82193V15.0269H4.60887V14.1691H4.61144ZM12.4671 23.4001H0.966302V19.4098L5.6 20.3251V21.0657C5.6 21.2309 5.74229 21.3657 5.91675 21.3657H7.51288C7.68733 21.3657 7.82962 21.2309 7.82962 21.0657V20.3251L12.4633 19.4098V23.4001H12.4671ZM6.23604 20.7693V19.6325H7.19866V20.7693H6.23604ZM12.8022 18.7325L7.83561 19.7134V19.3325C7.83561 19.1673 7.69332 19.0325 7.51886 19.0325H5.92274C5.74828 19.0325 5.60599 19.1673 5.60599 19.3325V19.7134L0.639387 18.7325V15.6269H12.8082V18.7325H12.8022Z" fill="white"/>
<path d="M23.6796 1.92306H20.0183V0.76524C20.0183 0.600006 19.876 0.46524 19.7015 0.46524H18.8713C18.7476 0.192192 18.463 0 18.1277 0H16.4264C16.0935 0 15.8053 0.192186 15.6815 0.46524H14.8513C14.6768 0.46524 14.5345 0.600006 14.5345 0.76524V1.92306H10.8771C10.7026 1.92306 10.5603 2.05783 10.5603 2.22306V5.87466C10.5603 6.01529 10.6642 6.13833 10.8139 6.1688L10.8968 6.18404V10.5997C10.8968 10.765 11.0391 10.8997 11.2136 10.8997H23.3479C23.5223 10.8997 23.6646 10.765 23.6646 10.5997L23.6634 6.18284L23.7463 6.1676C23.8923 6.13713 23.9999 6.01408 23.9999 5.87346V2.22306C23.9962 2.05783 23.854 1.92306 23.6796 1.92306ZM16.4289 0.6H18.1302C18.2254 0.6 18.3046 0.675 18.3046 0.765234C18.3046 0.855468 18.2254 0.930468 18.1302 0.930468H16.4289C16.3336 0.930468 16.2544 0.858984 16.2544 0.765234C16.2557 0.675 16.3311 0.6 16.4289 0.6ZM15.1718 1.06524H15.6853C15.809 1.33829 16.0936 1.53048 16.4264 1.53048H18.1277C18.4605 1.53048 18.7451 1.33829 18.8688 1.06524H19.3823V1.92306H15.1692V1.06524H15.1718ZM23.03 10.2962H11.5292V6.30594L16.1629 7.22118V7.96182C16.1629 8.12705 16.3052 8.26182 16.4796 8.26182H18.0757C18.2502 8.26182 18.3925 8.12705 18.3925 7.96182V7.22118L23.0262 6.30594L23.0274 10.2962H23.03ZM16.7964 7.66539V6.52866H17.759V7.66539H16.7964ZM23.3626 5.62866L18.3959 6.60951V6.22866C18.3959 6.06343 18.2537 5.92866 18.0792 5.92866H16.4831C16.3086 5.92866 16.1663 6.06343 16.1663 6.22866V6.60951L11.1997 5.62866V2.52306H23.3685V5.62866H23.3626Z" fill="white"/>
<path d="M20.0183 12.825C19.9713 12.7442 19.8822 12.6903 19.7845 12.6785C19.6868 12.6668 19.5878 12.6961 19.5185 12.7629L18.1661 14.0438C18.0746 14.1305 18.0486 14.2594 18.0993 14.3743C18.7142 15.7395 18.4569 17.284 17.4497 18.3973L16.784 17.7668C16.6987 17.6859 16.5712 17.659 16.4574 17.6953C16.3436 17.7316 16.2607 17.8277 16.2446 17.9414L15.8202 21.2321C15.8078 21.3247 15.8425 21.4149 15.9118 21.4805C15.9724 21.5379 16.0516 21.5672 16.137 21.5672C16.1493 21.5672 16.1617 21.5672 16.1753 21.5637L19.6497 21.1618C19.7697 21.1465 19.8712 21.0692 19.9096 20.9602C19.9479 20.8524 19.9195 20.7317 19.8341 20.6509L19.1882 20.0391C21.0726 18.0692 21.4251 15.1464 20.0183 12.825ZM18.52 20.256L18.9258 20.6404L16.4994 20.9228L16.7976 18.6248L17.2381 19.0419C17.3618 19.1591 17.561 19.1591 17.6848 19.0419C18.9988 17.7974 19.4108 15.9669 18.7649 14.3286L19.6682 13.4732C20.7421 15.5884 20.298 18.1502 18.5249 19.8305C18.3962 19.95 18.3962 20.1388 18.52 20.256Z" fill="white"/>
<path d="M3.97816 11.4751C4.02518 11.5559 4.11426 11.6098 4.21201 11.6215C4.22438 11.6251 4.24046 11.6251 4.25284 11.6251C4.33574 11.6251 4.4174 11.5946 4.47803 11.5383L5.83038 10.2575C5.92194 10.1708 5.94792 10.0419 5.8972 9.92701C5.28226 8.56177 5.53962 7.01725 6.54678 5.90401L7.21246 6.53449C7.29783 6.61535 7.42528 6.64231 7.53909 6.60598C7.65292 6.56965 7.73582 6.47355 7.75191 6.35988L8.17629 3.06918C8.18866 2.97661 8.15402 2.88637 8.08473 2.82075C8.01544 2.75513 7.92017 2.72231 7.82242 2.73403L4.34802 3.13597C4.228 3.1512 4.12654 3.22855 4.08818 3.33753C4.04983 3.44535 4.07829 3.56605 4.16366 3.64689L4.80954 4.25862C2.92391 6.23088 2.57136 9.15336 3.97816 11.4751ZM5.47653 4.04406L5.07072 3.6597L7.49707 3.37728L7.19888 5.67534L6.75841 5.25816C6.63468 5.14097 6.43549 5.14097 6.31173 5.25816C4.99774 6.50268 4.58571 8.33316 5.23156 9.97146L4.32832 10.8269C3.25436 8.7117 3.69853 6.14994 5.47159 4.46964C5.60027 4.35011 5.60026 4.16127 5.47653 4.04406Z" fill="white"/>
</svg>
