<svg width="24" height="24" viewBox="0 0 24 24" fill="none" xmlns="http://www.w3.org/2000/svg">
<path d="M20.0002 7.50925C18.4257 4.71493 15.4297 2.823 11.9998 2.823C6.92791 2.823 2.823 6.95247 2.823 11.9991C2.823 17.0398 6.92105 21.1752 11.9998 21.1752C18.9669 21.1752 23.3915 13.6735 20.048 7.59261C20.0361 7.56382 20.0201 7.53506 20.0002 7.50925ZM19.5049 15.925H16.8542C16.7529 15.5279 16.4839 15.1984 16.1275 15.0137C16.2655 14.1581 16.3439 13.2657 16.3598 12.3523H20.4629C20.4103 13.6378 20.0697 14.8488 19.5049 15.925ZM8.95388 16.6318H14.0972C14.1925 17.003 14.4347 17.3167 14.7574 17.5063C13.1184 21.8523 10.3011 21.2884 8.95388 16.6318ZM3.53556 12.3534H6.61018C6.74321 12.8706 7.16017 13.2756 7.68434 13.3897C7.74688 14.2742 7.86899 15.1278 8.04471 15.926H4.49358C3.92969 14.8489 3.58916 13.638 3.53556 12.3534ZM4.49454 8.07498H8.04568C7.86996 8.87307 7.74686 9.72677 7.6853 10.6112C7.16113 10.7254 6.74419 11.1304 6.61114 11.6476H3.53653C3.58914 10.3631 3.92969 9.15113 4.49454 8.07498ZM14.7576 6.49465C14.4349 6.68425 14.1927 6.99695 14.0974 7.36918H8.95406C10.3002 2.71571 13.1176 2.1447 14.7576 6.49465ZM15.4753 8.43827C15.0802 8.43827 14.7586 8.11666 14.7586 7.72157C14.7586 7.32649 15.0802 7.00487 15.4753 7.00487C15.8704 7.00487 16.1921 7.32649 16.1921 7.72157C16.1921 8.11666 15.8704 8.43827 15.4753 8.43827ZM14.0974 8.07495C14.2523 8.6775 14.7923 9.12618 15.4376 9.14305C15.5657 9.94811 15.6381 10.7869 15.653 11.6466L9.36705 11.6476C9.24296 11.1631 8.86871 10.777 8.39018 10.636C8.4557 9.72675 8.58675 8.8651 8.7704 8.07498L14.0974 8.07495ZM7.98806 12.7167C7.59295 12.7167 7.2713 12.3951 7.2713 12C7.2713 11.605 7.59295 11.2833 7.98806 11.2833C8.38318 11.2833 8.70482 11.605 8.70482 12C8.70482 12.3951 8.38318 12.7167 7.98806 12.7167ZM8.39012 13.365C8.86762 13.224 9.2419 12.8388 9.36699 12.3534H15.654C15.6381 13.2131 15.5656 14.0519 15.4385 14.8569C14.7923 14.8738 14.2522 15.3235 14.0983 15.925H8.77025C8.58659 15.1359 8.45563 14.2732 8.39012 13.365ZM15.4754 16.9951C15.0802 16.9951 14.7586 16.6735 14.7586 16.2784C14.7586 15.8833 15.0802 15.5617 15.4754 15.5617C15.8705 15.5617 16.1921 15.8833 16.1921 16.2784C16.1921 16.6735 15.8705 16.9951 15.4754 16.9951ZM16.3599 11.6476C16.344 10.7343 16.2656 9.84194 16.1276 8.98618C16.484 8.80155 16.753 8.47199 16.8543 8.07493H19.505C20.0699 9.15098 20.4104 10.363 20.463 11.6476L16.3599 11.6476ZM19.0889 7.36921H16.8542C16.6954 6.74979 16.1245 6.28325 15.4386 6.30111C15.0335 5.20917 14.5252 4.34854 13.9494 3.75684C16.0898 4.26211 17.9173 5.58238 19.0889 7.36921ZM10.0539 3.75484C9.14253 4.68894 8.56275 6.10943 8.21926 7.36921H4.91032C6.08177 5.58042 7.91246 4.26028 10.0539 3.75484ZM4.90951 16.6317H8.21844C8.56194 17.8904 9.14169 19.3119 10.053 20.2461C7.91268 19.7398 6.08187 18.4196 4.90951 16.6317ZM13.9494 20.244C14.5251 19.6524 15.0334 18.7918 15.4385 17.6998C16.1245 17.7176 16.6953 17.2511 16.8541 16.6307H19.0888C17.9174 18.4185 16.0897 19.7378 13.9494 20.244Z" fill="#FFF9F3"/>
<path d="M22.1715 5.62718C22.0682 5.46239 21.8498 5.41276 21.685 5.516C21.5202 5.61924 21.4706 5.83761 21.5738 6.00241C24.3892 10.4864 23.736 16.2359 19.9864 19.986C15.8825 24.0888 9.50406 24.4173 5.02175 20.8823C5.30369 20.3453 5.2193 19.6653 4.7686 19.2147C4.21365 18.6598 3.31124 18.6598 2.7563 19.2147C2.20135 19.7696 2.20135 20.6719 2.7563 21.2268C3.24572 21.7162 3.99921 21.7698 4.54721 21.4075C9.26283 25.1507 16.1315 24.8381 20.4858 20.4853C24.4776 16.4938 25.1099 10.3076 22.1715 5.62718ZM3.25665 20.7276C2.97768 20.4477 2.97768 19.993 3.25665 19.7141C3.53661 19.4351 3.99028 19.4341 4.27025 19.7141C4.54922 19.994 4.54922 20.4486 4.27025 20.7276C3.99028 21.0075 3.53562 21.0075 3.25665 20.7276Z" fill="#FFF9F3"/>
<path d="M2.44568 18.0296C-0.348875 13.6111 0.310295 7.7168 4.01224 4.01424C8.09427 -0.0666965 14.4679 -0.430853 18.968 3.11092C18.4786 4.04105 19.1447 5.19451 20.2278 5.19451C21.0141 5.19451 21.6504 4.55822 21.6504 3.77201C21.6504 2.62549 20.3708 1.96734 19.4416 2.58577C14.7181 -1.15744 7.85622 -0.82708 3.51394 3.51489C-0.492872 7.52239 -1.1084 13.7313 1.8491 18.4069C1.95334 18.5707 2.17074 18.6213 2.33655 18.5161C2.50134 18.4119 2.54991 18.1944 2.44568 18.0296ZM20.9455 3.77207C20.9455 4.16814 20.6248 4.48876 20.2287 4.48876C19.8326 4.48876 19.512 4.16814 19.512 3.77207C19.512 3.37599 19.8326 3.05537 20.2287 3.05537C20.6248 3.05537 20.9455 3.37599 20.9455 3.77207Z" fill="#FFF9F3"/>
</svg>
