<svg width="440" height="23" viewBox="0 0 440 23" fill="none" xmlns="http://www.w3.org/2000/svg">
<mask id="path-1-outside-1_176_40" maskUnits="userSpaceOnUse" x="-0.0734863" y="-0.00799942" width="440" height="23" fill="black">
<rect fill="white" x="-0.0734863" y="-0.00799942" width="440" height="23"/>
<path d="M1.53451 20.992L10.1865 1.392H15.6465L24.3265 20.992H18.5585L11.7825 4.108H13.9665L7.19051 20.992H1.53451ZM6.26651 17.184L7.69451 13.096H17.2705L18.6985 17.184H6.26651ZM29.0859 20.992V5.788H23.0659V1.392H40.6219V5.788H34.6299V20.992H29.0859ZM42.6873 20.992V1.392H48.2313V20.992H42.6873ZM52.1756 20.992V1.392H56.7396L67.5476 14.44H65.3916V1.392H70.8236V20.992H66.2596L55.4516 7.944H57.6076V20.992H52.1756ZM79.8302 8.98H88.9302V13.124H79.8302V8.98ZM80.2222 16.708H90.4702V20.992H74.7342V1.392H90.1062V5.676H80.2222V16.708ZM100.435 21.384C98.8293 21.384 97.28 21.188 95.7867 20.796C94.312 20.3853 93.108 19.8627 92.1747 19.228L93.9947 15.14C94.872 15.7 95.88 16.1667 97.0187 16.54C98.176 16.8947 99.324 17.072 100.463 17.072C101.228 17.072 101.844 17.0067 102.311 16.876C102.777 16.7267 103.113 16.54 103.319 16.316C103.543 16.0733 103.655 15.7933 103.655 15.476C103.655 15.028 103.449 14.6733 103.039 14.412C102.628 14.1507 102.096 13.936 101.443 13.768C100.789 13.6 100.061 13.432 99.2587 13.264C98.4747 13.096 97.6813 12.8813 96.8787 12.62C96.0947 12.3587 95.376 12.0227 94.7227 11.612C94.0693 11.1827 93.5373 10.632 93.1267 9.96C92.716 9.26933 92.5107 8.40133 92.5107 7.356C92.5107 6.18 92.828 5.116 93.4627 4.164C94.116 3.212 95.0867 2.44667 96.3747 1.868C97.6627 1.28933 99.268 0.999999 101.191 0.999999C102.479 0.999999 103.739 1.14933 104.971 1.448C106.221 1.728 107.332 2.148 108.303 2.708L106.595 6.824C105.661 6.32 104.737 5.94667 103.823 5.704C102.908 5.44267 102.021 5.312 101.163 5.312C100.397 5.312 99.7813 5.396 99.3147 5.564C98.848 5.71333 98.512 5.91867 98.3067 6.18C98.1013 6.44133 97.9987 6.74 97.9987 7.076C97.9987 7.50533 98.1947 7.85067 98.5867 8.112C98.9973 8.35467 99.5293 8.56 100.183 8.728C100.855 8.87733 101.583 9.036 102.367 9.204C103.169 9.372 103.963 9.58667 104.747 9.848C105.549 10.0907 106.277 10.4267 106.931 10.856C107.584 11.2667 108.107 11.8173 108.499 12.508C108.909 13.18 109.115 14.0293 109.115 15.056C109.115 16.1947 108.788 17.2493 108.135 18.22C107.5 19.172 106.539 19.9373 105.251 20.516C103.981 21.0947 102.376 21.384 100.435 21.384ZM116.52 20.992L110.164 1.392H115.876L121.224 18.36H118.34L123.968 1.392H129.064L134.384 18.36H131.612L137.128 1.392H142.42L136.064 20.992H130.128L125.592 6.572H127.188L122.456 20.992H116.52ZM154.044 21.384C152.476 21.384 151.029 21.132 149.704 20.628C148.379 20.124 147.221 19.4147 146.232 18.5C145.261 17.5667 144.505 16.484 143.964 15.252C143.423 14.02 143.152 12.6667 143.152 11.192C143.152 9.71733 143.423 8.364 143.964 7.132C144.505 5.9 145.261 4.82667 146.232 3.912C147.221 2.97867 148.379 2.26 149.704 1.756C151.029 1.252 152.476 0.999999 154.044 0.999999C155.631 0.999999 157.077 1.252 158.384 1.756C159.709 2.26 160.857 2.97867 161.828 3.912C162.799 4.82667 163.555 5.9 164.096 7.132C164.656 8.364 164.936 9.71733 164.936 11.192C164.936 12.6667 164.656 14.0293 164.096 15.28C163.555 16.512 162.799 17.5853 161.828 18.5C160.857 19.4147 159.709 20.124 158.384 20.628C157.077 21.132 155.631 21.384 154.044 21.384ZM154.044 16.792C154.791 16.792 155.481 16.6613 156.116 16.4C156.769 16.1387 157.329 15.7653 157.796 15.28C158.281 14.776 158.655 14.1787 158.916 13.488C159.196 12.7973 159.336 12.032 159.336 11.192C159.336 10.3333 159.196 9.568 158.916 8.896C158.655 8.20533 158.281 7.61733 157.796 7.132C157.329 6.628 156.769 6.24533 156.116 5.984C155.481 5.72267 154.791 5.592 154.044 5.592C153.297 5.592 152.597 5.72267 151.944 5.984C151.309 6.24533 150.749 6.628 150.264 7.132C149.797 7.61733 149.424 8.20533 149.144 8.896C148.883 9.568 148.752 10.3333 148.752 11.192C148.752 12.032 148.883 12.7973 149.144 13.488C149.424 14.1787 149.797 14.776 150.264 15.28C150.749 15.7653 151.309 16.1387 151.944 16.4C152.597 16.6613 153.297 16.792 154.044 16.792ZM167.84 20.992V1.392H176.8C178.592 1.392 180.132 1.68133 181.42 2.26C182.726 2.83867 183.734 3.67867 184.444 4.78C185.153 5.86267 185.508 7.15067 185.508 8.644C185.508 10.1187 185.153 11.3973 184.444 12.48C183.734 13.544 182.726 14.3653 181.42 14.944C180.132 15.504 178.592 15.784 176.8 15.784H170.92L173.384 13.46V20.992H167.84ZM179.964 20.992L175.092 13.852H181L185.9 20.992H179.964ZM173.384 14.048L170.92 11.5H176.464C177.621 11.5 178.48 11.248 179.04 10.744C179.618 10.24 179.908 9.54 179.908 8.644C179.908 7.72933 179.618 7.02 179.04 6.516C178.48 6.012 177.621 5.76 176.464 5.76H170.92L173.384 3.212V14.048ZM188.566 20.992V1.392H194.11V16.596H203.462V20.992H188.566ZM205.656 20.992V1.392H214.924C217.089 1.392 218.993 1.79333 220.636 2.596C222.279 3.39867 223.557 4.528 224.472 5.984C225.405 7.44 225.872 9.176 225.872 11.192C225.872 13.1893 225.405 14.9253 224.472 16.4C223.557 17.856 222.279 18.9853 220.636 19.788C218.993 20.5907 217.089 20.992 214.924 20.992H205.656ZM211.2 16.568H214.7C215.82 16.568 216.791 16.3627 217.612 15.952C218.452 15.5227 219.105 14.9067 219.572 14.104C220.039 13.2827 220.272 12.312 220.272 11.192C220.272 10.0533 220.039 9.08267 219.572 8.28C219.105 7.47733 218.452 6.87067 217.612 6.46C216.791 6.03067 215.82 5.816 214.7 5.816H211.2V16.568ZM242.033 8.98H251.133V13.124H242.033V8.98ZM242.425 16.708H252.673V20.992H236.937V1.392H252.309V5.676H242.425V16.708ZM255.75 20.992V1.392H260.314L271.122 14.44H268.966V1.392H274.398V20.992H269.834L259.026 7.944H261.182V20.992H255.75ZM282.48 20.992V5.788H276.46V1.392H294.016V5.788H288.024V20.992H282.48ZM301.178 8.98H310.278V13.124H301.178V8.98ZM301.57 16.708H311.818V20.992H296.082V1.392H311.454V5.676H301.57V16.708ZM314.894 20.992V1.392H323.854C325.646 1.392 327.186 1.68133 328.474 2.26C329.781 2.83867 330.789 3.67867 331.498 4.78C332.208 5.86267 332.562 7.15067 332.562 8.644C332.562 10.1187 332.208 11.3973 331.498 12.48C330.789 13.544 329.781 14.3653 328.474 14.944C327.186 15.504 325.646 15.784 323.854 15.784H317.974L320.438 13.46V20.992H314.894ZM327.018 20.992L322.146 13.852H328.054L332.954 20.992H327.018ZM320.438 14.048L317.974 11.5H323.518C324.676 11.5 325.534 11.248 326.094 10.744C326.673 10.24 326.962 9.54 326.962 8.644C326.962 7.72933 326.673 7.02 326.094 6.516C325.534 6.012 324.676 5.76 323.518 5.76H317.974L320.438 3.212V14.048ZM335.621 20.992V1.392H344.581C346.373 1.392 347.913 1.68133 349.201 2.26C350.508 2.83867 351.516 3.67867 352.225 4.78C352.934 5.86267 353.289 7.15067 353.289 8.644C353.289 10.1187 352.934 11.3973 352.225 12.48C351.516 13.5627 350.508 14.4027 349.201 15C347.913 15.5787 346.373 15.868 344.581 15.868H338.701L341.165 13.46V20.992H335.621ZM341.165 14.048L338.701 11.5H344.245C345.402 11.5 346.261 11.248 346.821 10.744C347.4 10.24 347.689 9.54 347.689 8.644C347.689 7.72933 347.4 7.02 346.821 6.516C346.261 6.012 345.402 5.76 344.245 5.76H338.701L341.165 3.212V14.048ZM355.992 20.992V1.392H364.952C366.744 1.392 368.284 1.68133 369.572 2.26C370.879 2.83867 371.887 3.67867 372.596 4.78C373.305 5.86267 373.66 7.15067 373.66 8.644C373.66 10.1187 373.305 11.3973 372.596 12.48C371.887 13.544 370.879 14.3653 369.572 14.944C368.284 15.504 366.744 15.784 364.952 15.784H359.072L361.536 13.46V20.992H355.992ZM368.116 20.992L363.244 13.852H369.152L374.052 20.992H368.116ZM361.536 14.048L359.072 11.5H364.616C365.773 11.5 366.632 11.248 367.192 10.744C367.771 10.24 368.06 9.54 368.06 8.644C368.06 7.72933 367.771 7.02 367.192 6.516C366.632 6.012 365.773 5.76 364.616 5.76H359.072L361.536 3.212V14.048ZM376.719 20.992V1.392H382.263V20.992H376.719ZM393.095 21.384C391.489 21.384 389.94 21.188 388.447 20.796C386.972 20.3853 385.768 19.8627 384.835 19.228L386.655 15.14C387.532 15.7 388.54 16.1667 389.679 16.54C390.836 16.8947 391.984 17.072 393.123 17.072C393.888 17.072 394.504 17.0067 394.971 16.876C395.437 16.7267 395.773 16.54 395.979 16.316C396.203 16.0733 396.315 15.7933 396.315 15.476C396.315 15.028 396.109 14.6733 395.699 14.412C395.288 14.1507 394.756 13.936 394.103 13.768C393.449 13.6 392.721 13.432 391.919 13.264C391.135 13.096 390.341 12.8813 389.539 12.62C388.755 12.3587 388.036 12.0227 387.383 11.612C386.729 11.1827 386.197 10.632 385.787 9.96C385.376 9.26933 385.171 8.40133 385.171 7.356C385.171 6.18 385.488 5.116 386.123 4.164C386.776 3.212 387.747 2.44667 389.035 1.868C390.323 1.28933 391.928 0.999999 393.851 0.999999C395.139 0.999999 396.399 1.14933 397.631 1.448C398.881 1.728 399.992 2.148 400.963 2.708L399.255 6.824C398.321 6.32 397.397 5.94667 396.483 5.704C395.568 5.44267 394.681 5.312 393.823 5.312C393.057 5.312 392.441 5.396 391.975 5.564C391.508 5.71333 391.172 5.91867 390.967 6.18C390.761 6.44133 390.659 6.74 390.659 7.076C390.659 7.50533 390.855 7.85067 391.247 8.112C391.657 8.35467 392.189 8.56 392.843 8.728C393.515 8.87733 394.243 9.036 395.027 9.204C395.829 9.372 396.623 9.58667 397.407 9.848C398.209 10.0907 398.937 10.4267 399.591 10.856C400.244 11.2667 400.767 11.8173 401.159 12.508C401.569 13.18 401.775 14.0293 401.775 15.056C401.775 16.1947 401.448 17.2493 400.795 18.22C400.16 19.172 399.199 19.9373 397.911 20.516C396.641 21.0947 395.036 21.384 393.095 21.384ZM409.432 8.98H418.532V13.124H409.432V8.98ZM409.824 16.708H420.072V20.992H404.336V1.392H419.708V5.676H409.824V16.708ZM430.036 21.384C428.431 21.384 426.882 21.188 425.388 20.796C423.914 20.3853 422.71 19.8627 421.776 19.228L423.596 15.14C424.474 15.7 425.482 16.1667 426.62 16.54C427.778 16.8947 428.926 17.072 430.064 17.072C430.83 17.072 431.446 17.0067 431.912 16.876C432.379 16.7267 432.715 16.54 432.92 16.316C433.144 16.0733 433.256 15.7933 433.256 15.476C433.256 15.028 433.051 14.6733 432.64 14.412C432.23 14.1507 431.698 13.936 431.044 13.768C430.391 13.6 429.663 13.432 428.86 13.264C428.076 13.096 427.283 12.8813 426.48 12.62C425.696 12.3587 424.978 12.0227 424.324 11.612C423.671 11.1827 423.139 10.632 422.728 9.96C422.318 9.26933 422.112 8.40133 422.112 7.356C422.112 6.18 422.43 5.116 423.064 4.164C423.718 3.212 424.688 2.44667 425.976 1.868C427.264 1.28933 428.87 0.999999 430.792 0.999999C432.08 0.999999 433.34 1.14933 434.572 1.448C435.823 1.728 436.934 2.148 437.904 2.708L436.196 6.824C435.263 6.32 434.339 5.94667 433.424 5.704C432.51 5.44267 431.623 5.312 430.764 5.312C429.999 5.312 429.383 5.396 428.916 5.564C428.45 5.71333 428.114 5.91867 427.908 6.18C427.703 6.44133 427.6 6.74 427.6 7.076C427.6 7.50533 427.796 7.85067 428.188 8.112C428.599 8.35467 429.131 8.56 429.784 8.728C430.456 8.87733 431.184 9.036 431.968 9.204C432.771 9.372 433.564 9.58667 434.348 9.848C435.151 10.0907 435.879 10.4267 436.532 10.856C437.186 11.2667 437.708 11.8173 438.1 12.508C438.511 13.18 438.716 14.0293 438.716 15.056C438.716 16.1947 438.39 17.2493 437.736 18.22C437.102 19.172 436.14 19.9373 434.852 20.516C433.583 21.0947 431.978 21.384 430.036 21.384Z"/>
</mask>
<path d="M1.53451 20.992L10.1865 1.392H15.6465L24.3265 20.992H18.5585L11.7825 4.108H13.9665L7.19051 20.992H1.53451ZM6.26651 17.184L7.69451 13.096H17.2705L18.6985 17.184H6.26651ZM29.0859 20.992V5.788H23.0659V1.392H40.6219V5.788H34.6299V20.992H29.0859ZM42.6873 20.992V1.392H48.2313V20.992H42.6873ZM52.1756 20.992V1.392H56.7396L67.5476 14.44H65.3916V1.392H70.8236V20.992H66.2596L55.4516 7.944H57.6076V20.992H52.1756ZM79.8302 8.98H88.9302V13.124H79.8302V8.98ZM80.2222 16.708H90.4702V20.992H74.7342V1.392H90.1062V5.676H80.2222V16.708ZM100.435 21.384C98.8293 21.384 97.28 21.188 95.7867 20.796C94.312 20.3853 93.108 19.8627 92.1747 19.228L93.9947 15.14C94.872 15.7 95.88 16.1667 97.0187 16.54C98.176 16.8947 99.324 17.072 100.463 17.072C101.228 17.072 101.844 17.0067 102.311 16.876C102.777 16.7267 103.113 16.54 103.319 16.316C103.543 16.0733 103.655 15.7933 103.655 15.476C103.655 15.028 103.449 14.6733 103.039 14.412C102.628 14.1507 102.096 13.936 101.443 13.768C100.789 13.6 100.061 13.432 99.2587 13.264C98.4747 13.096 97.6813 12.8813 96.8787 12.62C96.0947 12.3587 95.376 12.0227 94.7227 11.612C94.0693 11.1827 93.5373 10.632 93.1267 9.96C92.716 9.26933 92.5107 8.40133 92.5107 7.356C92.5107 6.18 92.828 5.116 93.4627 4.164C94.116 3.212 95.0867 2.44667 96.3747 1.868C97.6627 1.28933 99.268 0.999999 101.191 0.999999C102.479 0.999999 103.739 1.14933 104.971 1.448C106.221 1.728 107.332 2.148 108.303 2.708L106.595 6.824C105.661 6.32 104.737 5.94667 103.823 5.704C102.908 5.44267 102.021 5.312 101.163 5.312C100.397 5.312 99.7813 5.396 99.3147 5.564C98.848 5.71333 98.512 5.91867 98.3067 6.18C98.1013 6.44133 97.9987 6.74 97.9987 7.076C97.9987 7.50533 98.1947 7.85067 98.5867 8.112C98.9973 8.35467 99.5293 8.56 100.183 8.728C100.855 8.87733 101.583 9.036 102.367 9.204C103.169 9.372 103.963 9.58667 104.747 9.848C105.549 10.0907 106.277 10.4267 106.931 10.856C107.584 11.2667 108.107 11.8173 108.499 12.508C108.909 13.18 109.115 14.0293 109.115 15.056C109.115 16.1947 108.788 17.2493 108.135 18.22C107.5 19.172 106.539 19.9373 105.251 20.516C103.981 21.0947 102.376 21.384 100.435 21.384ZM116.52 20.992L110.164 1.392H115.876L121.224 18.36H118.34L123.968 1.392H129.064L134.384 18.36H131.612L137.128 1.392H142.42L136.064 20.992H130.128L125.592 6.572H127.188L122.456 20.992H116.52ZM154.044 21.384C152.476 21.384 151.029 21.132 149.704 20.628C148.379 20.124 147.221 19.4147 146.232 18.5C145.261 17.5667 144.505 16.484 143.964 15.252C143.423 14.02 143.152 12.6667 143.152 11.192C143.152 9.71733 143.423 8.364 143.964 7.132C144.505 5.9 145.261 4.82667 146.232 3.912C147.221 2.97867 148.379 2.26 149.704 1.756C151.029 1.252 152.476 0.999999 154.044 0.999999C155.631 0.999999 157.077 1.252 158.384 1.756C159.709 2.26 160.857 2.97867 161.828 3.912C162.799 4.82667 163.555 5.9 164.096 7.132C164.656 8.364 164.936 9.71733 164.936 11.192C164.936 12.6667 164.656 14.0293 164.096 15.28C163.555 16.512 162.799 17.5853 161.828 18.5C160.857 19.4147 159.709 20.124 158.384 20.628C157.077 21.132 155.631 21.384 154.044 21.384ZM154.044 16.792C154.791 16.792 155.481 16.6613 156.116 16.4C156.769 16.1387 157.329 15.7653 157.796 15.28C158.281 14.776 158.655 14.1787 158.916 13.488C159.196 12.7973 159.336 12.032 159.336 11.192C159.336 10.3333 159.196 9.568 158.916 8.896C158.655 8.20533 158.281 7.61733 157.796 7.132C157.329 6.628 156.769 6.24533 156.116 5.984C155.481 5.72267 154.791 5.592 154.044 5.592C153.297 5.592 152.597 5.72267 151.944 5.984C151.309 6.24533 150.749 6.628 150.264 7.132C149.797 7.61733 149.424 8.20533 149.144 8.896C148.883 9.568 148.752 10.3333 148.752 11.192C148.752 12.032 148.883 12.7973 149.144 13.488C149.424 14.1787 149.797 14.776 150.264 15.28C150.749 15.7653 151.309 16.1387 151.944 16.4C152.597 16.6613 153.297 16.792 154.044 16.792ZM167.84 20.992V1.392H176.8C178.592 1.392 180.132 1.68133 181.42 2.26C182.726 2.83867 183.734 3.67867 184.444 4.78C185.153 5.86267 185.508 7.15067 185.508 8.644C185.508 10.1187 185.153 11.3973 184.444 12.48C183.734 13.544 182.726 14.3653 181.42 14.944C180.132 15.504 178.592 15.784 176.8 15.784H170.92L173.384 13.46V20.992H167.84ZM179.964 20.992L175.092 13.852H181L185.9 20.992H179.964ZM173.384 14.048L170.92 11.5H176.464C177.621 11.5 178.48 11.248 179.04 10.744C179.618 10.24 179.908 9.54 179.908 8.644C179.908 7.72933 179.618 7.02 179.04 6.516C178.48 6.012 177.621 5.76 176.464 5.76H170.92L173.384 3.212V14.048ZM188.566 20.992V1.392H194.11V16.596H203.462V20.992H188.566ZM205.656 20.992V1.392H214.924C217.089 1.392 218.993 1.79333 220.636 2.596C222.279 3.39867 223.557 4.528 224.472 5.984C225.405 7.44 225.872 9.176 225.872 11.192C225.872 13.1893 225.405 14.9253 224.472 16.4C223.557 17.856 222.279 18.9853 220.636 19.788C218.993 20.5907 217.089 20.992 214.924 20.992H205.656ZM211.2 16.568H214.7C215.82 16.568 216.791 16.3627 217.612 15.952C218.452 15.5227 219.105 14.9067 219.572 14.104C220.039 13.2827 220.272 12.312 220.272 11.192C220.272 10.0533 220.039 9.08267 219.572 8.28C219.105 7.47733 218.452 6.87067 217.612 6.46C216.791 6.03067 215.82 5.816 214.7 5.816H211.2V16.568ZM242.033 8.98H251.133V13.124H242.033V8.98ZM242.425 16.708H252.673V20.992H236.937V1.392H252.309V5.676H242.425V16.708ZM255.75 20.992V1.392H260.314L271.122 14.44H268.966V1.392H274.398V20.992H269.834L259.026 7.944H261.182V20.992H255.75ZM282.48 20.992V5.788H276.46V1.392H294.016V5.788H288.024V20.992H282.48ZM301.178 8.98H310.278V13.124H301.178V8.98ZM301.57 16.708H311.818V20.992H296.082V1.392H311.454V5.676H301.57V16.708ZM314.894 20.992V1.392H323.854C325.646 1.392 327.186 1.68133 328.474 2.26C329.781 2.83867 330.789 3.67867 331.498 4.78C332.208 5.86267 332.562 7.15067 332.562 8.644C332.562 10.1187 332.208 11.3973 331.498 12.48C330.789 13.544 329.781 14.3653 328.474 14.944C327.186 15.504 325.646 15.784 323.854 15.784H317.974L320.438 13.46V20.992H314.894ZM327.018 20.992L322.146 13.852H328.054L332.954 20.992H327.018ZM320.438 14.048L317.974 11.5H323.518C324.676 11.5 325.534 11.248 326.094 10.744C326.673 10.24 326.962 9.54 326.962 8.644C326.962 7.72933 326.673 7.02 326.094 6.516C325.534 6.012 324.676 5.76 323.518 5.76H317.974L320.438 3.212V14.048ZM335.621 20.992V1.392H344.581C346.373 1.392 347.913 1.68133 349.201 2.26C350.508 2.83867 351.516 3.67867 352.225 4.78C352.934 5.86267 353.289 7.15067 353.289 8.644C353.289 10.1187 352.934 11.3973 352.225 12.48C351.516 13.5627 350.508 14.4027 349.201 15C347.913 15.5787 346.373 15.868 344.581 15.868H338.701L341.165 13.46V20.992H335.621ZM341.165 14.048L338.701 11.5H344.245C345.402 11.5 346.261 11.248 346.821 10.744C347.4 10.24 347.689 9.54 347.689 8.644C347.689 7.72933 347.4 7.02 346.821 6.516C346.261 6.012 345.402 5.76 344.245 5.76H338.701L341.165 3.212V14.048ZM355.992 20.992V1.392H364.952C366.744 1.392 368.284 1.68133 369.572 2.26C370.879 2.83867 371.887 3.67867 372.596 4.78C373.305 5.86267 373.66 7.15067 373.66 8.644C373.66 10.1187 373.305 11.3973 372.596 12.48C371.887 13.544 370.879 14.3653 369.572 14.944C368.284 15.504 366.744 15.784 364.952 15.784H359.072L361.536 13.46V20.992H355.992ZM368.116 20.992L363.244 13.852H369.152L374.052 20.992H368.116ZM361.536 14.048L359.072 11.5H364.616C365.773 11.5 366.632 11.248 367.192 10.744C367.771 10.24 368.06 9.54 368.06 8.644C368.06 7.72933 367.771 7.02 367.192 6.516C366.632 6.012 365.773 5.76 364.616 5.76H359.072L361.536 3.212V14.048ZM376.719 20.992V1.392H382.263V20.992H376.719ZM393.095 21.384C391.489 21.384 389.94 21.188 388.447 20.796C386.972 20.3853 385.768 19.8627 384.835 19.228L386.655 15.14C387.532 15.7 388.54 16.1667 389.679 16.54C390.836 16.8947 391.984 17.072 393.123 17.072C393.888 17.072 394.504 17.0067 394.971 16.876C395.437 16.7267 395.773 16.54 395.979 16.316C396.203 16.0733 396.315 15.7933 396.315 15.476C396.315 15.028 396.109 14.6733 395.699 14.412C395.288 14.1507 394.756 13.936 394.103 13.768C393.449 13.6 392.721 13.432 391.919 13.264C391.135 13.096 390.341 12.8813 389.539 12.62C388.755 12.3587 388.036 12.0227 387.383 11.612C386.729 11.1827 386.197 10.632 385.787 9.96C385.376 9.26933 385.171 8.40133 385.171 7.356C385.171 6.18 385.488 5.116 386.123 4.164C386.776 3.212 387.747 2.44667 389.035 1.868C390.323 1.28933 391.928 0.999999 393.851 0.999999C395.139 0.999999 396.399 1.14933 397.631 1.448C398.881 1.728 399.992 2.148 400.963 2.708L399.255 6.824C398.321 6.32 397.397 5.94667 396.483 5.704C395.568 5.44267 394.681 5.312 393.823 5.312C393.057 5.312 392.441 5.396 391.975 5.564C391.508 5.71333 391.172 5.91867 390.967 6.18C390.761 6.44133 390.659 6.74 390.659 7.076C390.659 7.50533 390.855 7.85067 391.247 8.112C391.657 8.35467 392.189 8.56 392.843 8.728C393.515 8.87733 394.243 9.036 395.027 9.204C395.829 9.372 396.623 9.58667 397.407 9.848C398.209 10.0907 398.937 10.4267 399.591 10.856C400.244 11.2667 400.767 11.8173 401.159 12.508C401.569 13.18 401.775 14.0293 401.775 15.056C401.775 16.1947 401.448 17.2493 400.795 18.22C400.16 19.172 399.199 19.9373 397.911 20.516C396.641 21.0947 395.036 21.384 393.095 21.384ZM409.432 8.98H418.532V13.124H409.432V8.98ZM409.824 16.708H420.072V20.992H404.336V1.392H419.708V5.676H409.824V16.708ZM430.036 21.384C428.431 21.384 426.882 21.188 425.388 20.796C423.914 20.3853 422.71 19.8627 421.776 19.228L423.596 15.14C424.474 15.7 425.482 16.1667 426.62 16.54C427.778 16.8947 428.926 17.072 430.064 17.072C430.83 17.072 431.446 17.0067 431.912 16.876C432.379 16.7267 432.715 16.54 432.92 16.316C433.144 16.0733 433.256 15.7933 433.256 15.476C433.256 15.028 433.051 14.6733 432.64 14.412C432.23 14.1507 431.698 13.936 431.044 13.768C430.391 13.6 429.663 13.432 428.86 13.264C428.076 13.096 427.283 12.8813 426.48 12.62C425.696 12.3587 424.978 12.0227 424.324 11.612C423.671 11.1827 423.139 10.632 422.728 9.96C422.318 9.26933 422.112 8.40133 422.112 7.356C422.112 6.18 422.43 5.116 423.064 4.164C423.718 3.212 424.688 2.44667 425.976 1.868C427.264 1.28933 428.87 0.999999 430.792 0.999999C432.08 0.999999 433.34 1.14933 434.572 1.448C435.823 1.728 436.934 2.148 437.904 2.708L436.196 6.824C435.263 6.32 434.339 5.94667 433.424 5.704C432.51 5.44267 431.623 5.312 430.764 5.312C429.999 5.312 429.383 5.396 428.916 5.564C428.45 5.71333 428.114 5.91867 427.908 6.18C427.703 6.44133 427.6 6.74 427.6 7.076C427.6 7.50533 427.796 7.85067 428.188 8.112C428.599 8.35467 429.131 8.56 429.784 8.728C430.456 8.87733 431.184 9.036 431.968 9.204C432.771 9.372 433.564 9.58667 434.348 9.848C435.151 10.0907 435.879 10.4267 436.532 10.856C437.186 11.2667 437.708 11.8173 438.1 12.508C438.511 13.18 438.716 14.0293 438.716 15.056C438.716 16.1947 438.39 17.2493 437.736 18.22C437.102 19.172 436.14 19.9373 434.852 20.516C433.583 21.0947 431.978 21.384 430.036 21.384Z" fill="url(#paint0_linear_176_40)"/>
<path d="M1.53451 20.992L0.619681 20.5882L-1.10865e-05 21.992H1.53451V20.992ZM10.1865 1.392V0.391999H9.53485L9.27168 0.988166L10.1865 1.392ZM15.6465 1.392L16.5609 0.987073L16.2973 0.391999H15.6465V1.392ZM24.3265 20.992V21.992H25.863L25.2409 20.5871L24.3265 20.992ZM18.5585 20.992L17.6305 21.3645L17.8823 21.992H18.5585V20.992ZM11.7825 4.108V3.108H10.3037L10.8545 4.48045L11.7825 4.108ZM13.9665 4.108L14.8946 4.48045L15.4454 3.108H13.9665V4.108ZM7.19051 20.992V21.992H7.86671L8.11857 21.3645L7.19051 20.992ZM6.26651 17.184L5.32245 16.8542L4.85794 18.184H6.26651V17.184ZM7.69451 13.096V12.096H6.98457L6.75045 12.7662L7.69451 13.096ZM17.2705 13.096L18.2146 12.7662L17.9805 12.096H17.2705V13.096ZM18.6985 17.184V18.184H20.1071L19.6426 16.8542L18.6985 17.184ZM1.53451 20.992L2.44935 21.3958L11.1013 1.79583L10.1865 1.392L9.27168 0.988166L0.619681 20.5882L1.53451 20.992ZM10.1865 1.392V2.392H15.6465V1.392V0.391999H10.1865V1.392ZM15.6465 1.392L14.7322 1.79693L23.4122 21.3969L24.3265 20.992L25.2409 20.5871L16.5609 0.987073L15.6465 1.392ZM24.3265 20.992V19.992H18.5585V20.992V21.992H24.3265V20.992ZM18.5585 20.992L19.4866 20.6195L12.7106 3.73555L11.7825 4.108L10.8545 4.48045L17.6305 21.3645L18.5585 20.992ZM11.7825 4.108V5.108H13.9665V4.108V3.108H11.7825V4.108ZM13.9665 4.108L13.0385 3.73555L6.26246 20.6195L7.19051 20.992L8.11857 21.3645L14.8946 4.48045L13.9665 4.108ZM7.19051 20.992V19.992H1.53451V20.992V21.992H7.19051V20.992ZM6.26651 17.184L7.21057 17.5138L8.63857 13.4258L7.69451 13.096L6.75045 12.7662L5.32245 16.8542L6.26651 17.184ZM7.69451 13.096V14.096H17.2705V13.096V12.096H7.69451V13.096ZM17.2705 13.096L16.3265 13.4258L17.7545 17.5138L18.6985 17.184L19.6426 16.8542L18.2146 12.7662L17.2705 13.096ZM18.6985 17.184V16.184H6.26651V17.184V18.184H18.6985V17.184ZM29.0859 20.992H28.0859V21.992H29.0859V20.992ZM29.0859 5.788H30.0859V4.788H29.0859V5.788ZM23.0659 5.788H22.0659V6.788H23.0659V5.788ZM23.0659 1.392V0.391999H22.0659V1.392H23.0659ZM40.6219 1.392H41.6219V0.391999H40.6219V1.392ZM40.6219 5.788V6.788H41.6219V5.788H40.6219ZM34.6299 5.788V4.788H33.6299V5.788H34.6299ZM34.6299 20.992V21.992H35.6299V20.992H34.6299ZM29.0859 20.992H30.0859V5.788H29.0859H28.0859V20.992H29.0859ZM29.0859 5.788V4.788H23.0659V5.788V6.788H29.0859V5.788ZM23.0659 5.788H24.0659V1.392H23.0659H22.0659V5.788H23.0659ZM23.0659 1.392V2.392H40.6219V1.392V0.391999H23.0659V1.392ZM40.6219 1.392H39.6219V5.788H40.6219H41.6219V1.392H40.6219ZM40.6219 5.788V4.788H34.6299V5.788V6.788H40.6219V5.788ZM34.6299 5.788H33.6299V20.992H34.6299H35.6299V5.788H34.6299ZM34.6299 20.992V19.992H29.0859V20.992V21.992H34.6299V20.992ZM42.6873 20.992H41.6873V21.992H42.6873V20.992ZM42.6873 1.392V0.391999H41.6873V1.392H42.6873ZM48.2313 1.392H49.2313V0.391999H48.2313V1.392ZM48.2313 20.992V21.992H49.2313V20.992H48.2313ZM42.6873 20.992H43.6873V1.392H42.6873H41.6873V20.992H42.6873ZM42.6873 1.392V2.392H48.2313V1.392V0.391999H42.6873V1.392ZM48.2313 1.392H47.2313V20.992H48.2313H49.2313V1.392H48.2313ZM48.2313 20.992V19.992H42.6873V20.992V21.992H48.2313V20.992ZM52.1756 20.992H51.1756V21.992H52.1756V20.992ZM52.1756 1.392V0.391999H51.1756V1.392H52.1756ZM56.7396 1.392L57.5097 0.754093L57.2098 0.391999H56.7396V1.392ZM67.5476 14.44V15.44H69.6744L68.3177 13.8021L67.5476 14.44ZM65.3916 14.44H64.3916V15.44H65.3916V14.44ZM65.3916 1.392V0.391999H64.3916V1.392H65.3916ZM70.8236 1.392H71.8236V0.391999H70.8236V1.392ZM70.8236 20.992V21.992H71.8236V20.992H70.8236ZM66.2596 20.992L65.4895 21.6299L65.7894 21.992H66.2596V20.992ZM55.4516 7.944V6.944H53.3247L54.6815 8.58191L55.4516 7.944ZM57.6076 7.944H58.6076V6.944H57.6076V7.944ZM57.6076 20.992V21.992H58.6076V20.992H57.6076ZM52.1756 20.992H53.1756V1.392H52.1756H51.1756V20.992H52.1756ZM52.1756 1.392V2.392H56.7396V1.392V0.391999H52.1756V1.392ZM56.7396 1.392L55.9695 2.02991L66.7775 15.0779L67.5476 14.44L68.3177 13.8021L57.5097 0.754093L56.7396 1.392ZM67.5476 14.44V13.44H65.3916V14.44V15.44H67.5476V14.44ZM65.3916 14.44H66.3916V1.392H65.3916H64.3916V14.44H65.3916ZM65.3916 1.392V2.392H70.8236V1.392V0.391999H65.3916V1.392ZM70.8236 1.392H69.8236V20.992H70.8236H71.8236V1.392H70.8236ZM70.8236 20.992V19.992H66.2596V20.992V21.992H70.8236V20.992ZM66.2596 20.992L67.0297 20.3541L56.2217 7.30609L55.4516 7.944L54.6815 8.58191L65.4895 21.6299L66.2596 20.992ZM55.4516 7.944V8.944H57.6076V7.944V6.944H55.4516V7.944ZM57.6076 7.944H56.6076V20.992H57.6076H58.6076V7.944H57.6076ZM57.6076 20.992V19.992H52.1756V20.992V21.992H57.6076V20.992ZM79.8302 8.98V7.98H78.8302V8.98H79.8302ZM88.9302 8.98H89.9302V7.98H88.9302V8.98ZM88.9302 13.124V14.124H89.9302V13.124H88.9302ZM79.8302 13.124H78.8302V14.124H79.8302V13.124ZM80.2222 16.708H79.2222V17.708H80.2222V16.708ZM90.4702 16.708H91.4702V15.708H90.4702V16.708ZM90.4702 20.992V21.992H91.4702V20.992H90.4702ZM74.7342 20.992H73.7342V21.992H74.7342V20.992ZM74.7342 1.392V0.391999H73.7342V1.392H74.7342ZM90.1062 1.392H91.1062V0.391999H90.1062V1.392ZM90.1062 5.676V6.676H91.1062V5.676H90.1062ZM80.2222 5.676V4.676H79.2222V5.676H80.2222ZM79.8302 8.98V9.98H88.9302V8.98V7.98H79.8302V8.98ZM88.9302 8.98H87.9302V13.124H88.9302H89.9302V8.98H88.9302ZM88.9302 13.124V12.124H79.8302V13.124V14.124H88.9302V13.124ZM79.8302 13.124H80.8302V8.98H79.8302H78.8302V13.124H79.8302ZM80.2222 16.708V17.708H90.4702V16.708V15.708H80.2222V16.708ZM90.4702 16.708H89.4702V20.992H90.4702H91.4702V16.708H90.4702ZM90.4702 20.992V19.992H74.7342V20.992V21.992H90.4702V20.992ZM74.7342 20.992H75.7342V1.392H74.7342H73.7342V20.992H74.7342ZM74.7342 1.392V2.392H90.1062V1.392V0.391999H74.7342V1.392ZM90.1062 1.392H89.1062V5.676H90.1062H91.1062V1.392H90.1062ZM90.1062 5.676V4.676H80.2222V5.676V6.676H90.1062V5.676ZM80.2222 5.676H79.2222V16.708H80.2222H81.2222V5.676H80.2222ZM95.7867 20.796L95.5184 21.7593L95.5256 21.7613L95.5328 21.7632L95.7867 20.796ZM92.1747 19.228L91.2611 18.8213L90.9212 19.5849L91.6124 20.0549L92.1747 19.228ZM93.9947 15.14L94.5327 14.2971L93.5536 13.6721L93.0811 14.7333L93.9947 15.14ZM97.0187 16.54L96.7071 17.4902L96.7164 17.4933L96.7257 17.4961L97.0187 16.54ZM102.311 16.876L102.58 17.839L102.598 17.834L102.615 17.8284L102.311 16.876ZM103.319 16.316L102.584 15.6377L102.582 15.6403L103.319 16.316ZM103.039 14.412L102.502 15.2557L103.039 14.412ZM101.443 13.768L101.692 12.7995L101.443 13.768ZM99.2587 13.264L99.0491 14.2418L99.0538 14.2428L99.2587 13.264ZM96.8787 12.62L96.5624 13.5687L96.5691 13.5709L96.8787 12.62ZM94.7227 11.612L94.1735 12.4477L94.1819 12.4533L94.1905 12.4586L94.7227 11.612ZM93.1267 9.96L92.2671 10.4711L92.2734 10.4814L93.1267 9.96ZM93.4627 4.164L92.6381 3.59811L92.6306 3.6093L93.4627 4.164ZM96.3747 1.868L95.9649 0.955831L96.3747 1.868ZM104.971 1.448L104.735 2.41985L104.744 2.42192L104.752 2.42384L104.971 1.448ZM108.303 2.708L109.226 3.09128L109.563 2.28048L108.802 1.84181L108.303 2.708ZM106.595 6.824L106.12 7.70391L107.094 8.23006L107.518 7.20728L106.595 6.824ZM103.823 5.704L103.548 6.66552L103.557 6.66813L103.566 6.67056L103.823 5.704ZM99.3147 5.564L99.6194 6.51643L99.6365 6.51096L99.6534 6.50489L99.3147 5.564ZM98.3067 6.18L97.5204 5.56218L98.3067 6.18ZM98.5867 8.112L98.032 8.94405L98.0546 8.95911L98.0779 8.97293L98.5867 8.112ZM100.183 8.728L99.9336 9.69649L99.9496 9.70061L99.9657 9.70419L100.183 8.728ZM102.367 9.204L102.157 10.1818L102.162 10.1828L102.367 9.204ZM104.747 9.848L104.43 10.7967L104.444 10.8011L104.457 10.8052L104.747 9.848ZM106.931 10.856L106.381 11.6917L106.39 11.6973L106.398 11.7026L106.931 10.856ZM108.499 12.508L107.629 13.0016L107.637 13.0157L107.645 13.0295L108.499 12.508ZM108.135 18.22L107.305 17.6616L107.303 17.6653L108.135 18.22ZM105.251 20.516L104.841 19.6038L104.836 19.6061L105.251 20.516ZM100.435 21.384V20.384C98.9116 20.384 97.4478 20.1982 96.0406 19.8288L95.7867 20.796L95.5328 21.7632C97.1122 22.1778 98.7471 22.384 100.435 22.384V21.384ZM95.7867 20.796L96.0549 19.8327C94.6503 19.4415 93.5547 18.9571 92.737 18.4011L92.1747 19.228L91.6124 20.0549C92.6613 20.7682 93.9737 21.3292 95.5184 21.7593L95.7867 20.796ZM92.1747 19.228L93.0882 19.6347L94.9082 15.5467L93.9947 15.14L93.0811 14.7333L91.2611 18.8213L92.1747 19.228ZM93.9947 15.14L93.4566 15.9829C94.4144 16.5942 95.5005 17.0946 96.7071 17.4902L97.0187 16.54L97.3302 15.5898C96.2595 15.2387 95.3296 14.8058 94.5327 14.2971L93.9947 15.14ZM97.0187 16.54L96.7257 17.4961C97.972 17.878 99.2186 18.072 100.463 18.072V17.072V16.072C99.4294 16.072 98.3801 15.9113 97.3117 15.5839L97.0187 16.54ZM100.463 17.072V18.072C101.273 18.072 101.99 18.0041 102.58 17.839L102.311 16.876L102.041 15.913C101.698 16.0092 101.183 16.072 100.463 16.072V17.072ZM102.311 16.876L102.615 17.8284C103.157 17.6552 103.682 17.3998 104.056 16.9917L103.319 16.316L102.582 15.6403C102.545 15.6802 102.398 15.7981 102.006 15.9236L102.311 16.876ZM103.319 16.316L104.053 16.9943C104.44 16.5752 104.655 16.0558 104.655 15.476H103.655H102.655C102.655 15.5309 102.645 15.5715 102.584 15.6377L103.319 16.316ZM103.655 15.476H104.655C104.655 14.6522 104.245 13.9943 103.576 13.5683L103.039 14.412L102.502 15.2557C102.597 15.3163 102.627 15.3605 102.635 15.375C102.642 15.3861 102.655 15.4111 102.655 15.476H103.655ZM103.039 14.412L103.576 13.5683C103.049 13.2334 102.411 12.9844 101.692 12.7995L101.443 13.768L101.194 14.7365C101.781 14.8876 102.207 15.0679 102.502 15.2557L103.039 14.412ZM101.443 13.768L101.692 12.7995C101.021 12.627 100.278 12.4557 99.4635 12.2852L99.2587 13.264L99.0538 14.2428C99.8447 14.4083 100.558 14.573 101.194 14.7365L101.443 13.768ZM99.2587 13.264L99.4682 12.2862C98.7197 12.1258 97.9598 11.9203 97.1883 11.6691L96.8787 12.62L96.5691 13.5709C97.4029 13.8423 98.2296 14.0662 99.0491 14.2418L99.2587 13.264ZM96.8787 12.62L97.1949 11.6713C96.4814 11.4335 95.8359 11.1306 95.2548 10.7654L94.7227 11.612L94.1905 12.4586C94.9161 12.9147 95.708 13.2839 96.5624 13.5687L96.8787 12.62ZM94.7227 11.612L95.2719 10.7763C94.7428 10.4286 94.3143 9.98561 93.9799 9.43855L93.1267 9.96L92.2734 10.4814C92.7604 11.2784 93.3959 11.9367 94.1735 12.4477L94.7227 11.612ZM93.1267 9.96L93.9862 9.44892C93.6912 8.95278 93.5107 8.27436 93.5107 7.356H92.5107H91.5107C91.5107 8.52831 91.7408 9.58588 92.2671 10.4711L93.1267 9.96ZM92.5107 7.356H93.5107C93.5107 6.3716 93.7728 5.50165 94.2947 4.7187L93.4627 4.164L92.6306 3.6093C91.8833 4.73035 91.5107 5.9884 91.5107 7.356H92.5107ZM93.4627 4.164L94.2872 4.72984C94.8157 3.95965 95.6266 3.30039 96.7845 2.78017L96.3747 1.868L95.9649 0.955831C94.5468 1.59294 93.4163 2.46435 92.6382 3.59816L93.4627 4.164ZM96.3747 1.868L96.7845 2.78017C97.9059 2.27633 99.3611 2 101.191 2V0.999999V-9.53674e-07C99.1749 -9.53674e-07 97.4194 0.30234 95.9649 0.955831L96.3747 1.868ZM101.191 0.999999V2C102.401 2 103.581 2.14018 104.735 2.41985L104.971 1.448L105.206 0.47615C103.896 0.158484 102.557 -9.53674e-07 101.191 -9.53674e-07V0.999999ZM104.971 1.448L104.752 2.42384C105.918 2.68485 106.931 3.07142 107.803 3.57418L108.303 2.708L108.802 1.84181C107.733 1.22457 106.525 0.771151 105.189 0.472157L104.971 1.448ZM108.303 2.708L107.379 2.32472L105.671 6.44072L106.595 6.824L107.518 7.20728L109.226 3.09128L108.303 2.708ZM106.595 6.824L107.07 5.94409C106.075 5.40713 105.078 5.00254 104.079 4.73744L103.823 5.704L103.566 6.67056C104.396 6.89079 105.247 7.23286 106.12 7.70391L106.595 6.824ZM103.823 5.704L104.097 4.74248C103.103 4.45833 102.124 4.312 101.163 4.312V5.312V6.312C101.919 6.312 102.713 6.427 103.548 6.66552L103.823 5.704ZM101.163 5.312V4.312C100.338 4.312 99.5936 4.40075 98.976 4.62311L99.3147 5.564L99.6534 6.50489C99.969 6.39125 100.457 6.312 101.163 6.312V5.312ZM99.3147 5.564L99.0099 4.61158C98.4383 4.79449 97.8949 5.08551 97.5204 5.56218L98.3067 6.18L99.093 6.79782C99.1291 6.75182 99.2577 6.63218 99.6194 6.51643L99.3147 5.564ZM98.3067 6.18L97.5204 5.56218C97.1749 6.00179 96.9987 6.51861 96.9987 7.076H97.9987H98.9987C98.9987 6.96139 99.0277 6.88088 99.093 6.79782L98.3067 6.18ZM97.9987 7.076H96.9987C96.9987 7.87637 97.3937 8.51856 98.032 8.94405L98.5867 8.112L99.1414 7.27995C99.0513 7.21989 99.0231 7.17707 99.0154 7.16339C99.0096 7.15333 98.9987 7.13211 98.9987 7.076H97.9987ZM98.5867 8.112L98.0779 8.97293C98.5955 9.27875 99.2236 9.51391 99.9336 9.69649L100.183 8.728L100.432 7.75951C99.8351 7.60609 99.3992 7.43059 99.0954 7.25107L98.5867 8.112ZM100.183 8.728L99.9657 9.70419C100.641 9.85415 101.371 10.0134 102.157 10.1818L102.367 9.204L102.576 8.2262C101.794 8.05864 101.069 7.90052 100.4 7.75181L100.183 8.728ZM102.367 9.204L102.162 10.1828C102.927 10.3428 103.683 10.5474 104.43 10.7967L104.747 9.848L105.063 8.89932C104.243 8.62591 103.412 8.40115 102.572 8.22521L102.367 9.204ZM104.747 9.848L104.457 10.8052C105.175 11.0221 105.814 11.3188 106.381 11.6917L106.931 10.856L107.48 10.0203C106.741 9.5345 105.924 9.15925 105.036 8.89079L104.747 9.848ZM106.931 10.856L106.398 11.7026C106.908 12.0227 107.316 12.4504 107.629 13.0016L108.499 12.508L109.368 12.0144C108.897 11.1843 108.26 10.5106 107.463 10.0094L106.931 10.856ZM108.499 12.508L107.645 13.0295C107.935 13.5035 108.115 14.1586 108.115 15.056H109.115H110.115C110.115 13.9 109.884 12.8565 109.352 11.9865L108.499 12.508ZM109.115 15.056H108.115C108.115 15.99 107.851 16.8512 107.305 17.6616L108.135 18.22L108.964 18.7784C109.725 17.6475 110.115 16.3993 110.115 15.056H109.115ZM108.135 18.22L107.303 17.6653C106.794 18.4278 105.997 19.0842 104.841 19.6038L105.251 20.516L105.66 21.4282C107.08 20.7905 108.206 19.9162 108.967 18.7747L108.135 18.22ZM105.251 20.516L104.836 19.6061C103.737 20.1069 102.285 20.384 100.435 20.384V21.384V22.384C102.467 22.384 104.225 22.0824 105.665 21.4259L105.251 20.516ZM116.52 20.992L115.568 21.3005L115.793 21.992H116.52V20.992ZM110.164 1.392V0.391999H108.788L109.212 1.70047L110.164 1.392ZM115.876 1.392L116.829 1.0914L116.609 0.391999H115.876V1.392ZM121.224 18.36V19.36H122.587L122.177 18.0594L121.224 18.36ZM118.34 18.36L117.39 18.0452L116.954 19.36H118.34V18.36ZM123.968 1.392V0.391999H123.246L123.018 1.07718L123.968 1.392ZM129.064 1.392L130.018 1.09283L129.798 0.391999H129.064V1.392ZM134.384 18.36V19.36H135.745L135.338 18.0608L134.384 18.36ZM131.612 18.36L130.661 18.0508L130.235 19.36H131.612V18.36ZM137.128 1.392V0.391999H136.401L136.177 1.08284L137.128 1.392ZM142.42 1.392L143.371 1.70047L143.795 0.391999H142.42V1.392ZM136.064 20.992V21.992H136.791L137.015 21.3005L136.064 20.992ZM130.128 20.992L129.174 21.2921L129.394 21.992H130.128V20.992ZM125.592 6.572V5.572H124.229L124.638 6.87207L125.592 6.572ZM127.188 6.572L128.138 6.8838L128.568 5.572H127.188V6.572ZM122.456 20.992V21.992H123.18L123.406 21.3038L122.456 20.992ZM116.52 20.992L117.471 20.6835L111.115 1.08353L110.164 1.392L109.212 1.70047L115.568 21.3005L116.52 20.992ZM110.164 1.392V2.392H115.876V1.392V0.391999H110.164V1.392ZM115.876 1.392L114.922 1.6926L120.27 18.6606L121.224 18.36L122.177 18.0594L116.829 1.0914L115.876 1.392ZM121.224 18.36V17.36H118.34V18.36V19.36H121.224V18.36ZM118.34 18.36L119.289 18.6748L124.917 1.70682L123.968 1.392L123.018 1.07718L117.39 18.0452L118.34 18.36ZM123.968 1.392V2.392H129.064V1.392V0.391999H123.968V1.392ZM129.064 1.392L128.109 1.69117L133.429 18.6592L134.384 18.36L135.338 18.0608L130.018 1.09283L129.064 1.392ZM134.384 18.36V17.36H131.612V18.36V19.36H134.384V18.36ZM131.612 18.36L132.563 18.6692L138.079 1.70116L137.128 1.392L136.177 1.08284L130.661 18.0508L131.612 18.36ZM137.128 1.392V2.392H142.42V1.392V0.391999H137.128V1.392ZM142.42 1.392L141.468 1.08353L135.112 20.6835L136.064 20.992L137.015 21.3005L143.371 1.70047L142.42 1.392ZM136.064 20.992V19.992H130.128V20.992V21.992H136.064V20.992ZM130.128 20.992L131.081 20.6919L126.545 6.27193L125.592 6.572L124.638 6.87207L129.174 21.2921L130.128 20.992ZM125.592 6.572V7.572H127.188V6.572V5.572H125.592V6.572ZM127.188 6.572L126.237 6.2602L121.505 20.6802L122.456 20.992L123.406 21.3038L128.138 6.8838L127.188 6.572ZM122.456 20.992V19.992H116.52V20.992V21.992H122.456V20.992ZM149.704 20.628L149.349 21.5627L149.704 20.628ZM146.232 18.5L145.539 19.2208L145.546 19.2276L145.553 19.2343L146.232 18.5ZM143.964 15.252L143.048 15.6543L143.964 15.252ZM143.964 7.132L143.048 6.72973L143.964 7.132ZM146.232 3.912L146.918 4.63979L146.918 4.63939L146.232 3.912ZM149.704 1.756L149.349 0.821303L149.704 1.756ZM158.384 1.756L158.024 2.68901L158.029 2.6907L158.384 1.756ZM161.828 3.912L161.135 4.63287L161.142 4.63979L161.828 3.912ZM164.096 7.132L163.18 7.53431L163.186 7.5458L164.096 7.132ZM164.096 15.28L163.183 14.8713L163.18 14.8777L164.096 15.28ZM161.828 18.5L162.514 19.2278L161.828 18.5ZM158.384 20.628L158.029 19.6933L158.024 19.695L158.384 20.628ZM156.116 16.4L155.745 15.4715L155.735 15.4753L156.116 16.4ZM157.796 15.28L157.076 14.5864L157.075 14.5869L157.796 15.28ZM158.916 13.488L157.989 13.1123L157.985 13.1232L157.981 13.1341L158.916 13.488ZM158.916 8.896L157.981 9.24989L157.987 9.26536L157.993 9.28062L158.916 8.896ZM157.796 7.132L157.062 7.81141L157.075 7.82551L157.089 7.83911L157.796 7.132ZM156.116 5.984L155.735 6.90873L155.745 6.91248L156.116 5.984ZM151.944 5.984L151.573 5.05548L151.563 5.05932L151.944 5.984ZM150.264 7.132L149.544 6.43836L149.543 6.43889L150.264 7.132ZM149.144 8.896L148.217 8.5203L148.215 8.52691L148.212 8.53355L149.144 8.896ZM149.144 13.488L148.209 13.8419L148.213 13.8528L148.217 13.8637L149.144 13.488ZM150.264 15.28L149.53 15.9594L149.543 15.9735L149.557 15.9871L150.264 15.28ZM151.944 16.4L151.563 17.3247L151.573 17.3285L151.944 16.4ZM154.044 21.384V20.384C152.585 20.384 151.26 20.1498 150.059 19.6933L149.704 20.628L149.349 21.5627C150.799 22.1142 152.367 22.384 154.044 22.384V21.384ZM149.704 20.628L150.059 19.6933C148.847 19.2324 147.801 18.589 146.911 17.7657L146.232 18.5L145.553 19.2343C146.641 20.2403 147.91 21.0156 149.349 21.5627L149.704 20.628ZM146.232 18.5L146.925 17.7792C146.049 16.9364 145.368 15.9619 144.879 14.8497L143.964 15.252L143.048 15.6543C143.642 17.0061 144.474 18.1969 145.539 19.2208L146.232 18.5ZM143.964 15.252L144.879 14.8497C144.399 13.7562 144.152 12.5416 144.152 11.192H143.152H142.152C142.152 12.7918 142.446 14.2838 143.048 15.6543L143.964 15.252ZM143.152 11.192H144.152C144.152 9.84244 144.399 8.62777 144.879 7.53427L143.964 7.132L143.048 6.72973C142.446 8.10023 142.152 9.59222 142.152 11.192H143.152ZM143.964 7.132L144.879 7.53427C145.367 6.42395 146.046 5.46161 146.918 4.63979L146.232 3.912L145.546 3.18421C144.477 4.19172 143.643 5.37604 143.048 6.72973L143.964 7.132ZM146.232 3.912L146.918 4.63939C147.808 3.80004 148.852 3.15002 150.059 2.6907L149.704 1.756L149.349 0.821303C147.906 1.36998 146.635 2.15729 145.546 3.18461L146.232 3.912ZM149.704 1.756L150.059 2.6907C151.26 2.23421 152.585 2 154.044 2V0.999999V-9.53674e-07C152.367 -9.53674e-07 150.799 0.269791 149.349 0.821303L149.704 1.756ZM154.044 0.999999V2C155.524 2 156.846 2.23477 158.024 2.689L158.384 1.756L158.744 0.822998C157.308 0.269227 155.737 -9.53674e-07 154.044 -9.53674e-07V0.999999ZM158.384 1.756L158.029 2.6907C159.235 3.14944 160.266 3.79768 161.135 4.63283L161.828 3.912L162.521 3.19117C161.448 2.15965 160.184 1.37056 158.739 0.821303L158.384 1.756ZM161.828 3.912L161.142 4.63979C162.014 5.46161 162.693 6.42395 163.18 7.53427L164.096 7.132L165.011 6.72973C164.417 5.37604 163.583 4.19172 162.514 3.18421L161.828 3.912ZM164.096 7.132L163.186 7.5458C163.681 8.63655 163.936 9.84713 163.936 11.192H164.936H165.936C165.936 9.58754 165.631 8.09145 165.006 6.7182L164.096 7.132ZM164.936 11.192H163.936C163.936 12.5367 163.681 13.7588 163.183 14.8713L164.096 15.28L165.009 15.6887C165.63 14.2999 165.936 12.7966 165.936 11.192H164.936ZM164.096 15.28L163.18 14.8777C162.693 15.988 162.014 16.9504 161.142 17.7722L161.828 18.5L162.514 19.2278C163.583 18.2203 164.417 17.036 165.011 15.6823L164.096 15.28ZM161.828 18.5L161.142 17.7722C160.273 18.5913 159.239 19.233 158.029 19.6933L158.384 20.628L158.739 21.5627C160.18 21.015 161.442 20.238 162.514 19.2278L161.828 18.5ZM158.384 20.628L158.024 19.695C156.846 20.1492 155.524 20.384 154.044 20.384V21.384V22.384C155.737 22.384 157.308 22.1148 158.744 21.561L158.384 20.628ZM154.044 16.792V17.792C154.91 17.792 155.731 17.64 156.497 17.3247L156.116 16.4L155.735 15.4753C155.232 15.6827 154.672 15.792 154.044 15.792V16.792ZM156.116 16.4L156.487 17.3285C157.266 17.0168 157.947 16.5654 158.517 15.9731L157.796 15.28L157.075 14.5869C156.711 14.9652 156.272 15.2605 155.745 15.4715L156.116 16.4ZM157.796 15.28L158.516 15.9736C159.101 15.3668 159.545 14.6521 159.851 13.8419L158.916 13.488L157.981 13.1341C157.765 13.7053 157.462 14.1852 157.076 14.5864L157.796 15.28ZM158.916 13.488L159.843 13.8637C160.177 13.0395 160.336 12.1445 160.336 11.192H159.336H158.336C158.336 11.9195 158.215 12.5552 157.989 13.1123L158.916 13.488ZM159.336 11.192H160.336C160.336 10.2246 160.178 9.32507 159.839 8.51138L158.916 8.896L157.993 9.28062C158.214 9.81093 158.336 10.442 158.336 11.192H159.336ZM158.916 8.896L159.851 8.54211C159.544 7.72907 159.096 7.01791 158.503 6.42489L157.796 7.132L157.089 7.83911C157.467 8.21676 157.766 8.68159 157.981 9.24989L158.916 8.896ZM157.796 7.132L158.53 6.45259C157.96 5.837 157.275 5.37058 156.487 5.05552L156.116 5.984L155.745 6.91248C156.264 7.12009 156.699 7.419 157.062 7.81141L157.796 7.132ZM156.116 5.984L156.497 5.05932C155.731 4.74404 154.91 4.592 154.044 4.592V5.592V6.592C154.672 6.592 155.232 6.70129 155.735 6.90868L156.116 5.984ZM154.044 5.592V4.592C153.178 4.592 152.351 4.74411 151.573 5.05552L151.944 5.984L152.315 6.91248C152.843 6.70123 153.417 6.592 154.044 6.592V5.592ZM151.944 5.984L151.563 5.05932C150.798 5.37438 150.123 5.83667 149.544 6.43836L150.264 7.132L150.984 7.82564C151.376 7.41933 151.821 7.11628 152.325 6.90868L151.944 5.984ZM150.264 7.132L149.543 6.43889C148.979 7.02528 148.54 7.7243 148.217 8.5203L149.144 8.896L150.071 9.27171C150.308 8.68637 150.615 8.20938 150.985 7.82511L150.264 7.132ZM149.144 8.896L148.212 8.53355C147.898 9.34087 147.752 10.2325 147.752 11.192H148.752H149.752C149.752 10.4342 149.867 9.79513 150.076 9.25845L149.144 8.896ZM148.752 11.192H147.752C147.752 12.1364 147.899 13.0237 148.209 13.8419L149.144 13.488L150.079 13.1341C149.866 12.571 149.752 11.9276 149.752 11.192H148.752ZM149.144 13.488L148.217 13.8637C148.539 14.6569 148.975 15.3594 149.53 15.9594L150.264 15.28L150.998 14.6006C150.62 14.1926 150.309 13.7005 150.071 13.1123L149.144 13.488ZM150.264 15.28L149.557 15.9871C150.136 16.5658 150.806 17.0131 151.563 17.3247L151.944 16.4L152.325 15.4753C151.812 15.2643 151.363 14.9649 150.971 14.5729L150.264 15.28ZM151.944 16.4L151.573 17.3285C152.351 17.6399 153.178 17.792 154.044 17.792V16.792V15.792C153.417 15.792 152.843 15.6828 152.315 15.4715L151.944 16.4ZM167.84 20.992H166.84V21.992H167.84V20.992ZM167.84 1.392V0.391999H166.84V1.392H167.84ZM181.42 2.26L181.01 3.17218L181.015 3.17435L181.42 2.26ZM184.444 4.78L183.603 5.32149L183.607 5.32802L184.444 4.78ZM184.444 12.48L185.276 13.0347L185.28 13.028L184.444 12.48ZM181.42 14.944L181.818 15.8611L181.825 15.8583L181.42 14.944ZM170.92 15.784L170.234 15.0565L168.402 16.784H170.92V15.784ZM173.384 13.46H174.384V11.1422L172.697 12.7325L173.384 13.46ZM173.384 20.992V21.992H174.384V20.992H173.384ZM179.964 20.992L179.138 21.5556L179.435 21.992H179.964V20.992ZM175.092 13.852V12.852H173.199L174.266 14.4156L175.092 13.852ZM181 13.852L181.824 13.2862L181.526 12.852H181V13.852ZM185.9 20.992V21.992H187.799L186.724 20.4262L185.9 20.992ZM173.384 14.048L172.665 14.7432L174.384 16.5206V14.048H173.384ZM170.92 11.5V10.5H168.562L170.201 12.1952L170.92 11.5ZM179.04 10.744L178.383 9.98992L178.377 9.99526L178.371 10.0007L179.04 10.744ZM179.04 6.516L178.371 7.25929L178.377 7.26474L178.383 7.27008L179.04 6.516ZM170.92 5.76L170.201 5.06484L168.562 6.76H170.92V5.76ZM173.384 3.212H174.384V0.739387L172.665 2.51684L173.384 3.212ZM167.84 20.992H168.84V1.392H167.84H166.84V20.992H167.84ZM167.84 1.392V2.392H176.8V1.392V0.391999H167.84V1.392ZM176.8 1.392V2.392C178.487 2.392 179.88 2.66476 181.01 3.17217L181.42 2.26L181.829 1.34783C180.383 0.69791 178.696 0.391999 176.8 0.391999V1.392ZM181.42 2.26L181.015 3.17435C182.16 3.68143 183.009 4.39921 183.603 5.32148L184.444 4.78L185.284 4.23852C184.46 2.95812 183.293 1.9959 181.825 1.34565L181.42 2.26ZM184.444 4.78L183.607 5.32802C184.194 6.22393 184.508 7.31468 184.508 8.644H185.508H186.508C186.508 6.98666 186.112 5.5014 185.28 4.23197L184.444 4.78ZM185.508 8.644H184.508C184.508 9.95188 184.195 11.034 183.607 11.932L184.444 12.48L185.28 13.028C186.11 11.7606 186.508 10.2855 186.508 8.644H185.508ZM184.444 12.48L183.612 11.9253C183.02 12.8132 182.169 13.5186 181.015 14.0297L181.42 14.944L181.825 15.8583C183.284 15.2121 184.449 14.2748 185.276 13.0347L184.444 12.48ZM181.42 14.944L181.021 14.0269C179.888 14.5194 178.491 14.784 176.8 14.784V15.784V16.784C178.692 16.784 180.375 16.4886 181.818 15.8611L181.42 14.944ZM176.8 15.784V14.784H170.92V15.784V16.784H176.8V15.784ZM170.92 15.784L171.606 16.5115L174.07 14.1875L173.384 13.46L172.697 12.7325L170.234 15.0565L170.92 15.784ZM173.384 13.46H172.384V20.992H173.384H174.384V13.46H173.384ZM173.384 20.992V19.992H167.84V20.992V21.992H173.384V20.992ZM179.964 20.992L180.79 20.4284L175.918 13.2884L175.092 13.852L174.266 14.4156L179.138 21.5556L179.964 20.992ZM175.092 13.852V14.852H181V13.852V12.852H175.092V13.852ZM181 13.852L180.175 14.4178L185.075 21.5578L185.9 20.992L186.724 20.4262L181.824 13.2862L181 13.852ZM185.9 20.992V19.992H179.964V20.992V21.992H185.9V20.992ZM173.384 14.048L174.102 13.3528L171.638 10.8048L170.92 11.5L170.201 12.1952L172.665 14.7432L173.384 14.048ZM170.92 11.5V12.5H176.464V11.5V10.5H170.92V11.5ZM176.464 11.5V12.5C177.74 12.5 178.888 12.2257 179.709 11.4873L179.04 10.744L178.371 10.0007C178.071 10.2703 177.502 10.5 176.464 10.5V11.5ZM179.04 10.744L179.696 11.4981C180.53 10.7716 180.908 9.77564 180.908 8.644H179.908H178.908C178.908 9.30436 178.706 9.70837 178.383 9.98992L179.04 10.744ZM179.908 8.644H180.908C180.908 7.50106 180.535 6.49247 179.696 5.76192L179.04 6.516L178.383 7.27008C178.701 7.54753 178.908 7.9576 178.908 8.644H179.908ZM179.04 6.516L179.709 5.77271C178.888 5.03435 177.74 4.76 176.464 4.76V5.76V6.76C177.502 6.76 178.071 6.98965 178.371 7.25929L179.04 6.516ZM176.464 5.76V4.76H170.92V5.76V6.76H176.464V5.76ZM170.92 5.76L171.638 6.45516L174.102 3.90716L173.384 3.212L172.665 2.51684L170.201 5.06484L170.92 5.76ZM173.384 3.212H172.384V14.048H173.384H174.384V3.212H173.384ZM188.566 20.992H187.566V21.992H188.566V20.992ZM188.566 1.392V0.391999H187.566V1.392H188.566ZM194.11 1.392H195.11V0.391999H194.11V1.392ZM194.11 16.596H193.11V17.596H194.11V16.596ZM203.462 16.596H204.462V15.596H203.462V16.596ZM203.462 20.992V21.992H204.462V20.992H203.462ZM188.566 20.992H189.566V1.392H188.566H187.566V20.992H188.566ZM188.566 1.392V2.392H194.11V1.392V0.391999H188.566V1.392ZM194.11 1.392H193.11V16.596H194.11H195.11V1.392H194.11ZM194.11 16.596V17.596H203.462V16.596V15.596H194.11V16.596ZM203.462 16.596H202.462V20.992H203.462H204.462V16.596H203.462ZM203.462 20.992V19.992H188.566V20.992V21.992H203.462V20.992ZM205.656 20.992H204.656V21.992H205.656V20.992ZM205.656 1.392V0.391999H204.656V1.392H205.656ZM220.636 2.596L220.197 3.49447L220.636 2.596ZM224.472 5.984L223.625 6.51597L223.63 6.52367L224.472 5.984ZM224.472 16.4L223.627 15.8652L223.625 15.8681L224.472 16.4ZM220.636 19.788L220.197 18.8895L220.636 19.788ZM211.2 16.568H210.2V17.568H211.2V16.568ZM217.612 15.952L218.059 16.8465L218.067 16.8424L217.612 15.952ZM219.572 14.104L220.437 14.6066L220.441 14.598L219.572 14.104ZM219.572 8.28L220.437 7.77738L219.572 8.28ZM217.612 6.46L217.149 7.34622L217.161 7.35247L217.173 7.35838L217.612 6.46ZM211.2 5.816V4.816H210.2V5.816H211.2ZM205.656 20.992H206.656V1.392H205.656H204.656V20.992H205.656ZM205.656 1.392V2.392H214.924V1.392V0.391999H205.656V1.392ZM214.924 1.392V2.392C216.965 2.392 218.714 2.76984 220.197 3.49447L220.636 2.596L221.075 1.69753C219.273 0.816827 217.214 0.391999 214.924 0.391999V1.392ZM220.636 2.596L220.197 3.49447C221.683 4.22074 222.816 5.22783 223.625 6.51595L224.472 5.984L225.319 5.45205C224.299 3.82817 222.874 2.57659 221.075 1.69753L220.636 2.596ZM224.472 5.984L223.63 6.52367C224.444 7.7934 224.872 9.33498 224.872 11.192H225.872H226.872C226.872 9.01702 226.367 7.0866 225.314 5.44433L224.472 5.984ZM225.872 11.192H224.872C224.872 13.028 224.445 14.5727 223.627 15.8652L224.472 16.4L225.317 16.9348C226.366 15.278 226.872 13.3507 226.872 11.192H225.872ZM224.472 16.4L223.625 15.8681C222.816 17.1562 221.683 18.1633 220.197 18.8895L220.636 19.788L221.075 20.6865C222.874 19.8074 224.299 18.5558 225.319 16.9319L224.472 16.4ZM220.636 19.788L220.197 18.8895C218.714 19.6142 216.965 19.992 214.924 19.992V20.992V21.992C217.214 21.992 219.273 21.5672 221.075 20.6865L220.636 19.788ZM214.924 20.992V19.992H205.656V20.992V21.992H214.924V20.992ZM211.2 16.568V17.568H214.7V16.568V15.568H211.2V16.568ZM214.7 16.568V17.568C215.942 17.568 217.072 17.3401 218.059 16.8464L217.612 15.952L217.165 15.0576C216.51 15.3852 215.698 15.568 214.7 15.568V16.568ZM217.612 15.952L218.067 16.8424C219.075 16.3273 219.872 15.578 220.437 14.6066L219.572 14.104L218.708 13.6014C218.339 14.2354 217.829 14.7181 217.157 15.0616L217.612 15.952ZM219.572 14.104L220.441 14.598C221.008 13.6003 221.272 12.4529 221.272 11.192H220.272H219.272C219.272 12.1711 219.069 12.965 218.703 13.61L219.572 14.104ZM220.272 11.192H221.272C221.272 9.91653 221.01 8.76374 220.437 7.77738L219.572 8.28L218.708 8.78262C219.067 9.4016 219.272 10.1901 219.272 11.192H220.272ZM219.572 8.28L220.437 7.77738C219.87 6.80233 219.068 6.05856 218.051 5.56161L217.612 6.46L217.173 7.35838C217.836 7.68278 218.341 8.15234 218.708 8.78262L219.572 8.28ZM217.612 6.46L218.075 5.57377C217.084 5.05565 215.948 4.816 214.7 4.816V5.816V6.816C215.692 6.816 216.497 7.00568 217.149 7.34622L217.612 6.46ZM214.7 5.816V4.816H211.2V5.816V6.816H214.7V5.816ZM211.2 5.816H210.2V16.568H211.2H212.2V5.816H211.2ZM242.033 8.98V7.98H241.033V8.98H242.033ZM251.133 8.98H252.133V7.98H251.133V8.98ZM251.133 13.124V14.124H252.133V13.124H251.133ZM242.033 13.124H241.033V14.124H242.033V13.124ZM242.425 16.708H241.425V17.708H242.425V16.708ZM252.673 16.708H253.673V15.708H252.673V16.708ZM252.673 20.992V21.992H253.673V20.992H252.673ZM236.937 20.992H235.937V21.992H236.937V20.992ZM236.937 1.392V0.391999H235.937V1.392H236.937ZM252.309 1.392H253.309V0.391999H252.309V1.392ZM252.309 5.676V6.676H253.309V5.676H252.309ZM242.425 5.676V4.676H241.425V5.676H242.425ZM242.033 8.98V9.98H251.133V8.98V7.98H242.033V8.98ZM251.133 8.98H250.133V13.124H251.133H252.133V8.98H251.133ZM251.133 13.124V12.124H242.033V13.124V14.124H251.133V13.124ZM242.033 13.124H243.033V8.98H242.033H241.033V13.124H242.033ZM242.425 16.708V17.708H252.673V16.708V15.708H242.425V16.708ZM252.673 16.708H251.673V20.992H252.673H253.673V16.708H252.673ZM252.673 20.992V19.992H236.937V20.992V21.992H252.673V20.992ZM236.937 20.992H237.937V1.392H236.937H235.937V20.992H236.937ZM236.937 1.392V2.392H252.309V1.392V0.391999H236.937V1.392ZM252.309 1.392H251.309V5.676H252.309H253.309V1.392H252.309ZM252.309 5.676V4.676H242.425V5.676V6.676H252.309V5.676ZM242.425 5.676H241.425V16.708H242.425H243.425V5.676H242.425ZM255.75 20.992H254.75V21.992H255.75V20.992ZM255.75 1.392V0.391999H254.75V1.392H255.75ZM260.314 1.392L261.084 0.754093L260.784 0.391999H260.314V1.392ZM271.122 14.44V15.44H273.249L271.892 13.8021L271.122 14.44ZM268.966 14.44H267.966V15.44H268.966V14.44ZM268.966 1.392V0.391999H267.966V1.392H268.966ZM274.398 1.392H275.398V0.391999H274.398V1.392ZM274.398 20.992V21.992H275.398V20.992H274.398ZM269.834 20.992L269.064 21.6299L269.364 21.992H269.834V20.992ZM259.026 7.944V6.944H256.899L258.256 8.58191L259.026 7.944ZM261.182 7.944H262.182V6.944H261.182V7.944ZM261.182 20.992V21.992H262.182V20.992H261.182ZM255.75 20.992H256.75V1.392H255.75H254.75V20.992H255.75ZM255.75 1.392V2.392H260.314V1.392V0.391999H255.75V1.392ZM260.314 1.392L259.544 2.02991L270.352 15.0779L271.122 14.44L271.892 13.8021L261.084 0.754093L260.314 1.392ZM271.122 14.44V13.44H268.966V14.44V15.44H271.122V14.44ZM268.966 14.44H269.966V1.392H268.966H267.966V14.44H268.966ZM268.966 1.392V2.392H274.398V1.392V0.391999H268.966V1.392ZM274.398 1.392H273.398V20.992H274.398H275.398V1.392H274.398ZM274.398 20.992V19.992H269.834V20.992V21.992H274.398V20.992ZM269.834 20.992L270.604 20.3541L259.796 7.30609L259.026 7.944L258.256 8.58191L269.064 21.6299L269.834 20.992ZM259.026 7.944V8.944H261.182V7.944V6.944H259.026V7.944ZM261.182 7.944H260.182V20.992H261.182H262.182V7.944H261.182ZM261.182 20.992V19.992H255.75V20.992V21.992H261.182V20.992ZM282.48 20.992H281.48V21.992H282.48V20.992ZM282.48 5.788H283.48V4.788H282.48V5.788ZM276.46 5.788H275.46V6.788H276.46V5.788ZM276.46 1.392V0.391999H275.46V1.392H276.46ZM294.016 1.392H295.016V0.391999H294.016V1.392ZM294.016 5.788V6.788H295.016V5.788H294.016ZM288.024 5.788V4.788H287.024V5.788H288.024ZM288.024 20.992V21.992H289.024V20.992H288.024ZM282.48 20.992H283.48V5.788H282.48H281.48V20.992H282.48ZM282.48 5.788V4.788H276.46V5.788V6.788H282.48V5.788ZM276.46 5.788H277.46V1.392H276.46H275.46V5.788H276.46ZM276.46 1.392V2.392H294.016V1.392V0.391999H276.46V1.392ZM294.016 1.392H293.016V5.788H294.016H295.016V1.392H294.016ZM294.016 5.788V4.788H288.024V5.788V6.788H294.016V5.788ZM288.024 5.788H287.024V20.992H288.024H289.024V5.788H288.024ZM288.024 20.992V19.992H282.48V20.992V21.992H288.024V20.992ZM301.178 8.98V7.98H300.178V8.98H301.178ZM310.278 8.98H311.278V7.98H310.278V8.98ZM310.278 13.124V14.124H311.278V13.124H310.278ZM301.178 13.124H300.178V14.124H301.178V13.124ZM301.57 16.708H300.57V17.708H301.57V16.708ZM311.818 16.708H312.818V15.708H311.818V16.708ZM311.818 20.992V21.992H312.818V20.992H311.818ZM296.082 20.992H295.082V21.992H296.082V20.992ZM296.082 1.392V0.391999H295.082V1.392H296.082ZM311.454 1.392H312.454V0.391999H311.454V1.392ZM311.454 5.676V6.676H312.454V5.676H311.454ZM301.57 5.676V4.676H300.57V5.676H301.57ZM301.178 8.98V9.98H310.278V8.98V7.98H301.178V8.98ZM310.278 8.98H309.278V13.124H310.278H311.278V8.98H310.278ZM310.278 13.124V12.124H301.178V13.124V14.124H310.278V13.124ZM301.178 13.124H302.178V8.98H301.178H300.178V13.124H301.178ZM301.57 16.708V17.708H311.818V16.708V15.708H301.57V16.708ZM311.818 16.708H310.818V20.992H311.818H312.818V16.708H311.818ZM311.818 20.992V19.992H296.082V20.992V21.992H311.818V20.992ZM296.082 20.992H297.082V1.392H296.082H295.082V20.992H296.082ZM296.082 1.392V2.392H311.454V1.392V0.391999H296.082V1.392ZM311.454 1.392H310.454V5.676H311.454H312.454V1.392H311.454ZM311.454 5.676V4.676H301.57V5.676V6.676H311.454V5.676ZM301.57 5.676H300.57V16.708H301.57H302.57V5.676H301.57ZM314.894 20.992H313.894V21.992H314.894V20.992ZM314.894 1.392V0.391999H313.894V1.392H314.894ZM328.474 2.26L328.065 3.17218L328.069 3.17435L328.474 2.26ZM331.498 4.78L330.658 5.32149L330.662 5.32802L331.498 4.78ZM331.498 12.48L332.33 13.0347L332.335 13.028L331.498 12.48ZM328.474 14.944L328.873 15.8611L328.879 15.8583L328.474 14.944ZM317.974 15.784L317.288 15.0565L315.457 16.784H317.974V15.784ZM320.438 13.46H321.438V11.1422L319.752 12.7325L320.438 13.46ZM320.438 20.992V21.992H321.438V20.992H320.438ZM327.018 20.992L326.192 21.5556L326.49 21.992H327.018V20.992ZM322.146 13.852V12.852H320.253L321.32 14.4156L322.146 13.852ZM328.054 13.852L328.879 13.2862L328.581 12.852H328.054V13.852ZM332.954 20.992V21.992H334.853L333.779 20.4262L332.954 20.992ZM320.438 14.048L319.719 14.7432L321.438 16.5206V14.048H320.438ZM317.974 11.5V10.5H315.616L317.255 12.1952L317.974 11.5ZM326.094 10.744L325.438 9.98992L325.431 9.99526L325.425 10.0007L326.094 10.744ZM326.094 6.516L325.425 7.25929L325.431 7.26474L325.438 7.27008L326.094 6.516ZM317.974 5.76L317.255 5.06484L315.616 6.76H317.974V5.76ZM320.438 3.212H321.438V0.739387L319.719 2.51684L320.438 3.212ZM314.894 20.992H315.894V1.392H314.894H313.894V20.992H314.894ZM314.894 1.392V2.392H323.854V1.392V0.391999H314.894V1.392ZM323.854 1.392V2.392C325.542 2.392 326.935 2.66476 328.065 3.17217L328.474 2.26L328.884 1.34783C327.438 0.69791 325.751 0.391999 323.854 0.391999V1.392ZM328.474 2.26L328.069 3.17435C329.214 3.68143 330.064 4.39921 330.658 5.32148L331.498 4.78L332.339 4.23852C331.514 2.95812 330.348 1.9959 328.879 1.34565L328.474 2.26ZM331.498 4.78L330.662 5.32802C331.249 6.22393 331.562 7.31468 331.562 8.644H332.562H333.562C333.562 6.98666 333.166 5.5014 332.335 4.23197L331.498 4.78ZM332.562 8.644H331.562C331.562 9.95188 331.25 11.034 330.662 11.932L331.498 12.48L332.335 13.028C333.165 11.7606 333.562 10.2855 333.562 8.644H332.562ZM331.498 12.48L330.666 11.9253C330.074 12.8132 329.223 13.5186 328.069 14.0297L328.474 14.944L328.879 15.8583C330.339 15.2121 331.504 14.2748 332.33 13.0347L331.498 12.48ZM328.474 14.944L328.076 14.0269C326.943 14.5194 325.546 14.784 323.854 14.784V15.784V16.784C325.747 16.784 327.43 16.4886 328.873 15.8611L328.474 14.944ZM323.854 15.784V14.784H317.974V15.784V16.784H323.854V15.784ZM317.974 15.784L318.66 16.5115L321.124 14.1875L320.438 13.46L319.752 12.7325L317.288 15.0565L317.974 15.784ZM320.438 13.46H319.438V20.992H320.438H321.438V13.46H320.438ZM320.438 20.992V19.992H314.894V20.992V21.992H320.438V20.992ZM327.018 20.992L327.844 20.4284L322.972 13.2884L322.146 13.852L321.32 14.4156L326.192 21.5556L327.018 20.992ZM322.146 13.852V14.852H328.054V13.852V12.852H322.146V13.852ZM328.054 13.852L327.23 14.4178L332.13 21.5578L332.954 20.992L333.779 20.4262L328.879 13.2862L328.054 13.852ZM332.954 20.992V19.992H327.018V20.992V21.992H332.954V20.992ZM320.438 14.048L321.157 13.3528L318.693 10.8048L317.974 11.5L317.255 12.1952L319.719 14.7432L320.438 14.048ZM317.974 11.5V12.5H323.518V11.5V10.5H317.974V11.5ZM323.518 11.5V12.5C324.795 12.5 325.943 12.2257 326.763 11.4873L326.094 10.744L325.425 10.0007C325.126 10.2703 324.556 10.5 323.518 10.5V11.5ZM326.094 10.744L326.751 11.4981C327.585 10.7716 327.962 9.77564 327.962 8.644H326.962H325.962C325.962 9.30436 325.761 9.70837 325.438 9.98992L326.094 10.744ZM326.962 8.644H327.962C327.962 7.50106 327.59 6.49247 326.751 5.76192L326.094 6.516L325.438 7.27008C325.756 7.54753 325.962 7.9576 325.962 8.644H326.962ZM326.094 6.516L326.763 5.77271C325.943 5.03435 324.795 4.76 323.518 4.76V5.76V6.76C324.556 6.76 325.126 6.98965 325.425 7.25929L326.094 6.516ZM323.518 5.76V4.76H317.974V5.76V6.76H323.518V5.76ZM317.974 5.76L318.693 6.45516L321.157 3.90716L320.438 3.212L319.719 2.51684L317.255 5.06484L317.974 5.76ZM320.438 3.212H319.438V14.048H320.438H321.438V3.212H320.438ZM335.621 20.992H334.621V21.992H335.621V20.992ZM335.621 1.392V0.391999H334.621V1.392H335.621ZM349.201 2.26L348.791 3.17218L348.796 3.17435L349.201 2.26ZM352.225 4.78L351.384 5.32149L351.388 5.32802L352.225 4.78ZM352.225 12.48L353.061 13.028L352.225 12.48ZM349.201 15L349.611 15.9122L349.617 15.9095L349.201 15ZM338.701 15.868L338.002 15.1528L336.247 16.868H338.701V15.868ZM341.165 13.46H342.165V11.0845L340.466 12.7448L341.165 13.46ZM341.165 20.992V21.992H342.165V20.992H341.165ZM341.165 14.048L340.446 14.7432L342.165 16.5206V14.048H341.165ZM338.701 11.5V10.5H336.343L337.982 12.1952L338.701 11.5ZM346.821 10.744L346.164 9.98992L346.158 9.99526L346.152 10.0007L346.821 10.744ZM346.821 6.516L346.152 7.25929L346.158 7.26474L346.164 7.27008L346.821 6.516ZM338.701 5.76L337.982 5.06484L336.343 6.76H338.701V5.76ZM341.165 3.212H342.165V0.739387L340.446 2.51684L341.165 3.212ZM335.621 20.992H336.621V1.392H335.621H334.621V20.992H335.621ZM335.621 1.392V2.392H344.581V1.392V0.391999H335.621V1.392ZM344.581 1.392V2.392C346.268 2.392 347.662 2.66476 348.791 3.17217L349.201 2.26L349.611 1.34783C348.164 0.69791 346.477 0.391999 344.581 0.391999V1.392ZM349.201 2.26L348.796 3.17435C349.941 3.68143 350.79 4.39921 351.384 5.32148L352.225 4.78L353.066 4.23852C352.241 2.95812 351.074 1.9959 349.606 1.34565L349.201 2.26ZM352.225 4.78L351.388 5.32802C351.975 6.22393 352.289 7.31468 352.289 8.644H353.289H354.289C354.289 6.98666 353.893 5.5014 353.061 4.23197L352.225 4.78ZM353.289 8.644H352.289C352.289 9.95188 351.977 11.034 351.388 11.932L352.225 12.48L353.061 13.028C353.892 11.7606 354.289 10.2855 354.289 8.644H353.289ZM352.225 12.48L351.388 11.932C350.794 12.8399 349.94 13.5627 348.785 14.0905L349.201 15L349.617 15.9095C351.075 15.2426 352.238 14.2854 353.061 13.028L352.225 12.48ZM349.201 15L348.791 14.0878C347.662 14.5952 346.268 14.868 344.581 14.868V15.868V16.868C346.477 16.868 348.164 16.5621 349.611 15.9122L349.201 15ZM344.581 15.868V14.868H338.701V15.868V16.868H344.581V15.868ZM338.701 15.868L339.4 16.5832L341.864 14.1752L341.165 13.46L340.466 12.7448L338.002 15.1528L338.701 15.868ZM341.165 13.46H340.165V20.992H341.165H342.165V13.46H341.165ZM341.165 20.992V19.992H335.621V20.992V21.992H341.165V20.992ZM341.165 14.048L341.884 13.3528L339.42 10.8048L338.701 11.5L337.982 12.1952L340.446 14.7432L341.165 14.048ZM338.701 11.5V12.5H344.245V11.5V10.5H338.701V11.5ZM344.245 11.5V12.5C345.522 12.5 346.669 12.2257 347.49 11.4873L346.821 10.744L346.152 10.0007C345.852 10.2703 345.283 10.5 344.245 10.5V11.5ZM346.821 10.744L347.478 11.4981C348.312 10.7716 348.689 9.77564 348.689 8.644H347.689H346.689C346.689 9.30436 346.487 9.70837 346.164 9.98992L346.821 10.744ZM347.689 8.644H348.689C348.689 7.50106 348.316 6.49247 347.478 5.76192L346.821 6.516L346.164 7.27008C346.483 7.54753 346.689 7.9576 346.689 8.644H347.689ZM346.821 6.516L347.49 5.77271C346.669 5.03435 345.522 4.76 344.245 4.76V5.76V6.76C345.283 6.76 345.852 6.98965 346.152 7.25929L346.821 6.516ZM344.245 5.76V4.76H338.701V5.76V6.76H344.245V5.76ZM338.701 5.76L339.42 6.45516L341.884 3.90716L341.165 3.212L340.446 2.51684L337.982 5.06484L338.701 5.76ZM341.165 3.212H340.165V14.048H341.165H342.165V3.212H341.165ZM355.992 20.992H354.992V21.992H355.992V20.992ZM355.992 1.392V0.391999H354.992V1.392H355.992ZM369.572 2.26L369.162 3.17218L369.167 3.17435L369.572 2.26ZM372.596 4.78L371.755 5.32149L371.76 5.32802L372.596 4.78ZM372.596 12.48L373.428 13.0347L373.432 13.028L372.596 12.48ZM369.572 14.944L369.971 15.8611L369.977 15.8583L369.572 14.944ZM359.072 15.784L358.386 15.0565L356.554 16.784H359.072V15.784ZM361.536 13.46H362.536V11.1422L360.85 12.7325L361.536 13.46ZM361.536 20.992V21.992H362.536V20.992H361.536ZM368.116 20.992L367.29 21.5556L367.588 21.992H368.116V20.992ZM363.244 13.852V12.852H361.351L362.418 14.4156L363.244 13.852ZM369.152 13.852L369.977 13.2862L369.679 12.852H369.152V13.852ZM374.052 20.992V21.992H375.951L374.876 20.4262L374.052 20.992ZM361.536 14.048L360.817 14.7432L362.536 16.5206V14.048H361.536ZM359.072 11.5V10.5H356.714L358.353 12.1952L359.072 11.5ZM367.192 10.744L366.535 9.98992L366.529 9.99526L366.523 10.0007L367.192 10.744ZM367.192 6.516L366.523 7.25929L366.529 7.26474L366.535 7.27008L367.192 6.516ZM359.072 5.76L358.353 5.06484L356.714 6.76H359.072V5.76ZM361.536 3.212H362.536V0.739387L360.817 2.51684L361.536 3.212ZM355.992 20.992H356.992V1.392H355.992H354.992V20.992H355.992ZM355.992 1.392V2.392H364.952V1.392V0.391999H355.992V1.392ZM364.952 1.392V2.392C366.639 2.392 368.033 2.66476 369.162 3.17217L369.572 2.26L369.982 1.34783C368.535 0.69791 366.849 0.391999 364.952 0.391999V1.392ZM369.572 2.26L369.167 3.17435C370.312 3.68143 371.161 4.39921 371.755 5.32148L372.596 4.78L373.437 4.23852C372.612 2.95812 371.445 1.9959 369.977 1.34565L369.572 2.26ZM372.596 4.78L371.76 5.32802C372.346 6.22393 372.66 7.31468 372.66 8.644H373.66H374.66C374.66 6.98666 374.264 5.5014 373.432 4.23197L372.596 4.78ZM373.66 8.644H372.66C372.66 9.95188 372.348 11.034 371.76 11.932L372.596 12.48L373.432 13.028C374.263 11.7606 374.66 10.2855 374.66 8.644H373.66ZM372.596 12.48L371.764 11.9253C371.172 12.8132 370.321 13.5186 369.167 14.0297L369.572 14.944L369.977 15.8583C371.436 15.2121 372.601 14.2748 373.428 13.0347L372.596 12.48ZM369.572 14.944L369.173 14.0269C368.041 14.5194 366.643 14.784 364.952 14.784V15.784V16.784C366.845 16.784 368.527 16.4886 369.971 15.8611L369.572 14.944ZM364.952 15.784V14.784H359.072V15.784V16.784H364.952V15.784ZM359.072 15.784L359.758 16.5115L362.222 14.1875L361.536 13.46L360.85 12.7325L358.386 15.0565L359.072 15.784ZM361.536 13.46H360.536V20.992H361.536H362.536V13.46H361.536ZM361.536 20.992V19.992H355.992V20.992V21.992H361.536V20.992ZM368.116 20.992L368.942 20.4284L364.07 13.2884L363.244 13.852L362.418 14.4156L367.29 21.5556L368.116 20.992ZM363.244 13.852V14.852H369.152V13.852V12.852H363.244V13.852ZM369.152 13.852L368.327 14.4178L373.227 21.5578L374.052 20.992L374.876 20.4262L369.977 13.2862L369.152 13.852ZM374.052 20.992V19.992H368.116V20.992V21.992H374.052V20.992ZM361.536 14.048L362.255 13.3528L359.791 10.8048L359.072 11.5L358.353 12.1952L360.817 14.7432L361.536 14.048ZM359.072 11.5V12.5H364.616V11.5V10.5H359.072V11.5ZM364.616 11.5V12.5C365.893 12.5 367.041 12.2257 367.861 11.4873L367.192 10.744L366.523 10.0007C366.223 10.2703 365.654 10.5 364.616 10.5V11.5ZM367.192 10.744L367.849 11.4981C368.683 10.7716 369.06 9.77564 369.06 8.644H368.06H367.06C367.06 9.30436 366.858 9.70837 366.535 9.98992L367.192 10.744ZM368.06 8.644H369.06C369.06 7.50106 368.688 6.49247 367.849 5.76192L367.192 6.516L366.535 7.27008C366.854 7.54753 367.06 7.9576 367.06 8.644H368.06ZM367.192 6.516L367.861 5.77271C367.041 5.03435 365.893 4.76 364.616 4.76V5.76V6.76C365.654 6.76 366.223 6.98965 366.523 7.25929L367.192 6.516ZM364.616 5.76V4.76H359.072V5.76V6.76H364.616V5.76ZM359.072 5.76L359.791 6.45516L362.255 3.90716L361.536 3.212L360.817 2.51684L358.353 5.06484L359.072 5.76ZM361.536 3.212H360.536V14.048H361.536H362.536V3.212H361.536ZM376.719 20.992H375.719V21.992H376.719V20.992ZM376.719 1.392V0.391999H375.719V1.392H376.719ZM382.263 1.392H383.263V0.391999H382.263V1.392ZM382.263 20.992V21.992H383.263V20.992H382.263ZM376.719 20.992H377.719V1.392H376.719H375.719V20.992H376.719ZM376.719 1.392V2.392H382.263V1.392V0.391999H376.719V1.392ZM382.263 1.392H381.263V20.992H382.263H383.263V1.392H382.263ZM382.263 20.992V19.992H376.719V20.992V21.992H382.263V20.992ZM388.447 20.796L388.179 21.7593L388.186 21.7613L388.193 21.7632L388.447 20.796ZM384.835 19.228L383.921 18.8213L383.581 19.5849L384.273 20.0549L384.835 19.228ZM386.655 15.14L387.193 14.2971L386.214 13.6721L385.741 14.7333L386.655 15.14ZM389.679 16.54L389.367 17.4902L389.377 17.4933L389.386 17.4961L389.679 16.54ZM394.971 16.876L395.24 17.839L395.258 17.834L395.276 17.8284L394.971 16.876ZM395.979 16.316L395.244 15.6377L395.242 15.6403L395.979 16.316ZM395.699 14.412L395.162 15.2557L395.699 14.412ZM394.103 13.768L394.352 12.7995L394.103 13.768ZM391.919 13.264L391.709 14.2418L391.714 14.2428L391.919 13.264ZM389.539 12.62L389.223 13.5687L389.229 13.5709L389.539 12.62ZM387.383 11.612L386.834 12.4477L386.842 12.4533L386.851 12.4586L387.383 11.612ZM385.787 9.96L384.927 10.4711L384.934 10.4814L385.787 9.96ZM386.123 4.164L385.298 3.59811L385.291 3.6093L386.123 4.164ZM389.035 1.868L388.625 0.955831L389.035 1.868ZM397.631 1.448L397.395 2.41985L397.404 2.42192L397.412 2.42384L397.631 1.448ZM400.963 2.708L401.886 3.09128L402.223 2.28048L401.463 1.84181L400.963 2.708ZM399.255 6.824L398.78 7.70391L399.754 8.23006L400.178 7.20728L399.255 6.824ZM396.483 5.704L396.208 6.66552L396.217 6.66813L396.226 6.67056L396.483 5.704ZM391.975 5.564L392.28 6.51643L392.297 6.51096L392.314 6.50489L391.975 5.564ZM390.967 6.18L390.181 5.56218L390.967 6.18ZM391.247 8.112L390.692 8.94405L390.715 8.95911L390.738 8.97293L391.247 8.112ZM392.843 8.728L392.594 9.69649L392.61 9.70061L392.626 9.70419L392.843 8.728ZM395.027 9.204L394.817 10.1818L394.822 10.1828L395.027 9.204ZM397.407 9.848L397.091 10.7967L397.104 10.8011L397.117 10.8052L397.407 9.848ZM399.591 10.856L399.042 11.6917L399.05 11.6973L399.059 11.7026L399.591 10.856ZM401.159 12.508L400.289 13.0016L400.297 13.0157L400.306 13.0295L401.159 12.508ZM400.795 18.22L399.965 17.6616L399.963 17.6653L400.795 18.22ZM397.911 20.516L397.501 19.6038L397.496 19.6061L397.911 20.516ZM393.095 21.384V20.384C391.572 20.384 390.108 20.1982 388.701 19.8288L388.447 20.796L388.193 21.7632C389.772 22.1778 391.407 22.384 393.095 22.384V21.384ZM388.447 20.796L388.715 19.8327C387.31 19.4415 386.215 18.9571 385.397 18.4011L384.835 19.228L384.273 20.0549C385.321 20.7682 386.634 21.3292 388.179 21.7593L388.447 20.796ZM384.835 19.228L385.748 19.6347L387.568 15.5467L386.655 15.14L385.741 14.7333L383.921 18.8213L384.835 19.228ZM386.655 15.14L386.117 15.9829C387.075 16.5942 388.161 17.0946 389.367 17.4902L389.679 16.54L389.99 15.5898C388.92 15.2387 387.99 14.8058 387.193 14.2971L386.655 15.14ZM389.679 16.54L389.386 17.4961C390.632 17.878 391.879 18.072 393.123 18.072V17.072V16.072C392.09 16.072 391.04 15.9113 389.972 15.5839L389.679 16.54ZM393.123 17.072V18.072C393.933 18.072 394.651 18.0041 395.24 17.839L394.971 16.876L394.701 15.913C394.358 16.0092 393.843 16.072 393.123 16.072V17.072ZM394.971 16.876L395.276 17.8284C395.817 17.6552 396.342 17.3998 396.716 16.9917L395.979 16.316L395.242 15.6403C395.205 15.6802 395.058 15.7981 394.666 15.9236L394.971 16.876ZM395.979 16.316L396.714 16.9943C397.1 16.5752 397.315 16.0558 397.315 15.476H396.315H395.315C395.315 15.5309 395.305 15.5715 395.244 15.6377L395.979 16.316ZM396.315 15.476H397.315C397.315 14.6522 396.905 13.9943 396.236 13.5683L395.699 14.412L395.162 15.2557C395.257 15.3163 395.287 15.3605 395.295 15.375C395.302 15.3861 395.315 15.4111 395.315 15.476H396.315ZM395.699 14.412L396.236 13.5683C395.709 13.2334 395.071 12.9844 394.352 12.7995L394.103 13.768L393.854 14.7365C394.441 14.8876 394.867 15.0679 395.162 15.2557L395.699 14.412ZM394.103 13.768L394.352 12.7995C393.681 12.627 392.938 12.4557 392.124 12.2852L391.919 13.264L391.714 14.2428C392.505 14.4083 393.218 14.573 393.854 14.7365L394.103 13.768ZM391.919 13.264L392.128 12.2862C391.38 12.1258 390.62 11.9203 389.848 11.6691L389.539 12.62L389.229 13.5709C390.063 13.8423 390.89 14.0662 391.709 14.2418L391.919 13.264ZM389.539 12.62L389.855 11.6713C389.142 11.4335 388.496 11.1306 387.915 10.7654L387.383 11.612L386.851 12.4586C387.576 12.9147 388.368 13.2839 389.223 13.5687L389.539 12.62ZM387.383 11.612L387.932 10.7763C387.403 10.4286 386.974 9.98561 386.64 9.43855L385.787 9.96L384.934 10.4814C385.421 11.2784 386.056 11.9367 386.834 12.4477L387.383 11.612ZM385.787 9.96L386.646 9.44892C386.351 8.95278 386.171 8.27436 386.171 7.356H385.171H384.171C384.171 8.52831 384.401 9.58588 384.927 10.4711L385.787 9.96ZM385.171 7.356H386.171C386.171 6.3716 386.433 5.50165 386.955 4.7187L386.123 4.164L385.291 3.6093C384.543 4.73035 384.171 5.9884 384.171 7.356H385.171ZM386.123 4.164L386.947 4.72984C387.476 3.95965 388.287 3.30039 389.445 2.78017L389.035 1.868L388.625 0.955831C387.207 1.59294 386.076 2.46435 385.298 3.59816L386.123 4.164ZM389.035 1.868L389.445 2.78017C390.566 2.27633 392.021 2 393.851 2V0.999999V-9.53674e-07C391.835 -9.53674e-07 390.08 0.30234 388.625 0.955831L389.035 1.868ZM393.851 0.999999V2C395.061 2 396.242 2.14018 397.395 2.41985L397.631 1.448L397.866 0.47615C396.556 0.158484 395.217 -9.53674e-07 393.851 -9.53674e-07V0.999999ZM397.631 1.448L397.412 2.42384C398.578 2.68485 399.592 3.07142 400.463 3.57418L400.963 2.708L401.463 1.84181C400.393 1.22457 399.185 0.771151 397.849 0.472157L397.631 1.448ZM400.963 2.708L400.039 2.32472L398.331 6.44072L399.255 6.824L400.178 7.20728L401.886 3.09128L400.963 2.708ZM399.255 6.824L399.73 5.94409C398.736 5.40713 397.738 5.00254 396.739 4.73744L396.483 5.704L396.226 6.67056C397.056 6.89079 397.907 7.23286 398.78 7.70391L399.255 6.824ZM396.483 5.704L396.758 4.74248C395.763 4.45833 394.784 4.312 393.823 4.312V5.312V6.312C394.579 6.312 395.373 6.427 396.208 6.66552L396.483 5.704ZM393.823 5.312V4.312C392.998 4.312 392.254 4.40075 391.636 4.62311L391.975 5.564L392.314 6.50489C392.629 6.39125 393.117 6.312 393.823 6.312V5.312ZM391.975 5.564L391.67 4.61158C391.098 4.79449 390.555 5.08551 390.181 5.56218L390.967 6.18L391.753 6.79782C391.789 6.75182 391.918 6.63218 392.28 6.51643L391.975 5.564ZM390.967 6.18L390.181 5.56218C389.835 6.00179 389.659 6.51861 389.659 7.076H390.659H391.659C391.659 6.96139 391.688 6.88088 391.753 6.79782L390.967 6.18ZM390.659 7.076H389.659C389.659 7.87637 390.054 8.51856 390.692 8.94405L391.247 8.112L391.802 7.27995C391.711 7.21989 391.683 7.17707 391.676 7.16339C391.67 7.15333 391.659 7.13211 391.659 7.076H390.659ZM391.247 8.112L390.738 8.97293C391.256 9.27875 391.884 9.51391 392.594 9.69649L392.843 8.728L393.092 7.75951C392.495 7.60609 392.059 7.43059 391.756 7.25107L391.247 8.112ZM392.843 8.728L392.626 9.70419C393.301 9.85415 394.031 10.0134 394.817 10.1818L395.027 9.204L395.236 8.2262C394.454 8.05864 393.729 7.90052 393.06 7.75181L392.843 8.728ZM395.027 9.204L394.822 10.1828C395.587 10.3428 396.343 10.5474 397.091 10.7967L397.407 9.848L397.723 8.89932C396.903 8.62591 396.072 8.40115 395.232 8.22521L395.027 9.204ZM397.407 9.848L397.117 10.8052C397.835 11.0221 398.474 11.3188 399.042 11.6917L399.591 10.856L400.14 10.0203C399.401 9.5345 398.584 9.15925 397.696 8.89079L397.407 9.848ZM399.591 10.856L399.059 11.7026C399.568 12.0227 399.976 12.4504 400.289 13.0016L401.159 12.508L402.029 12.0144C401.557 11.1843 400.92 10.5106 400.123 10.0094L399.591 10.856ZM401.159 12.508L400.306 13.0295C400.595 13.5035 400.775 14.1586 400.775 15.056H401.775H402.775C402.775 13.9 402.544 12.8565 402.012 11.9865L401.159 12.508ZM401.775 15.056H400.775C400.775 15.99 400.511 16.8512 399.965 17.6616L400.795 18.22L401.624 18.7784C402.386 17.6475 402.775 16.3993 402.775 15.056H401.775ZM400.795 18.22L399.963 17.6653C399.454 18.4278 398.658 19.0842 397.501 19.6038L397.911 20.516L398.321 21.4282C399.74 20.7905 400.866 19.9162 401.627 18.7747L400.795 18.22ZM397.911 20.516L397.496 19.6061C396.397 20.1069 394.945 20.384 393.095 20.384V21.384V22.384C395.127 22.384 396.886 22.0824 398.326 21.4259L397.911 20.516ZM409.432 8.98V7.98H408.432V8.98H409.432ZM418.532 8.98H419.532V7.98H418.532V8.98ZM418.532 13.124V14.124H419.532V13.124H418.532ZM409.432 13.124H408.432V14.124H409.432V13.124ZM409.824 16.708H408.824V17.708H409.824V16.708ZM420.072 16.708H421.072V15.708H420.072V16.708ZM420.072 20.992V21.992H421.072V20.992H420.072ZM404.336 20.992H403.336V21.992H404.336V20.992ZM404.336 1.392V0.391999H403.336V1.392H404.336ZM419.708 1.392H420.708V0.391999H419.708V1.392ZM419.708 5.676V6.676H420.708V5.676H419.708ZM409.824 5.676V4.676H408.824V5.676H409.824ZM409.432 8.98V9.98H418.532V8.98V7.98H409.432V8.98ZM418.532 8.98H417.532V13.124H418.532H419.532V8.98H418.532ZM418.532 13.124V12.124H409.432V13.124V14.124H418.532V13.124ZM409.432 13.124H410.432V8.98H409.432H408.432V13.124H409.432ZM409.824 16.708V17.708H420.072V16.708V15.708H409.824V16.708ZM420.072 16.708H419.072V20.992H420.072H421.072V16.708H420.072ZM420.072 20.992V19.992H404.336V20.992V21.992H420.072V20.992ZM404.336 20.992H405.336V1.392H404.336H403.336V20.992H404.336ZM404.336 1.392V2.392H419.708V1.392V0.391999H404.336V1.392ZM419.708 1.392H418.708V5.676H419.708H420.708V1.392H419.708ZM419.708 5.676V4.676H409.824V5.676V6.676H419.708V5.676ZM409.824 5.676H408.824V16.708H409.824H410.824V5.676H409.824ZM425.388 20.796L425.12 21.7593L425.127 21.7613L425.134 21.7632L425.388 20.796ZM421.776 19.228L420.863 18.8213L420.523 19.5849L421.214 20.0549L421.776 19.228ZM423.596 15.14L424.134 14.2971L423.155 13.6721L422.683 14.7333L423.596 15.14ZM426.62 16.54L426.309 17.4902L426.318 17.4933L426.327 17.4961L426.62 16.54ZM431.912 16.876L432.182 17.839L432.2 17.834L432.217 17.8284L431.912 16.876ZM432.92 16.316L432.185 15.6377L432.183 15.6403L432.92 16.316ZM432.64 14.412L432.103 15.2557L432.64 14.412ZM431.044 13.768L431.293 12.7995L431.044 13.768ZM428.86 13.264L428.651 14.2418L428.655 14.2428L428.86 13.264ZM426.48 12.62L426.164 13.5687L426.171 13.5709L426.48 12.62ZM424.324 11.612L423.775 12.4477L423.784 12.4533L423.792 12.4586L424.324 11.612ZM422.728 9.96L421.869 10.4711L421.875 10.4814L422.728 9.96ZM423.064 4.164L422.24 3.59811L422.232 3.6093L423.064 4.164ZM425.976 1.868L425.566 0.955831L425.976 1.868ZM434.572 1.448L434.337 2.41985L434.345 2.42192L434.354 2.42384L434.572 1.448ZM437.904 2.708L438.828 3.09128L439.164 2.28048L438.404 1.84181L437.904 2.708ZM436.196 6.824L435.721 7.70391L436.695 8.23006L437.12 7.20728L436.196 6.824ZM433.424 5.704L433.15 6.66552L433.159 6.66813L433.168 6.67056L433.424 5.704ZM428.916 5.564L429.221 6.51643L429.238 6.51096L429.255 6.50489L428.916 5.564ZM427.908 6.18L427.122 5.56218L427.908 6.18ZM428.188 8.112L427.634 8.94405L427.656 8.95911L427.68 8.97293L428.188 8.112ZM429.784 8.728L429.535 9.69649L429.551 9.70061L429.567 9.70419L429.784 8.728ZM431.968 9.204L431.759 10.1818L431.763 10.1828L431.968 9.204ZM434.348 9.848L434.032 10.7967L434.045 10.8011L434.059 10.8052L434.348 9.848ZM436.532 10.856L435.983 11.6917L435.992 11.6973L436 11.7026L436.532 10.856ZM438.1 12.508L437.231 13.0016L437.239 13.0157L437.247 13.0295L438.1 12.508ZM437.736 18.22L436.907 17.6616L436.904 17.6653L437.736 18.22ZM434.852 20.516L434.442 19.6038L434.437 19.6061L434.852 20.516ZM430.036 21.384V20.384C428.513 20.384 427.049 20.1982 425.642 19.8288L425.388 20.796L425.134 21.7632C426.714 22.1778 428.349 22.384 430.036 22.384V21.384ZM425.388 20.796L425.656 19.8327C424.252 19.4415 423.156 18.9571 422.339 18.4011L421.776 19.228L421.214 20.0549C422.263 20.7682 423.575 21.3292 425.12 21.7593L425.388 20.796ZM421.776 19.228L422.69 19.6347L424.51 15.5467L423.596 15.14L422.683 14.7333L420.863 18.8213L421.776 19.228ZM423.596 15.14L423.058 15.9829C424.016 16.5942 425.102 17.0946 426.309 17.4902L426.62 16.54L426.932 15.5898C425.861 15.2387 424.931 14.8058 424.134 14.2971L423.596 15.14ZM426.62 16.54L426.327 17.4961C427.574 17.878 428.82 18.072 430.064 18.072V17.072V16.072C429.031 16.072 427.982 15.9113 426.913 15.5839L426.62 16.54ZM430.064 17.072V18.072C430.875 18.072 431.592 18.0041 432.182 17.839L431.912 16.876L431.643 15.913C431.299 16.0092 430.785 16.072 430.064 16.072V17.072ZM431.912 16.876L432.217 17.8284C432.758 17.6552 433.283 17.3998 433.657 16.9917L432.92 16.316L432.183 15.6403C432.146 15.6802 432 15.7981 431.607 15.9236L431.912 16.876ZM432.92 16.316L433.655 16.9943C434.042 16.5752 434.256 16.0558 434.256 15.476H433.256H432.256C432.256 15.5309 432.247 15.5715 432.185 15.6377L432.92 16.316ZM433.256 15.476H434.256C434.256 14.6522 433.846 13.9943 433.177 13.5683L432.64 14.412L432.103 15.2557C432.199 15.3163 432.228 15.3605 432.237 15.375C432.243 15.3861 432.256 15.4111 432.256 15.476H433.256ZM432.64 14.412L433.177 13.5683C432.651 13.2334 432.012 12.9844 431.293 12.7995L431.044 13.768L430.795 14.7365C431.383 14.8876 431.808 15.0679 432.103 15.2557L432.64 14.412ZM431.044 13.768L431.293 12.7995C430.623 12.627 429.88 12.4557 429.065 12.2852L428.86 13.264L428.655 14.2428C429.446 14.4083 430.159 14.573 430.795 14.7365L431.044 13.768ZM428.86 13.264L429.07 12.2862C428.321 12.1258 427.561 11.9203 426.79 11.6691L426.48 12.62L426.171 13.5709C427.004 13.8423 427.831 14.0662 428.651 14.2418L428.86 13.264ZM426.48 12.62L426.796 11.6713C426.083 11.4335 425.438 11.1306 424.856 10.7654L424.324 11.612L423.792 12.4586C424.518 12.9147 425.31 13.2839 426.164 13.5687L426.48 12.62ZM424.324 11.612L424.873 10.7763C424.344 10.4286 423.916 9.98561 423.582 9.43855L422.728 9.96L421.875 10.4814C422.362 11.2784 422.997 11.9367 423.775 12.4477L424.324 11.612ZM422.728 9.96L423.588 9.44892C423.293 8.95278 423.112 8.27436 423.112 7.356H422.112H421.112C421.112 8.52831 421.342 9.58588 421.869 10.4711L422.728 9.96ZM422.112 7.356H423.112C423.112 6.3716 423.374 5.50165 423.896 4.7187L423.064 4.164L422.232 3.6093C421.485 4.73035 421.112 5.9884 421.112 7.356H422.112ZM423.064 4.164L423.889 4.72984C424.417 3.95965 425.228 3.30039 426.386 2.78017L425.976 1.868L425.566 0.955831C424.148 1.59294 423.018 2.46435 422.24 3.59816L423.064 4.164ZM425.976 1.868L426.386 2.78017C427.508 2.27633 428.963 2 430.792 2V0.999999V-9.53674e-07C428.776 -9.53674e-07 427.021 0.30234 425.566 0.955831L425.976 1.868ZM430.792 0.999999V2C432.002 2 433.183 2.14018 434.337 2.41985L434.572 1.448L434.808 0.47615C433.497 0.158484 432.158 -9.53674e-07 430.792 -9.53674e-07V0.999999ZM434.572 1.448L434.354 2.42384C435.52 2.68485 436.533 3.07142 437.405 3.57418L437.904 2.708L438.404 1.84181C437.334 1.22457 436.126 0.771151 434.791 0.472157L434.572 1.448ZM437.904 2.708L436.981 2.32472L435.273 6.44072L436.196 6.824L437.12 7.20728L438.828 3.09128L437.904 2.708ZM436.196 6.824L436.671 5.94409C435.677 5.40713 434.68 5.00254 433.681 4.73744L433.424 5.704L433.168 6.67056C433.998 6.89079 434.849 7.23286 435.721 7.70391L436.196 6.824ZM433.424 5.704L433.699 4.74248C432.704 4.45833 431.725 4.312 430.764 4.312V5.312V6.312C431.521 6.312 432.315 6.427 433.15 6.66552L433.424 5.704ZM430.764 5.312V4.312C429.939 4.312 429.195 4.40075 428.578 4.62311L428.916 5.564L429.255 6.50489C429.571 6.39125 430.059 6.312 430.764 6.312V5.312ZM428.916 5.564L428.611 4.61158C428.04 4.79449 427.496 5.08551 427.122 5.56218L427.908 6.18L428.695 6.79782C428.731 6.75182 428.859 6.63218 429.221 6.51643L428.916 5.564ZM427.908 6.18L427.122 5.56218C426.777 6.00179 426.6 6.51861 426.6 7.076H427.6H428.6C428.6 6.96139 428.629 6.88088 428.695 6.79782L427.908 6.18ZM427.6 7.076H426.6C426.6 7.87637 426.995 8.51856 427.634 8.94405L428.188 8.112L428.743 7.27995C428.653 7.21989 428.625 7.17707 428.617 7.16339C428.611 7.15333 428.6 7.13211 428.6 7.076H427.6ZM428.188 8.112L427.68 8.97293C428.197 9.27875 428.825 9.51391 429.535 9.69649L429.784 8.728L430.033 7.75951C429.437 7.60609 429.001 7.43059 428.697 7.25107L428.188 8.112ZM429.784 8.728L429.567 9.70419C430.242 9.85415 430.973 10.0134 431.759 10.1818L431.968 9.204L432.178 8.2262C431.396 8.05864 430.67 7.90052 430.001 7.75181L429.784 8.728ZM431.968 9.204L431.763 10.1828C432.528 10.3428 433.284 10.5474 434.032 10.7967L434.348 9.848L434.664 8.89932C433.844 8.62591 433.014 8.40115 432.173 8.22521L431.968 9.204ZM434.348 9.848L434.059 10.8052C434.776 11.0221 435.416 11.3188 435.983 11.6917L436.532 10.856L437.081 10.0203C436.342 9.5345 435.526 9.15925 434.638 8.89079L434.348 9.848ZM436.532 10.856L436 11.7026C436.509 12.0227 436.918 12.4504 437.231 13.0016L438.1 12.508L438.97 12.0144C438.499 11.1843 437.862 10.5106 437.064 10.0094L436.532 10.856ZM438.1 12.508L437.247 13.0295C437.537 13.5035 437.716 14.1586 437.716 15.056H438.716H439.716C439.716 13.9 439.485 12.8565 438.954 11.9865L438.1 12.508ZM438.716 15.056H437.716C437.716 15.99 437.452 16.8512 436.907 17.6616L437.736 18.22L438.566 18.7784C439.327 17.6475 439.716 16.3993 439.716 15.056H438.716ZM437.736 18.22L436.904 17.6653C436.396 18.4278 435.599 19.0842 434.442 19.6038L434.852 20.516L435.262 21.4282C436.681 20.7905 437.807 19.9162 438.568 18.7747L437.736 18.22ZM434.852 20.516L434.437 19.6061C433.339 20.1069 431.887 20.384 430.036 20.384V21.384V22.384C432.068 22.384 433.827 22.0824 435.267 21.4259L434.852 20.516Z" fill="url(#paint1_linear_176_40)" mask="url(#path-1-outside-1_176_40)"/>
<defs>
<linearGradient id="paint0_linear_176_40" x1="220.927" y1="-6.008" x2="220.927" y2="27.992" gradientUnits="userSpaceOnUse">
<stop stop-color="#FFD54F"/>
<stop offset="0.55" stop-color="#E3A008"/>
<stop offset="1" stop-color="#A0522D"/>
</linearGradient>
<linearGradient id="paint1_linear_176_40" x1="220.927" y1="-6.008" x2="220.927" y2="27.992" gradientUnits="userSpaceOnUse">
<stop stop-color="#E67E22"/>
<stop offset="0.6" stop-color="#A0522D"/>
</linearGradient>
</defs>
</svg>
